<svg width="183" height="149" viewBox="0 0 183 149" fill="none" xmlns="http://www.w3.org/2000/svg">
<circle cx="91.1258" cy="41.3497" r="41.3497" fill="white"/>
<g filter="url(#filter0_d_347_3598)">
<path d="M4.58 116V115.42C5.11333 115.167 5.66 115.007 6.22 114.94V103.08C5.95333 103.027 5.68 102.96 5.4 102.88C5.12 102.787 4.84667 102.687 4.58 102.58V102H6.7C6.95333 102 7.19333 101.993 7.42 101.98C7.66 101.967 7.90667 101.953 8.16 101.94C8.41333 101.927 8.68667 101.913 8.98 101.9C9.27333 101.887 9.60667 101.88 9.98 101.88C10.5133 101.88 11.0533 101.927 11.6 102.02C12.16 102.1 12.66 102.26 13.1 102.5C13.5533 102.74 13.92 103.08 14.2 103.52C14.48 103.947 14.62 104.507 14.62 105.2C14.62 105.547 14.5667 105.893 14.46 106.24C14.3533 106.587 14.1867 106.913 13.96 107.22C13.7467 107.513 13.4733 107.773 13.14 108C12.8067 108.227 12.4133 108.393 11.96 108.5V108.58C12.36 108.647 12.7533 108.76 13.14 108.92C13.54 109.08 13.8933 109.3 14.2 109.58C14.5067 109.847 14.7533 110.18 14.94 110.58C15.14 110.98 15.24 111.46 15.24 112.02C15.24 112.74 15.08 113.36 14.76 113.88C14.44 114.4 14.02 114.827 13.5 115.16C12.9933 115.493 12.4133 115.74 11.76 115.9C11.1067 116.047 10.4467 116.12 9.78 116.12C9.31333 116.12 8.78667 116.1 8.2 116.06C7.61333 116.02 7.04667 116 6.5 116H4.58ZM9.92 115.08C10.4 115.08 10.8467 115.007 11.26 114.86C11.6867 114.713 12.0467 114.513 12.34 114.26C12.6467 113.993 12.8867 113.68 13.06 113.32C13.2333 112.947 13.32 112.547 13.32 112.12C13.32 111.587 13.2133 111.147 13 110.8C12.8 110.44 12.52 110.16 12.16 109.96C11.8133 109.747 11.4067 109.6 10.94 109.52C10.4867 109.44 10.0133 109.4 9.52 109.4H8.02V114.92C8.20667 114.973 8.42667 115.013 8.68 115.04C8.94667 115.067 9.36 115.08 9.92 115.08ZM9.02 108.36C9.24667 108.36 9.51333 108.353 9.82 108.34C10.14 108.313 10.4 108.287 10.6 108.26C11.2133 108.047 11.7133 107.707 12.1 107.24C12.5 106.76 12.7 106.2 12.7 105.56C12.7 104.68 12.4333 104.02 11.9 103.58C11.38 103.14 10.68 102.92 9.8 102.92C9.38667 102.92 9.03333 102.927 8.74 102.94C8.44667 102.953 8.20667 102.973 8.02 103V108.36H9.02ZM16.8847 102H22.3647V102.58C22.0447 102.7 21.7247 102.807 21.4047 102.9C21.0847 102.98 20.7647 103.04 20.4447 103.08V114.96H25.0447L26.2247 111.74H26.7447C26.7847 112.02 26.818 112.347 26.8447 112.72C26.8847 113.08 26.9114 113.46 26.9247 113.86C26.9514 114.247 26.9647 114.627 26.9647 115C26.9647 115.373 26.958 115.707 26.9447 116H16.8847V115.42C17.2047 115.273 17.498 115.167 17.7647 115.1C18.0314 115.033 18.2847 114.98 18.5247 114.94V103.08C18.218 103.027 17.9247 102.96 17.6447 102.88C17.3647 102.787 17.1114 102.687 16.8847 102.58V102ZM31.7213 116H27.2812V115.42C27.7613 115.207 28.2413 115.047 28.7213 114.94L33.7813 101.76H34.3613L39.4213 114.94C39.6879 114.993 39.9479 115.053 40.2013 115.12C40.4679 115.187 40.7146 115.287 40.9413 115.42V116H35.8213V115.42C36.0879 115.313 36.3613 115.22 36.6413 115.14C36.9213 115.06 37.1946 114.993 37.4613 114.94L36.1013 111.28H31.3213L30.0013 114.94C30.5613 115.02 31.1346 115.18 31.7213 115.42V116ZM31.7213 110.24H35.7613L34.1813 106L33.8013 104.28H33.7613L33.2613 106.04L31.7213 110.24ZM50.6736 102H54.9936V102.58C54.4336 102.953 53.8869 103.22 53.3536 103.38V116.24H52.2136L44.9536 105.22L44.1736 103.66H44.1136L44.2936 105.22V114.72C44.8403 114.867 45.3536 115.1 45.8336 115.42V116H41.5136V115.42C41.7536 115.273 42.0069 115.147 42.2736 115.04C42.5536 114.92 42.8469 114.813 43.1536 114.72V103.26C42.8869 103.153 42.6203 103.04 42.3536 102.92C42.1003 102.8 41.8603 102.68 41.6336 102.56V102H45.0136L51.3136 111.5L52.2336 113.22H52.3136L52.2136 111.5V103.38C51.9336 103.26 51.6603 103.133 51.3936 103C51.1403 102.867 50.9003 102.727 50.6736 102.58V102ZM66.522 112.36H67.042C67.1087 112.733 67.1687 113.207 67.222 113.78C67.2754 114.34 67.2887 114.887 67.262 115.42C67.062 115.58 66.822 115.713 66.542 115.82C66.262 115.913 65.962 115.993 65.642 116.06C65.3354 116.127 65.0154 116.173 64.682 116.2C64.362 116.227 64.0554 116.24 63.762 116.24C62.642 116.24 61.642 116.1 60.762 115.82C59.882 115.527 59.1354 115.087 58.522 114.5C57.922 113.913 57.4554 113.167 57.122 112.26C56.802 111.34 56.642 110.253 56.642 109C56.642 107.693 56.822 106.587 57.182 105.68C57.542 104.76 58.0287 104.013 58.642 103.44C59.2554 102.853 59.9687 102.427 60.782 102.16C61.5954 101.893 62.4487 101.76 63.342 101.76C64.222 101.76 64.962 101.82 65.562 101.94C66.162 102.047 66.6887 102.213 67.142 102.44C67.142 102.653 67.1354 102.907 67.122 103.2C67.1087 103.48 67.0887 103.78 67.062 104.1C67.0354 104.42 67.002 104.733 66.962 105.04C66.922 105.347 66.882 105.627 66.842 105.88H66.322L65.282 103C65.1354 102.92 64.8887 102.867 64.542 102.84C64.2087 102.813 63.8754 102.8 63.542 102.8C62.8754 102.8 62.242 102.927 61.642 103.18C61.0554 103.42 60.5354 103.8 60.082 104.32C59.642 104.827 59.2887 105.473 59.022 106.26C58.7554 107.033 58.622 107.947 58.622 109C58.622 109.947 58.742 110.807 58.982 111.58C59.222 112.34 59.5687 112.993 60.022 113.54C60.4754 114.073 61.0287 114.487 61.682 114.78C62.3354 115.06 63.0754 115.2 63.902 115.2C64.342 115.2 64.7087 115.167 65.002 115.1C65.2954 115.033 65.4887 114.947 65.582 114.84L66.522 112.36ZM73.8964 116V115.42C74.3631 115.207 74.9097 115.047 75.5364 114.94V103.08C75.2297 103.013 74.9364 102.94 74.6564 102.86C74.3764 102.767 74.1231 102.673 73.8964 102.58V102H75.9364C76.1631 102 76.4297 101.993 76.7364 101.98C77.0431 101.967 77.3564 101.953 77.6764 101.94C78.0097 101.913 78.3231 101.893 78.6164 101.88C78.9231 101.853 79.1764 101.84 79.3764 101.84C81.6431 101.84 83.3831 102.447 84.5964 103.66C85.8231 104.873 86.4364 106.593 86.4364 108.82C86.4364 109.873 86.2831 110.853 85.9764 111.76C85.6831 112.653 85.2297 113.427 84.6164 114.08C84.0031 114.733 83.2231 115.247 82.2764 115.62C81.3431 115.993 80.2364 116.18 78.9564 116.18C78.7564 116.18 78.5297 116.167 78.2764 116.14C78.0231 116.127 77.7564 116.107 77.4764 116.08C77.1964 116.067 76.9097 116.047 76.6164 116.02C76.3364 116.007 76.0697 116 75.8164 116H73.8964ZM79.0964 102.88C78.7497 102.88 78.4164 102.887 78.0964 102.9C77.7764 102.9 77.5231 102.92 77.3364 102.96V115.08C77.4031 115.093 77.5231 115.107 77.6964 115.12C77.8697 115.12 78.0564 115.127 78.2564 115.14C78.4564 115.14 78.6431 115.14 78.8164 115.14C79.0031 115.14 79.1364 115.14 79.2164 115.14C80.1364 115.14 80.9164 114.967 81.5564 114.62C82.1964 114.273 82.7164 113.813 83.1164 113.24C83.5297 112.653 83.8297 111.98 84.0164 111.22C84.2031 110.46 84.2964 109.66 84.2964 108.82C84.2964 108.167 84.2031 107.493 84.0164 106.8C83.8431 106.093 83.5497 105.453 83.1364 104.88C82.7364 104.293 82.2031 103.813 81.5364 103.44C80.8697 103.067 80.0564 102.88 79.0964 102.88ZM97.5366 102C97.5232 102.533 97.4966 103.073 97.4566 103.62C97.4299 104.153 97.3832 104.693 97.3166 105.24H96.7966L95.9766 103.04H91.6166V108.34H94.8766L95.6566 106.86H96.1566C96.2366 108.18 96.2366 109.527 96.1566 110.9H95.6566L94.8766 109.38H91.6166V114.96H96.2166L97.1966 112.56H97.6966C97.7899 113.12 97.8566 113.687 97.8966 114.26C97.9366 114.833 97.9432 115.413 97.9166 116H88.0566V115.42C88.5232 115.207 89.0699 115.047 89.6966 114.94V103.08C89.4299 103.027 89.1566 102.96 88.8766 102.88C88.5966 102.787 88.3232 102.687 88.0566 102.58V102H97.5366ZM104.56 116V115.42C105.094 115.167 105.64 115.007 106.2 114.94V103.08C105.934 103.027 105.66 102.96 105.38 102.88C105.1 102.787 104.827 102.687 104.56 102.58V102H106.68C106.934 102 107.174 101.993 107.4 101.98C107.64 101.967 107.887 101.953 108.14 101.94C108.394 101.927 108.667 101.913 108.96 101.9C109.254 101.887 109.587 101.88 109.96 101.88C110.494 101.88 111.034 101.927 111.58 102.02C112.14 102.1 112.64 102.26 113.08 102.5C113.534 102.74 113.9 103.08 114.18 103.52C114.46 103.947 114.6 104.507 114.6 105.2C114.6 105.547 114.547 105.893 114.44 106.24C114.334 106.587 114.167 106.913 113.94 107.22C113.727 107.513 113.454 107.773 113.12 108C112.787 108.227 112.394 108.393 111.94 108.5V108.58C112.34 108.647 112.734 108.76 113.12 108.92C113.52 109.08 113.874 109.3 114.18 109.58C114.487 109.847 114.734 110.18 114.92 110.58C115.12 110.98 115.22 111.46 115.22 112.02C115.22 112.74 115.06 113.36 114.74 113.88C114.42 114.4 114 114.827 113.48 115.16C112.974 115.493 112.394 115.74 111.74 115.9C111.087 116.047 110.427 116.12 109.76 116.12C109.294 116.12 108.767 116.1 108.18 116.06C107.594 116.02 107.027 116 106.48 116H104.56ZM109.9 115.08C110.38 115.08 110.827 115.007 111.24 114.86C111.667 114.713 112.027 114.513 112.32 114.26C112.627 113.993 112.867 113.68 113.04 113.32C113.214 112.947 113.3 112.547 113.3 112.12C113.3 111.587 113.194 111.147 112.98 110.8C112.78 110.44 112.5 110.16 112.14 109.96C111.794 109.747 111.387 109.6 110.92 109.52C110.467 109.44 109.994 109.4 109.5 109.4H108V114.92C108.187 114.973 108.407 115.013 108.66 115.04C108.927 115.067 109.34 115.08 109.9 115.08ZM109 108.36C109.227 108.36 109.494 108.353 109.8 108.34C110.12 108.313 110.38 108.287 110.58 108.26C111.194 108.047 111.694 107.707 112.08 107.24C112.48 106.76 112.68 106.2 112.68 105.56C112.68 104.68 112.414 104.02 111.88 103.58C111.36 103.14 110.66 102.92 109.78 102.92C109.367 102.92 109.014 102.927 108.72 102.94C108.427 102.953 108.187 102.973 108 103V108.36H109ZM116.865 102H122.345V102.58C122.025 102.7 121.705 102.807 121.385 102.9C121.065 102.98 120.745 103.04 120.425 103.08V114.96H125.025L126.205 111.74H126.725C126.765 112.02 126.798 112.347 126.825 112.72C126.865 113.08 126.892 113.46 126.905 113.86C126.932 114.247 126.945 114.627 126.945 115C126.945 115.373 126.938 115.707 126.925 116H116.865V115.42C117.185 115.273 117.478 115.167 117.745 115.1C118.012 115.033 118.265 114.98 118.505 114.94V103.08C118.198 103.027 117.905 102.96 117.625 102.88C117.345 102.787 117.092 102.687 116.865 102.58V102ZM131.702 116H127.262V115.42C127.742 115.207 128.222 115.047 128.702 114.94L133.762 101.76H134.342L139.402 114.94C139.668 114.993 139.928 115.053 140.182 115.12C140.448 115.187 140.695 115.287 140.922 115.42V116H135.802V115.42C136.068 115.313 136.342 115.22 136.622 115.14C136.902 115.06 137.175 114.993 137.442 114.94L136.082 111.28H131.302L129.982 114.94C130.542 115.02 131.115 115.18 131.702 115.42V116ZM131.702 110.24H135.742L134.162 106L133.782 104.28H133.742L133.242 106.04L131.702 110.24ZM150.654 102H154.974V102.58C154.414 102.953 153.867 103.22 153.334 103.38V116.24H152.194L144.934 105.22L144.154 103.66H144.094L144.274 105.22V114.72C144.821 114.867 145.334 115.1 145.814 115.42V116H141.494V115.42C141.734 115.273 141.987 115.147 142.254 115.04C142.534 114.92 142.827 114.813 143.134 114.72V103.26C142.867 103.153 142.601 103.04 142.334 102.92C142.081 102.8 141.841 102.68 141.614 102.56V102H144.994L151.294 111.5L152.214 113.22H152.294L152.194 111.5V103.38C151.914 103.26 151.641 103.133 151.374 103C151.121 102.867 150.881 102.727 150.654 102.58V102ZM166.503 112.36H167.023C167.089 112.733 167.149 113.207 167.203 113.78C167.256 114.34 167.269 114.887 167.243 115.42C167.043 115.58 166.803 115.713 166.523 115.82C166.243 115.913 165.943 115.993 165.623 116.06C165.316 116.127 164.996 116.173 164.663 116.2C164.343 116.227 164.036 116.24 163.743 116.24C162.623 116.24 161.623 116.1 160.743 115.82C159.863 115.527 159.116 115.087 158.502 114.5C157.903 113.913 157.436 113.167 157.103 112.26C156.783 111.34 156.623 110.253 156.623 109C156.623 107.693 156.803 106.587 157.163 105.68C157.523 104.76 158.009 104.013 158.623 103.44C159.236 102.853 159.949 102.427 160.763 102.16C161.576 101.893 162.429 101.76 163.323 101.76C164.203 101.76 164.943 101.82 165.543 101.94C166.143 102.047 166.669 102.213 167.123 102.44C167.123 102.653 167.116 102.907 167.103 103.2C167.089 103.48 167.069 103.78 167.043 104.1C167.016 104.42 166.983 104.733 166.943 105.04C166.903 105.347 166.863 105.627 166.823 105.88H166.303L165.263 103C165.116 102.92 164.869 102.867 164.523 102.84C164.189 102.813 163.856 102.8 163.523 102.8C162.856 102.8 162.223 102.927 161.623 103.18C161.036 103.42 160.516 103.8 160.063 104.32C159.623 104.827 159.269 105.473 159.003 106.26C158.736 107.033 158.603 107.947 158.603 109C158.603 109.947 158.723 110.807 158.963 111.58C159.203 112.34 159.549 112.993 160.003 113.54C160.456 114.073 161.009 114.487 161.663 114.78C162.316 115.06 163.056 115.2 163.883 115.2C164.323 115.2 164.689 115.167 164.983 115.1C165.276 115.033 165.469 114.947 165.562 114.84L166.503 112.36ZM171.434 114.62C171.594 114.78 171.8 114.92 172.054 115.04C172.307 115.147 172.687 115.2 173.194 115.2C173.62 115.2 174.02 115.147 174.394 115.04C174.767 114.92 175.087 114.753 175.354 114.54C175.634 114.313 175.854 114.047 176.014 113.74C176.174 113.42 176.254 113.06 176.254 112.66C176.254 112.127 176.087 111.68 175.754 111.32C175.434 110.96 175.027 110.64 174.534 110.36C174.054 110.08 173.527 109.807 172.954 109.54C172.38 109.273 171.847 108.96 171.354 108.6C170.874 108.227 170.467 107.787 170.134 107.28C169.814 106.76 169.654 106.113 169.654 105.34C169.654 104.78 169.754 104.28 169.954 103.84C170.154 103.4 170.434 103.027 170.794 102.72C171.167 102.413 171.607 102.18 172.114 102.02C172.62 101.847 173.187 101.76 173.814 101.76C174.627 101.76 175.367 101.827 176.034 101.96C176.714 102.08 177.247 102.233 177.634 102.42C177.634 102.647 177.614 102.913 177.574 103.22C177.547 103.513 177.507 103.82 177.454 104.14C177.414 104.46 177.367 104.773 177.314 105.08C177.26 105.373 177.207 105.633 177.154 105.86H176.634L175.834 103.12C175.594 103.013 175.287 102.933 174.914 102.88C174.554 102.827 174.167 102.8 173.754 102.8C173.074 102.8 172.527 102.993 172.114 103.38C171.7 103.753 171.494 104.28 171.494 104.96C171.494 105.507 171.654 105.967 171.974 106.34C172.307 106.713 172.72 107.047 173.214 107.34C173.707 107.633 174.234 107.92 174.794 108.2C175.367 108.467 175.9 108.78 176.394 109.14C176.887 109.5 177.294 109.927 177.614 110.42C177.947 110.913 178.114 111.527 178.114 112.26C178.114 112.86 178 113.407 177.774 113.9C177.56 114.393 177.247 114.813 176.834 115.16C176.42 115.507 175.914 115.773 175.314 115.96C174.714 116.147 174.034 116.24 173.274 116.24C172.434 116.24 171.68 116.14 171.014 115.94C170.347 115.74 169.874 115.527 169.594 115.3C169.607 115.073 169.627 114.8 169.654 114.48C169.694 114.16 169.734 113.833 169.774 113.5C169.827 113.153 169.88 112.82 169.934 112.5C169.987 112.18 170.04 111.907 170.094 111.68H170.614L171.434 114.62Z" fill="white"/>
</g>
<g filter="url(#filter1_d_347_3598)">
<path d="M30.7429 130.159C31.5632 130.916 31.9734 131.85 31.9734 132.962C31.9734 134.069 31.5632 135.001 30.7429 135.758C29.9226 136.514 28.8403 136.911 27.4958 136.947V138.28H25.9578V136.947C24.6134 136.911 23.5287 136.514 22.7039 135.758C21.8835 135.001 21.4734 134.069 21.4734 132.962C21.4734 131.85 21.8835 130.916 22.7039 130.159C23.5287 129.403 24.6134 129.006 25.9578 128.97V127.917H27.4958V128.97C28.8403 129.006 29.9226 129.403 30.7429 130.159ZM29.6628 134.855C30.1778 134.377 30.4353 133.746 30.4353 132.962C30.4353 132.178 30.1778 131.549 29.6628 131.075C29.1524 130.597 28.4301 130.339 27.4958 130.303V135.621C28.4301 135.585 29.1524 135.329 29.6628 134.855ZM23.7839 131.075C23.2735 131.549 23.0183 132.178 23.0183 132.962C23.0183 133.746 23.2735 134.377 23.7839 134.855C24.2989 135.329 25.0235 135.585 25.9578 135.621V130.303C25.0235 130.339 24.2989 130.597 23.7839 131.075ZM38.4082 138.137C38.1575 138.137 37.9137 138.107 37.6767 138.048C37.4398 137.989 37.237 137.916 37.0683 137.829C36.8997 137.738 36.7493 137.647 36.6172 137.556C36.4896 137.46 36.3961 137.385 36.3369 137.33L36.2412 137.228V140.939H34.8398V131.28H36.2412V132.053C36.305 131.989 36.3939 131.905 36.5078 131.8C36.6263 131.695 36.8747 131.558 37.2529 131.39C37.6312 131.221 38.0163 131.137 38.4082 131.137C39.2969 131.137 40.067 131.479 40.7187 132.162C41.375 132.841 41.7031 133.666 41.7031 134.637C41.7031 135.607 41.375 136.435 40.7187 137.118C40.067 137.797 39.2969 138.137 38.4082 138.137ZM39.6865 133.058C39.2764 132.62 38.8047 132.401 38.2715 132.401C37.7383 132.401 37.2666 132.62 36.8564 133.058C36.4463 133.495 36.2412 134.024 36.2412 134.644C36.2412 135.259 36.4463 135.785 36.8564 136.223C37.2666 136.66 37.7383 136.879 38.2715 136.879C38.8047 136.879 39.2764 136.66 39.6865 136.223C40.0967 135.785 40.3017 135.259 40.3017 134.644C40.3017 134.024 40.0967 133.495 39.6865 133.058ZM49.8879 138H48.4866V137.303C48.4683 137.321 48.4364 137.351 48.3909 137.392C48.3498 137.433 48.2632 137.501 48.1311 137.597C48.0035 137.688 47.8645 137.772 47.7141 137.85C47.5637 137.923 47.3746 137.989 47.1467 138.048C46.9188 138.107 46.6887 138.137 46.4563 138.137C45.7727 138.137 45.2053 137.938 44.7541 137.542C44.303 137.146 44.0774 136.692 44.0774 136.182C44.0774 135.63 44.2506 135.168 44.5969 134.794C44.9478 134.42 45.4263 134.183 46.0325 134.083L48.4866 133.659C48.4866 133.304 48.3544 133.005 48.0901 132.764C47.8303 132.522 47.4953 132.401 47.0852 132.401C46.7297 132.401 46.4061 132.477 46.1145 132.627C45.8274 132.773 45.6291 132.921 45.5198 133.071L45.3352 133.311L44.426 132.401C44.4534 132.365 44.4898 132.319 44.5354 132.265C44.5855 132.205 44.6926 132.105 44.8567 131.964C45.0253 131.818 45.203 131.688 45.3899 131.574C45.5767 131.46 45.8228 131.36 46.1282 131.273C46.4381 131.182 46.7571 131.137 47.0852 131.137C47.9055 131.137 48.5777 131.381 49.1018 131.868C49.6259 132.351 49.8879 132.948 49.8879 133.659V138ZM46.6682 136.879C47.2379 136.879 47.6822 136.71 48.0012 136.373C48.3248 136.031 48.4866 135.546 48.4866 134.917V134.78L46.3127 135.129C46.0621 135.174 45.8593 135.277 45.7043 135.437C45.5494 135.596 45.4719 135.797 45.4719 136.038C45.4719 136.261 45.579 136.457 45.7932 136.626C46.0119 136.795 46.3036 136.879 46.6682 136.879ZM54.5112 135.197V138H53.1098V131.28H54.5112V133.939H57.7993V131.28H59.2007V138H57.7993V135.197H54.5112ZM62.4226 138V131.28H63.8239V136.742H66.9753V131.28H68.3767V136.742H69.3542V139.682H67.9528V138H62.4226ZM73.622 138.697L73.9023 138L71.1679 131.28H72.6376L74.5996 136.182L76.5615 131.28H78.0312L75.0166 138.697C74.6702 139.527 74.3261 140.108 73.9843 140.44C73.6471 140.773 73.2233 140.939 72.7128 140.939C72.526 140.939 72.3505 140.928 72.1865 140.905C72.0224 140.882 71.9016 140.857 71.8242 140.83L71.7285 140.803V139.538C71.9609 139.629 72.1956 139.677 72.4326 139.682C72.9658 139.677 73.3623 139.349 73.622 138.697ZM84.883 133.03C84.883 133.34 84.7964 133.611 84.6232 133.844C84.4546 134.076 84.2814 134.229 84.1037 134.302L83.8371 134.432C83.8736 134.441 83.9214 134.457 83.9807 134.479C84.0445 134.502 84.1493 134.557 84.2951 134.644C84.4455 134.726 84.5777 134.826 84.6916 134.944C84.8101 135.058 84.9172 135.218 85.0129 135.423C85.1131 135.628 85.1633 135.858 85.1633 136.113C85.1633 136.674 84.9126 137.152 84.4113 137.549C83.9146 137.941 83.2333 138.137 82.3674 138.137C82.0392 138.137 81.7225 138.096 81.4172 138.014C81.1164 137.932 80.8657 137.834 80.6652 137.72C80.4647 137.606 80.2892 137.492 80.1389 137.378C79.9885 137.259 79.8768 137.159 79.8039 137.077L79.7082 136.947L80.6174 136.038C80.6721 136.102 80.745 136.182 80.8361 136.277C80.9318 136.373 81.1323 136.498 81.4377 136.653C81.7476 136.804 82.0575 136.879 82.3674 136.879C82.8322 136.879 83.1809 136.792 83.4133 136.619C83.6503 136.446 83.7687 136.229 83.7687 135.97C83.7687 135.71 83.6503 135.493 83.4133 135.32C83.1809 135.147 82.8322 135.061 82.3674 135.061H81.5949V133.939H82.3674C82.732 133.939 83.01 133.869 83.2014 133.728C83.3928 133.582 83.4885 133.397 83.4885 133.174C83.4885 132.946 83.3928 132.761 83.2014 132.62C83.01 132.474 82.732 132.401 82.3674 132.401C82.0985 132.401 81.8342 132.454 81.5744 132.559C81.3192 132.659 81.1301 132.764 81.007 132.873L80.8293 133.03L79.9133 132.121C79.9771 132.048 80.0705 131.957 80.1935 131.848C80.3166 131.738 80.59 131.592 81.0139 131.41C81.4377 131.228 81.8889 131.137 82.3674 131.137C83.1421 131.137 83.7551 131.324 84.2062 131.697C84.6574 132.071 84.883 132.515 84.883 133.03ZM88.5903 137.098C87.8976 136.4 87.5512 135.582 87.5512 134.644C87.5512 133.7 87.8976 132.88 88.5903 132.183C89.2875 131.485 90.1078 131.137 91.0512 131.137C91.5753 131.137 92.0629 131.251 92.5141 131.479C92.9653 131.702 93.2888 131.925 93.4848 132.148L93.7787 132.47L92.8696 133.379C92.824 133.306 92.7533 133.217 92.6576 133.112C92.5665 133.003 92.3637 132.857 92.0492 132.675C91.7394 132.493 91.4067 132.401 91.0512 132.401C90.4815 132.401 89.9871 132.618 89.5678 133.051C89.1531 133.484 88.9457 134.015 88.9457 134.644C88.9457 135.268 89.1531 135.797 89.5678 136.229C89.9871 136.662 90.4815 136.879 91.0512 136.879C91.4067 136.879 91.7394 136.79 92.0492 136.612C92.3637 136.435 92.5893 136.261 92.726 136.093L92.9379 135.833L93.8471 136.742C93.8198 136.779 93.7787 136.831 93.7241 136.899C93.6694 136.963 93.5509 137.075 93.3686 137.234C93.1863 137.389 92.9949 137.528 92.7944 137.651C92.5938 137.77 92.3341 137.882 92.0151 137.986C91.6961 138.087 91.3748 138.137 91.0512 138.137C90.1078 138.137 89.2875 137.79 88.5903 137.098ZM102.456 131.28L99.8649 134.083L102.661 138H101.123L98.9557 134.992L97.903 136.113V138H96.5016V131.28H97.903V134.288L100.774 131.28H102.456ZM109.308 136.229C109.722 135.797 109.93 135.268 109.93 134.644C109.93 134.015 109.722 133.484 109.308 133.051C108.893 132.618 108.401 132.401 107.831 132.401C107.261 132.401 106.767 132.618 106.348 133.051C105.933 133.484 105.725 134.015 105.725 134.644C105.725 135.268 105.933 135.797 106.348 136.229C106.767 136.662 107.261 136.879 107.831 136.879C108.401 136.879 108.893 136.662 109.308 136.229ZM105.37 137.098C104.677 136.4 104.331 135.582 104.331 134.644C104.331 133.7 104.677 132.88 105.37 132.183C106.067 131.485 106.888 131.137 107.831 131.137C108.774 131.137 109.592 131.485 110.285 132.183C110.982 132.88 111.331 133.7 111.331 134.644C111.331 135.582 110.982 136.4 110.285 137.098C109.592 137.79 108.774 138.137 107.831 138.137C106.888 138.137 106.067 137.79 105.37 137.098ZM120.357 135.129H115.107C115.18 135.603 115.412 136.013 115.804 136.359C116.2 136.706 116.67 136.879 117.212 136.879C117.604 136.879 117.969 136.79 118.306 136.612C118.648 136.435 118.889 136.261 119.03 136.093L119.242 135.833L120.152 136.742C120.124 136.779 120.081 136.831 120.022 136.899C119.967 136.963 119.846 137.075 119.659 137.234C119.472 137.389 119.274 137.528 119.065 137.651C118.855 137.77 118.582 137.882 118.244 137.986C117.912 138.087 117.568 138.137 117.212 138.137C116.26 138.137 115.437 137.788 114.744 137.091C114.056 136.389 113.712 135.548 113.712 134.568C113.712 133.625 114.047 132.818 114.717 132.148C115.391 131.474 116.198 131.137 117.137 131.137C118.08 131.137 118.864 131.451 119.488 132.08C120.117 132.704 120.432 133.488 120.432 134.432L120.357 135.129ZM117.137 132.333C116.631 132.333 116.205 132.483 115.859 132.784C115.517 133.08 115.287 133.465 115.168 133.939H119.058C118.976 133.465 118.764 133.08 118.422 132.784C118.08 132.483 117.652 132.333 117.137 132.333ZM133.24 131.28L130.649 134.083L133.445 138H131.907L129.74 134.992L128.687 136.113V138H127.286V131.28H128.687V134.288L131.558 131.28H133.24ZM141.213 138H139.811V137.303C139.793 137.321 139.761 137.351 139.716 137.392C139.675 137.433 139.588 137.501 139.456 137.597C139.328 137.688 139.189 137.772 139.039 137.85C138.889 137.923 138.699 137.989 138.472 138.048C138.244 138.107 138.014 138.137 137.781 138.137C137.098 138.137 136.53 137.938 136.079 137.542C135.628 137.146 135.402 136.692 135.402 136.182C135.402 135.63 135.575 135.168 135.922 134.794C136.273 134.42 136.751 134.183 137.357 134.083L139.811 133.659C139.811 133.304 139.679 133.005 139.415 132.764C139.155 132.522 138.82 132.401 138.41 132.401C138.055 132.401 137.731 132.477 137.439 132.627C137.152 132.773 136.954 132.921 136.845 133.071L136.66 133.311L135.751 132.401C135.778 132.365 135.815 132.319 135.86 132.265C135.91 132.205 136.017 132.105 136.182 131.964C136.35 131.818 136.528 131.688 136.715 131.574C136.902 131.46 137.148 131.36 137.453 131.273C137.763 131.182 138.082 131.137 138.41 131.137C139.23 131.137 139.903 131.381 140.427 131.868C140.951 132.351 141.213 132.948 141.213 133.659V138ZM137.993 136.879C138.563 136.879 139.007 136.71 139.326 136.373C139.65 136.031 139.811 135.546 139.811 134.917V134.78L137.638 135.129C137.387 135.174 137.184 135.277 137.029 135.437C136.874 135.596 136.797 135.797 136.797 136.038C136.797 136.261 136.904 136.457 137.118 136.626C137.337 136.795 137.628 136.879 137.993 136.879ZM147.935 140.939V138.137C146.768 138.137 145.822 137.804 145.098 137.139C144.378 136.473 144.018 135.642 144.018 134.644C144.018 133.641 144.378 132.807 145.098 132.142C145.822 131.472 146.768 131.137 147.935 131.137V128.197H149.336V131.137C150.503 131.137 151.446 131.472 152.166 132.142C152.891 132.807 153.253 133.641 153.253 134.644C153.253 135.642 152.891 136.473 152.166 137.139C151.446 137.804 150.503 138.137 149.336 138.137V140.939H147.935ZM147.935 136.879V132.401C147.142 132.401 146.522 132.604 146.075 133.01C145.633 133.415 145.412 133.96 145.412 134.644C145.412 135.323 145.633 135.865 146.075 136.271C146.522 136.676 147.142 136.879 147.935 136.879ZM149.336 132.401V136.879C150.129 136.879 150.747 136.676 151.189 136.271C151.635 135.865 151.859 135.323 151.859 134.644C151.859 133.96 151.635 133.415 151.189 133.01C150.747 132.604 150.129 132.401 149.336 132.401ZM162.285 135.129H157.035C157.108 135.603 157.341 136.013 157.733 136.359C158.129 136.706 158.599 136.879 159.141 136.879C159.533 136.879 159.897 136.79 160.235 136.612C160.577 136.435 160.818 136.261 160.959 136.093L161.171 135.833L162.08 136.742C162.053 136.779 162.01 136.831 161.951 136.899C161.896 136.963 161.775 137.075 161.588 137.234C161.401 137.389 161.203 137.528 160.993 137.651C160.784 137.77 160.51 137.882 160.173 137.986C159.841 138.087 159.496 138.137 159.141 138.137C158.188 138.137 157.366 137.788 156.673 137.091C155.985 136.389 155.641 135.548 155.641 134.568C155.641 133.625 155.976 132.818 156.646 132.148C157.32 131.474 158.127 131.137 159.066 131.137C160.009 131.137 160.793 131.451 161.417 132.08C162.046 132.704 162.361 133.488 162.361 134.432L162.285 135.129ZM159.066 132.333C158.56 132.333 158.134 132.483 157.787 132.784C157.446 133.08 157.216 133.465 157.097 133.939H160.987C160.905 133.465 160.693 133.08 160.351 132.784C160.009 132.483 159.581 132.333 159.066 132.333Z" fill="white"/>
</g>
<g clip-path="url(#clip0_347_3598)">
<path fill-rule="evenodd" clip-rule="evenodd" d="M78.264 46.8233C78.8699 47.1331 79.5296 47.3159 80.2047 47.3613C80.7147 47.3314 81.2828 46.1616 81.4487 45.1113C81.3598 44.6738 81.2335 44.2452 81.0713 43.8306C80.6318 42.8956 80.0927 41.888 79.5204 42.1997C78.9482 42.5113 79.5204 43.9373 79.1472 44.6289C78.8355 45.2407 78.5761 45.8792 78.3718 46.5373L78.2847 46.8361L78.264 46.8233ZM79.9227 63.4736C79.9227 63.0466 80.7313 62.0135 81.4072 61.1767C82.0831 60.3399 83.8953 59.0933 84.5836 58.0473C85.272 57.0013 85.3259 57.7698 86.4746 57.3514C87.6232 56.933 88.7014 56.7281 88.7719 55.6138C88.8424 54.4995 88.7014 53.8079 87.8264 53.3895C86.9514 52.9711 86.4082 52.4844 85.6618 52.6936C84.9154 52.9028 81.3409 53.9445 79.8563 53.8079C78.3718 53.6713 77.1526 52.6936 76.2735 52.6936C75.3944 52.6936 74.9963 53.5347 74.167 53.8122C73.3376 54.0897 71.8738 54.7856 71.1979 54.0897C70.522 53.3938 70.0492 54.2989 69.7092 54.3672C69.3692 54.4355 69.0333 52.5698 68.8342 51.447C68.6352 50.3242 69.0333 47.4808 69.1038 46.2299C69.1743 44.979 70.522 42.4772 70.9283 41.8496C71.1108 41.5636 71.2518 41.713 71.343 42.0204C71.4052 41.5166 71.4633 41.0299 71.5172 40.6969C71.6499 39.843 71.5835 38.3701 71.6831 36.6667C71.7826 34.9632 72.8981 31.4283 73.7067 30.3182C74.428 29.3118 75.2806 28.4125 76.2403 27.6457C76.7172 27.3511 77.4595 25.511 78.0235 25.0841L77.8991 24.9731C77.4844 24.623 77.4636 24.4522 77.5632 23.7563C77.6627 23.0604 79.0145 22.3347 80.1922 21.7113C81.2388 21.2433 82.3297 20.8885 83.4474 20.6526V20.3196C83.5469 18.6887 84.4592 17.822 86.1096 16.9041C86.8433 16.5105 87.6584 16.305 88.4857 16.305C89.313 16.305 90.1281 16.5105 90.8618 16.9041C92.0188 17.5018 94.8137 19.8926 95.5311 20.5714C96.0121 20.5373 96.4309 20.6141 96.4931 20.2384C96.5553 19.8627 95.7301 19.0345 95.2076 18.3429C94.629 17.5393 93.8473 16.9146 92.9476 16.537C92.0395 16.2253 91.1272 15.9478 91.1272 15.4953C91.1272 15.0427 92.2427 14.8378 93.0845 15.1494C93.9263 15.4611 94.7349 16.2808 95.7301 17.0237C96.7253 17.7665 98.2928 20.3537 98.9687 20.7721C99.6447 21.1905 100.449 20.9087 100.889 20.9087C101.328 20.9087 101.328 20.1829 101.664 20.1829C102 20.1829 102 20.3196 102.775 21.1179C104.666 23.1738 106.396 25.3792 107.951 27.714C110.343 31.2191 110.144 36.4618 110.144 36.4618C110.144 36.4618 108.423 35.6079 107.951 35.0742C107.478 34.5406 106.234 33.1274 105.827 32.6066C105.177 31.8421 104.414 31.1867 103.567 30.6641C102.868 30.2871 102.1 30.0632 101.312 30.0066C100.806 30.0507 100.297 30.0406 99.7939 29.9767C99.7276 30.4292 99.6695 30.8604 99.9266 31.0824C100.341 31.4283 101.411 31.1508 102.087 31.2874C102.763 31.424 103.501 31.9491 104.376 32.6066C105.006 33.0612 105.516 33.6701 105.861 34.3783C105.902 34.4535 105.934 34.5339 105.956 34.6174C106.438 34.8859 106.862 35.2536 107.2 35.6976C107.53 36.1013 107.792 36.5587 107.975 37.0509C108.166 37.5077 108.39 38.067 108.316 38.4043C108.241 38.7416 107.835 38.6562 107.64 38.4726C107.445 38.289 107.586 37.7511 107.436 37.5718C107.287 37.3925 107.051 37.179 106.964 37.6401C106.877 38.1012 106.69 39.3478 107.001 39.9668C107.312 40.5859 108.071 40.6158 108.552 40.6969C108.963 40.7361 109.376 40.6388 109.73 40.4194C110.041 40.2614 110.41 40.3255 110.335 39.7918C110.26 39.2581 109.506 38.2207 109.361 37.6572C109.215 37.0936 109.265 36.8673 109.56 36.6496C109.737 36.5371 109.942 36.4775 110.15 36.4775C110.359 36.4775 110.564 36.5371 110.741 36.6496C111.176 36.9762 111.496 37.4391 111.654 37.9688C111.978 38.891 112.255 39.8301 112.483 40.7823C112.74 41.7429 112.927 42.9169 113.225 43.7324C113.513 44.3613 113.85 44.9652 114.233 45.5383C114.482 46.025 114.648 45.5383 114.706 46.6483C114.764 47.7583 114.88 51.067 114.639 52.1984C114.399 53.3297 113.922 52.5655 113.395 52.7875C112.791 53.1208 112.145 53.3665 111.475 53.5176C110.704 53.5489 109.932 53.4669 109.182 53.2742C108.627 53.1462 108.05 53.2742 108.133 52.779H108.104C107.329 53.0223 106.383 53.4706 105.069 53.4023C103.783 53.3102 102.508 53.1017 101.258 52.779C100.316 52.5356 100.18 52.3265 99.599 52.604C99.0185 52.8815 98.5541 53.5432 97.7454 53.5774C96.9368 53.6115 96.6341 53.2999 96.4641 53.7524C96.2496 54.6488 96.2031 55.579 96.3273 56.4933C96.4973 57.0141 97.6418 57.3941 98.5872 57.6033C99.7286 57.9283 100.81 58.4447 101.789 59.1317C101.922 59.222 102.026 59.3519 102.087 59.5043C102.148 59.6568 102.162 59.8245 102.129 59.9856C101.398 59.8032 100.687 59.5472 100.005 59.2214C99.2632 58.9097 96.4973 58.0046 95.925 57.4496C95.3528 56.8946 95.0127 55.2637 95.0459 54.3288C95.0791 53.3938 94.4861 53.2614 94.0714 52.7406C93.7646 52.3435 93.4784 52.1898 93.354 51.8867C93.2587 51.9934 93.1674 52.1002 93.0886 52.2026C92.6159 52.8302 92.2095 53.731 91.4673 53.731C90.725 53.731 89.9827 54.0128 89.9164 55.0545C89.85 56.0962 89.6427 56.933 88.8341 57.2788C88.0254 57.6246 87.4159 58.3931 86.6736 58.4614C85.9313 58.5297 85.0522 58.8072 84.7122 59.3665C84.3721 59.9258 83.5635 60.2204 83.0244 61.0358C82.4854 61.8512 82.1453 63.3284 81.6063 63.5376C81.0672 63.7468 79.9185 63.4693 79.9185 63.4693L79.9227 63.4736ZM70.8247 45.2053C70.581 46.0835 70.4335 46.9871 70.3851 47.8992C70.3851 49.291 70.7252 51.7928 71.4011 52.2795C72.077 52.7662 72.8856 53.2529 73.5615 52.7662C74.1545 52.3393 74.8512 51.9123 75.1498 51.4384C74.9603 51.1242 74.7453 50.8272 74.507 50.5504C74.0004 50.0741 73.5482 49.5399 73.1593 48.958C72.817 48.325 72.5828 47.6361 72.4668 46.9215C72.2687 47.0061 72.065 47.076 71.8572 47.1307C71.9551 47.4803 72.034 47.8352 72.0936 48.1938C72.2707 49.0276 72.6279 49.8097 73.1386 50.4821C73.6445 51.2463 74.084 51.7629 73.744 51.9422C73.404 52.1215 72.6202 51.7159 72.2512 51.2463C71.7724 50.5698 71.3756 49.8358 71.0693 49.0604C70.8288 48.4926 70.7625 46.5245 70.8247 45.2181V45.2053ZM75.4898 51.1823C76.1781 51.3701 78.1313 53.0608 79.8439 53.0608C81.8675 53.0608 84.368 52.3649 85.1103 51.5281C85.1679 51.465 85.2288 51.4051 85.2927 51.3488C85.0439 51.0542 84.6458 50.6017 84.2187 50.6017C83.7916 50.6017 80.8018 51.558 79.5329 51.558C78.264 51.558 77.0448 50.9005 76.5638 50.8664C76.0828 50.8322 75.7344 50.6572 75.552 50.9688C75.5188 51.0309 75.4977 51.0991 75.4898 51.1695V51.1823ZM86.0682 51.0627C86.6363 51.0627 87.4615 51.2933 89.029 51.4598C90.555 51.567 92.0866 51.3639 93.5365 50.8621C93.7811 50.549 94.1122 50.3198 94.4861 50.2046C94.7799 50.1208 95.0384 49.9392 95.2214 49.6882C95.4044 49.4372 95.5017 49.1309 95.4979 48.8171C95.5063 48.5786 95.5806 48.3474 95.7121 48.1508C95.8435 47.9542 96.0267 47.8003 96.2402 47.7071C96.3667 47.6237 96.5163 47.5853 96.666 47.5976C96.8157 47.61 96.9575 47.6724 97.0695 47.7754C97.1792 47.955 97.2228 48.1692 97.1924 48.3791C97.162 48.589 97.0595 48.7807 96.9037 48.9196C96.489 49.3465 95.7882 49.4404 96.2941 49.8246C96.8 50.2089 97.1732 50.4821 97.5381 50.2729C98.4151 49.5232 99.1967 48.6625 99.8644 47.7113C100.055 47.3636 100.297 47.0482 100.582 46.7764C100.055 47.0197 99.7525 47.5278 99.1885 47.6302C98.5211 47.7541 97.8335 47.6907 97.1981 47.4466C96.7419 47.2118 97.1981 46.5373 96.7834 46.4391C96.3687 46.3409 95.954 46.6953 95.4025 47.0283C94.851 47.3613 94.0963 48.0913 93.5489 48.4158C93.1101 48.683 92.6307 48.8721 92.1307 48.9751C91.6829 49.0732 91.206 49.2696 90.8867 49.0092C90.782 48.9062 90.7014 48.78 90.6511 48.6402C90.6009 48.5004 90.5821 48.3507 90.5964 48.2023C90.1872 48.4162 89.809 48.6878 89.4727 49.0092C88.9336 49.5301 87.3993 49.8417 86.9431 49.8631C86.487 49.8844 85.9686 49.8972 85.865 50.3498C85.7862 50.7041 85.9811 50.8664 86.064 51.0542L86.0682 51.0627ZM91.5834 55.1698C91.5834 55.1698 90.642 57.5649 89.9247 57.8082C89.2073 58.0516 88.0711 59.089 87.0924 59.4391C86.1138 59.7892 84.9029 61.1468 84.397 61.7616C83.8911 62.3764 83.2152 63.8109 82.7383 64.4342C82.2614 65.0575 82.2656 65.9967 82.7383 66.2742C83.2111 66.5517 83.8497 66.7012 84.086 66.2059C84.3224 65.7107 83.9865 65.0276 84.3224 64.2976C84.6583 63.5675 85.4047 62.9783 86.2133 62.2141C87.0219 61.4499 88.1001 59.4732 88.6723 59.1957C89.2446 58.9182 89.5846 59.6483 89.4146 59.9599C89.2446 60.2716 88.8755 60.3869 88.5023 60.8949C88.1291 61.403 87.0883 62.7691 86.5492 63.0296C86.0101 63.29 85.0978 64.2463 85.0978 64.8355C85.0978 65.4246 84.7288 66.6755 85.6037 66.5005C86.4787 66.3255 86.5824 66.3639 87.1214 66.6072C87.6605 66.8506 87.7974 66.5347 87.9964 65.843C88.0551 65.5487 88.1724 65.2701 88.3408 65.0246C88.5092 64.7792 88.7252 64.5724 88.975 64.4171C89.5133 64.0783 89.9286 63.5668 90.1569 62.9613C90.2564 62.5087 89.9869 62.0263 90.02 61.5012C90.0532 60.976 90.3559 60.6687 90.696 60.912C91.036 61.1554 90.6628 61.9196 90.7623 62.4404C90.8618 62.9613 90.4596 63.3412 90.4596 64.0371C90.4596 64.733 90.6628 65.9113 91.235 66.223C91.8073 66.5347 93.0223 66.6072 93.2255 66.1205C93.4287 65.6338 92.4832 65.4588 92.4832 64.7672V62.9613C92.4832 62.2995 92.0685 61.7104 91.8736 60.9846C91.6697 60.3323 91.6468 59.6344 91.8073 58.9695C92.1173 58.1538 92.4889 57.3645 92.9186 56.6086C93.1882 56.1816 92.28 56.3994 92.11 56.2627C91.8913 55.9142 91.7105 55.542 91.5709 55.1527L91.5834 55.1698ZM94.3824 57.1806C94.1129 57.1806 93.9677 58.1882 93.6402 58.2907C93.3914 58.4264 93.1859 58.6331 93.0484 58.886C92.9109 59.1389 92.8471 59.4273 92.8647 59.7166C92.9311 60.3741 93.3374 61.3133 93.3706 61.9708C93.4038 62.6283 93.1674 63.8792 93.4743 64.4342C93.7811 64.9892 94.2456 65.1642 94.5193 65.8601C94.793 66.556 94.8552 66.9701 95.3486 66.9018C95.8421 66.8335 97.1359 67.2476 97.3349 66.7609C97.534 66.2742 97.3722 65.6168 97.0322 65.5826C96.4734 65.4853 95.9432 65.2591 95.4813 64.9209C94.9754 64.5409 94.739 64.2634 94.9422 63.845C95.1454 63.4266 95.4813 64.0201 95.8877 64.0542C96.2941 64.0884 97.8408 64.1567 98.2472 64.1951C98.6536 64.2335 99.5617 64.2634 99.5617 64.622C99.5617 64.9806 99.2258 65.3179 98.7324 65.5613C98.2389 65.8046 97.7537 66.0821 97.9901 66.3938C98.124 66.5918 98.308 66.7483 98.5222 66.8462C98.7365 66.944 98.9726 66.9795 99.2051 66.9488C99.8769 66.9146 100.922 66.8079 101.026 66.2529C101.129 65.6979 100.856 64.3445 100.482 63.9646C100.109 63.5846 97.7206 62.782 97.111 62.8161C96.5014 62.8503 95.8338 62.3892 95.3611 61.7744C94.8068 61.0955 94.512 60.2318 94.5317 59.3452C94.5233 58.6304 94.4665 57.9171 94.3617 57.2105L94.3824 57.1806ZM96.0411 58.9524C95.891 59.1235 95.8069 59.3452 95.8048 59.5757C95.8361 60.1912 96.0889 60.7725 96.5139 61.2066C97.0861 61.8683 97.7579 61.6335 98.807 62.0049C99.5543 62.2377 100.231 62.664 100.773 63.243C101.345 63.798 101.78 64.5238 101.78 65.1173C101.78 65.7107 102.556 66.3297 102.929 66.1248C103.013 66.0621 103.083 65.9802 103.132 65.8854C103.181 65.7906 103.208 65.6855 103.211 65.5782C103.214 65.4709 103.194 65.3643 103.15 65.2666C103.107 65.1689 103.043 65.0828 102.962 65.0148C102.626 64.6647 102.693 64.3189 102.929 63.8322C103.165 63.3455 103.638 63.623 104.243 63.623C104.849 63.623 105.355 63.5205 105.525 63.1961C105.695 62.8716 105.189 62.5343 104.376 61.9452C103.693 61.3439 102.845 60.9768 101.95 60.8949C100.706 60.7242 99.2549 60.3058 98.5458 60.1691C97.8367 60.0325 96.659 59.1957 96.0577 58.9524H96.0411ZM102.564 46.3324C102.582 46.3711 102.592 46.4133 102.593 46.4562C102.593 46.7337 102.825 47.2887 102.253 47.8095C101.681 48.3304 100.938 49.5471 100.366 49.9442C99.7499 50.4624 99.0828 50.9131 98.3757 51.289C97.8698 51.4641 97.1649 52.0532 97.4344 52.2283C97.704 52.4033 98.4462 51.6007 99.0517 51.3744C99.7275 51.1871 100.434 51.1507 101.125 51.2677C101.697 51.3744 103.418 51.8568 104.09 51.9636C104.978 52.0243 105.868 52.0357 106.756 51.9977C107.059 51.9977 106.416 51.0926 105.927 50.576C105.438 50.0595 104.447 50.2985 103.771 50.0893C103.095 49.8801 102.456 48.7018 102.527 48.3816C102.597 48.0614 102.63 46.8575 103.302 46.3366L103.373 46.2854C103.137 46.2622 102.899 46.2622 102.664 46.2854H102.568L102.564 46.3324ZM104.318 46.2214C104.674 46.3438 105.012 46.5162 105.322 46.7337C105.691 46.977 105.152 47.0112 105.861 47.5875C106.57 48.1639 106.939 47.2417 107.615 46.3751C108.191 45.6365 108.349 43.9586 108.548 43.2457C108.407 43.0895 108.253 42.9467 108.087 42.8187C107.614 42.3936 107.043 42.0997 106.429 41.9649C105.923 41.9265 105.935 42.5839 105.599 42.87C105.256 43.1362 104.95 43.451 104.691 43.8049C104.48 44.1294 103.941 44.313 104.185 44.4667C104.43 44.6204 104.903 44.2361 105.16 44.0824C105.417 43.9288 105.778 43.5445 106.105 43.5616C106.182 43.5572 106.259 43.5696 106.33 43.5979C106.402 43.6263 106.467 43.6699 106.521 43.726C106.575 43.782 106.617 43.8493 106.644 43.9232C106.671 43.9972 106.682 44.0762 106.678 44.155C106.707 44.582 106.226 44.7826 105.848 45.1242C105.416 45.5666 104.914 45.9304 104.364 46.2H104.339L104.318 46.2214ZM110.007 44.915C109.788 45.5579 109.51 46.1782 109.178 46.7678C108.606 47.9163 107.022 48.5737 106.951 49.0946C106.881 49.6155 107.258 49.893 107.627 50.2046C107.996 50.5163 108.809 49.9271 109.348 49.1629C110.016 48.3189 110.499 47.3357 110.762 46.2811C110.802 46.0686 110.867 45.8621 110.957 45.6664H110.932C110.561 45.5048 110.236 45.2492 109.987 44.9235L110.007 44.915ZM112.537 44.8765C112.645 45.376 112.305 46.3708 112.471 46.8746C112.511 47.0129 112.523 47.158 112.508 47.3015C112.572 47.2685 112.641 47.2489 112.712 47.2437C112.784 47.2386 112.855 47.2481 112.923 47.2716C113.213 47.3826 112.898 47.8352 113.026 48.1255C113.155 48.4158 113.325 49.0434 113.665 49.0306C114.005 49.0177 113.98 48.6036 114.005 48.0913C114.037 47.3903 113.968 46.6884 113.802 46.0079C113.739 45.7905 113.633 45.5889 113.49 45.4162C113.347 45.2434 113.171 45.1033 112.972 45.0046C112.843 44.9363 112.702 44.8943 112.558 44.8808L112.537 44.8765ZM111.77 48.8384C111.679 48.9494 111.587 49.0604 111.492 49.1629C110.849 49.8588 110.111 50.8706 109.705 51.2976C109.634 51.3744 109.568 51.4598 109.497 51.5537H109.535C110.032 51.4256 110.165 52.066 110.65 52.1087C111.218 52.1247 111.783 52.0186 112.309 51.7971C112.657 51.622 112.599 51.6263 112.512 51.1737C112.425 50.7212 111.886 49.7862 111.803 49.1928C111.787 49.074 111.778 48.9542 111.778 48.8342L111.77 48.8384ZM91.4009 47.1905C91.5054 47.1374 91.6065 47.0775 91.7036 47.0112C92.0602 46.7593 92.674 46.7508 92.8481 46.247C93.0223 45.7432 92.5661 45.1797 92.5786 44.4795C92.5832 43.669 92.6962 42.8631 92.9145 42.0844C93.1406 41.5316 93.4735 41.0319 93.8931 40.6158C94.1087 40.3639 94.2166 40.1291 94.4115 40.0309C94.1412 39.765 93.9156 39.4548 93.7438 39.113C93.0355 39.1797 92.3668 39.4791 91.8363 39.9668C91.2641 40.556 91.2309 42.2936 91.1977 43.092C91.1521 44.4008 91.2076 45.7114 91.3636 47.0112L91.4009 47.1905ZM96.6548 41.6959C96.7834 42.0503 96.5346 42.601 96.7212 42.8785C96.9078 43.156 97.2022 43.1176 97.5298 42.981C97.8574 42.8443 98.1062 42.093 98.5914 41.7856C98.7937 41.6658 99.0184 41.5913 99.2506 41.567C99.4829 41.5427 99.7175 41.5692 99.9391 41.6447C100.127 41.6954 100.304 41.7847 100.457 41.9072C100.611 42.0297 100.74 42.1829 100.835 42.3577C100.893 42.4951 100.909 42.6479 100.879 42.7948C100.849 42.9417 100.776 43.0755 100.669 43.1774C100.474 43.3439 100.254 43.0535 99.9266 43.0365C99.5318 42.9638 99.1254 43.0007 98.749 43.1432C98.2136 43.4048 97.7321 43.7701 97.3308 44.2191C97.0571 44.5734 96.7834 44.868 97.0944 45.1199C97.4054 45.3718 97.986 45.3163 98.5789 45.2223C99.2841 45.1197 99.9679 44.8976 100.603 44.5649C101.096 44.2489 101.113 43.7622 101.432 43.4207C101.751 43.0792 102.394 43.0535 102.411 42.5156C102.427 41.9777 101.842 41.3672 101.498 40.8847C101.225 40.5005 100.536 40.0309 100.254 39.604C99.122 40.3964 97.931 41.0959 96.6922 41.6959H96.6548ZM101.399 38.7074C101.672 39.1343 101.739 40.1163 102.054 40.5774C102.427 41.1281 102.945 42.0118 103.501 42.1058C104.057 42.1997 103.949 41.3971 104.144 40.9274C104.339 40.4578 104.799 39.7918 104.646 39.2923C104.492 38.7928 103.816 38.7288 103.435 38.6007C103.068 38.5247 102.692 38.5017 102.319 38.5324C102.025 38.5324 101.706 38.6775 101.527 38.5324C101.486 38.6007 101.44 38.6647 101.399 38.7202V38.7074ZM101.776 37.5077C101.959 37.4181 102.274 37.67 102.357 37.3498C102.461 36.8314 102.39 36.2917 102.153 35.8214C101.888 35.3944 101.104 35.292 100.909 34.9888C100.715 34.6857 100.984 34.5021 101.212 34.3997C101.345 34.3393 101.49 34.3139 101.635 34.3259C101.78 34.3378 101.92 34.3866 102.041 34.468C102.465 34.8159 102.869 35.1879 103.252 35.5823C103.667 35.9196 104.049 36.6411 104.534 36.5173C105.019 36.3934 104.812 35.467 105.04 35.1297L105.181 34.9163C104.724 34.421 103.957 33.4092 103.522 33.3238C102.983 33.2214 101.602 32.9439 100.793 33.1146C99.9847 33.2854 99.3088 33.7764 99.4788 34.2246C99.764 34.7836 100.153 35.2797 100.623 35.6847C101.196 36.2739 101.399 36.9356 101.701 37.3925C101.726 37.4314 101.747 37.4729 101.764 37.5163L101.776 37.5077ZM94.4239 20.6953C93.9201 20.0307 93.3331 19.4378 92.6781 18.932C91.9732 18.4453 90.8577 17.6811 90.0491 17.5616C89.2404 17.4421 87.9757 17.2841 87.6896 17.6299C87.4034 17.9757 87.5569 18.3599 88.0254 18.8125C88.2383 19.0684 88.3966 19.3674 88.4902 19.6903C88.5838 20.0131 88.6105 20.3526 88.5687 20.6867C88.4982 21.2076 89.0041 21.6558 89.4768 22.0401C89.6708 22.185 89.8811 22.3054 90.103 22.3987H90.1527C90.4168 22.3424 90.6722 22.249 90.9116 22.1212C90.9065 22.1106 90.9038 22.0989 90.9038 22.087C90.9038 22.0752 90.9065 22.0635 90.9116 22.0529C91.4065 21.6196 91.9782 21.2891 92.5952 21.0795C93.1884 20.9012 93.7943 20.7713 94.4073 20.691L94.4239 20.6953ZM92.5247 23.6112C92.4832 23.9143 92.3754 24.3455 92.3754 24.3455C93.2078 24.6524 93.9916 25.084 94.7017 25.6263C95.5311 26.2539 95.9458 27.2572 96.5222 27.3639C96.7129 27.398 96.9368 27.4621 97.2188 27.5389C97.1943 27.5034 97.177 27.4632 97.1677 27.4207C97.1585 27.3782 97.1575 27.3342 97.1649 27.2913C97.2644 26.9455 97.534 25.733 97.6003 25.2463C97.6667 24.7596 97.1649 23.9954 96.8954 23.9954C96.6258 23.9954 96.6258 24.1705 96.066 24.5504C95.5062 24.9304 94.7183 24.7255 94.3161 24.5504C93.9138 24.3754 93.6236 23.6197 93.2421 23.513C92.9948 23.4661 92.7395 23.5004 92.5122 23.6112H92.5247ZM97.9901 27.7652C98.2177 27.8317 98.449 27.8845 98.6826 27.9232C98.7661 27.9334 98.8482 27.9534 98.9273 27.9829C99.0517 27.6243 98.9604 26.5186 99.0185 25.9764C99.0848 25.3531 99.0517 25.0072 99.6239 24.5888C100.196 24.1705 100.536 24.4522 100.735 24.1021C100.783 24.0149 100.807 23.9161 100.805 23.816C100.803 23.716 100.775 23.6183 100.723 23.5333C100.672 23.4482 100.6 23.3789 100.513 23.3325C100.427 23.2862 100.331 23.2644 100.233 23.2696C99.7608 23.2696 99.5576 23.8246 99.118 23.8246C98.6785 23.8246 98.7033 23.8246 98.4462 24.5547C98.1891 25.2847 98.073 27.3682 98.0067 27.6798V27.7652H97.9901ZM99.6488 28.6191L99.6861 28.6831C99.9059 28.6831 100.242 28.7343 100.685 28.7343C101.51 28.7427 102.325 28.9197 103.082 29.2552C104.024 29.6352 104.127 29.8102 104.563 29.981C104.998 30.1517 104.977 29.8444 104.977 29.1271C105.002 28.5358 104.925 27.9446 104.749 27.381C104.612 27.1035 104.277 26.826 104.21 27.2742C104.19 27.4964 104.115 27.7094 103.99 27.8921C103.866 28.0748 103.697 28.2209 103.501 28.3159C103.263 28.3446 103.022 28.3189 102.795 28.2407C102.568 28.1625 102.36 28.0337 102.187 27.8634C101.855 27.6137 101.55 27.3274 101.278 27.0095C101.108 26.7662 101.548 26.2112 102.017 26.2838C102.485 26.3563 102.896 26.9071 103.062 26.5271C103.162 26.3252 103.206 26.0984 103.189 25.8721C103.171 25.6459 103.093 25.4292 102.962 25.2463C102.659 24.9347 102.187 24.3925 101.718 24.3925C101.249 24.3925 100.271 25.1182 100.034 25.4299C99.7981 25.7416 99.9308 26.8217 99.9308 27.5645C99.9357 27.9269 99.8455 28.2839 99.6695 28.5977L99.6488 28.6191ZM94.4322 38.8654C94.6561 38.8654 94.9091 38.9209 95.1537 38.9465C94.8618 38.4712 94.5361 38.0189 94.1792 37.5931C93.5209 37.0833 92.7623 36.7277 91.9566 36.5514C91.3028 36.4527 90.6396 36.4398 89.9827 36.513C90.0188 36.5803 90.0467 36.652 90.0656 36.7265C90.1693 37.1064 91.0775 37.0723 92.139 37.3156C93.0002 37.5413 93.8019 37.9613 94.4861 38.5452C94.5566 38.6135 94.5193 38.7288 94.4363 38.844L94.4322 38.8654ZM96.3148 38.9209C96.9707 38.8183 97.6201 38.6757 98.2596 38.4939C98.8319 38.3232 99.8769 37.7639 100.146 37.3839C100.416 37.004 100.316 36.8631 99.9432 36.3764C99.57 35.8897 98.0067 34.9675 97.8367 34.6388C97.8151 34.5938 97.7985 34.5466 97.7869 34.4979C97.6127 34.5875 97.4552 34.6003 97.4344 34.848C97.4013 35.2279 98.073 35.5737 98.5789 36.0263C99.0848 36.4788 99.5908 36.8246 99.0848 36.9271C98.5789 37.0296 97.8035 36.4063 97.4676 36.2013C96.9116 36.0237 96.3118 36.0601 95.7799 36.3038C95.5103 36.513 94.8717 36.8246 95.1413 37.3113C95.4108 37.798 95.9955 38.4214 96.3314 38.9166L96.3148 38.9209ZM97.762 33.2598C97.762 33.1659 97.762 33.0762 97.762 32.9908C97.762 32.47 97.7289 30.7665 97.3474 30.109C96.9659 29.4516 96.1448 28.0256 95.5103 27.6798C94.8759 27.334 92.8813 25.9721 92.5122 25.6989C92.1432 25.4256 91.4341 24.8194 91.094 25.0755C90.754 25.3317 91.3636 27.1248 91.7368 27.6115C92.11 28.0982 92.1059 29.4473 91.6331 29.8315C91.2184 30.1645 90.161 30.4719 89.6551 30.2884C89.6065 30.5069 89.6269 30.7357 89.7132 30.9416C89.9164 31.1508 91.4341 31.0099 92.0727 30.9757C92.7113 30.9416 93.354 29.7974 93.7563 29.2424C94.1585 28.6874 93.6567 27.9915 94.1709 27.889C94.6851 27.7865 95.0003 28.5806 95.8296 29.5199C96.659 30.4591 96.6051 31.4283 96.7088 32.0516C96.8124 32.6749 97.3515 33.0164 97.7786 33.2598H97.762ZM89.9247 28.8667C90.1732 28.8027 90.4252 28.7543 90.6794 28.7215C91.094 28.6532 90.5093 28.2007 90.2398 27.6798C89.9703 27.159 88.3323 26.1002 88.1955 25.6732C88.0586 25.2463 87.7559 24.4907 87.9674 23.9655L87.8513 23.8972C87.5112 23.7222 87.109 23.133 86.6695 22.8897C86.2299 22.6463 85.9977 22.7146 85.7945 23.2013C85.5913 23.688 85.9977 24.6956 86.3004 25.1439C86.9051 25.8315 87.6385 26.3863 88.4567 26.7747C88.9958 26.9498 89.6054 26.9156 89.7007 27.2614C89.8477 27.7831 89.9231 28.3235 89.9247 28.8667ZM88.2908 23.513C88.4468 23.3589 88.6131 23.2162 88.7884 23.0861C88.3157 22.6933 87.5859 21.5747 87.2168 21.9504C86.8478 22.3261 87.8596 23.0647 88.2908 23.513ZM87.0219 27.0608C86.6943 27.0992 86.487 27.4023 86.4248 27.8506C86.3626 28.2989 87.0219 28.3714 87.4864 28.6618H87.5237C87.4697 28.1189 87.3088 27.593 87.051 27.1163L87.0219 27.0608ZM87.6356 30.9031C87.3122 30.6982 86.9307 30.4463 86.7648 30.647C86.5285 30.9245 86.6612 32.6578 86.628 33.2854C86.5948 33.913 86.2921 34.4296 86.5948 34.9504C86.7165 35.1534 86.9048 35.3049 87.1256 35.3774C87.147 35.3108 87.184 35.2507 87.2334 35.2023C87.532 34.8949 87.5693 32.026 87.6481 30.933L87.6356 30.9031ZM87.7808 35.7531C87.8886 35.9665 87.7808 36.0306 87.5734 36.4063C87.2865 36.8349 86.8886 37.1722 86.4248 37.3797C86.2589 37.3797 86.2921 36.9997 85.7157 37.068C85.1393 37.1363 85.0771 37.068 85.2471 37.8322C85.4171 38.5964 85.5167 38.4897 85.9521 38.2805C86.3875 38.0713 86.5285 37.4821 87.0675 37.2046C87.5512 37.0208 87.98 36.7103 88.3116 36.3038C88.4062 36.1373 88.5528 36.0086 88.7275 35.9389C88.9022 35.8691 89.0947 35.8623 89.2736 35.9196C89.9786 35.6933 92.081 35.8982 92.591 36.1031C93.1011 36.3081 94.1087 35.6549 93.9387 35.2023C93.7687 34.7498 92.9145 34.6388 92.2759 34.6388C91.6373 34.6388 91.1687 34.0325 91.5004 33.358C91.8322 32.6834 95.3154 31.5649 95.0749 31.1166C94.8344 30.6683 92.4791 32.0174 91.8031 32.2608C91.1272 32.5041 89.8832 33.7166 89.2073 34.2716C88.7345 34.6644 88.1457 35.3774 87.7642 35.736L87.7808 35.7531ZM79.9019 25.7287L80.072 25.8227C80.5074 26.0319 80.922 25.6647 81.6643 25.5964C82.1438 25.5636 82.6251 25.5721 83.1032 25.622C82.9997 25.0229 82.9443 24.416 82.9374 23.8076C82.9374 23.0092 82.871 22.5951 82.1951 22.7317C81.5192 22.8683 81.3657 23.6368 80.6774 24.3626C79.989 25.0884 80.13 25.5366 79.9019 25.7287ZM83.6755 27.2102C83.7268 27.2738 83.7838 27.3324 83.8455 27.3852C84.5878 27.9744 85.6659 28.0769 85.7696 28.4611C85.8733 28.8453 84.3846 29.2595 84.3846 30.1688C84.3846 31.0782 84.2851 32.7048 84.3514 33.3964C84.3342 33.7586 84.1863 34.1011 83.9367 34.357C83.3562 34.404 82.9291 34.2417 82.8835 33.8489C82.8254 33.3366 83.153 33.8148 83.1198 31.9747C83.0866 30.1347 82.2905 29.1613 80.5903 29.2338C78.8901 29.3064 77.5217 31.2105 76.6094 32.6493C75.6971 34.088 74.7226 36.6069 74.2167 37.9603C73.828 39.2461 73.5423 40.5626 73.3625 41.8966C73.752 41.4563 74.1017 40.9804 74.4075 40.4749C74.7766 39.9191 75.2222 39.4215 75.7303 38.9977C75.9584 39.0276 76.2362 39.1045 76.3274 39.2923C76.4974 39.6424 75.892 40.1248 75.4981 40.4407C75.1041 40.7567 74.9258 42.1485 75.2949 42.1485C75.6639 42.1485 76.4104 41.1751 76.9163 40.7609C77.6943 40.2339 78.577 39.8926 79.4997 39.7619C80.1814 39.6867 80.8681 39.8458 81.4528 40.2145C82.0251 40.5603 83.3396 41.4611 83.5262 41.2562C83.7128 41.0512 83.2567 40.0394 82.5849 39.2752C81.9131 38.511 80.3913 38.3744 79.649 38.3061C78.9067 38.2378 77.2895 38.511 77.0531 38.3061C76.908 38.1737 77.0324 37.7767 77.1526 37.4949C77.3019 37.5419 77.5134 37.4693 78.1147 37.0381C78.8096 36.4827 79.5739 36.026 80.3871 35.6805C81.2621 35.3304 82.0043 35.0017 82.813 35.2792C83.1074 35.3816 83.3562 35.4585 83.5552 35.5182C83.5568 36.7084 83.7387 37.8909 84.0943 39.0233C84.397 39.9626 85.0729 41.6959 85.1061 42.1143C85.1393 42.5327 85.3425 42.4601 85.4793 42.2893C85.6162 42.1186 85.4088 40.936 85.9852 40.4493C86.5616 39.9626 86.8602 39.0959 87.4988 39.0959C88.1374 39.0959 88.0047 40.1333 88.4774 40.8292C88.9502 41.5251 89.8251 42.1826 89.962 42.5668C90.0863 43.8084 90.0064 45.0627 89.7256 46.2769C89.4229 47.182 89.6261 47.9846 89.1534 48.0486L88.7387 48.1297C88.4003 47.8252 88.0352 47.5536 87.6481 47.3186C87.1505 47.0197 86.6073 45.4486 85.9728 44.8253C85.3383 44.202 84.0155 43.2286 83.2733 42.6907C82.531 42.1527 80.2751 40.9189 79.2302 40.9573C78.1852 40.9957 77.4097 42.204 76.9702 42.5156C76.5306 42.8273 75.892 43.0365 75.552 42.8657C75.212 42.6949 75.1829 42.0673 75.0834 42.3448C75.0364 42.7865 75.1187 43.2325 75.3198 43.6256C75.4856 44.0099 76.0579 44.7741 75.9915 45.1199C75.9252 45.4657 75.7884 45.5724 75.2161 45.3974C74.6438 45.2223 74.4407 44.6673 73.8684 43.9074C73.2961 43.1475 73.8352 41.8966 73.5657 41.8966C73.2961 41.8966 73.3957 42.4857 72.8898 42.4857C72.5746 42.4857 72.4046 41.6788 72.3175 41.0683C72.3963 40.6414 72.4709 40.3084 72.5207 40.0907C72.6866 39.3649 73.7647 36.8631 73.9679 35.7872C74.1711 34.7113 73.8684 33.4989 74.2706 32.6664C74.6729 31.8338 75.6557 29.9425 76.655 29.0887C77.6544 28.2348 79.0477 27.381 80.0595 27.3554C81.0713 27.3297 82.0831 27.1462 83.2276 27.2145C83.3667 27.2246 83.5065 27.2131 83.6423 27.1803L83.6755 27.2102ZM87.1836 48.5097C86.91 47.9931 86.3294 46.8575 85.8028 46.4049C85.1932 45.8841 82.3278 42.5882 82.0251 42.9895C81.7224 43.3908 83.3396 44.2404 83.2691 45.8713C83.1986 47.5021 82.6305 47.579 83.0327 48.403C83.2202 48.7738 83.4514 49.1194 83.7211 49.4319C83.827 49.3951 83.935 49.3652 84.0446 49.3422C84.7205 49.2013 85.9686 48.578 86.6736 48.578C86.8431 48.5755 87.0123 48.5598 87.1795 48.531L87.1836 48.5097ZM82.8005 49.8033C82.7289 49.358 82.5555 48.9365 82.2946 48.5737C82.2491 48.5082 82.2128 48.4363 82.1868 48.3603C81.7934 48.5681 81.3751 48.7217 80.9428 48.8171C80.1715 48.9708 78.4298 49.1245 77.6254 48.8939C77.5466 49.1373 77.4802 49.3209 77.4512 49.4063C77.3517 49.6624 77.3268 49.9314 77.2522 50.1021C77.7162 50.3345 78.2008 50.5203 78.6994 50.6572C79.7831 50.7239 80.8693 50.5791 81.9007 50.2302C82.1868 50.115 82.4937 49.9527 82.8088 49.8033H82.8005ZM76.1035 49.5429C76.1284 49.0434 76.456 48.0828 76.2943 47.6729C75.8548 46.9361 75.2085 46.354 74.4407 46.0036C74.305 45.9532 74.1601 45.9347 74.0166 45.9495C73.8731 45.9643 73.7346 46.012 73.6113 46.089C73.6567 46.118 73.6917 46.1615 73.7108 46.2128C73.914 46.6995 74.9549 48.9196 75.3986 49.1629C75.523 49.2355 75.7884 49.3721 76.1159 49.5429H76.1035ZM71.6333 46.1274C71.6863 46.0905 71.7478 46.0685 71.8116 46.0634C72.1807 45.9908 72.1807 45.6792 72.1807 45.265C72.1807 44.8509 72.2138 44.1508 71.9816 43.9458C71.9143 43.8821 71.8545 43.8104 71.8033 43.7324C71.6764 44.4365 71.6111 45.1509 71.6084 45.867C71.6094 45.9586 71.6177 46.05 71.6333 46.1402V46.1274ZM76.9702 36.6923C77.0734 36.3459 77.2866 36.0452 77.5756 35.8384C78.1147 35.5268 78.6911 34.7967 79.4292 34.1307C80.1673 33.4647 81.6892 32.154 80.9137 31.5691C80.1383 30.9843 78.9938 31.9961 78.3179 32.82C77.642 33.644 77.8451 35.3176 77.4429 35.6677C77.2169 35.9573 77.0415 36.2853 76.9246 36.6368L76.9702 36.6923Z" fill="#252F80"/>
</g>
<defs>
<filter id="filter0_d_347_3598" x="0.580078" y="101.76" width="181.533" height="22.48" filterUnits="userSpaceOnUse" color-interpolation-filters="sRGB">
<feFlood flood-opacity="0" result="BackgroundImageFix"/>
<feColorMatrix in="SourceAlpha" type="matrix" values="0 0 0 0 0 0 0 0 0 0 0 0 0 0 0 0 0 0 127 0" result="hardAlpha"/>
<feOffset dy="4"/>
<feGaussianBlur stdDeviation="2"/>
<feColorMatrix type="matrix" values="0 0 0 0 0.00649303 0 0 0 0 0.386793 0 0 0 0 0.779167 0 0 0 0.31 0"/>
<feBlend mode="normal" in2="BackgroundImageFix" result="effect1_dropShadow_347_3598"/>
<feBlend mode="normal" in="SourceGraphic" in2="effect1_dropShadow_347_3598" result="shape"/>
</filter>
<filter id="filter1_d_347_3598" x="17.4734" y="127.917" width="148.887" height="21.0225" filterUnits="userSpaceOnUse" color-interpolation-filters="sRGB">
<feFlood flood-opacity="0" result="BackgroundImageFix"/>
<feColorMatrix in="SourceAlpha" type="matrix" values="0 0 0 0 0 0 0 0 0 0 0 0 0 0 0 0 0 0 127 0" result="hardAlpha"/>
<feOffset dy="4"/>
<feGaussianBlur stdDeviation="2"/>
<feComposite in2="hardAlpha" operator="out"/>
<feColorMatrix type="matrix" values="0 0 0 0 0.00784314 0 0 0 0 0.388235 0 0 0 0 0.780392 0 0 0 0.21 0"/>
<feBlend mode="normal" in2="BackgroundImageFix" result="effect1_dropShadow_347_3598"/>
<feBlend mode="normal" in="SourceGraphic" in2="effect1_dropShadow_347_3598" result="shape"/>
</filter>
<clipPath id="clip0_347_3598">
<rect width="46" height="52" fill="white" transform="translate(68.7761 15)"/>
</clipPath>
</defs>
</svg>
