<svg width="26" height="26" viewBox="0 0 26 26" fill="none" xmlns="http://www.w3.org/2000/svg">
<g opacity="0.5">
<path d="M18.4166 14C18.9689 14 19.4166 13.5523 19.4166 13C19.4166 12.4477 18.9689 12 18.4166 12L18.4166 14ZM3.24996 12C2.69767 12 2.24996 12.4477 2.24996 13C2.24996 13.5523 2.69767 14 3.24996 14L3.24996 12ZM18.4166 12L3.24996 12L3.24996 14L18.4166 14L18.4166 12Z" fill="#003F80"/>
<path d="M23.5486 13.2034L17.515 17.5131C16.9855 17.8913 16.25 17.5128 16.25 16.8621L16.25 9.13789C16.25 8.48719 16.9855 8.10869 17.515 8.4869L23.5486 12.7966C23.6882 12.8963 23.6882 13.1037 23.5486 13.2034Z" fill="#003F80"/>
</g>
</svg>
