<svg width="42" height="36" viewBox="0 0 42 36" fill="none" xmlns="http://www.w3.org/2000/svg">
<g clip-path="url(#clip0_414_10977)">
<path d="M33.0272 22.2572L6.64326 22.6399C6.40106 15.4102 12.1083 9.47315 19.4043 9.36304C26.6875 9.26707 32.785 15.0275 33.0272 22.2572Z" stroke="white" stroke-miterlimit="10"/>
<path d="M5.23505 23.2725L34.1609 22.8572" stroke="white" stroke-miterlimit="10" stroke-linecap="round"/>
<path d="M19.2576 9.17434C19.9086 9.165 20.4192 8.63495 20.398 7.99044C20.3769 7.34593 19.8321 6.83102 19.1811 6.84036C18.5302 6.8497 18.0196 7.37975 18.0407 8.02426C18.0618 8.66877 18.6067 9.18367 19.2576 9.17434Z" stroke="white" stroke-miterlimit="10"/>
<path d="M11.5607 17.8331C11.9045 17.2212 12.4305 16.4657 13.1874 15.6863C14.1631 14.6937 15.1502 14.0937 15.8912 13.7081" stroke="white" stroke-miterlimit="10" stroke-linecap="round"/>
<path d="M4.74414 26.4383H36.2028" stroke="white" stroke-miterlimit="10" stroke-linecap="round"/>
<path d="M14.3557 28.2633L26.9376 28.1305" stroke="white" stroke-miterlimit="10" stroke-linecap="round"/>
<path d="M17.5735 29.9317L23.3818 30.0077" stroke="white" stroke-miterlimit="10" stroke-linecap="round"/>
<path d="M8.42635 34.654C10.5981 34.654 12.3587 32.957 12.3587 30.8638C12.3587 28.7705 10.5981 27.0736 8.42635 27.0736C6.25458 27.0736 4.49402 28.7705 4.49402 30.8638C4.49402 32.957 6.25458 34.654 8.42635 34.654Z" stroke="white" stroke-miterlimit="10"/>
<path d="M31.7718 1.98521C31.3821 2.45965 30.9534 3.14285 31.0119 3.95889C31.0703 4.7939 31.6159 5.17346 31.9472 5.95154C32.2395 6.63473 32.3759 7.69748 31.7134 9.34853" stroke="white" stroke-miterlimit="10" stroke-linecap="round"/>
<path d="M36.0227 2.23351C35.4771 3.23932 35.3796 4.09331 35.3601 4.60571C35.3407 5.51663 35.5745 6.23778 35.9252 7.2436C36.3539 8.55305 36.5878 8.62896 36.6852 9.31216C36.7826 9.9574 36.7437 10.9063 35.9837 12.1968" stroke="white" stroke-miterlimit="10" stroke-linecap="round"/>
<path d="M32.02 34.654C34.1917 34.654 35.9523 32.957 35.9523 30.8638C35.9523 28.7705 34.1917 27.0736 32.02 27.0736C29.8482 27.0736 28.0876 28.7705 28.0876 30.8638C28.0876 32.957 29.8482 34.654 32.02 34.654Z" stroke="white" stroke-miterlimit="10"/>
<path d="M8.42675 31.4047C8.737 31.4047 8.98851 31.1623 8.98851 30.8633C8.98851 30.5642 8.737 30.3218 8.42675 30.3218C8.1165 30.3218 7.86499 30.5642 7.86499 30.8633C7.86499 31.1623 8.1165 31.4047 8.42675 31.4047Z" stroke="white" stroke-miterlimit="10"/>
<path d="M32.0204 31.4047C32.3306 31.4047 32.5821 31.1623 32.5821 30.8633C32.5821 30.5642 32.3306 30.3218 32.0204 30.3218C31.7101 30.3218 31.4586 30.5642 31.4586 30.8633C31.4586 31.1623 31.7101 31.4047 32.0204 31.4047Z" stroke="white" stroke-miterlimit="10"/>
</g>
<defs>
<clipPath id="clip0_414_10977">
<rect width="41.0086" height="35.736" fill="white"/>
</clipPath>
</defs>
</svg>
