<svg width="60" height="76" viewBox="0 0 60 76" fill="none" xmlns="http://www.w3.org/2000/svg">
<path d="M20.8171 31.836C15.0345 35.2471 8.67377 39.2268 2.89124 42.638C3.46949 48.8918 3.46949 55.1456 4.04774 61.3994C9.83027 64.8106 16.1911 68.2217 21.9736 71.0644C27.7561 67.6532 33.5386 64.242 38.7429 60.2623C38.7429 54.0085 38.7429 48.3233 38.7429 42.0695C32.3821 39.2268 26.5996 35.8156 20.8171 31.836Z" stroke="black" stroke-width="2" stroke-miterlimit="10" stroke-linecap="round"/>
<path d="M38.7501 3.40926C32.9675 6.82042 26.6067 10.8001 20.8242 14.2113C21.4025 20.4651 21.4025 26.7189 21.9807 32.9727C27.7633 36.3839 34.124 39.795 39.9066 42.6377C45.6891 39.2265 51.4716 35.8153 56.6759 31.8357C56.6759 25.5818 56.6759 19.8966 56.6759 13.6428C50.3151 10.8001 44.5326 6.82042 38.7501 3.40926Z" stroke="black" stroke-width="2" stroke-miterlimit="10" stroke-linecap="round"/>
<path d="M38.75 26.7209C43.3761 26.7209 43.3761 19.8986 38.75 19.8986C34.124 19.8986 34.124 26.7209 38.75 26.7209Z" fill="black"/>
<path d="M46.2531 39.797C53.1922 46.0508 55.5052 54.5787 52.6139 61.4011C50.8792 65.3808 46.2531 69.3605 40.4706 69.929C35.8446 70.4975 30.6403 68.2234 27.749 64.2437C25.436 60.8326 25.436 57.4214 25.436 55.7158C25.436 49.462 28.9056 44.9138 31.7968 40.9341C34.6881 37.5229 37.0011 35.2488 39.3141 34.1117C41.6271 35.8173 43.9401 38.0914 46.2531 39.797Z" fill="white" stroke="black" stroke-width="2" stroke-miterlimit="10" stroke-linecap="round"/>
<path d="M41.0631 63.1076C41.6414 62.5391 44.5326 61.402 45.6891 58.5594C46.2674 57.4223 46.2674 56.2853 46.2674 55.1482" fill="white"/>
<path d="M41.0631 63.1076C41.6414 62.5391 44.5326 61.402 45.6891 58.5594C46.2674 57.4223 46.2674 56.2853 46.2674 55.1482" stroke="black" stroke-width="2" stroke-miterlimit="10" stroke-linecap="round"/>
<path d="M46.8313 48.5967C46.6974 48.0609 46.1545 47.7352 45.6187 47.8691C45.0829 48.0031 44.7571 48.546 44.8911 49.0818L46.8313 48.5967ZM45.4867 51.4642C45.6206 52 46.1635 52.3258 46.6993 52.1918C47.2351 52.0579 47.5609 51.5149 47.4269 50.9791L45.4867 51.4642ZM44.8911 49.0818L45.4867 51.4642L47.4269 50.9791L46.8313 48.5967L44.8911 49.0818Z" fill="black"/>
</svg>
