<svg width="72" height="57" viewBox="0 0 72 57" fill="none" xmlns="http://www.w3.org/2000/svg">
<path d="M70.7273 14.8275C69.7097 14.8275 67.9287 15.0831 66.1478 14.5719C64.8757 14.3163 62.0772 13.5495 55.7167 8.43738C51.9005 5.37011 51.1372 4.34769 48.3386 2.81406C44.5224 0.769213 42.7415 1.28042 41.9782 1.53603C40.9606 1.79163 40.1973 2.81406 38.4164 4.60329C36.6355 6.39253 35.6178 7.41495 35.3634 8.69298C34.8545 10.7378 35.6178 12.2715 36.6355 14.5719C37.9075 17.128 43.7591 24.0293 44.268 24.5405" stroke="black" stroke-width="2" stroke-miterlimit="10" stroke-linecap="round"/>
<path d="M35.1107 8.43774C35.6196 8.18213 38.4181 7.15971 40.7079 7.92653C41.2167 8.18213 42.4888 8.69334 43.5065 9.20455C43.5065 9.20455 44.0153 9.46016 44.5241 9.97137C47.3227 12.0162 53.4287 17.8951 56.2273 19.4288C59.2803 21.218 62.0789 22.7516 64.3687 21.7292C65.1319 21.218 65.3863 20.9624 67.1673 18.662C67.9305 17.8951 68.6938 16.3615 70.4747 15.0835" stroke="black" stroke-width="2" stroke-miterlimit="10" stroke-linecap="round"/>
<path d="M54.6994 32.7198C53.6818 32.9754 51.9008 33.231 50.1199 32.9754C48.0846 32.7198 46.0492 31.953 39.6888 26.3297C35.8726 23.2624 34.8549 21.9844 32.3107 20.7064C28.4945 18.6615 26.7136 19.1727 25.9503 19.4283C24.9326 19.6839 24.1694 20.7064 22.3885 22.4956C20.3531 24.2848 19.3355 25.3073 19.0811 26.3297C18.5722 27.6077 18.8266 29.3969 20.3531 32.2086C21.6252 34.5091 23.915 38.3431 27.9856 42.1772" stroke="black" stroke-width="2" stroke-miterlimit="10" stroke-linecap="round"/>
<path d="M19.0813 26.3282C19.8445 26.0726 22.3887 25.0502 24.9329 25.5614C25.4417 25.817 26.7138 26.3282 27.7315 26.8395C27.7315 26.8395 28.2403 27.0951 28.7491 27.6063C31.5477 29.6511 37.6537 35.53 40.4523 37.0637C43.5053 38.8529 46.3039 40.3865 48.5937 39.3641C49.3569 38.8529 49.6113 38.5973 51.3923 36.2969C52.1555 35.53 52.9188 33.9964 54.6997 32.7184" stroke="black" stroke-width="2" stroke-miterlimit="10" stroke-linecap="round"/>
<path d="M35.3628 50.1011C35.3628 50.8679 34.854 51.8903 34.0908 53.1683C33.8363 53.4239 32.5643 55.2132 30.2745 55.7244C27.9847 56.2356 26.2038 55.2132 23.9141 53.9351C21.8787 52.6571 20.3522 51.6347 18.0625 49.5899C14.7551 46.7782 8.90347 42.1773 6.86814 41.9217C4.8328 41.6661 3.05188 41.6661 3.05188 41.6661C3.05188 41.6661 7.37697 36.8096 8.39464 36.2984C9.66672 35.7872 10.9388 36.2984 13.2286 37.0652C16.2816 38.3432 21.6243 42.6885 24.9317 45.5002C27.7303 47.8006 29.2568 49.0786 31.5466 49.8455C32.5643 50.1011 36.1261 51.1235 37.3982 49.5899C38.1614 48.5674 37.907 47.0338 37.3982 44.989C36.6349 42.4329 35.6173 40.6437 34.854 39.6213" stroke="black" stroke-width="2" stroke-miterlimit="10" stroke-linecap="round"/>
<path d="M30.2731 33.2288L32.8172 36.5517" stroke="black" stroke-width="2" stroke-miterlimit="10" stroke-linecap="round"/>
<path d="M54.6984 32.7186C54.9528 31.6962 55.4617 29.1402 54.6984 26.3285C54.1896 24.5393 53.1719 23.2612 52.6631 22.4944" stroke="black" stroke-width="2" stroke-miterlimit="10" stroke-linecap="round"/>
<path d="M48.3392 16.3561L49.8657 19.1678" stroke="black" stroke-width="2" stroke-miterlimit="10" stroke-linecap="round"/>
</svg>
