<svg width="78" height="78" viewBox="0 0 78 78" fill="none" xmlns="http://www.w3.org/2000/svg">
<path d="M53.9853 21.8013C52.6972 20.1549 53.1656 17.8617 53.5754 15.8037C53.7511 14.7453 54.5122 11.3349 57.4398 8.57136C62.7679 3.51458 72.3702 3.86738 72.3702 3.86738C72.3702 3.92618 72.2531 7.27776 71.9603 9.74735C71.609 12.2757 71.3163 14.6865 69.8525 17.0973C69.3841 17.8617 67.6861 20.6841 64.2316 22.2129C61.2456 23.5653 56.0346 24.4473 53.9853 21.8013Z" stroke="black" stroke-width="2" stroke-miterlimit="10" stroke-linecap="round"/>
<path d="M51.0009 5.95601C51.0009 5.95601 42.9209 8.9548 39.8177 15.07C38.1783 18.3628 38.4125 21.7731 38.4711 22.7139C38.6467 25.1835 39.4079 26.8887 39.8177 27.7707C40.6374 29.4171 41.2815 30.6519 42.4525 31.0047C45.0287 31.7691 48.249 27.5355 48.6003 27.0063C50.8252 24.0075 51.1765 20.7147 51.4108 18.5979C51.5279 17.3632 51.4693 17.128 51.4108 15.8932C51.3522 14.6584 51.3522 13.6 51.4108 12.5416C51.4108 11.3656 51.3522 9.36639 51.0009 5.95601Z" stroke="black" stroke-width="2" stroke-miterlimit="10" stroke-linecap="round"/>
<path d="M70.0876 26.1216C70.0876 26.1216 66.7502 34.1184 60.4853 36.9408C57.0893 38.4696 53.7519 38.058 52.8151 37.9404C50.356 37.6464 48.7166 36.8232 47.8383 36.3528C46.2575 35.4708 45.0279 34.7652 44.7351 33.5892C44.0911 30.9432 48.4238 27.9444 49.0093 27.5916C52.1125 25.4748 55.3914 25.2985 57.4992 25.1221C58.7287 25.0633 58.9629 25.1221 60.1925 25.2397C61.4221 25.3573 62.476 25.3572 63.5299 25.416C64.7594 25.4748 66.7502 25.5924 70.0876 26.1216Z" stroke="black" stroke-width="2" stroke-miterlimit="10" stroke-linecap="round"/>
<path d="M34.493 15.9509C34.493 15.9509 27.1156 20.4785 25.3006 27.1229C24.3052 30.7097 25.1834 33.9436 25.4762 34.8844C26.1203 37.2364 27.2327 38.824 27.8182 39.5296C28.9307 40.9996 29.8089 42.1168 31.0385 42.1756C33.7318 42.4108 36.0153 37.648 36.3081 37.06C37.8889 33.6496 37.5962 30.3569 37.4205 28.2989C37.3034 27.0641 37.1863 26.8877 36.8936 25.6529C36.6008 24.4769 36.4252 23.4185 36.191 22.3601C36.0153 21.1253 35.5469 19.1849 34.493 15.9509Z" stroke="black" stroke-width="2" stroke-miterlimit="10" stroke-linecap="round"/>
<path d="M59.3761 41.3523C59.3761 41.3523 55.0433 48.8786 48.4857 50.819C44.9726 51.8774 41.6938 51.113 40.757 50.819C38.3564 50.231 36.8341 49.1726 36.0729 48.5846C34.6092 47.4674 33.4967 46.6442 33.3211 45.4682C32.9698 42.7634 37.7124 40.3527 38.2979 40.0587C41.6352 38.4123 44.9141 38.5887 47.0219 38.7063C48.2515 38.7651 48.4271 38.8827 49.6567 39.1767C50.8277 39.4119 51.8816 39.5883 52.9941 39.7647C54.1651 39.9999 56.0972 40.4115 59.3761 41.3523Z" stroke="black" stroke-width="2" stroke-miterlimit="10" stroke-linecap="round"/>
<path d="M20.0305 26.5368C20.0305 26.5368 13.1801 31.8288 12.0677 38.5907C11.4821 42.2363 12.7117 45.4115 13.063 46.2935C13.9998 48.5867 15.2294 49.9979 15.8734 50.7035C17.1616 52.0559 18.0984 53.0555 19.3279 52.9967C22.0213 52.9967 23.8363 47.9987 24.012 47.3519C25.2415 43.8239 24.5975 40.5311 24.1876 38.4731C23.9534 37.2972 23.8363 37.062 23.4265 35.886C23.0166 34.71 22.7239 33.7104 22.4311 32.652C22.0213 31.5348 21.3772 29.6532 20.0305 26.5368Z" stroke="black" stroke-width="2" stroke-miterlimit="10" stroke-linecap="round"/>
<path d="M48.7805 54.9364C48.7805 54.9364 43.6281 61.8748 36.8362 63.0508C33.206 63.6976 30.0443 62.5216 29.1661 62.1688C26.8826 61.2868 25.4188 60.052 24.7748 59.4052C23.4281 58.1704 22.4327 57.1708 22.4327 55.936C22.4327 53.2312 27.4095 51.4084 27.995 51.1732C31.5081 49.9384 34.7869 50.5264 36.8362 50.8792C38.0072 51.1144 38.2414 51.232 39.4124 51.6436C40.5834 52.0552 41.5788 52.3492 42.6327 52.6432C43.8037 52.9372 45.6773 53.584 48.7805 54.9364Z" stroke="black" stroke-width="2" stroke-miterlimit="10" stroke-linecap="round"/>
<path d="M53.1674 22.684C40.2277 35.6787 27.288 48.6735 14.2898 61.6094" stroke="black" stroke-width="2" stroke-miterlimit="10" stroke-linecap="round"/>
<path d="M3.8667 72.3686L12.1223 63.9014" stroke="black" stroke-width="2" stroke-miterlimit="10" stroke-linecap="round"/>
<path d="M65.516 15.4856C65.3139 15.9621 64.9096 16.7635 63.9566 17.5431C62.7438 18.5178 61.3865 18.9076 60.7512 19.0592" stroke="black" stroke-width="2" stroke-miterlimit="10" stroke-linecap="round"/>
<path d="M68.1824 10.7906C68.0884 10.9655 67.9632 11.1987 67.8067 11.4902C67.7336 11.6263 67.671 11.7429 67.6188 11.8401" stroke="black" stroke-width="2" stroke-miterlimit="10" stroke-linecap="round"/>
</svg>
