<svg width="85" height="67" viewBox="0 0 85 67" fill="none" xmlns="http://www.w3.org/2000/svg">
<g clip-path="url(#clip0_414_10948)">
<path d="M83.0804 17.3527C81.885 17.3527 79.793 17.6518 77.701 17.0535C76.2068 16.7544 72.9194 15.857 65.4481 9.87428C60.9653 6.28465 60.0687 5.08811 56.7813 3.29329C52.2986 0.900208 50.2066 1.49848 49.31 1.79762C48.1146 2.09675 47.2181 3.29329 45.1261 5.38724C43.0341 7.4812 41.8387 8.67774 41.5399 10.1734C40.9422 12.5665 41.8387 14.3613 43.0341 17.0535C44.5284 20.0449 51.402 28.1216 51.9997 28.7198" stroke="black" stroke-width="2" stroke-miterlimit="10" stroke-linecap="round"/>
<path d="M41.2432 9.87471C41.8409 9.57557 45.1282 8.37903 47.8179 9.27644C48.4156 9.57557 49.9099 10.1738 51.1053 10.7721C51.1053 10.7721 51.703 11.0713 52.3007 11.6695C55.5881 14.0626 62.7606 20.9427 66.0479 22.7375C69.6342 24.8315 72.9215 26.6263 75.6112 25.4298C76.5078 24.8315 76.8066 24.5324 78.8986 21.8401C79.7952 20.9427 80.6917 19.1479 82.7837 17.6522" stroke="black" stroke-width="2" stroke-miterlimit="10" stroke-linecap="round"/>
<path d="M64.253 38.2921C63.0576 38.5912 60.9657 38.8904 58.8737 38.5912C56.4829 38.2921 54.092 37.3947 46.6207 30.8137C42.1379 27.2241 40.9425 25.7284 37.954 24.2327C33.4712 21.8396 31.3792 22.4379 30.4827 22.737C29.2873 23.0362 28.3907 24.2327 26.2987 26.3267C23.9079 28.4206 22.7125 29.6172 22.4137 30.8137C21.816 32.3094 22.1148 34.4033 23.9079 37.6938C25.4022 40.386 28.0919 44.8731 32.8735 49.3601" stroke="black" stroke-width="2" stroke-miterlimit="10" stroke-linecap="round"/>
<path d="M22.4139 30.812C23.3105 30.5129 26.299 29.3163 29.2876 29.9146C29.8853 30.2137 31.3795 30.812 32.5749 31.4103C32.5749 31.4103 33.1726 31.7094 33.7703 32.3077C37.0577 34.7008 44.2302 41.5809 47.5176 43.3757C51.1038 45.4697 54.3912 47.2645 57.0808 46.0679C57.9774 45.4697 58.2763 45.1705 60.3682 42.4783C61.2648 41.5809 62.1613 39.7861 64.2533 38.2904" stroke="black" stroke-width="2" stroke-miterlimit="10" stroke-linecap="round"/>
<path d="M41.5391 58.6334C41.5391 59.5308 40.9414 60.7274 40.0449 62.2231C39.746 62.5222 38.2517 64.6161 35.5621 65.2144C32.8724 65.8127 30.7804 64.6162 28.0908 63.1205C25.6999 61.6248 23.9068 60.4283 21.2171 58.0352C17.3321 54.7447 10.4585 49.3602 8.06763 49.0611C5.67681 48.762 3.58484 48.762 3.58484 48.762C3.58484 48.762 8.66533 43.0784 9.86074 42.4801C11.355 41.8818 12.8493 42.4801 15.5389 43.3775C19.1252 44.8732 25.4011 49.9585 29.2862 53.249C32.5736 55.9412 34.3667 57.4369 37.0563 58.3343C38.2517 58.6334 42.4357 59.83 43.93 58.0352C44.8265 56.8386 44.5277 55.0438 43.93 52.6507C43.0334 49.6594 41.838 47.5654 40.9414 46.3689" stroke="black" stroke-width="2" stroke-miterlimit="10" stroke-linecap="round"/>
<path d="M35.5605 38.8878L38.5491 42.7765" stroke="black" stroke-width="2" stroke-miterlimit="10" stroke-linecap="round"/>
<path d="M64.2519 38.2907C64.5507 37.0942 65.1485 34.1028 64.2519 30.8123C63.6542 28.7184 62.4588 27.2227 61.8611 26.3253" stroke="black" stroke-width="2" stroke-miterlimit="10" stroke-linecap="round"/>
<path d="M56.782 19.1416L58.5751 22.4321" stroke="black" stroke-width="2" stroke-miterlimit="10" stroke-linecap="round"/>
</g>
<defs>
<clipPath id="clip0_414_10948">
<rect width="84.5753" height="66.7073" fill="white"/>
</clipPath>
</defs>
</svg>
