<svg width="59" height="59" viewBox="0 0 59 59" fill="none" xmlns="http://www.w3.org/2000/svg">
<path d="M41.1366 16.6125C40.1551 15.358 40.512 13.6106 40.8243 12.0424C40.9581 11.2359 41.5381 8.6372 43.7689 6.53135C47.8289 2.6781 55.1458 2.94693 55.1458 2.94693C55.1458 2.99174 55.0566 5.54564 54.8335 7.42746C54.5658 9.35408 54.3428 11.1911 53.2274 13.0281C52.8705 13.6106 51.5766 15.7612 48.9443 16.9262C46.6689 17.9567 42.6981 18.6288 41.1366 16.6125Z" stroke="black" stroke-width="2" stroke-miterlimit="10" stroke-linecap="round"/>
<path d="M38.8625 4.53847C38.8625 4.53847 32.7056 6.82353 30.341 11.4833C29.0918 13.9924 29.2702 16.5911 29.3149 17.308C29.4487 19.1898 30.0287 20.4891 30.341 21.1612C30.9656 22.4158 31.4564 23.3567 32.3487 23.6255C34.3118 24.208 36.7656 20.982 37.0333 20.5787C38.7287 18.2937 38.9964 15.7846 39.1749 14.1716C39.2641 13.2307 39.2195 13.0515 39.1749 12.1106C39.1302 11.1696 39.1302 10.3631 39.1749 9.55665C39.1749 8.66055 39.1302 7.13717 38.8625 4.53847Z" stroke="black" stroke-width="2" stroke-miterlimit="10" stroke-linecap="round"/>
<path d="M53.4065 19.9046C53.4065 19.9046 50.8634 25.9981 46.0896 28.1488C43.5019 29.3137 40.9588 29.0001 40.245 28.9105C38.3711 28.6865 37.1219 28.0592 36.4527 27.7007C35.2481 27.0287 34.3111 26.491 34.0881 25.5949C33.5973 23.5787 36.8988 21.2936 37.345 21.0248C39.7096 19.4118 42.2081 19.2774 43.8142 19.1429C44.7511 19.0981 44.9296 19.1429 45.8665 19.2326C46.8034 19.3222 47.6065 19.3222 48.4096 19.367C49.3465 19.4118 50.8635 19.5014 53.4065 19.9046Z" stroke="black" stroke-width="2" stroke-miterlimit="10" stroke-linecap="round"/>
<path d="M26.2835 12.1546C26.2835 12.1546 20.662 15.6046 19.2789 20.6676C18.5205 23.4007 19.1897 25.865 19.4128 26.5819C19.9035 28.3741 20.7512 29.5838 21.1974 30.1215C22.0451 31.2416 22.7143 32.0929 23.6512 32.1377C25.7035 32.3169 27.4435 28.6877 27.6666 28.2397C28.8712 25.6409 28.6482 23.1319 28.5143 21.5637C28.4251 20.6228 28.3359 20.4883 28.1128 19.5474C27.8897 18.6513 27.7559 17.8448 27.5774 17.0383C27.4435 16.0974 27.0866 14.6189 26.2835 12.1546Z" stroke="black" stroke-width="2" stroke-miterlimit="10" stroke-linecap="round"/>
<path d="M45.2443 31.5103C45.2443 31.5103 41.9428 37.2454 36.9459 38.724C34.269 39.5304 31.7705 38.948 31.0566 38.724C29.2274 38.2759 28.0674 37.4694 27.4874 37.0214C26.372 36.1701 25.5243 35.5428 25.3905 34.6467C25.1228 32.5856 28.7366 30.7486 29.1828 30.5246C31.7259 29.27 34.2243 29.4045 35.8305 29.4941C36.7674 29.5389 36.9013 29.6285 37.8382 29.8525C38.7305 30.0317 39.5336 30.1662 40.3813 30.3006C41.2736 30.4798 42.7459 30.7934 45.2443 31.5103Z" stroke="black" stroke-width="2" stroke-miterlimit="10" stroke-linecap="round"/>
<path d="M15.2632 20.221C15.2632 20.221 10.0432 24.2534 9.19552 29.4061C8.74937 32.184 9.68629 34.6035 9.95398 35.2755C10.6678 37.0229 11.6048 38.0983 12.0955 38.6359C13.0771 39.6665 13.7909 40.4281 14.7278 40.3833C16.7801 40.3833 18.1632 36.5749 18.2971 36.082C19.234 33.3937 18.7432 30.8846 18.4309 29.3164C18.2524 28.4203 18.1632 28.2411 17.8509 27.345C17.5386 26.4489 17.3155 25.6872 17.0924 24.8807C16.7801 24.0294 16.2894 22.5957 15.2632 20.221Z" stroke="black" stroke-width="2" stroke-miterlimit="10" stroke-linecap="round"/>
<path d="M37.1707 41.8614C37.1707 41.8614 33.2445 47.1484 28.0691 48.0445C25.303 48.5374 22.8938 47.6413 22.2245 47.3725C20.4845 46.7004 19.3691 45.7595 18.8784 45.2666C17.8522 44.3257 17.0938 43.564 17.0938 42.6231C17.0938 40.5621 20.8861 39.1731 21.3322 38.9939C24.0091 38.053 26.5076 38.501 28.0691 38.7699C28.9614 38.9491 29.1399 39.0387 30.0322 39.3523C30.9245 39.666 31.683 39.89 32.4861 40.114C33.3784 40.338 34.8061 40.8309 37.1707 41.8614Z" stroke="black" stroke-width="2" stroke-miterlimit="10" stroke-linecap="round"/>
<path d="M40.5134 17.2852C30.6534 27.1871 20.7934 37.0891 10.8888 46.9462" stroke="black" stroke-width="2" stroke-miterlimit="10" stroke-linecap="round"/>
<path d="M2.94641 55.1447L9.23718 48.6927" stroke="black" stroke-width="2" stroke-miterlimit="10" stroke-linecap="round"/>
<path d="M49.9231 11.8C49.7691 12.1631 49.461 12.7737 48.7349 13.3678C47.8107 14.1105 46.7765 14.4076 46.2924 14.5231" stroke="black" stroke-width="2" stroke-miterlimit="10" stroke-linecap="round"/>
<path d="M51.9547 8.22241C51.8831 8.35569 51.7877 8.5334 51.6684 8.75553C51.6128 8.8592 51.565 8.94805 51.5253 9.02209" stroke="black" stroke-width="2" stroke-miterlimit="10" stroke-linecap="round"/>
</svg>
