<svg width="48" height="61" viewBox="0 0 48 61" fill="none" xmlns="http://www.w3.org/2000/svg">
<path d="M16.7767 25.8775C12.1165 28.6502 6.99027 31.885 2.33008 34.6578C2.7961 39.7411 2.7961 44.8244 3.26212 49.9078C7.92231 52.6805 13.0485 55.4532 17.7087 57.7638C22.3689 54.9911 27.0291 52.2184 31.2233 48.9835C31.2233 43.9002 31.2233 39.279 31.2233 34.1957C26.0971 31.885 21.4369 29.1123 16.7767 25.8775Z" stroke="black" stroke-width="2" stroke-miterlimit="10" stroke-linecap="round"/>
<path d="M31.2291 2.77116C26.5689 5.54389 21.4427 8.77874 16.7825 11.5515C17.2485 16.6348 17.2485 21.7181 17.7145 26.8015C22.3747 29.5742 27.5009 32.3469 32.1611 34.6575C36.8213 31.8848 41.4815 29.1121 45.6757 25.8772C45.6757 20.7939 45.6757 16.1727 45.6757 11.0893C40.5495 8.77874 35.8893 5.54389 31.2291 2.77116Z" stroke="black" stroke-width="2" stroke-miterlimit="10" stroke-linecap="round"/>
<path d="M31.229 21.7198C34.9571 21.7198 34.9571 16.1743 31.229 16.1743C27.5008 16.1743 27.5008 21.7198 31.229 21.7198Z" fill="black"/>
<path d="M37.2758 32.3485C42.8681 37.4319 44.7322 44.3637 42.4021 49.9091C41.004 53.144 37.2758 56.3788 32.6157 56.841C28.8875 57.3031 24.6933 55.4546 22.3632 52.2198C20.4991 49.447 20.4991 46.6743 20.4991 45.2879C20.4991 40.2046 23.2953 36.5076 25.6254 33.2728C27.9555 30.5001 29.8195 28.6516 31.6836 27.7273C33.5477 29.1137 35.4118 30.9622 37.2758 32.3485Z" fill="white" stroke="black" stroke-width="2" stroke-miterlimit="10" stroke-linecap="round"/>
<path d="M33.0931 51.2963C33.5592 50.8342 35.8893 49.9099 36.8213 47.5993C37.2873 46.6751 37.2873 45.7508 37.2873 44.8266" fill="white"/>
<path d="M33.0931 51.2963C33.5592 50.8342 35.8893 49.9099 36.8213 47.5993C37.2873 46.6751 37.2873 45.7508 37.2873 44.8266" stroke="black" stroke-width="2" stroke-miterlimit="10" stroke-linecap="round"/>
<path d="M37.9306 39.4578C37.7977 38.9218 37.2554 38.5949 36.7194 38.7278C36.1833 38.8607 35.8565 39.4029 35.9893 39.939L37.9306 39.4578ZM36.4693 41.8755C36.6022 42.4116 37.1445 42.7384 37.6805 42.6055C38.2166 42.4727 38.5435 41.9304 38.4106 41.3943L36.4693 41.8755ZM35.9893 39.939L36.4693 41.8755L38.4106 41.3943L37.9306 39.4578L35.9893 39.939Z" fill="black"/>
</svg>
