<svg width="36" height="36" viewBox="0 0 36 36" fill="none" xmlns="http://www.w3.org/2000/svg">
<path d="M24.0096 5.58681L4.62485 23.4811C-0.421039 18.2237 -0.16777 9.96478 5.18983 5.01327C10.5474 0.0808836 18.9637 0.329415 24.0096 5.58681Z" stroke="white" stroke-miterlimit="10"/>
<path d="M4.00143 24.8961L25.2565 5.28125" stroke="white" stroke-miterlimit="10" stroke-linecap="round"/>
<path d="M4.95732 4.96658C5.43547 4.52533 5.45856 3.78727 5.0089 3.31806C4.55924 2.84886 3.8071 2.8262 3.32896 3.26745C2.85081 3.7087 2.82772 4.44677 3.27738 4.91597C3.72704 5.38517 4.47917 5.40783 4.95732 4.96658Z" stroke="white" stroke-miterlimit="10"/>
<path d="M5.05347 16.5981C4.89761 15.9099 4.78072 14.9922 4.81969 13.9025C4.87813 12.5069 5.20933 11.3981 5.50156 10.6143" stroke="white" stroke-miterlimit="10" stroke-linecap="round"/>
<path d="M3.67188 26.6328H35.1239" stroke="white" stroke-miterlimit="10" stroke-linecap="round"/>
<path d="M13.2812 28.4698L25.8605 28.3359" stroke="white" stroke-miterlimit="10" stroke-linecap="round"/>
<path d="M16.4983 30.1509L22.3054 30.2274" stroke="white" stroke-miterlimit="10" stroke-linecap="round"/>
<path d="M7.35338 34.9098C9.52469 34.9098 11.2849 33.2003 11.2849 31.0916C11.2849 28.9829 9.52469 27.2734 7.35338 27.2734C5.18207 27.2734 3.42188 28.9829 3.42188 31.0916C3.42188 33.2003 5.18207 34.9098 7.35338 34.9098Z" stroke="white" stroke-miterlimit="10"/>
<path d="M28.6675 8.46875C28.2779 8.94669 27.8493 9.63494 27.9077 10.457C27.9662 11.2982 28.5117 11.6805 28.8429 12.4644C29.1351 13.1526 29.2715 14.2232 28.6091 15.8865" stroke="white" stroke-miterlimit="10" stroke-linecap="round"/>
<path d="M32.9135 8.71875C32.368 9.73199 32.2706 10.5923 32.2511 11.1085C32.2316 12.0261 32.4654 12.7526 32.8161 13.7658C33.2447 15.085 33.4785 15.1614 33.5759 15.8497C33.6733 16.4997 33.6344 17.4556 32.8746 18.7556" stroke="white" stroke-miterlimit="10" stroke-linecap="round"/>
<path d="M30.9413 34.9098C33.1126 34.9098 34.8728 33.2003 34.8728 31.0916C34.8728 28.9829 33.1126 27.2734 30.9413 27.2734C28.77 27.2734 27.0098 28.9829 27.0098 31.0916C27.0098 33.2003 28.77 34.9098 30.9413 34.9098Z" stroke="white" stroke-miterlimit="10"/>
<path d="M7.35266 31.6378C7.66285 31.6378 7.9143 31.3936 7.9143 31.0923C7.9143 30.7911 7.66285 30.5469 7.35266 30.5469C7.04247 30.5469 6.79102 30.7911 6.79102 31.0923C6.79102 31.3936 7.04247 31.6378 7.35266 31.6378Z" stroke="white" stroke-miterlimit="10"/>
<path d="M30.9406 31.6378C31.2507 31.6378 31.5022 31.3936 31.5022 31.0923C31.5022 30.7911 31.2507 30.5469 30.9406 30.5469C30.6304 30.5469 30.3789 30.7911 30.3789 31.0923C30.3789 31.3936 30.6304 31.6378 30.9406 31.6378Z" stroke="white" stroke-miterlimit="10"/>
</svg>
