<svg width="183" height="150" viewBox="0 0 183 150" fill="none" xmlns="http://www.w3.org/2000/svg">
<circle cx="91.3497" cy="41.3497" r="41.3497" fill="white"/>
<g filter="url(#filter0_d_347_2517)">
<path d="M4.80388 117V116.42C5.33721 116.167 5.88388 116.007 6.44388 115.94V104.08C6.17721 104.027 5.90388 103.96 5.62388 103.88C5.34388 103.787 5.07054 103.687 4.80388 103.58V103H6.92388C7.17721 103 7.41721 102.993 7.64388 102.98C7.88388 102.967 8.13054 102.953 8.38388 102.94C8.63721 102.927 8.91054 102.913 9.20388 102.9C9.49721 102.887 9.83054 102.88 10.2039 102.88C10.7372 102.88 11.2772 102.927 11.8239 103.02C12.3839 103.1 12.8839 103.26 13.3239 103.5C13.7772 103.74 14.1439 104.08 14.4239 104.52C14.7039 104.947 14.8439 105.507 14.8439 106.2C14.8439 106.547 14.7905 106.893 14.6839 107.24C14.5772 107.587 14.4105 107.913 14.1839 108.22C13.9705 108.513 13.6972 108.773 13.3639 109C13.0305 109.227 12.6372 109.393 12.1839 109.5V109.58C12.5839 109.647 12.9772 109.76 13.3639 109.92C13.7639 110.08 14.1172 110.3 14.4239 110.58C14.7305 110.847 14.9772 111.18 15.1639 111.58C15.3639 111.98 15.4639 112.46 15.4639 113.02C15.4639 113.74 15.3039 114.36 14.9839 114.88C14.6639 115.4 14.2439 115.827 13.7239 116.16C13.2172 116.493 12.6372 116.74 11.9839 116.9C11.3305 117.047 10.6705 117.12 10.0039 117.12C9.53721 117.12 9.01054 117.1 8.42388 117.06C7.83721 117.02 7.27054 117 6.72388 117H4.80388ZM10.1439 116.08C10.6239 116.08 11.0705 116.007 11.4839 115.86C11.9105 115.713 12.2705 115.513 12.5639 115.26C12.8705 114.993 13.1105 114.68 13.2839 114.32C13.4572 113.947 13.5439 113.547 13.5439 113.12C13.5439 112.587 13.4372 112.147 13.2239 111.8C13.0239 111.44 12.7439 111.16 12.3839 110.96C12.0372 110.747 11.6305 110.6 11.1639 110.52C10.7105 110.44 10.2372 110.4 9.74388 110.4H8.24388V115.92C8.43054 115.973 8.65054 116.013 8.90388 116.04C9.17054 116.067 9.58388 116.08 10.1439 116.08ZM9.24388 109.36C9.47054 109.36 9.73721 109.353 10.0439 109.34C10.3639 109.313 10.6239 109.287 10.8239 109.26C11.4372 109.047 11.9372 108.707 12.3239 108.24C12.7239 107.76 12.9239 107.2 12.9239 106.56C12.9239 105.68 12.6572 105.02 12.1239 104.58C11.6039 104.14 10.9039 103.92 10.0239 103.92C9.61054 103.92 9.25721 103.927 8.96388 103.94C8.67054 103.953 8.43054 103.973 8.24388 104V109.36H9.24388ZM17.1086 103H22.5886V103.58C22.2686 103.7 21.9486 103.807 21.6286 103.9C21.3086 103.98 20.9886 104.04 20.6686 104.08V115.96H25.2686L26.4486 112.74H26.9686C27.0086 113.02 27.0419 113.347 27.0686 113.72C27.1086 114.08 27.1352 114.46 27.1486 114.86C27.1752 115.247 27.1886 115.627 27.1886 116C27.1886 116.373 27.1819 116.707 27.1686 117H17.1086V116.42C17.4286 116.273 17.7219 116.167 17.9886 116.1C18.2552 116.033 18.5086 115.98 18.7486 115.94V104.08C18.4419 104.027 18.1486 103.96 17.8686 103.88C17.5886 103.787 17.3352 103.687 17.1086 103.58V103ZM31.9451 117H27.5051V116.42C27.9851 116.207 28.4651 116.047 28.9451 115.94L34.0051 102.76H34.5851L39.6451 115.94C39.9118 115.993 40.1718 116.053 40.4251 116.12C40.6918 116.187 40.9385 116.287 41.1651 116.42V117H36.0451V116.42C36.3118 116.313 36.5851 116.22 36.8651 116.14C37.1451 116.06 37.4185 115.993 37.6851 115.94L36.3251 112.28H31.5451L30.2251 115.94C30.7851 116.02 31.3585 116.18 31.9451 116.42V117ZM31.9451 111.24H35.9851L34.4051 107L34.0251 105.28H33.9851L33.4851 107.04L31.9451 111.24ZM50.8975 103H55.2175V103.58C54.6575 103.953 54.1108 104.22 53.5775 104.38V117.24H52.4375L45.1775 106.22L44.3975 104.66H44.3375L44.5175 106.22V115.72C45.0641 115.867 45.5775 116.1 46.0575 116.42V117H41.7375V116.42C41.9775 116.273 42.2308 116.147 42.4975 116.04C42.7775 115.92 43.0708 115.813 43.3775 115.72V104.26C43.1108 104.153 42.8441 104.04 42.5775 103.92C42.3241 103.8 42.0841 103.68 41.8575 103.56V103H45.2375L51.5375 112.5L52.4575 114.22H52.5375L52.4375 112.5V104.38C52.1575 104.26 51.8841 104.133 51.6175 104C51.3641 103.867 51.1241 103.727 50.8975 103.58V103ZM66.7459 113.36H67.2659C67.3326 113.733 67.3926 114.207 67.4459 114.78C67.4992 115.34 67.5126 115.887 67.4859 116.42C67.2859 116.58 67.0459 116.713 66.7659 116.82C66.4859 116.913 66.1859 116.993 65.8659 117.06C65.5592 117.127 65.2392 117.173 64.9059 117.2C64.5859 117.227 64.2792 117.24 63.9859 117.24C62.8659 117.24 61.8659 117.1 60.9859 116.82C60.1059 116.527 59.3592 116.087 58.7459 115.5C58.1459 114.913 57.6792 114.167 57.3459 113.26C57.0259 112.34 56.8659 111.253 56.8659 110C56.8659 108.693 57.0459 107.587 57.4059 106.68C57.7659 105.76 58.2526 105.013 58.8659 104.44C59.4792 103.853 60.1926 103.427 61.0059 103.16C61.8192 102.893 62.6726 102.76 63.5659 102.76C64.4459 102.76 65.1859 102.82 65.7859 102.94C66.3859 103.047 66.9126 103.213 67.3659 103.44C67.3659 103.653 67.3592 103.907 67.3459 104.2C67.3326 104.48 67.3126 104.78 67.2859 105.1C67.2592 105.42 67.2259 105.733 67.1859 106.04C67.1459 106.347 67.1059 106.627 67.0659 106.88H66.5459L65.5059 104C65.3592 103.92 65.1126 103.867 64.7659 103.84C64.4326 103.813 64.0992 103.8 63.7659 103.8C63.0992 103.8 62.4659 103.927 61.8659 104.18C61.2792 104.42 60.7592 104.8 60.3059 105.32C59.8659 105.827 59.5126 106.473 59.2459 107.26C58.9792 108.033 58.8459 108.947 58.8459 110C58.8459 110.947 58.9659 111.807 59.2059 112.58C59.4459 113.34 59.7926 113.993 60.2459 114.54C60.6992 115.073 61.2526 115.487 61.9059 115.78C62.5592 116.06 63.2992 116.2 64.1259 116.2C64.5659 116.2 64.9326 116.167 65.2259 116.1C65.5192 116.033 65.7126 115.947 65.8059 115.84L66.7459 113.36ZM74.1203 117V116.42C74.5869 116.207 75.1336 116.047 75.7603 115.94V104.08C75.4536 104.013 75.1603 103.94 74.8803 103.86C74.6003 103.767 74.3469 103.673 74.1203 103.58V103H76.1603C76.3869 103 76.6536 102.993 76.9603 102.98C77.2669 102.967 77.5803 102.953 77.9003 102.94C78.2336 102.913 78.547 102.893 78.8403 102.88C79.147 102.853 79.4003 102.84 79.6003 102.84C81.867 102.84 83.607 103.447 84.8203 104.66C86.047 105.873 86.6603 107.593 86.6603 109.82C86.6603 110.873 86.507 111.853 86.2003 112.76C85.9069 113.653 85.4536 114.427 84.8403 115.08C84.227 115.733 83.447 116.247 82.5003 116.62C81.567 116.993 80.4603 117.18 79.1803 117.18C78.9803 117.18 78.7536 117.167 78.5003 117.14C78.247 117.127 77.9803 117.107 77.7003 117.08C77.4203 117.067 77.1336 117.047 76.8403 117.02C76.5603 117.007 76.2936 117 76.0403 117H74.1203ZM79.3203 103.88C78.9736 103.88 78.6403 103.887 78.3203 103.9C78.0003 103.9 77.7469 103.92 77.5603 103.96V116.08C77.627 116.093 77.747 116.107 77.9203 116.12C78.0936 116.12 78.2803 116.127 78.4803 116.14C78.6803 116.14 78.867 116.14 79.0403 116.14C79.2269 116.14 79.3603 116.14 79.4403 116.14C80.3603 116.14 81.1403 115.967 81.7803 115.62C82.4203 115.273 82.9403 114.813 83.3403 114.24C83.7536 113.653 84.0536 112.98 84.2403 112.22C84.427 111.46 84.5203 110.66 84.5203 109.82C84.5203 109.167 84.427 108.493 84.2403 107.8C84.067 107.093 83.7736 106.453 83.3603 105.88C82.9603 105.293 82.427 104.813 81.7603 104.44C81.0936 104.067 80.2803 103.88 79.3203 103.88ZM97.7604 103C97.7471 103.533 97.7204 104.073 97.6804 104.62C97.6538 105.153 97.6071 105.693 97.5404 106.24H97.0204L96.2004 104.04H91.8404V109.34H95.1004L95.8804 107.86H96.3804C96.4604 109.18 96.4604 110.527 96.3804 111.9H95.8804L95.1004 110.38H91.8404V115.96H96.4404L97.4204 113.56H97.9204C98.0138 114.12 98.0804 114.687 98.1204 115.26C98.1604 115.833 98.1671 116.413 98.1404 117H88.2804V116.42C88.7471 116.207 89.2938 116.047 89.9204 115.94V104.08C89.6538 104.027 89.3804 103.96 89.1004 103.88C88.8204 103.787 88.5471 103.687 88.2804 103.58V103H97.7604ZM104.784 117V116.42C105.318 116.167 105.864 116.007 106.424 115.94V104.08C106.158 104.027 105.884 103.96 105.604 103.88C105.324 103.787 105.051 103.687 104.784 103.58V103H106.904C107.158 103 107.398 102.993 107.624 102.98C107.864 102.967 108.111 102.953 108.364 102.94C108.618 102.927 108.891 102.913 109.184 102.9C109.478 102.887 109.811 102.88 110.184 102.88C110.718 102.88 111.258 102.927 111.804 103.02C112.364 103.1 112.864 103.26 113.304 103.5C113.758 103.74 114.124 104.08 114.404 104.52C114.684 104.947 114.824 105.507 114.824 106.2C114.824 106.547 114.771 106.893 114.664 107.24C114.558 107.587 114.391 107.913 114.164 108.22C113.951 108.513 113.678 108.773 113.344 109C113.011 109.227 112.618 109.393 112.164 109.5V109.58C112.564 109.647 112.958 109.76 113.344 109.92C113.744 110.08 114.098 110.3 114.404 110.58C114.711 110.847 114.958 111.18 115.144 111.58C115.344 111.98 115.444 112.46 115.444 113.02C115.444 113.74 115.284 114.36 114.964 114.88C114.644 115.4 114.224 115.827 113.704 116.16C113.198 116.493 112.618 116.74 111.964 116.9C111.311 117.047 110.651 117.12 109.984 117.12C109.518 117.12 108.991 117.1 108.404 117.06C107.818 117.02 107.251 117 106.704 117H104.784ZM110.124 116.08C110.604 116.08 111.051 116.007 111.464 115.86C111.891 115.713 112.251 115.513 112.544 115.26C112.851 114.993 113.091 114.68 113.264 114.32C113.438 113.947 113.524 113.547 113.524 113.12C113.524 112.587 113.418 112.147 113.204 111.8C113.004 111.44 112.724 111.16 112.364 110.96C112.018 110.747 111.611 110.6 111.144 110.52C110.691 110.44 110.218 110.4 109.724 110.4H108.224V115.92C108.411 115.973 108.631 116.013 108.884 116.04C109.151 116.067 109.564 116.08 110.124 116.08ZM109.224 109.36C109.451 109.36 109.718 109.353 110.024 109.34C110.344 109.313 110.604 109.287 110.804 109.26C111.418 109.047 111.918 108.707 112.304 108.24C112.704 107.76 112.904 107.2 112.904 106.56C112.904 105.68 112.638 105.02 112.104 104.58C111.584 104.14 110.884 103.92 110.004 103.92C109.591 103.92 109.238 103.927 108.944 103.94C108.651 103.953 108.411 103.973 108.224 104V109.36H109.224ZM117.089 103H122.569V103.58C122.249 103.7 121.929 103.807 121.609 103.9C121.289 103.98 120.969 104.04 120.649 104.08V115.96H125.249L126.429 112.74H126.949C126.989 113.02 127.022 113.347 127.049 113.72C127.089 114.08 127.116 114.46 127.129 114.86C127.156 115.247 127.169 115.627 127.169 116C127.169 116.373 127.162 116.707 127.149 117H117.089V116.42C117.409 116.273 117.702 116.167 117.969 116.1C118.236 116.033 118.489 115.98 118.729 115.94V104.08C118.422 104.027 118.129 103.96 117.849 103.88C117.569 103.787 117.316 103.687 117.089 103.58V103ZM131.926 117H127.486V116.42C127.966 116.207 128.446 116.047 128.926 115.94L133.986 102.76H134.566L139.626 115.94C139.892 115.993 140.152 116.053 140.406 116.12C140.672 116.187 140.919 116.287 141.146 116.42V117H136.026V116.42C136.292 116.313 136.566 116.22 136.846 116.14C137.126 116.06 137.399 115.993 137.666 115.94L136.306 112.28H131.526L130.206 115.94C130.766 116.02 131.339 116.18 131.926 116.42V117ZM131.926 111.24H135.966L134.386 107L134.006 105.28H133.966L133.466 107.04L131.926 111.24ZM150.878 103H155.198V103.58C154.638 103.953 154.091 104.22 153.558 104.38V117.24H152.418L145.158 106.22L144.378 104.66H144.318L144.498 106.22V115.72C145.045 115.867 145.558 116.1 146.038 116.42V117H141.718V116.42C141.958 116.273 142.211 116.147 142.478 116.04C142.758 115.92 143.051 115.813 143.358 115.72V104.26C143.091 104.153 142.825 104.04 142.558 103.92C142.305 103.8 142.065 103.68 141.838 103.56V103H145.218L151.518 112.5L152.438 114.22H152.518L152.418 112.5V104.38C152.138 104.26 151.865 104.133 151.598 104C151.345 103.867 151.105 103.727 150.878 103.58V103ZM166.726 113.36H167.246C167.313 113.733 167.373 114.207 167.426 114.78C167.48 115.34 167.493 115.887 167.466 116.42C167.266 116.58 167.026 116.713 166.746 116.82C166.466 116.913 166.166 116.993 165.846 117.06C165.54 117.127 165.22 117.173 164.886 117.2C164.566 117.227 164.26 117.24 163.966 117.24C162.846 117.24 161.846 117.1 160.966 116.82C160.086 116.527 159.34 116.087 158.726 115.5C158.126 114.913 157.66 114.167 157.326 113.26C157.006 112.34 156.846 111.253 156.846 110C156.846 108.693 157.026 107.587 157.386 106.68C157.746 105.76 158.233 105.013 158.846 104.44C159.46 103.853 160.173 103.427 160.986 103.16C161.8 102.893 162.653 102.76 163.546 102.76C164.426 102.76 165.166 102.82 165.766 102.94C166.366 103.047 166.893 103.213 167.346 103.44C167.346 103.653 167.34 103.907 167.326 104.2C167.313 104.48 167.293 104.78 167.266 105.1C167.24 105.42 167.206 105.733 167.166 106.04C167.126 106.347 167.086 106.627 167.046 106.88H166.526L165.486 104C165.34 103.92 165.093 103.867 164.746 103.84C164.413 103.813 164.08 103.8 163.746 103.8C163.08 103.8 162.446 103.927 161.846 104.18C161.26 104.42 160.74 104.8 160.286 105.32C159.846 105.827 159.493 106.473 159.226 107.26C158.96 108.033 158.826 108.947 158.826 110C158.826 110.947 158.946 111.807 159.186 112.58C159.426 113.34 159.773 113.993 160.226 114.54C160.68 115.073 161.233 115.487 161.886 115.78C162.54 116.06 163.28 116.2 164.106 116.2C164.546 116.2 164.913 116.167 165.206 116.1C165.5 116.033 165.693 115.947 165.786 115.84L166.726 113.36ZM171.657 115.62C171.817 115.78 172.024 115.92 172.277 116.04C172.531 116.147 172.911 116.2 173.417 116.2C173.844 116.2 174.244 116.147 174.617 116.04C174.991 115.92 175.311 115.753 175.577 115.54C175.857 115.313 176.077 115.047 176.237 114.74C176.397 114.42 176.477 114.06 176.477 113.66C176.477 113.127 176.311 112.68 175.977 112.32C175.657 111.96 175.251 111.64 174.757 111.36C174.277 111.08 173.751 110.807 173.177 110.54C172.604 110.273 172.071 109.96 171.577 109.6C171.097 109.227 170.691 108.787 170.357 108.28C170.037 107.76 169.877 107.113 169.877 106.34C169.877 105.78 169.977 105.28 170.177 104.84C170.377 104.4 170.657 104.027 171.017 103.72C171.391 103.413 171.831 103.18 172.337 103.02C172.844 102.847 173.411 102.76 174.037 102.76C174.851 102.76 175.591 102.827 176.257 102.96C176.937 103.08 177.471 103.233 177.857 103.42C177.857 103.647 177.837 103.913 177.797 104.22C177.771 104.513 177.731 104.82 177.677 105.14C177.637 105.46 177.591 105.773 177.537 106.08C177.484 106.373 177.431 106.633 177.377 106.86H176.857L176.057 104.12C175.817 104.013 175.511 103.933 175.137 103.88C174.777 103.827 174.391 103.8 173.977 103.8C173.297 103.8 172.751 103.993 172.337 104.38C171.924 104.753 171.717 105.28 171.717 105.96C171.717 106.507 171.877 106.967 172.197 107.34C172.531 107.713 172.944 108.047 173.437 108.34C173.931 108.633 174.457 108.92 175.017 109.2C175.591 109.467 176.124 109.78 176.617 110.14C177.111 110.5 177.517 110.927 177.837 111.42C178.171 111.913 178.337 112.527 178.337 113.26C178.337 113.86 178.224 114.407 177.997 114.9C177.784 115.393 177.471 115.813 177.057 116.16C176.644 116.507 176.137 116.773 175.537 116.96C174.937 117.147 174.257 117.24 173.497 117.24C172.657 117.24 171.904 117.14 171.237 116.94C170.571 116.74 170.097 116.527 169.817 116.3C169.831 116.073 169.851 115.8 169.877 115.48C169.917 115.16 169.957 114.833 169.997 114.5C170.051 114.153 170.104 113.82 170.157 113.5C170.211 113.18 170.264 112.907 170.317 112.68H170.837L171.657 115.62Z" fill="#003F80"/>
</g>
<g filter="url(#filter1_d_347_2517)">
<path d="M30.9668 131.159C31.7871 131.916 32.1973 132.85 32.1973 133.962C32.1973 135.069 31.7871 136.001 30.9668 136.758C30.1465 137.514 29.0641 137.911 27.7197 137.947V139.28H26.1816V137.947C24.8372 137.911 23.7526 137.514 22.9277 136.758C22.1074 136.001 21.6973 135.069 21.6973 133.962C21.6973 132.85 22.1074 131.916 22.9277 131.159C23.7526 130.403 24.8372 130.006 26.1816 129.97V128.917H27.7197V129.97C29.0641 130.006 30.1465 130.403 30.9668 131.159ZM29.8867 135.855C30.4017 135.377 30.6592 134.746 30.6592 133.962C30.6592 133.178 30.4017 132.549 29.8867 132.075C29.3763 131.597 28.654 131.339 27.7197 131.303V136.621C28.654 136.585 29.3763 136.329 29.8867 135.855ZM24.0078 132.075C23.4974 132.549 23.2422 133.178 23.2422 133.962C23.2422 134.746 23.4974 135.377 24.0078 135.855C24.5228 136.329 25.2474 136.585 26.1816 136.621V131.303C25.2474 131.339 24.5228 131.597 24.0078 132.075ZM38.6321 139.137C38.3814 139.137 38.1376 139.107 37.9006 139.048C37.6636 138.989 37.4608 138.916 37.2922 138.829C37.1236 138.738 36.9732 138.647 36.8411 138.556C36.7135 138.46 36.62 138.385 36.5608 138.33L36.4651 138.228V141.939H35.0637V132.28H36.4651V133.053C36.5289 132.989 36.6177 132.905 36.7317 132.8C36.8502 132.695 37.0985 132.558 37.4768 132.39C37.8551 132.221 38.2401 132.137 38.6321 132.137C39.5207 132.137 40.2909 132.479 40.9426 133.162C41.5989 133.841 41.927 134.666 41.927 135.637C41.927 136.607 41.5989 137.435 40.9426 138.118C40.2909 138.797 39.5207 139.137 38.6321 139.137ZM39.9104 134.058C39.5002 133.62 39.0286 133.401 38.4954 133.401C37.9621 133.401 37.4905 133.62 37.0803 134.058C36.6702 134.495 36.4651 135.024 36.4651 135.644C36.4651 136.259 36.6702 136.785 37.0803 137.223C37.4905 137.66 37.9621 137.879 38.4954 137.879C39.0286 137.879 39.5002 137.66 39.9104 137.223C40.3205 136.785 40.5256 136.259 40.5256 135.644C40.5256 135.024 40.3205 134.495 39.9104 134.058ZM50.1118 139H48.7104V138.303C48.6922 138.321 48.6603 138.351 48.6147 138.392C48.5737 138.433 48.4871 138.501 48.355 138.597C48.2274 138.688 48.0884 138.772 47.938 138.85C47.7876 138.923 47.5985 138.989 47.3706 139.048C47.1427 139.107 46.9126 139.137 46.6802 139.137C45.9966 139.137 45.4292 138.938 44.978 138.542C44.5268 138.146 44.3013 137.692 44.3013 137.182C44.3013 136.63 44.4744 136.168 44.8208 135.794C45.1717 135.42 45.6502 135.183 46.2563 135.083L48.7104 134.659C48.7104 134.304 48.5783 134.005 48.3139 133.764C48.0542 133.522 47.7192 133.401 47.3091 133.401C46.9536 133.401 46.63 133.477 46.3384 133.627C46.0513 133.773 45.853 133.921 45.7436 134.071L45.5591 134.311L44.6499 133.401C44.6772 133.365 44.7137 133.319 44.7593 133.265C44.8094 133.205 44.9165 133.105 45.0805 132.964C45.2492 132.818 45.4269 132.688 45.6138 132.574C45.8006 132.46 46.0467 132.36 46.352 132.273C46.6619 132.182 46.9809 132.137 47.3091 132.137C48.1294 132.137 48.8016 132.381 49.3257 132.868C49.8498 133.351 50.1118 133.948 50.1118 134.659V139ZM46.8921 137.879C47.4617 137.879 47.9061 137.71 48.2251 137.373C48.5486 137.031 48.7104 136.546 48.7104 135.917V135.78L46.5366 136.129C46.286 136.174 46.0832 136.277 45.9282 136.437C45.7733 136.596 45.6958 136.797 45.6958 137.038C45.6958 137.261 45.8029 137.457 46.0171 137.626C46.2358 137.795 46.5275 137.879 46.8921 137.879ZM54.7351 136.197V139H53.3337V132.28H54.7351V134.939H58.0232V132.28H59.4245V139H58.0232V136.197H54.7351ZM62.6464 139V132.28H64.0478V137.742H67.1992V132.28H68.6005V137.742H69.5781V140.682H68.1767V139H62.6464ZM73.8459 139.697L74.1262 139L71.3918 132.28H72.8615L74.8234 137.182L76.7854 132.28H78.2551L75.2404 139.697C74.8941 140.527 74.55 141.108 74.2082 141.44C73.871 141.773 73.4471 141.939 72.9367 141.939C72.7499 141.939 72.5744 141.928 72.4104 141.905C72.2463 141.882 72.1255 141.857 72.048 141.83L71.9523 141.803V140.538C72.1848 140.629 72.4195 140.677 72.6564 140.682C73.1896 140.677 73.5861 140.349 73.8459 139.697ZM85.1069 134.03C85.1069 134.34 85.0203 134.611 84.8471 134.844C84.6785 135.076 84.5053 135.229 84.3276 135.302L84.061 135.432C84.0974 135.441 84.1453 135.457 84.2045 135.479C84.2683 135.502 84.3732 135.557 84.519 135.644C84.6694 135.726 84.8015 135.826 84.9155 135.944C85.034 136.058 85.1411 136.218 85.2368 136.423C85.337 136.628 85.3871 136.858 85.3871 137.113C85.3871 137.674 85.1365 138.152 84.6352 138.549C84.1385 138.941 83.4571 139.137 82.5913 139.137C82.2631 139.137 81.9464 139.096 81.6411 139.014C81.3403 138.932 81.0896 138.834 80.8891 138.72C80.6886 138.606 80.5131 138.492 80.3627 138.378C80.2123 138.259 80.1007 138.159 80.0278 138.077L79.9321 137.947L80.8413 137.038C80.8959 137.102 80.9689 137.182 81.06 137.277C81.1557 137.373 81.3562 137.498 81.6616 137.653C81.9715 137.804 82.2814 137.879 82.5913 137.879C83.0561 137.879 83.4047 137.792 83.6371 137.619C83.8741 137.446 83.9926 137.229 83.9926 136.97C83.9926 136.71 83.8741 136.493 83.6371 136.32C83.4047 136.147 83.0561 136.061 82.5913 136.061H81.8188V134.939H82.5913C82.9558 134.939 83.2338 134.869 83.4252 134.728C83.6166 134.582 83.7123 134.397 83.7123 134.174C83.7123 133.946 83.6166 133.761 83.4252 133.62C83.2338 133.474 82.9558 133.401 82.5913 133.401C82.3224 133.401 82.058 133.454 81.7983 133.559C81.5431 133.659 81.3539 133.764 81.2309 133.873L81.0532 134.03L80.1371 133.121C80.201 133.048 80.2944 132.957 80.4174 132.848C80.5405 132.738 80.8139 132.592 81.2377 132.41C81.6616 132.228 82.1127 132.137 82.5913 132.137C83.366 132.137 83.9789 132.324 84.4301 132.697C84.8813 133.071 85.1069 133.515 85.1069 134.03ZM88.8141 138.098C88.1214 137.4 87.7751 136.582 87.7751 135.644C87.7751 134.7 88.1214 133.88 88.8141 133.183C89.5114 132.485 90.3317 132.137 91.2751 132.137C91.7992 132.137 92.2868 132.251 92.738 132.479C93.1891 132.702 93.5127 132.925 93.7087 133.148L94.0026 133.47L93.0934 134.379C93.0479 134.306 92.9772 134.217 92.8815 134.112C92.7904 134.003 92.5876 133.857 92.2731 133.675C91.9632 133.493 91.6305 133.401 91.2751 133.401C90.7054 133.401 90.211 133.618 89.7917 134.051C89.377 134.484 89.1696 135.015 89.1696 135.644C89.1696 136.268 89.377 136.797 89.7917 137.229C90.211 137.662 90.7054 137.879 91.2751 137.879C91.6305 137.879 91.9632 137.79 92.2731 137.612C92.5876 137.435 92.8132 137.261 92.9499 137.093L93.1618 136.833L94.071 137.742C94.0436 137.779 94.0026 137.831 93.9479 137.899C93.8932 137.963 93.7748 138.075 93.5925 138.234C93.4102 138.389 93.2188 138.528 93.0182 138.651C92.8177 138.77 92.558 138.882 92.2389 138.986C91.9199 139.087 91.5986 139.137 91.2751 139.137C90.3317 139.137 89.5114 138.79 88.8141 138.098ZM102.68 132.28L100.089 135.083L102.885 139H101.347L99.1796 135.992L98.1269 137.113V139H96.7255V132.28H98.1269V135.288L100.998 132.28H102.68ZM109.531 137.229C109.946 136.797 110.153 136.268 110.153 135.644C110.153 135.015 109.946 134.484 109.531 134.051C109.117 133.618 108.625 133.401 108.055 133.401C107.485 133.401 106.991 133.618 106.571 134.051C106.157 134.484 105.949 135.015 105.949 135.644C105.949 136.268 106.157 136.797 106.571 137.229C106.991 137.662 107.485 137.879 108.055 137.879C108.625 137.879 109.117 137.662 109.531 137.229ZM105.594 138.098C104.901 137.4 104.555 136.582 104.555 135.644C104.555 134.7 104.901 133.88 105.594 133.183C106.291 132.485 107.111 132.137 108.055 132.137C108.998 132.137 109.816 132.485 110.509 133.183C111.206 133.88 111.555 134.7 111.555 135.644C111.555 136.582 111.206 137.4 110.509 138.098C109.816 138.79 108.998 139.137 108.055 139.137C107.111 139.137 106.291 138.79 105.594 138.098ZM120.58 136.129H115.33C115.403 136.603 115.636 137.013 116.028 137.359C116.424 137.706 116.894 137.879 117.436 137.879C117.828 137.879 118.192 137.79 118.53 137.612C118.871 137.435 119.113 137.261 119.254 137.093L119.466 136.833L120.375 137.742C120.348 137.779 120.305 137.831 120.246 137.899C120.191 137.963 120.07 138.075 119.883 138.234C119.696 138.389 119.498 138.528 119.288 138.651C119.079 138.77 118.805 138.882 118.468 138.986C118.135 139.087 117.791 139.137 117.436 139.137C116.483 139.137 115.661 138.788 114.968 138.091C114.28 137.389 113.936 136.548 113.936 135.568C113.936 134.625 114.271 133.818 114.941 133.148C115.615 132.474 116.422 132.137 117.361 132.137C118.304 132.137 119.088 132.451 119.712 133.08C120.341 133.704 120.656 134.488 120.656 135.432L120.58 136.129ZM117.361 133.333C116.855 133.333 116.429 133.483 116.082 133.784C115.741 134.08 115.51 134.465 115.392 134.939H119.282C119.2 134.465 118.988 134.08 118.646 133.784C118.304 133.483 117.876 133.333 117.361 133.333ZM133.464 132.28L130.873 135.083L133.669 139H132.131L129.964 135.992L128.911 137.113V139H127.51V132.28H128.911V135.288L131.782 132.28H133.464ZM141.437 139H140.035V138.303C140.017 138.321 139.985 138.351 139.94 138.392C139.899 138.433 139.812 138.501 139.68 138.597C139.552 138.688 139.413 138.772 139.263 138.85C139.112 138.923 138.923 138.989 138.695 139.048C138.468 139.107 138.237 139.137 138.005 139.137C137.321 139.137 136.754 138.938 136.303 138.542C135.852 138.146 135.626 137.692 135.626 137.182C135.626 136.63 135.799 136.168 136.146 135.794C136.497 135.42 136.975 135.183 137.581 135.083L140.035 134.659C140.035 134.304 139.903 134.005 139.639 133.764C139.379 133.522 139.044 133.401 138.634 133.401C138.278 133.401 137.955 133.477 137.663 133.627C137.376 133.773 137.178 133.921 137.068 134.071L136.884 134.311L135.975 133.401C136.002 133.365 136.039 133.319 136.084 133.265C136.134 133.205 136.241 133.105 136.405 132.964C136.574 132.818 136.752 132.688 136.939 132.574C137.125 132.46 137.372 132.36 137.677 132.273C137.987 132.182 138.306 132.137 138.634 132.137C139.454 132.137 140.126 132.381 140.651 132.868C141.175 133.351 141.437 133.948 141.437 134.659V139ZM138.217 137.879C138.787 137.879 139.231 137.71 139.55 137.373C139.873 137.031 140.035 136.546 140.035 135.917V135.78L137.861 136.129C137.611 136.174 137.408 136.277 137.253 136.437C137.098 136.596 137.021 136.797 137.021 137.038C137.021 137.261 137.128 137.457 137.342 137.626C137.561 137.795 137.852 137.879 138.217 137.879ZM148.159 141.939V139.137C146.992 139.137 146.046 138.804 145.322 138.139C144.602 137.473 144.242 136.642 144.242 135.644C144.242 134.641 144.602 133.807 145.322 133.142C146.046 132.472 146.992 132.137 148.159 132.137V129.197H149.56V132.137C150.727 132.137 151.67 132.472 152.39 133.142C153.115 133.807 153.477 134.641 153.477 135.644C153.477 136.642 153.115 137.473 152.39 138.139C151.67 138.804 150.727 139.137 149.56 139.137V141.939H148.159ZM148.159 137.879V133.401C147.366 133.401 146.746 133.604 146.299 134.01C145.857 134.415 145.636 134.96 145.636 135.644C145.636 136.323 145.857 136.865 146.299 137.271C146.746 137.676 147.366 137.879 148.159 137.879ZM149.56 133.401V137.879C150.353 137.879 150.97 137.676 151.412 137.271C151.859 136.865 152.082 136.323 152.082 135.644C152.082 134.96 151.859 134.415 151.412 134.01C150.97 133.604 150.353 133.401 149.56 133.401ZM162.509 136.129H157.259C157.332 136.603 157.565 137.013 157.957 137.359C158.353 137.706 158.823 137.879 159.365 137.879C159.757 137.879 160.121 137.79 160.459 137.612C160.8 137.435 161.042 137.261 161.183 137.093L161.395 136.833L162.304 137.742C162.277 137.779 162.234 137.831 162.174 137.899C162.12 137.963 161.999 138.075 161.812 138.234C161.625 138.389 161.427 138.528 161.217 138.651C161.008 138.77 160.734 138.882 160.397 138.986C160.064 139.087 159.72 139.137 159.365 139.137C158.412 139.137 157.59 138.788 156.897 138.091C156.209 137.389 155.865 136.548 155.865 135.568C155.865 134.625 156.2 133.818 156.87 133.148C157.544 132.474 158.351 132.137 159.29 132.137C160.233 132.137 161.017 132.451 161.641 133.08C162.27 133.704 162.585 134.488 162.585 135.432L162.509 136.129ZM159.29 133.333C158.784 133.333 158.358 133.483 158.011 133.784C157.67 134.08 157.439 134.465 157.321 134.939H161.211C161.129 134.465 160.917 134.08 160.575 133.784C160.233 133.483 159.805 133.333 159.29 133.333Z" fill="#003F80"/>
</g>
<g clip-path="url(#clip0_347_2517)">
<path fill-rule="evenodd" clip-rule="evenodd" d="M78.4878 46.8233C79.0938 47.1331 79.7534 47.3159 80.4285 47.3613C80.9386 47.3314 81.5067 46.1616 81.6726 45.1113C81.5836 44.6738 81.4574 44.2452 81.2952 43.8306C80.8556 42.8956 80.3166 41.888 79.7443 42.1997C79.1721 42.5113 79.7443 43.9373 79.3711 44.6289C79.0594 45.2407 78.8 45.8792 78.5957 46.5373L78.5086 46.8361L78.4878 46.8233ZM80.1465 63.4736C80.1465 63.0466 80.9552 62.0135 81.6311 61.1767C82.307 60.3399 84.1191 59.0933 84.8075 58.0473C85.4959 57.0013 85.5498 57.7698 86.6984 57.3514C87.8471 56.933 88.9252 56.7281 88.9957 55.6138C89.0662 54.4995 88.9252 53.8079 88.0503 53.3895C87.1753 52.9711 86.6321 52.4844 85.8857 52.6936C85.1392 52.9028 81.5647 53.9445 80.0802 53.8079C78.5957 53.6713 77.3765 52.6936 76.4974 52.6936C75.6183 52.6936 75.2202 53.5347 74.3908 53.8122C73.5615 54.0897 72.0977 54.7856 71.4218 54.0897C70.7458 53.3938 70.2731 54.2989 69.9331 54.3672C69.593 54.4355 69.2572 52.5698 69.0581 51.447C68.8591 50.3242 69.2572 47.4808 69.3277 46.2299C69.3981 44.979 70.7458 42.4772 71.1522 41.8496C71.3347 41.5636 71.4757 41.713 71.5669 42.0204C71.6291 41.5166 71.6872 41.0299 71.7411 40.6969C71.8738 39.843 71.8074 38.3701 71.9069 36.6667C72.0065 34.9632 73.1219 31.4283 73.9306 30.3182C74.6519 29.3118 75.5044 28.4125 76.4642 27.6457C76.9411 27.3511 77.6834 25.511 78.2473 25.0841L78.1229 24.9731C77.7083 24.623 77.6875 24.4522 77.787 23.7563C77.8866 23.0604 79.2384 22.3347 80.4161 21.7113C81.4626 21.2433 82.5535 20.8885 83.6713 20.6526V20.3196C83.7708 18.6887 84.6831 17.822 86.3335 16.9041C87.0672 16.5105 87.8823 16.305 88.7096 16.305C89.5369 16.305 90.352 16.5105 91.0857 16.9041C92.2426 17.5018 95.0376 19.8926 95.7549 20.5714C96.236 20.5373 96.6548 20.6141 96.717 20.2384C96.7792 19.8627 95.954 19.0345 95.4315 18.3429C94.8529 17.5393 94.0712 16.9146 93.1715 16.537C92.2634 16.2253 91.3511 15.9478 91.3511 15.4953C91.3511 15.0427 92.4666 14.8378 93.3084 15.1494C94.1502 15.4611 94.9588 16.2808 95.954 17.0237C96.9492 17.7665 98.5167 20.3537 99.1926 20.7721C99.8685 21.1905 100.673 20.9087 101.113 20.9087C101.552 20.9087 101.552 20.1829 101.888 20.1829C102.224 20.1829 102.224 20.3196 102.999 21.1179C104.889 23.1738 106.62 25.3792 108.174 27.714C110.567 31.2191 110.368 36.4618 110.368 36.4618C110.368 36.4618 108.647 35.6079 108.174 35.0742C107.702 34.5406 106.458 33.1274 106.051 32.6066C105.401 31.8421 104.638 31.1867 103.791 30.6641C103.092 30.2871 102.323 30.0632 101.536 30.0066C101.03 30.0507 100.521 30.0406 100.018 29.9767C99.9515 30.4292 99.8934 30.8604 100.151 31.0824C100.565 31.4283 101.635 31.1508 102.311 31.2874C102.987 31.424 103.725 31.9491 104.6 32.6066C105.23 33.0612 105.74 33.6701 106.085 34.3783C106.126 34.4535 106.158 34.5339 106.18 34.6174C106.662 34.8859 107.085 35.2536 107.424 35.6976C107.753 36.1013 108.015 36.5587 108.199 37.0509C108.39 37.5077 108.614 38.067 108.539 38.4043C108.465 38.7416 108.058 38.6562 107.863 38.4726C107.669 38.289 107.81 37.7511 107.66 37.5718C107.511 37.3925 107.275 37.179 107.188 37.6401C107.1 38.1012 106.914 39.3478 107.225 39.9668C107.536 40.5859 108.295 40.6158 108.776 40.6969C109.187 40.7361 109.6 40.6388 109.953 40.4194C110.264 40.2614 110.634 40.3255 110.559 39.7918C110.484 39.2581 109.73 38.2207 109.584 37.6572C109.439 37.0936 109.489 36.8673 109.783 36.6496C109.961 36.5371 110.166 36.4775 110.374 36.4775C110.583 36.4775 110.788 36.5371 110.965 36.6496C111.4 36.9762 111.72 37.4391 111.878 37.9688C112.202 38.891 112.479 39.8301 112.707 40.7823C112.964 41.7429 113.151 42.9169 113.449 43.7324C113.737 44.3613 114.074 44.9652 114.457 45.5383C114.706 46.025 114.872 45.5383 114.93 46.6483C114.988 47.7583 115.104 51.067 114.863 52.1984C114.623 53.3297 114.146 52.5655 113.619 52.7875C113.015 53.1208 112.369 53.3665 111.699 53.5176C110.928 53.5489 110.155 53.4669 109.406 53.2742C108.85 53.1462 108.274 53.2742 108.357 52.779H108.328C107.552 53.0223 106.607 53.4706 105.292 53.4023C104.007 53.3102 102.732 53.1017 101.482 52.779C100.54 52.5356 100.403 52.3265 99.8229 52.604C99.2424 52.8815 98.7779 53.5432 97.9693 53.5774C97.1607 53.6115 96.858 53.2999 96.688 53.7524C96.4735 54.6488 96.427 55.579 96.5511 56.4933C96.7211 57.0141 97.8657 57.3941 98.8111 57.6033C99.9525 57.9283 101.034 58.4447 102.012 59.1317C102.146 59.222 102.25 59.3519 102.311 59.5043C102.372 59.6568 102.386 59.8245 102.352 59.9856C101.622 59.8032 100.911 59.5472 100.229 59.2214C99.487 58.9097 96.7211 58.0046 96.1489 57.4496C95.5766 56.8946 95.2366 55.2637 95.2698 54.3288C95.303 53.3938 94.71 53.2614 94.2953 52.7406C93.9884 52.3435 93.7023 52.1898 93.5779 51.8867C93.4825 51.9934 93.3913 52.1002 93.3125 52.2026C92.8398 52.8302 92.4334 53.731 91.6911 53.731C90.9489 53.731 90.2066 54.0128 90.1402 55.0545C90.0739 56.0962 89.8666 56.933 89.0579 57.2788C88.2493 57.6246 87.6397 58.3931 86.8975 58.4614C86.1552 58.5297 85.2761 58.8072 84.9361 59.3665C84.596 59.9258 83.7874 60.2204 83.2483 61.0358C82.7092 61.8512 82.3692 63.3284 81.8301 63.5376C81.2911 63.7468 80.1424 63.4693 80.1424 63.4693L80.1465 63.4736ZM71.0486 45.2053C70.8048 46.0835 70.6574 46.9871 70.609 47.8992C70.609 49.291 70.949 51.7928 71.625 52.2795C72.3009 52.7662 73.1095 53.2529 73.7854 52.7662C74.3784 52.3393 75.0751 51.9123 75.3736 51.4384C75.1842 51.1242 74.9692 50.8272 74.7309 50.5504C74.2243 50.0741 73.7721 49.5399 73.3832 48.958C73.0409 48.325 72.8066 47.6361 72.6907 46.9215C72.4926 47.0061 72.2889 47.076 72.0811 47.1307C72.179 47.4803 72.2579 47.8352 72.3175 48.1938C72.4946 49.0276 72.8517 49.8097 73.3624 50.4821C73.8684 51.2463 74.3079 51.7629 73.9679 51.9422C73.6278 52.1215 72.8441 51.7159 72.475 51.2463C71.9963 50.5698 71.5994 49.8358 71.2932 49.0604C71.0527 48.4926 70.9864 46.5245 71.0486 45.2181V45.2053ZM75.7137 51.1823C76.402 51.3701 78.3551 53.0608 80.0678 53.0608C82.0914 53.0608 84.5919 52.3649 85.3341 51.5281C85.3918 51.465 85.4527 51.4051 85.5166 51.3488C85.2678 51.0542 84.8697 50.6017 84.4426 50.6017C84.0155 50.6017 81.0257 51.558 79.7568 51.558C78.4878 51.558 77.2687 50.9005 76.7877 50.8664C76.3066 50.8322 75.9583 50.6572 75.7759 50.9688C75.7427 51.0309 75.7216 51.0991 75.7137 51.1695V51.1823ZM86.292 51.0627C86.8602 51.0627 87.6854 51.2933 89.2528 51.4598C90.7789 51.567 92.3105 51.3639 93.7604 50.8621C94.005 50.549 94.3361 50.3198 94.71 50.2046C95.0037 50.1208 95.2623 49.9392 95.4453 49.6882C95.6283 49.4372 95.7255 49.1309 95.7218 48.8171C95.7302 48.5786 95.8045 48.3474 95.9359 48.1508C96.0674 47.9542 96.2506 47.8003 96.464 47.7071C96.5906 47.6237 96.7401 47.5853 96.8899 47.5976C97.0396 47.61 97.1813 47.6724 97.2934 47.7754C97.4031 47.955 97.4467 48.1692 97.4163 48.3791C97.3858 48.589 97.2834 48.7807 97.1275 48.9196C96.7129 49.3465 96.0121 49.4404 96.518 49.8246C97.0239 50.2089 97.3971 50.4821 97.762 50.2729C98.639 49.5232 99.4206 48.6625 100.088 47.7113C100.279 47.3636 100.521 47.0482 100.806 46.7764C100.279 47.0197 99.9764 47.5278 99.4124 47.6302C98.7449 47.7541 98.0574 47.6907 97.4219 47.4466C96.9658 47.2118 97.4219 46.5373 97.0073 46.4391C96.5926 46.3409 96.1779 46.6953 95.6264 47.0283C95.0749 47.3613 94.3202 48.0913 93.7728 48.4158C93.334 48.683 92.8545 48.8721 92.3546 48.9751C91.9068 49.0732 91.4299 49.2696 91.1106 49.0092C91.0059 48.9062 90.9253 48.78 90.875 48.6402C90.8247 48.5004 90.806 48.3507 90.8203 48.2023C90.4111 48.4162 90.0329 48.6878 89.6965 49.0092C89.1575 49.5301 87.6232 49.8417 87.167 49.8631C86.7109 49.8844 86.1925 49.8972 86.0889 50.3498C86.0101 50.7041 86.205 50.8664 86.2879 51.0542L86.292 51.0627ZM91.8072 55.1698C91.8072 55.1698 90.8659 57.5649 90.1485 57.8082C89.4311 58.0516 88.2949 59.089 87.3163 59.4391C86.3377 59.7892 85.1268 61.1468 84.6209 61.7616C84.115 62.3764 83.4391 63.8109 82.9622 64.4342C82.4853 65.0575 82.4895 65.9967 82.9622 66.2742C83.4349 66.5517 84.0735 66.7012 84.3099 66.2059C84.5463 65.7107 84.2104 65.0276 84.5463 64.2976C84.8821 63.5675 85.6286 62.9783 86.4372 62.2141C87.2458 61.4499 88.324 59.4732 88.8962 59.1957C89.4685 58.9182 89.8085 59.6483 89.6385 59.9599C89.4685 60.2716 89.0994 60.3869 88.7262 60.8949C88.353 61.403 87.3122 62.7691 86.7731 63.0296C86.234 63.29 85.3217 64.2463 85.3217 64.8355C85.3217 65.4246 84.9526 66.6755 85.8276 66.5005C86.7026 66.3255 86.8062 66.3639 87.3453 66.6072C87.8844 66.8506 88.0212 66.5347 88.2203 65.843C88.279 65.5487 88.3963 65.2701 88.5647 65.0246C88.7331 64.7792 88.9491 64.5724 89.1989 64.4171C89.7372 64.0783 90.1525 63.5668 90.3808 62.9613C90.4803 62.5087 90.2107 62.0263 90.2439 61.5012C90.2771 60.976 90.5798 60.6687 90.9198 60.912C91.2599 61.1554 90.8867 61.9196 90.9862 62.4404C91.0857 62.9613 90.6835 63.3412 90.6835 64.0371C90.6835 64.733 90.8867 65.9113 91.4589 66.223C92.0312 66.5347 93.2462 66.6072 93.4494 66.1205C93.6525 65.6338 92.7071 65.4588 92.7071 64.7672V62.9613C92.7071 62.2995 92.2924 61.7104 92.0975 60.9846C91.8936 60.3323 91.8706 59.6344 92.0312 58.9695C92.3412 58.1538 92.7128 57.3645 93.1425 56.6086C93.412 56.1816 92.5039 56.3994 92.3339 56.2627C92.1152 55.9142 91.9344 55.542 91.7948 55.1527L91.8072 55.1698ZM94.6063 57.1806C94.3368 57.1806 94.1916 58.1882 93.864 58.2907C93.6153 58.4264 93.4098 58.6331 93.2723 58.886C93.1347 59.1389 93.071 59.4273 93.0886 59.7166C93.1549 60.3741 93.5613 61.3133 93.5945 61.9708C93.6277 62.6283 93.3913 63.8792 93.6982 64.4342C94.005 64.9892 94.4695 65.1642 94.7431 65.8601C95.0168 66.556 95.079 66.9701 95.5725 66.9018C96.066 66.8335 97.3597 67.2476 97.5588 66.7609C97.7578 66.2742 97.5961 65.6168 97.2561 65.5826C96.6973 65.4853 96.1671 65.2591 95.7052 64.9209C95.1993 64.5409 94.9629 64.2634 95.1661 63.845C95.3693 63.4266 95.7052 64.0201 96.1116 64.0542C96.518 64.0884 98.0647 64.1567 98.4711 64.1951C98.8775 64.2335 99.7856 64.2634 99.7856 64.622C99.7856 64.9806 99.4497 65.3179 98.9562 65.5613C98.4628 65.8046 97.9776 66.0821 98.214 66.3938C98.3478 66.5918 98.5319 66.7483 98.7461 66.8462C98.9603 66.944 99.1965 66.9795 99.429 66.9488C100.101 66.9146 101.146 66.8079 101.249 66.2529C101.353 65.6979 101.079 64.3445 100.706 63.9646C100.333 63.5846 97.9444 62.782 97.3349 62.8161C96.7253 62.8503 96.0577 62.3892 95.5849 61.7744C95.0307 61.0955 94.7359 60.2318 94.7556 59.3452C94.7472 58.6304 94.6904 57.9171 94.5856 57.2105L94.6063 57.1806ZM96.265 58.9524C96.1149 59.1235 96.0308 59.3452 96.0286 59.5757C96.06 60.1912 96.3128 60.7725 96.7377 61.2066C97.31 61.8683 97.9818 61.6335 99.0309 62.0049C99.7782 62.2377 100.455 62.664 100.996 63.243C101.569 63.798 102.004 64.5238 102.004 65.1173C102.004 65.7107 102.78 66.3297 103.153 66.1248C103.237 66.0621 103.307 65.9802 103.356 65.8854C103.405 65.7906 103.432 65.6855 103.435 65.5782C103.438 65.4709 103.417 65.3643 103.374 65.2666C103.331 65.1689 103.267 65.0828 103.186 65.0148C102.85 64.6647 102.916 64.3189 103.153 63.8322C103.389 63.3455 103.862 63.623 104.467 63.623C105.073 63.623 105.579 63.5205 105.749 63.1961C105.919 62.8716 105.413 62.5343 104.6 61.9452C103.917 61.3439 103.069 60.9768 102.174 60.8949C100.93 60.7242 99.4787 60.3058 98.7696 60.1691C98.0606 60.0325 96.8829 59.1957 96.2816 58.9524H96.265ZM102.788 46.3324C102.806 46.3711 102.816 46.4133 102.817 46.4562C102.817 46.7337 103.049 47.2887 102.477 47.8095C101.905 48.3304 101.162 49.5471 100.59 49.9442C99.9737 50.4624 99.3067 50.9131 98.5996 51.289C98.0937 51.4641 97.3888 52.0532 97.6583 52.2283C97.9279 52.4033 98.6701 51.6007 99.2756 51.3744C99.9514 51.1871 100.658 51.1507 101.349 51.2677C101.921 51.3744 103.642 51.8568 104.314 51.9636C105.201 52.0243 106.091 52.0357 106.98 51.9977C107.283 51.9977 106.64 51.0926 106.151 50.576C105.662 50.0595 104.67 50.2985 103.995 50.0893C103.319 49.8801 102.68 48.7018 102.751 48.3816C102.821 48.0614 102.854 46.8575 103.526 46.3366L103.596 46.2854C103.361 46.2622 103.123 46.2622 102.887 46.2854H102.792L102.788 46.3324ZM104.542 46.2214C104.898 46.3438 105.235 46.5162 105.545 46.7337C105.915 46.977 105.375 47.0112 106.085 47.5875C106.794 48.1639 107.163 47.2417 107.839 46.3751C108.415 45.6365 108.573 43.9586 108.772 43.2457C108.631 43.0895 108.477 42.9467 108.311 42.8187C107.838 42.3936 107.267 42.0997 106.653 41.9649C106.147 41.9265 106.159 42.5839 105.823 42.87C105.479 43.1362 105.174 43.451 104.915 43.8049C104.704 44.1294 104.165 44.313 104.409 44.4667C104.654 44.6204 105.127 44.2361 105.384 44.0824C105.641 43.9288 106.002 43.5445 106.329 43.5616C106.406 43.5572 106.482 43.5696 106.554 43.5979C106.626 43.6263 106.691 43.6699 106.745 43.726C106.799 43.782 106.841 43.8493 106.868 43.9232C106.895 43.9972 106.906 44.0762 106.901 44.155C106.93 44.582 106.449 44.7826 106.072 45.1242C105.64 45.5666 105.138 45.9304 104.588 46.2H104.563L104.542 46.2214ZM110.231 44.915C110.012 45.5579 109.734 46.1782 109.402 46.7678C108.83 47.9163 107.246 48.5737 107.175 49.0946C107.105 49.6155 107.482 49.893 107.851 50.2046C108.22 50.5163 109.033 49.9271 109.572 49.1629C110.24 48.3189 110.723 47.3357 110.986 46.2811C111.026 46.0686 111.091 45.8621 111.181 45.6664H111.156C110.785 45.5048 110.46 45.2492 110.211 44.9235L110.231 44.915ZM112.761 44.8765C112.869 45.376 112.529 46.3708 112.694 46.8746C112.735 47.0129 112.747 47.158 112.732 47.3015C112.796 47.2685 112.865 47.2489 112.936 47.2437C113.007 47.2386 113.079 47.2481 113.146 47.2716C113.437 47.3826 113.122 47.8352 113.25 48.1255C113.379 48.4158 113.549 49.0434 113.889 49.0306C114.229 49.0177 114.204 48.6036 114.229 48.0913C114.261 47.3903 114.192 46.6884 114.026 46.0079C113.963 45.7905 113.856 45.5889 113.714 45.4162C113.571 45.2434 113.395 45.1033 113.196 45.0046C113.067 44.9363 112.926 44.8943 112.782 44.8808L112.761 44.8765ZM111.994 48.8384C111.902 48.9494 111.811 49.0604 111.716 49.1629C111.073 49.8588 110.335 50.8706 109.929 51.2976C109.858 51.3744 109.792 51.4598 109.721 51.5537H109.759C110.256 51.4256 110.389 52.066 110.874 52.1087C111.442 52.1247 112.007 52.0186 112.533 51.7971C112.881 51.622 112.823 51.6263 112.736 51.1737C112.649 50.7212 112.11 49.7862 112.027 49.1928C112.011 49.074 112.002 48.9542 112.002 48.8342L111.994 48.8384ZM91.6248 47.1905C91.7293 47.1374 91.8304 47.0775 91.9275 47.0112C92.2841 46.7593 92.8978 46.7508 93.072 46.247C93.2462 45.7432 92.79 45.1797 92.8025 44.4795C92.8071 43.669 92.9201 42.8631 93.1383 42.0844C93.3645 41.5316 93.6974 41.0319 94.117 40.6158C94.3326 40.3639 94.4404 40.1291 94.6353 40.0309C94.3651 39.765 94.1395 39.4548 93.9677 39.113C93.2594 39.1797 92.5907 39.4791 92.0602 39.9668C91.4879 40.556 91.4548 42.2936 91.4216 43.092C91.376 44.4008 91.4315 45.7114 91.5875 47.0112L91.6248 47.1905ZM96.8787 41.6959C97.0073 42.0503 96.7585 42.601 96.9451 42.8785C97.1317 43.156 97.4261 43.1176 97.7537 42.981C98.0813 42.8443 98.3301 42.093 98.8153 41.7856C99.0176 41.6658 99.2423 41.5913 99.4745 41.567C99.7067 41.5427 99.9413 41.5692 100.163 41.6447C100.351 41.6954 100.527 41.7847 100.681 41.9072C100.835 42.0297 100.964 42.1829 101.059 42.3577C101.117 42.4951 101.133 42.6479 101.103 42.7948C101.073 42.9417 101 43.0755 100.893 43.1774C100.698 43.3439 100.478 43.0535 100.151 43.0365C99.7557 42.9638 99.3492 43.0007 98.9728 43.1432C98.4375 43.4048 97.956 43.7701 97.5546 44.2191C97.281 44.5734 97.0073 44.868 97.3183 45.1199C97.6293 45.3718 98.2098 45.3163 98.8028 45.2223C99.508 45.1197 100.192 44.8976 100.826 44.5649C101.32 44.2489 101.336 43.7622 101.656 43.4207C101.975 43.0792 102.618 43.0535 102.634 42.5156C102.651 41.9777 102.066 41.3672 101.722 40.8847C101.448 40.5005 100.76 40.0309 100.478 39.604C99.3459 40.3964 98.1549 41.0959 96.916 41.6959H96.8787ZM101.623 38.7074C101.896 39.1343 101.963 40.1163 102.278 40.5774C102.651 41.1281 103.169 42.0118 103.725 42.1058C104.281 42.1997 104.173 41.3971 104.368 40.9274C104.563 40.4578 105.023 39.7918 104.87 39.2923C104.716 38.7928 104.04 38.7288 103.659 38.6007C103.292 38.5247 102.916 38.5017 102.543 38.5324C102.249 38.5324 101.929 38.6775 101.751 38.5324C101.71 38.6007 101.664 38.6647 101.623 38.7202V38.7074ZM102 37.5077C102.182 37.4181 102.498 37.67 102.581 37.3498C102.685 36.8314 102.614 36.2917 102.377 35.8214C102.112 35.3944 101.328 35.292 101.133 34.9888C100.938 34.6857 101.208 34.5021 101.436 34.3997C101.569 34.3393 101.714 34.3139 101.859 34.3259C102.004 34.3378 102.143 34.3866 102.265 34.468C102.689 34.8159 103.093 35.1879 103.476 35.5823C103.891 35.9196 104.272 36.6411 104.758 36.5173C105.243 36.3934 105.035 35.467 105.263 35.1297L105.404 34.9163C104.948 34.421 104.181 33.4092 103.746 33.3238C103.207 33.2214 101.826 32.9439 101.017 33.1146C100.209 33.2854 99.5326 33.7764 99.7027 34.2246C99.9879 34.7836 100.377 35.2797 100.847 35.6847C101.419 36.2739 101.623 36.9356 101.925 37.3925C101.95 37.4314 101.971 37.4729 101.988 37.5163L102 37.5077ZM94.6478 20.6953C94.144 20.0307 93.557 19.4378 92.902 18.932C92.197 18.4453 91.0816 17.6811 90.2729 17.5616C89.4643 17.4421 88.1996 17.2841 87.9134 17.6299C87.6273 17.9757 87.7807 18.3599 88.2493 18.8125C88.4622 19.0684 88.6205 19.3674 88.7141 19.6903C88.8077 20.0131 88.8344 20.3526 88.7925 20.6867C88.722 21.2076 89.228 21.6558 89.7007 22.0401C89.8947 22.185 90.1049 22.3054 90.3268 22.3987H90.3766C90.6407 22.3424 90.896 22.249 91.1355 22.1212C91.1303 22.1106 91.1277 22.0989 91.1277 22.087C91.1277 22.0752 91.1303 22.0635 91.1355 22.0529C91.6304 21.6196 92.2021 21.2891 92.819 21.0795C93.4123 20.9012 94.0182 20.7713 94.6312 20.691L94.6478 20.6953ZM92.7486 23.6112C92.7071 23.9143 92.5993 24.3455 92.5993 24.3455C93.4316 24.6524 94.2155 25.084 94.9256 25.6263C95.755 26.2539 96.1696 27.2572 96.746 27.3639C96.9368 27.398 97.1607 27.4621 97.4427 27.5389C97.4182 27.5034 97.4008 27.4632 97.3916 27.4207C97.3823 27.3782 97.3814 27.3342 97.3888 27.2913C97.4883 26.9455 97.7578 25.733 97.8242 25.2463C97.8905 24.7596 97.3888 23.9954 97.1192 23.9954C96.8497 23.9954 96.8497 24.1705 96.2899 24.5504C95.7301 24.9304 94.9422 24.7255 94.54 24.5504C94.1377 24.3754 93.8474 23.6197 93.4659 23.513C93.2187 23.4661 92.9634 23.5004 92.7361 23.6112H92.7486ZM98.214 27.7652C98.4416 27.8317 98.6729 27.8845 98.9065 27.9232C98.99 27.9334 99.0721 27.9534 99.1511 27.9829C99.2756 27.6243 99.1843 26.5186 99.2424 25.9764C99.3087 25.3531 99.2756 25.0072 99.8478 24.5888C100.42 24.1705 100.76 24.4522 100.959 24.1021C101.007 24.0149 101.031 23.9161 101.029 23.816C101.027 23.716 100.998 23.6183 100.947 23.5333C100.896 23.4482 100.823 23.3789 100.737 23.3325C100.651 23.2862 100.554 23.2644 100.457 23.2696C99.9846 23.2696 99.7815 23.8246 99.3419 23.8246C98.9023 23.8246 98.9272 23.8246 98.6701 24.5547C98.413 25.2847 98.2969 27.3682 98.2306 27.6798V27.7652H98.214ZM99.8727 28.6191L99.91 28.6831C100.13 28.6831 100.466 28.7343 100.909 28.7343C101.734 28.7427 102.549 28.9197 103.306 29.2552C104.248 29.6352 104.351 29.8102 104.787 29.981C105.222 30.1517 105.201 29.8444 105.201 29.1271C105.226 28.5358 105.149 27.9446 104.973 27.381C104.836 27.1035 104.5 26.826 104.434 27.2742C104.414 27.4964 104.338 27.7094 104.214 27.8921C104.09 28.0748 103.921 28.2209 103.725 28.3159C103.487 28.3446 103.246 28.3189 103.019 28.2407C102.791 28.1625 102.584 28.0337 102.41 27.8634C102.078 27.6137 101.774 27.3274 101.502 27.0095C101.332 26.7662 101.772 26.2112 102.24 26.2838C102.709 26.3563 103.12 26.9071 103.285 26.5271C103.386 26.3252 103.43 26.0984 103.413 25.8721C103.395 25.6459 103.317 25.4292 103.186 25.2463C102.883 24.9347 102.411 24.3925 101.942 24.3925C101.473 24.3925 100.495 25.1182 100.258 25.4299C100.022 25.7416 100.155 26.8217 100.155 27.5645C100.16 27.9269 100.069 28.2839 99.8934 28.5977L99.8727 28.6191ZM94.6561 38.8654C94.88 38.8654 95.1329 38.9209 95.3776 38.9465C95.0856 38.4712 94.7599 38.0189 94.4031 37.5931C93.7448 37.0833 92.9862 36.7277 92.1804 36.5514C91.5267 36.4527 90.8635 36.4398 90.2066 36.513C90.2427 36.5803 90.2706 36.652 90.2895 36.7265C90.3932 37.1064 91.3013 37.0723 92.3629 37.3156C93.2241 37.5413 94.0258 37.9613 94.71 38.5452C94.7805 38.6135 94.7431 38.7288 94.6602 38.844L94.6561 38.8654ZM96.5387 38.9209C97.1946 38.8183 97.844 38.6757 98.4835 38.4939C99.0558 38.3232 100.101 37.7639 100.37 37.3839C100.64 37.004 100.54 36.8631 100.167 36.3764C99.7939 35.8897 98.2306 34.9675 98.0606 34.6388C98.039 34.5938 98.0223 34.5466 98.0108 34.4979C97.8366 34.5875 97.679 34.6003 97.6583 34.848C97.6251 35.2279 98.2969 35.5737 98.8028 36.0263C99.3087 36.4788 99.8146 36.8246 99.3087 36.9271C98.8028 37.0296 98.0274 36.4063 97.6915 36.2013C97.1355 36.0237 96.5357 36.0601 96.0038 36.3038C95.7342 36.513 95.0956 36.8246 95.3652 37.3113C95.6347 37.798 96.2194 38.4214 96.5553 38.9166L96.5387 38.9209ZM97.9859 33.2598C97.9859 33.1659 97.9859 33.0762 97.9859 32.9908C97.9859 32.47 97.9527 30.7665 97.5712 30.109C97.1897 29.4516 96.3687 28.0256 95.7342 27.6798C95.0998 27.334 93.1052 25.9721 92.7361 25.6989C92.3671 25.4256 91.658 24.8194 91.3179 25.0755C90.9779 25.3317 91.5875 27.1248 91.9607 27.6115C92.3339 28.0982 92.3297 29.4473 91.857 29.8315C91.4423 30.1645 90.3849 30.4719 89.879 30.2884C89.8304 30.5069 89.8507 30.7357 89.937 30.9416C90.1402 31.1508 91.658 31.0099 92.2966 30.9757C92.9352 30.9416 93.5779 29.7974 93.9801 29.2424C94.3824 28.6874 93.8806 27.9915 94.3948 27.889C94.909 27.7865 95.2242 28.5806 96.0535 29.5199C96.8829 30.4591 96.829 31.4283 96.9326 32.0516C97.0363 32.6749 97.5754 33.0164 98.0025 33.2598H97.9859ZM90.1485 28.8667C90.397 28.8027 90.6491 28.7543 90.9032 28.7215C91.3179 28.6532 90.7332 28.2007 90.4637 27.6798C90.1941 27.159 88.5562 26.1002 88.4193 25.6732C88.2825 25.2463 87.9798 24.4907 88.1913 23.9655L88.0752 23.8972C87.7351 23.7222 87.3329 23.133 86.8933 22.8897C86.4538 22.6463 86.2216 22.7146 86.0184 23.2013C85.8152 23.688 86.2216 24.6956 86.5243 25.1439C87.1289 25.8315 87.8624 26.3863 88.6806 26.7747C89.2197 26.9498 89.8292 26.9156 89.9246 27.2614C90.0716 27.7831 90.147 28.3235 90.1485 28.8667ZM88.5147 23.513C88.6707 23.3589 88.837 23.2162 89.0123 23.0861C88.5396 22.6933 87.8098 21.5747 87.4407 21.9504C87.0716 22.3261 88.0834 23.0647 88.5147 23.513ZM87.2458 27.0608C86.9182 27.0992 86.7109 27.4023 86.6487 27.8506C86.5865 28.2989 87.2458 28.3714 87.7102 28.6618H87.7476C87.6936 28.1189 87.5327 27.593 87.2748 27.1163L87.2458 27.0608ZM87.8595 30.9031C87.5361 30.6982 87.1546 30.4463 86.9887 30.647C86.7523 30.9245 86.885 32.6578 86.8519 33.2854C86.8187 33.913 86.516 34.4296 86.8187 34.9504C86.9404 35.1534 87.1287 35.3049 87.3495 35.3774C87.3709 35.3108 87.4079 35.2507 87.4573 35.2023C87.7559 34.8949 87.7932 32.026 87.872 30.933L87.8595 30.9031ZM88.0047 35.7531C88.1125 35.9665 88.0047 36.0306 87.7973 36.4063C87.5104 36.8349 87.1124 37.1722 86.6487 37.3797C86.4828 37.3797 86.516 36.9997 85.9396 37.068C85.3632 37.1363 85.301 37.068 85.471 37.8322C85.641 38.5964 85.7405 38.4897 86.1759 38.2805C86.6113 38.0713 86.7523 37.4821 87.2914 37.2046C87.7751 37.0208 88.2039 36.7103 88.5354 36.3038C88.6301 36.1373 88.7767 36.0086 88.9514 35.9389C89.1261 35.8691 89.3186 35.8623 89.4975 35.9196C90.2024 35.6933 92.3048 35.8982 92.8149 36.1031C93.325 36.3081 94.3326 35.6549 94.1626 35.2023C93.9926 34.7498 93.1383 34.6388 92.4997 34.6388C91.8611 34.6388 91.3926 34.0325 91.7243 33.358C92.056 32.6834 95.5393 31.5649 95.2988 31.1166C95.0583 30.6683 92.7029 32.0174 92.027 32.2608C91.3511 32.5041 90.1071 33.7166 89.4311 34.2716C88.9584 34.6644 88.3696 35.3774 87.9881 35.736L88.0047 35.7531ZM80.1258 25.7287L80.2958 25.8227C80.7312 26.0319 81.1459 25.6647 81.8882 25.5964C82.3677 25.5636 82.849 25.5721 83.3271 25.622C83.2236 25.0229 83.1681 24.416 83.1612 23.8076C83.1612 23.0092 83.0949 22.5951 82.419 22.7317C81.7431 22.8683 81.5896 23.6368 80.9013 24.3626C80.2129 25.0884 80.3539 25.5366 80.1258 25.7287ZM83.8994 27.2102C83.9507 27.2738 84.0076 27.3324 84.0694 27.3852C84.8117 27.9744 85.8898 28.0769 85.9935 28.4611C86.0971 28.8453 84.6085 29.2595 84.6085 30.1688C84.6085 31.0782 84.5089 32.7048 84.5753 33.3964C84.5581 33.7586 84.4102 34.1011 84.1606 34.357C83.5801 34.404 83.153 34.2417 83.1073 33.8489C83.0493 33.3366 83.3769 33.8148 83.3437 31.9747C83.3105 30.1347 82.5143 29.1613 80.8142 29.2338C79.114 29.3064 77.7456 31.2105 76.8333 32.6493C75.921 34.088 74.9465 36.6069 74.4406 37.9603C74.0519 39.2461 73.7662 40.5626 73.5864 41.8966C73.9759 41.4563 74.3256 40.9804 74.6314 40.4749C75.0004 39.9191 75.446 39.4215 75.9542 38.9977C76.1822 39.0276 76.4601 39.1045 76.5513 39.2923C76.7213 39.6424 76.1159 40.1248 75.722 40.4407C75.328 40.7567 75.1497 42.1485 75.5188 42.1485C75.8878 42.1485 76.6342 41.1751 77.1401 40.7609C77.9182 40.2339 78.8009 39.8926 79.7236 39.7619C80.4053 39.6867 81.092 39.8458 81.6767 40.2145C82.249 40.5603 83.5635 41.4611 83.7501 41.2562C83.9367 41.0512 83.4805 40.0394 82.8088 39.2752C82.137 38.511 80.6151 38.3744 79.8729 38.3061C79.1306 38.2378 77.5134 38.511 77.277 38.3061C77.1319 38.1737 77.2563 37.7767 77.3765 37.4949C77.5258 37.5419 77.7373 37.4693 78.3386 37.0381C79.0335 36.4827 79.7978 36.026 80.611 35.6805C81.486 35.3304 82.2282 35.0017 83.0368 35.2792C83.3313 35.3816 83.5801 35.4585 83.7791 35.5182C83.7806 36.7084 83.9625 37.8909 84.3182 39.0233C84.6209 39.9626 85.2968 41.6959 85.33 42.1143C85.3632 42.5327 85.5664 42.4601 85.7032 42.2893C85.84 42.1186 85.6327 40.936 86.2091 40.4493C86.7855 39.9626 87.0841 39.0959 87.7227 39.0959C88.3613 39.0959 88.2286 40.1333 88.7013 40.8292C89.174 41.5251 90.049 42.1826 90.1859 42.5668C90.3102 43.8084 90.2303 45.0627 89.9495 46.2769C89.6468 47.182 89.85 47.9846 89.3772 48.0486L88.9626 48.1297C88.6242 47.8252 88.2591 47.5536 87.872 47.3186C87.3744 47.0197 86.8311 45.4486 86.1967 44.8253C85.5622 44.202 84.2394 43.2286 83.4971 42.6907C82.7549 42.1527 80.499 40.9189 79.454 40.9573C78.4091 40.9957 77.6336 42.204 77.1941 42.5156C76.7545 42.8273 76.1159 43.0365 75.7759 42.8657C75.4358 42.6949 75.4068 42.0673 75.3073 42.3448C75.2603 42.7865 75.3426 43.2325 75.5436 43.6256C75.7095 44.0099 76.2818 44.7741 76.2154 45.1199C76.1491 45.4657 76.0122 45.5724 75.44 45.3974C74.8677 45.2223 74.6645 44.6673 74.0923 43.9074C73.52 43.1475 74.0591 41.8966 73.7896 41.8966C73.52 41.8966 73.6195 42.4857 73.1136 42.4857C72.7985 42.4857 72.6285 41.6788 72.5414 41.0683C72.6202 40.6414 72.6948 40.3084 72.7446 40.0907C72.9105 39.3649 73.9886 36.8631 74.1918 35.7872C74.395 34.7113 74.0923 33.4989 74.4945 32.6664C74.8968 31.8338 75.8795 29.9425 76.8789 29.0887C77.8783 28.2348 79.2716 27.381 80.2834 27.3554C81.2952 27.3297 82.307 27.1462 83.4515 27.2145C83.5906 27.2246 83.7304 27.2131 83.8662 27.1803L83.8994 27.2102ZM87.4075 48.5097C87.1338 47.9931 86.5533 46.8575 86.0267 46.4049C85.4171 45.8841 82.5517 42.5882 82.249 42.9895C81.9462 43.3908 83.5635 44.2404 83.493 45.8713C83.4225 47.5021 82.8544 47.579 83.2566 48.403C83.444 48.7738 83.6753 49.1194 83.945 49.4319C84.0509 49.3951 84.1589 49.3652 84.2684 49.3422C84.9444 49.2013 86.1925 48.578 86.8975 48.578C87.067 48.5755 87.2361 48.5598 87.4034 48.531L87.4075 48.5097ZM83.0244 49.8033C82.9528 49.358 82.7794 48.9365 82.5185 48.5737C82.4729 48.5082 82.4367 48.4363 82.4107 48.3603C82.0173 48.5681 81.599 48.7217 81.1667 48.8171C80.3954 48.9708 78.6537 49.1245 77.8492 48.8939C77.7705 49.1373 77.7041 49.3209 77.6751 49.4063C77.5756 49.6624 77.5507 49.9314 77.476 50.1021C77.94 50.3345 78.4247 50.5203 78.9233 50.6572C80.007 50.7239 81.0931 50.5791 82.1246 50.2302C82.4107 50.115 82.7175 49.9527 83.0327 49.8033H83.0244ZM76.3274 49.5429C76.3523 49.0434 76.6799 48.0828 76.5181 47.6729C76.0787 46.9361 75.4323 46.354 74.6645 46.0036C74.5289 45.9532 74.384 45.9347 74.2405 45.9495C74.0969 45.9643 73.9585 46.012 73.8352 46.089C73.8806 46.118 73.9155 46.1615 73.9347 46.2128C74.1379 46.6995 75.1787 48.9196 75.6224 49.1629C75.7468 49.2355 76.0122 49.3721 76.3398 49.5429H76.3274ZM71.8572 46.1274C71.9102 46.0905 71.9717 46.0685 72.0355 46.0634C72.4045 45.9908 72.4045 45.6792 72.4045 45.265C72.4045 44.8509 72.4377 44.1508 72.2055 43.9458C72.1382 43.8821 72.0783 43.8104 72.0272 43.7324C71.9003 44.4365 71.835 45.1509 71.8323 45.867C71.8333 45.9586 71.8416 46.05 71.8572 46.1402V46.1274ZM77.1941 36.6923C77.2973 36.3459 77.5105 36.0452 77.7995 35.8384C78.3386 35.5268 78.915 34.7967 79.6531 34.1307C80.3912 33.4647 81.9131 32.154 81.1376 31.5691C80.3622 30.9843 79.2177 31.9961 78.5418 32.82C77.8658 33.644 78.069 35.3176 77.6668 35.6677C77.4408 35.9573 77.2654 36.2853 77.1484 36.6368L77.1941 36.6923Z" fill="#252F80"/>
</g>
<defs>
<filter id="filter0_d_347_2517" x="0.803955" y="102.76" width="181.533" height="22.48" filterUnits="userSpaceOnUse" color-interpolation-filters="sRGB">
<feFlood flood-opacity="0" result="BackgroundImageFix"/>
<feColorMatrix in="SourceAlpha" type="matrix" values="0 0 0 0 0 0 0 0 0 0 0 0 0 0 0 0 0 0 127 0" result="hardAlpha"/>
<feOffset dy="4"/>
<feGaussianBlur stdDeviation="2"/>
<feColorMatrix type="matrix" values="0 0 0 0 0.00649303 0 0 0 0 0.386793 0 0 0 0 0.779167 0 0 0 0.31 0"/>
<feBlend mode="normal" in2="BackgroundImageFix" result="effect1_dropShadow_347_2517"/>
<feBlend mode="normal" in="SourceGraphic" in2="effect1_dropShadow_347_2517" result="shape"/>
</filter>
<filter id="filter1_d_347_2517" x="17.6973" y="128.917" width="148.887" height="21.0225" filterUnits="userSpaceOnUse" color-interpolation-filters="sRGB">
<feFlood flood-opacity="0" result="BackgroundImageFix"/>
<feColorMatrix in="SourceAlpha" type="matrix" values="0 0 0 0 0 0 0 0 0 0 0 0 0 0 0 0 0 0 127 0" result="hardAlpha"/>
<feOffset dy="4"/>
<feGaussianBlur stdDeviation="2"/>
<feComposite in2="hardAlpha" operator="out"/>
<feColorMatrix type="matrix" values="0 0 0 0 0.00784314 0 0 0 0 0.388235 0 0 0 0 0.780392 0 0 0 0.21 0"/>
<feBlend mode="normal" in2="BackgroundImageFix" result="effect1_dropShadow_347_2517"/>
<feBlend mode="normal" in="SourceGraphic" in2="effect1_dropShadow_347_2517" result="shape"/>
</filter>
<clipPath id="clip0_347_2517">
<rect width="46" height="52" fill="white" transform="translate(69 15)"/>
</clipPath>
</defs>
</svg>
