<svg width="183" height="53" viewBox="0 0 183 53" fill="none" xmlns="http://www.w3.org/2000/svg">
<g filter="url(#filter0_d_557_1548)">
<path d="M4.80388 20V19.42C5.33721 19.1667 5.88388 19.0067 6.44388 18.94V7.08C6.17721 7.02667 5.90388 6.96 5.62388 6.88C5.34388 6.78667 5.07054 6.68667 4.80388 6.58V6H6.92388C7.17721 6 7.41721 5.99333 7.64388 5.98C7.88388 5.96667 8.13054 5.95333 8.38388 5.94C8.63721 5.92667 8.91054 5.91333 9.20388 5.9C9.49721 5.88667 9.83054 5.88 10.2039 5.88C10.7372 5.88 11.2772 5.92667 11.8239 6.02C12.3839 6.1 12.8839 6.26 13.3239 6.5C13.7772 6.74 14.1439 7.08 14.4239 7.52C14.7039 7.94667 14.8439 8.50667 14.8439 9.2C14.8439 9.54667 14.7905 9.89333 14.6839 10.24C14.5772 10.5867 14.4105 10.9133 14.1839 11.22C13.9705 11.5133 13.6972 11.7733 13.3639 12C13.0305 12.2267 12.6372 12.3933 12.1839 12.5V12.58C12.5839 12.6467 12.9772 12.76 13.3639 12.92C13.7639 13.08 14.1172 13.3 14.4239 13.58C14.7305 13.8467 14.9772 14.18 15.1639 14.58C15.3639 14.98 15.4639 15.46 15.4639 16.02C15.4639 16.74 15.3039 17.36 14.9839 17.88C14.6639 18.4 14.2439 18.8267 13.7239 19.16C13.2172 19.4933 12.6372 19.74 11.9839 19.9C11.3305 20.0467 10.6705 20.12 10.0039 20.12C9.53721 20.12 9.01054 20.1 8.42388 20.06C7.83721 20.02 7.27054 20 6.72388 20H4.80388ZM10.1439 19.08C10.6239 19.08 11.0705 19.0067 11.4839 18.86C11.9105 18.7133 12.2705 18.5133 12.5639 18.26C12.8705 17.9933 13.1105 17.68 13.2839 17.32C13.4572 16.9467 13.5439 16.5467 13.5439 16.12C13.5439 15.5867 13.4372 15.1467 13.2239 14.8C13.0239 14.44 12.7439 14.16 12.3839 13.96C12.0372 13.7467 11.6305 13.6 11.1639 13.52C10.7105 13.44 10.2372 13.4 9.74388 13.4H8.24388V18.92C8.43054 18.9733 8.65054 19.0133 8.90388 19.04C9.17054 19.0667 9.58388 19.08 10.1439 19.08ZM9.24388 12.36C9.47054 12.36 9.73721 12.3533 10.0439 12.34C10.3639 12.3133 10.6239 12.2867 10.8239 12.26C11.4372 12.0467 11.9372 11.7067 12.3239 11.24C12.7239 10.76 12.9239 10.2 12.9239 9.56C12.9239 8.68 12.6572 8.02 12.1239 7.58C11.6039 7.14 10.9039 6.92 10.0239 6.92C9.61054 6.92 9.25721 6.92667 8.96388 6.94C8.67054 6.95333 8.43054 6.97333 8.24388 7V12.36H9.24388ZM17.1086 6H22.5886V6.58C22.2686 6.7 21.9486 6.80667 21.6286 6.9C21.3086 6.98 20.9886 7.04 20.6686 7.08V18.96H25.2686L26.4486 15.74H26.9686C27.0086 16.02 27.0419 16.3467 27.0686 16.72C27.1086 17.08 27.1352 17.46 27.1486 17.86C27.1752 18.2467 27.1886 18.6267 27.1886 19C27.1886 19.3733 27.1819 19.7067 27.1686 20H17.1086V19.42C17.4286 19.2733 17.7219 19.1667 17.9886 19.1C18.2552 19.0333 18.5086 18.98 18.7486 18.94V7.08C18.4419 7.02667 18.1486 6.96 17.8686 6.88C17.5886 6.78667 17.3352 6.68667 17.1086 6.58V6ZM31.9451 20H27.5051V19.42C27.9851 19.2067 28.4651 19.0467 28.9451 18.94L34.0051 5.76H34.5851L39.6451 18.94C39.9118 18.9933 40.1718 19.0533 40.4251 19.12C40.6918 19.1867 40.9385 19.2867 41.1651 19.42V20H36.0451V19.42C36.3118 19.3133 36.5851 19.22 36.8651 19.14C37.1451 19.06 37.4185 18.9933 37.6851 18.94L36.3251 15.28H31.5451L30.2251 18.94C30.7851 19.02 31.3585 19.18 31.9451 19.42V20ZM31.9451 14.24H35.9851L34.4051 10L34.0251 8.28H33.9851L33.4851 10.04L31.9451 14.24ZM50.8975 6H55.2175V6.58C54.6575 6.95333 54.1108 7.22 53.5775 7.38V20.24H52.4375L45.1775 9.22L44.3975 7.66H44.3375L44.5175 9.22V18.72C45.0641 18.8667 45.5775 19.1 46.0575 19.42V20H41.7375V19.42C41.9775 19.2733 42.2308 19.1467 42.4975 19.04C42.7775 18.92 43.0708 18.8133 43.3775 18.72V7.26C43.1108 7.15333 42.8441 7.04 42.5775 6.92C42.3241 6.8 42.0841 6.68 41.8575 6.56V6H45.2375L51.5375 15.5L52.4575 17.22H52.5375L52.4375 15.5V7.38C52.1575 7.26 51.8841 7.13333 51.6175 7C51.3641 6.86667 51.1241 6.72667 50.8975 6.58V6ZM66.7459 16.36H67.2659C67.3326 16.7333 67.3926 17.2067 67.4459 17.78C67.4992 18.34 67.5126 18.8867 67.4859 19.42C67.2859 19.58 67.0459 19.7133 66.7659 19.82C66.4859 19.9133 66.1859 19.9933 65.8659 20.06C65.5592 20.1267 65.2392 20.1733 64.9059 20.2C64.5859 20.2267 64.2792 20.24 63.9859 20.24C62.8659 20.24 61.8659 20.1 60.9859 19.82C60.1059 19.5267 59.3592 19.0867 58.7459 18.5C58.1459 17.9133 57.6792 17.1667 57.3459 16.26C57.0259 15.34 56.8659 14.2533 56.8659 13C56.8659 11.6933 57.0459 10.5867 57.4059 9.68C57.7659 8.76 58.2526 8.01333 58.8659 7.44C59.4792 6.85333 60.1926 6.42667 61.0059 6.16C61.8192 5.89333 62.6726 5.76 63.5659 5.76C64.4459 5.76 65.1859 5.82 65.7859 5.94C66.3859 6.04667 66.9126 6.21333 67.3659 6.44C67.3659 6.65333 67.3592 6.90667 67.3459 7.2C67.3326 7.48 67.3126 7.78 67.2859 8.1C67.2592 8.42 67.2259 8.73333 67.1859 9.04C67.1459 9.34667 67.1059 9.62667 67.0659 9.88H66.5459L65.5059 7C65.3592 6.92 65.1126 6.86667 64.7659 6.84C64.4326 6.81333 64.0992 6.8 63.7659 6.8C63.0992 6.8 62.4659 6.92667 61.8659 7.18C61.2792 7.42 60.7592 7.8 60.3059 8.32C59.8659 8.82667 59.5126 9.47333 59.2459 10.26C58.9792 11.0333 58.8459 11.9467 58.8459 13C58.8459 13.9467 58.9659 14.8067 59.2059 15.58C59.4459 16.34 59.7926 16.9933 60.2459 17.54C60.6992 18.0733 61.2526 18.4867 61.9059 18.78C62.5592 19.06 63.2992 19.2 64.1259 19.2C64.5659 19.2 64.9326 19.1667 65.2259 19.1C65.5192 19.0333 65.7126 18.9467 65.8059 18.84L66.7459 16.36ZM74.1203 20V19.42C74.5869 19.2067 75.1336 19.0467 75.7603 18.94V7.08C75.4536 7.01333 75.1603 6.94 74.8803 6.86C74.6003 6.76667 74.3469 6.67333 74.1203 6.58V6H76.1603C76.3869 6 76.6536 5.99333 76.9603 5.98C77.2669 5.96667 77.5803 5.95333 77.9003 5.94C78.2336 5.91333 78.547 5.89333 78.8403 5.88C79.147 5.85333 79.4003 5.84 79.6003 5.84C81.867 5.84 83.607 6.44667 84.8203 7.66C86.047 8.87333 86.6603 10.5933 86.6603 12.82C86.6603 13.8733 86.507 14.8533 86.2003 15.76C85.9069 16.6533 85.4536 17.4267 84.8403 18.08C84.227 18.7333 83.447 19.2467 82.5003 19.62C81.567 19.9933 80.4603 20.18 79.1803 20.18C78.9803 20.18 78.7536 20.1667 78.5003 20.14C78.247 20.1267 77.9803 20.1067 77.7003 20.08C77.4203 20.0667 77.1336 20.0467 76.8403 20.02C76.5603 20.0067 76.2936 20 76.0403 20H74.1203ZM79.3203 6.88C78.9736 6.88 78.6403 6.88667 78.3203 6.9C78.0003 6.9 77.7469 6.92 77.5603 6.96V19.08C77.627 19.0933 77.747 19.1067 77.9203 19.12C78.0936 19.12 78.2803 19.1267 78.4803 19.14C78.6803 19.14 78.867 19.14 79.0403 19.14C79.2269 19.14 79.3603 19.14 79.4403 19.14C80.3603 19.14 81.1403 18.9667 81.7803 18.62C82.4203 18.2733 82.9403 17.8133 83.3403 17.24C83.7536 16.6533 84.0536 15.98 84.2403 15.22C84.427 14.46 84.5203 13.66 84.5203 12.82C84.5203 12.1667 84.427 11.4933 84.2403 10.8C84.067 10.0933 83.7736 9.45333 83.3603 8.88C82.9603 8.29333 82.427 7.81333 81.7603 7.44C81.0936 7.06667 80.2803 6.88 79.3203 6.88ZM97.7604 6C97.7471 6.53333 97.7204 7.07333 97.6804 7.62C97.6538 8.15333 97.6071 8.69333 97.5404 9.24H97.0204L96.2004 7.04H91.8404V12.34H95.1004L95.8804 10.86H96.3804C96.4604 12.18 96.4604 13.5267 96.3804 14.9H95.8804L95.1004 13.38H91.8404V18.96H96.4404L97.4204 16.56H97.9204C98.0138 17.12 98.0804 17.6867 98.1204 18.26C98.1604 18.8333 98.1671 19.4133 98.1404 20H88.2804V19.42C88.7471 19.2067 89.2938 19.0467 89.9204 18.94V7.08C89.6538 7.02667 89.3804 6.96 89.1004 6.88C88.8204 6.78667 88.5471 6.68667 88.2804 6.58V6H97.7604ZM104.784 20V19.42C105.318 19.1667 105.864 19.0067 106.424 18.94V7.08C106.158 7.02667 105.884 6.96 105.604 6.88C105.324 6.78667 105.051 6.68667 104.784 6.58V6H106.904C107.158 6 107.398 5.99333 107.624 5.98C107.864 5.96667 108.111 5.95333 108.364 5.94C108.618 5.92667 108.891 5.91333 109.184 5.9C109.478 5.88667 109.811 5.88 110.184 5.88C110.718 5.88 111.258 5.92667 111.804 6.02C112.364 6.1 112.864 6.26 113.304 6.5C113.758 6.74 114.124 7.08 114.404 7.52C114.684 7.94667 114.824 8.50667 114.824 9.2C114.824 9.54667 114.771 9.89333 114.664 10.24C114.558 10.5867 114.391 10.9133 114.164 11.22C113.951 11.5133 113.678 11.7733 113.344 12C113.011 12.2267 112.618 12.3933 112.164 12.5V12.58C112.564 12.6467 112.958 12.76 113.344 12.92C113.744 13.08 114.098 13.3 114.404 13.58C114.711 13.8467 114.958 14.18 115.144 14.58C115.344 14.98 115.444 15.46 115.444 16.02C115.444 16.74 115.284 17.36 114.964 17.88C114.644 18.4 114.224 18.8267 113.704 19.16C113.198 19.4933 112.618 19.74 111.964 19.9C111.311 20.0467 110.651 20.12 109.984 20.12C109.518 20.12 108.991 20.1 108.404 20.06C107.818 20.02 107.251 20 106.704 20H104.784ZM110.124 19.08C110.604 19.08 111.051 19.0067 111.464 18.86C111.891 18.7133 112.251 18.5133 112.544 18.26C112.851 17.9933 113.091 17.68 113.264 17.32C113.438 16.9467 113.524 16.5467 113.524 16.12C113.524 15.5867 113.418 15.1467 113.204 14.8C113.004 14.44 112.724 14.16 112.364 13.96C112.018 13.7467 111.611 13.6 111.144 13.52C110.691 13.44 110.218 13.4 109.724 13.4H108.224V18.92C108.411 18.9733 108.631 19.0133 108.884 19.04C109.151 19.0667 109.564 19.08 110.124 19.08ZM109.224 12.36C109.451 12.36 109.718 12.3533 110.024 12.34C110.344 12.3133 110.604 12.2867 110.804 12.26C111.418 12.0467 111.918 11.7067 112.304 11.24C112.704 10.76 112.904 10.2 112.904 9.56C112.904 8.68 112.638 8.02 112.104 7.58C111.584 7.14 110.884 6.92 110.004 6.92C109.591 6.92 109.238 6.92667 108.944 6.94C108.651 6.95333 108.411 6.97333 108.224 7V12.36H109.224ZM117.089 6H122.569V6.58C122.249 6.7 121.929 6.80667 121.609 6.9C121.289 6.98 120.969 7.04 120.649 7.08V18.96H125.249L126.429 15.74H126.949C126.989 16.02 127.022 16.3467 127.049 16.72C127.089 17.08 127.116 17.46 127.129 17.86C127.156 18.2467 127.169 18.6267 127.169 19C127.169 19.3733 127.162 19.7067 127.149 20H117.089V19.42C117.409 19.2733 117.702 19.1667 117.969 19.1C118.236 19.0333 118.489 18.98 118.729 18.94V7.08C118.422 7.02667 118.129 6.96 117.849 6.88C117.569 6.78667 117.316 6.68667 117.089 6.58V6ZM131.926 20H127.486V19.42C127.966 19.2067 128.446 19.0467 128.926 18.94L133.986 5.76H134.566L139.626 18.94C139.892 18.9933 140.152 19.0533 140.406 19.12C140.672 19.1867 140.919 19.2867 141.146 19.42V20H136.026V19.42C136.292 19.3133 136.566 19.22 136.846 19.14C137.126 19.06 137.399 18.9933 137.666 18.94L136.306 15.28H131.526L130.206 18.94C130.766 19.02 131.339 19.18 131.926 19.42V20ZM131.926 14.24H135.966L134.386 10L134.006 8.28H133.966L133.466 10.04L131.926 14.24ZM150.878 6H155.198V6.58C154.638 6.95333 154.091 7.22 153.558 7.38V20.24H152.418L145.158 9.22L144.378 7.66H144.318L144.498 9.22V18.72C145.045 18.8667 145.558 19.1 146.038 19.42V20H141.718V19.42C141.958 19.2733 142.211 19.1467 142.478 19.04C142.758 18.92 143.051 18.8133 143.358 18.72V7.26C143.091 7.15333 142.825 7.04 142.558 6.92C142.305 6.8 142.065 6.68 141.838 6.56V6H145.218L151.518 15.5L152.438 17.22H152.518L152.418 15.5V7.38C152.138 7.26 151.865 7.13333 151.598 7C151.345 6.86667 151.105 6.72667 150.878 6.58V6ZM166.726 16.36H167.246C167.313 16.7333 167.373 17.2067 167.426 17.78C167.48 18.34 167.493 18.8867 167.466 19.42C167.266 19.58 167.026 19.7133 166.746 19.82C166.466 19.9133 166.166 19.9933 165.846 20.06C165.54 20.1267 165.22 20.1733 164.886 20.2C164.566 20.2267 164.26 20.24 163.966 20.24C162.846 20.24 161.846 20.1 160.966 19.82C160.086 19.5267 159.34 19.0867 158.726 18.5C158.126 17.9133 157.66 17.1667 157.326 16.26C157.006 15.34 156.846 14.2533 156.846 13C156.846 11.6933 157.026 10.5867 157.386 9.68C157.746 8.76 158.233 8.01333 158.846 7.44C159.46 6.85333 160.173 6.42667 160.986 6.16C161.8 5.89333 162.653 5.76 163.546 5.76C164.426 5.76 165.166 5.82 165.766 5.94C166.366 6.04667 166.893 6.21333 167.346 6.44C167.346 6.65333 167.34 6.90667 167.326 7.2C167.313 7.48 167.293 7.78 167.266 8.1C167.24 8.42 167.206 8.73333 167.166 9.04C167.126 9.34667 167.086 9.62667 167.046 9.88H166.526L165.486 7C165.34 6.92 165.093 6.86667 164.746 6.84C164.413 6.81333 164.08 6.8 163.746 6.8C163.08 6.8 162.446 6.92667 161.846 7.18C161.26 7.42 160.74 7.8 160.286 8.32C159.846 8.82667 159.493 9.47333 159.226 10.26C158.96 11.0333 158.826 11.9467 158.826 13C158.826 13.9467 158.946 14.8067 159.186 15.58C159.426 16.34 159.773 16.9933 160.226 17.54C160.68 18.0733 161.233 18.4867 161.886 18.78C162.54 19.06 163.28 19.2 164.106 19.2C164.546 19.2 164.913 19.1667 165.206 19.1C165.5 19.0333 165.693 18.9467 165.786 18.84L166.726 16.36ZM171.657 18.62C171.817 18.78 172.024 18.92 172.277 19.04C172.531 19.1467 172.911 19.2 173.417 19.2C173.844 19.2 174.244 19.1467 174.617 19.04C174.991 18.92 175.311 18.7533 175.577 18.54C175.857 18.3133 176.077 18.0467 176.237 17.74C176.397 17.42 176.477 17.06 176.477 16.66C176.477 16.1267 176.311 15.68 175.977 15.32C175.657 14.96 175.251 14.64 174.757 14.36C174.277 14.08 173.751 13.8067 173.177 13.54C172.604 13.2733 172.071 12.96 171.577 12.6C171.097 12.2267 170.691 11.7867 170.357 11.28C170.037 10.76 169.877 10.1133 169.877 9.34C169.877 8.78 169.977 8.28 170.177 7.84C170.377 7.4 170.657 7.02667 171.017 6.72C171.391 6.41333 171.831 6.18 172.337 6.02C172.844 5.84667 173.411 5.76 174.037 5.76C174.851 5.76 175.591 5.82667 176.257 5.96C176.937 6.08 177.471 6.23333 177.857 6.42C177.857 6.64667 177.837 6.91333 177.797 7.22C177.771 7.51333 177.731 7.82 177.677 8.14C177.637 8.46 177.591 8.77333 177.537 9.08C177.484 9.37333 177.431 9.63333 177.377 9.86H176.857L176.057 7.12C175.817 7.01333 175.511 6.93333 175.137 6.88C174.777 6.82667 174.391 6.8 173.977 6.8C173.297 6.8 172.751 6.99333 172.337 7.38C171.924 7.75333 171.717 8.28 171.717 8.96C171.717 9.50667 171.877 9.96667 172.197 10.34C172.531 10.7133 172.944 11.0467 173.437 11.34C173.931 11.6333 174.457 11.92 175.017 12.2C175.591 12.4667 176.124 12.78 176.617 13.14C177.111 13.5 177.517 13.9267 177.837 14.42C178.171 14.9133 178.337 15.5267 178.337 16.26C178.337 16.86 178.224 17.4067 177.997 17.9C177.784 18.3933 177.471 18.8133 177.057 19.16C176.644 19.5067 176.137 19.7733 175.537 19.96C174.937 20.1467 174.257 20.24 173.497 20.24C172.657 20.24 171.904 20.14 171.237 19.94C170.571 19.74 170.097 19.5267 169.817 19.3C169.831 19.0733 169.851 18.8 169.877 18.48C169.917 18.16 169.957 17.8333 169.997 17.5C170.051 17.1533 170.104 16.82 170.157 16.5C170.211 16.18 170.264 15.9067 170.317 15.68H170.837L171.657 18.62Z" fill="#003F80"/>
</g>
<g filter="url(#filter1_d_557_1548)">
<path d="M30.9668 34.1592C31.7871 34.9157 32.1973 35.8499 32.1973 36.9619C32.1973 38.0693 31.7871 39.0013 30.9668 39.7578C30.1465 40.5143 29.0641 40.9108 27.7197 40.9473V42.2803H26.1816V40.9473C24.8372 40.9108 23.7526 40.5143 22.9277 39.7578C22.1074 39.0013 21.6973 38.0693 21.6973 36.9619C21.6973 35.8499 22.1074 34.9157 22.9277 34.1592C23.7526 33.4027 24.8372 33.0062 26.1816 32.9697V31.917H27.7197V32.9697C29.0641 33.0062 30.1465 33.4027 30.9668 34.1592ZM29.8867 38.8555C30.4017 38.377 30.6592 37.7458 30.6592 36.9619C30.6592 36.1781 30.4017 35.5492 29.8867 35.0752C29.3763 34.5967 28.654 34.3392 27.7197 34.3027V39.6211C28.654 39.5846 29.3763 39.3294 29.8867 38.8555ZM24.0078 35.0752C23.4974 35.5492 23.2422 36.1781 23.2422 36.9619C23.2422 37.7458 23.4974 38.377 24.0078 38.8555C24.5228 39.3294 25.2474 39.5846 26.1816 39.6211V34.3027C25.2474 34.3392 24.5228 34.5967 24.0078 35.0752ZM38.6321 42.1367C38.3814 42.1367 38.1376 42.1071 37.9006 42.0479C37.6636 41.9886 37.4608 41.9157 37.2922 41.8291C37.1236 41.738 36.9732 41.6468 36.8411 41.5557C36.7135 41.46 36.62 41.3848 36.5608 41.3301L36.4651 41.2275V44.9395H35.0637V35.2803H36.4651V36.0527C36.5289 35.9889 36.6177 35.9046 36.7317 35.7998C36.8502 35.695 37.0985 35.5583 37.4768 35.3896C37.8551 35.221 38.2401 35.1367 38.6321 35.1367C39.5207 35.1367 40.2909 35.4785 40.9426 36.1621C41.5989 36.8411 41.927 37.666 41.927 38.6367C41.927 39.6074 41.5989 40.4346 40.9426 41.1182C40.2909 41.7972 39.5207 42.1367 38.6321 42.1367ZM39.9104 37.0576C39.5002 36.6201 39.0286 36.4014 38.4954 36.4014C37.9621 36.4014 37.4905 36.6201 37.0803 37.0576C36.6702 37.4951 36.4651 38.0238 36.4651 38.6436C36.4651 39.2588 36.6702 39.7852 37.0803 40.2227C37.4905 40.6602 37.9621 40.8789 38.4954 40.8789C39.0286 40.8789 39.5002 40.6602 39.9104 40.2227C40.3205 39.7852 40.5256 39.2588 40.5256 38.6436C40.5256 38.0238 40.3205 37.4951 39.9104 37.0576ZM50.1118 42H48.7104V41.3027C48.6922 41.321 48.6603 41.3506 48.6147 41.3916C48.5737 41.4326 48.4871 41.501 48.355 41.5967C48.2274 41.6878 48.0884 41.7721 47.938 41.8496C47.7876 41.9225 47.5985 41.9886 47.3706 42.0479C47.1427 42.1071 46.9126 42.1367 46.6802 42.1367C45.9966 42.1367 45.4292 41.9385 44.978 41.542C44.5268 41.1455 44.3013 40.6921 44.3013 40.1816C44.3013 39.6302 44.4744 39.1676 44.8208 38.7939C45.1717 38.4202 45.6502 38.1833 46.2563 38.083L48.7104 37.6592C48.7104 37.3037 48.5783 37.0052 48.3139 36.7637C48.0542 36.5221 47.7192 36.4014 47.3091 36.4014C46.9536 36.4014 46.63 36.4766 46.3384 36.627C46.0513 36.7728 45.853 36.9209 45.7436 37.0713L45.5591 37.3105L44.6499 36.4014C44.6772 36.3649 44.7137 36.3193 44.7593 36.2646C44.8094 36.2054 44.9165 36.1051 45.0805 35.9639C45.2492 35.818 45.4269 35.6882 45.6138 35.5742C45.8006 35.4603 46.0467 35.36 46.352 35.2734C46.6619 35.1823 46.9809 35.1367 47.3091 35.1367C48.1294 35.1367 48.8016 35.3805 49.3257 35.8682C49.8498 36.3512 50.1118 36.9482 50.1118 37.6592V42ZM46.8921 40.8789C47.4617 40.8789 47.9061 40.7103 48.2251 40.373C48.5486 40.0312 48.7104 39.5459 48.7104 38.917V38.7803L46.5366 39.1289C46.286 39.1745 46.0832 39.277 45.9282 39.4365C45.7733 39.596 45.6958 39.7965 45.6958 40.0381C45.6958 40.2614 45.8029 40.4574 46.0171 40.626C46.2358 40.7946 46.5275 40.8789 46.8921 40.8789ZM54.7351 39.1973V42H53.3337V35.2803H54.7351V37.9395H58.0232V35.2803H59.4245V42H58.0232V39.1973H54.7351ZM62.6464 42V35.2803H64.0478V40.7422H67.1992V35.2803H68.6005V40.7422H69.5781V43.6816H68.1767V42H62.6464ZM73.8459 42.6973L74.1262 42L71.3918 35.2803H72.8615L74.8234 40.1816L76.7854 35.2803H78.2551L75.2404 42.6973C74.8941 43.5267 74.55 44.1077 74.2082 44.4404C73.871 44.7731 73.4471 44.9395 72.9367 44.9395C72.7499 44.9395 72.5744 44.9281 72.4104 44.9053C72.2463 44.8825 72.1255 44.8574 72.048 44.8301L71.9523 44.8027V43.5381C72.1848 43.6292 72.4195 43.6771 72.6564 43.6816C73.1896 43.6771 73.5861 43.349 73.8459 42.6973ZM85.1069 37.0303C85.1069 37.3402 85.0203 37.6113 84.8471 37.8438C84.6785 38.0762 84.5053 38.2288 84.3276 38.3018L84.061 38.4316C84.0974 38.4408 84.1453 38.4567 84.2045 38.4795C84.2683 38.5023 84.3732 38.557 84.519 38.6436C84.6694 38.7256 84.8015 38.8258 84.9155 38.9443C85.034 39.0583 85.1411 39.2178 85.2368 39.4229C85.337 39.6279 85.3871 39.8581 85.3871 40.1133C85.3871 40.6738 85.1365 41.1523 84.6352 41.5488C84.1385 41.9408 83.4571 42.1367 82.5913 42.1367C82.2631 42.1367 81.9464 42.0957 81.6411 42.0137C81.3403 41.9316 81.0896 41.8337 80.8891 41.7197C80.6886 41.6058 80.5131 41.4919 80.3627 41.3779C80.2123 41.2594 80.1007 41.1592 80.0278 41.0771L79.9321 40.9473L80.8413 40.0381C80.8959 40.1019 80.9689 40.1816 81.06 40.2773C81.1557 40.373 81.3562 40.4984 81.6616 40.6533C81.9715 40.8037 82.2814 40.8789 82.5913 40.8789C83.0561 40.8789 83.4047 40.7923 83.6371 40.6191C83.8741 40.446 83.9926 40.2295 83.9926 39.9697C83.9926 39.71 83.8741 39.4935 83.6371 39.3203C83.4047 39.1471 83.0561 39.0605 82.5913 39.0605H81.8188V37.9395H82.5913C82.9558 37.9395 83.2338 37.8688 83.4252 37.7275C83.6166 37.5817 83.7123 37.3971 83.7123 37.1738C83.7123 36.946 83.6166 36.7614 83.4252 36.6201C83.2338 36.4743 82.9558 36.4014 82.5913 36.4014C82.3224 36.4014 82.058 36.4538 81.7983 36.5586C81.5431 36.6589 81.3539 36.7637 81.2309 36.873L81.0532 37.0303L80.1371 36.1211C80.201 36.0482 80.2944 35.957 80.4174 35.8477C80.5405 35.7383 80.8139 35.5924 81.2377 35.4102C81.6616 35.2279 82.1127 35.1367 82.5913 35.1367C83.366 35.1367 83.9789 35.3236 84.4301 35.6973C84.8813 36.071 85.1069 36.5153 85.1069 37.0303ZM88.8141 41.0977C88.1214 40.4004 87.7751 39.5824 87.7751 38.6436C87.7751 37.7002 88.1214 36.8799 88.8141 36.1826C89.5114 35.4854 90.3317 35.1367 91.2751 35.1367C91.7992 35.1367 92.2868 35.2507 92.738 35.4785C93.1891 35.7018 93.5127 35.9251 93.7087 36.1484L94.0026 36.4697L93.0934 37.3789C93.0479 37.306 92.9772 37.2171 92.8815 37.1123C92.7904 37.0029 92.5876 36.8571 92.2731 36.6748C91.9632 36.4925 91.6305 36.4014 91.2751 36.4014C90.7054 36.4014 90.211 36.6178 89.7917 37.0508C89.377 37.4837 89.1696 38.0146 89.1696 38.6436C89.1696 39.2679 89.377 39.7965 89.7917 40.2295C90.211 40.6624 90.7054 40.8789 91.2751 40.8789C91.6305 40.8789 91.9632 40.79 92.2731 40.6123C92.5876 40.4346 92.8132 40.2614 92.9499 40.0928L93.1618 39.833L94.071 40.7422C94.0436 40.7786 94.0026 40.8311 93.9479 40.8994C93.8932 40.9632 93.7748 41.0749 93.5925 41.2344C93.4102 41.3893 93.2188 41.5283 93.0182 41.6514C92.8177 41.7699 92.558 41.8815 92.2389 41.9863C91.9199 42.0866 91.5986 42.1367 91.2751 42.1367C90.3317 42.1367 89.5114 41.7904 88.8141 41.0977ZM102.68 35.2803L100.089 38.083L102.885 42H101.347L99.1796 38.9922L98.1269 40.1133V42H96.7255V35.2803H98.1269V38.2881L100.998 35.2803H102.68ZM109.531 40.2295C109.946 39.7965 110.153 39.2679 110.153 38.6436C110.153 38.0146 109.946 37.4837 109.531 37.0508C109.117 36.6178 108.625 36.4014 108.055 36.4014C107.485 36.4014 106.991 36.6178 106.571 37.0508C106.157 37.4837 105.949 38.0146 105.949 38.6436C105.949 39.2679 106.157 39.7965 106.571 40.2295C106.991 40.6624 107.485 40.8789 108.055 40.8789C108.625 40.8789 109.117 40.6624 109.531 40.2295ZM105.594 41.0977C104.901 40.4004 104.555 39.5824 104.555 38.6436C104.555 37.7002 104.901 36.8799 105.594 36.1826C106.291 35.4854 107.111 35.1367 108.055 35.1367C108.998 35.1367 109.816 35.4854 110.509 36.1826C111.206 36.8799 111.555 37.7002 111.555 38.6436C111.555 39.5824 111.206 40.4004 110.509 41.0977C109.816 41.7904 108.998 42.1367 108.055 42.1367C107.111 42.1367 106.291 41.7904 105.594 41.0977ZM120.58 39.1289H115.33C115.403 39.6029 115.636 40.013 116.028 40.3594C116.424 40.7057 116.894 40.8789 117.436 40.8789C117.828 40.8789 118.192 40.79 118.53 40.6123C118.871 40.4346 119.113 40.2614 119.254 40.0928L119.466 39.833L120.375 40.7422C120.348 40.7786 120.305 40.8311 120.246 40.8994C120.191 40.9632 120.07 41.0749 119.883 41.2344C119.696 41.3893 119.498 41.5283 119.288 41.6514C119.079 41.7699 118.805 41.8815 118.468 41.9863C118.135 42.0866 117.791 42.1367 117.436 42.1367C116.483 42.1367 115.661 41.7881 114.968 41.0908C114.28 40.389 113.936 39.5482 113.936 38.5684C113.936 37.625 114.271 36.8184 114.941 36.1484C115.615 35.474 116.422 35.1367 117.361 35.1367C118.304 35.1367 119.088 35.4512 119.712 36.0801C120.341 36.7044 120.656 37.4883 120.656 38.4316L120.58 39.1289ZM117.361 36.333C116.855 36.333 116.429 36.4834 116.082 36.7842C115.741 37.0804 115.51 37.4655 115.392 37.9395H119.282C119.2 37.4655 118.988 37.0804 118.646 36.7842C118.304 36.4834 117.876 36.333 117.361 36.333ZM133.464 35.2803L130.873 38.083L133.669 42H132.131L129.964 38.9922L128.911 40.1133V42H127.51V35.2803H128.911V38.2881L131.782 35.2803H133.464ZM141.437 42H140.035V41.3027C140.017 41.321 139.985 41.3506 139.94 41.3916C139.899 41.4326 139.812 41.501 139.68 41.5967C139.552 41.6878 139.413 41.7721 139.263 41.8496C139.112 41.9225 138.923 41.9886 138.695 42.0479C138.468 42.1071 138.237 42.1367 138.005 42.1367C137.321 42.1367 136.754 41.9385 136.303 41.542C135.852 41.1455 135.626 40.6921 135.626 40.1816C135.626 39.6302 135.799 39.1676 136.146 38.7939C136.497 38.4202 136.975 38.1833 137.581 38.083L140.035 37.6592C140.035 37.3037 139.903 37.0052 139.639 36.7637C139.379 36.5221 139.044 36.4014 138.634 36.4014C138.278 36.4014 137.955 36.4766 137.663 36.627C137.376 36.7728 137.178 36.9209 137.068 37.0713L136.884 37.3105L135.975 36.4014C136.002 36.3649 136.039 36.3193 136.084 36.2646C136.134 36.2054 136.241 36.1051 136.405 35.9639C136.574 35.818 136.752 35.6882 136.939 35.5742C137.125 35.4603 137.372 35.36 137.677 35.2734C137.987 35.1823 138.306 35.1367 138.634 35.1367C139.454 35.1367 140.126 35.3805 140.651 35.8682C141.175 36.3512 141.437 36.9482 141.437 37.6592V42ZM138.217 40.8789C138.787 40.8789 139.231 40.7103 139.55 40.373C139.873 40.0312 140.035 39.5459 140.035 38.917V38.7803L137.861 39.1289C137.611 39.1745 137.408 39.277 137.253 39.4365C137.098 39.596 137.021 39.7965 137.021 40.0381C137.021 40.2614 137.128 40.4574 137.342 40.626C137.561 40.7946 137.852 40.8789 138.217 40.8789ZM148.159 44.9395V42.1367C146.992 42.1367 146.046 41.804 145.322 41.1387C144.602 40.4733 144.242 39.6416 144.242 38.6436C144.242 37.641 144.602 36.807 145.322 36.1416C146.046 35.4717 146.992 35.1367 148.159 35.1367V32.1973H149.56V35.1367C150.727 35.1367 151.67 35.4717 152.39 36.1416C153.115 36.807 153.477 37.641 153.477 38.6436C153.477 39.6416 153.115 40.4733 152.39 41.1387C151.67 41.804 150.727 42.1367 149.56 42.1367V44.9395H148.159ZM148.159 40.8789V36.4014C147.366 36.4014 146.746 36.6042 146.299 37.0098C145.857 37.4154 145.636 37.96 145.636 38.6436C145.636 39.3226 145.857 39.8649 146.299 40.2705C146.746 40.6761 147.366 40.8789 148.159 40.8789ZM149.56 36.4014V40.8789C150.353 40.8789 150.97 40.6761 151.412 40.2705C151.859 39.8649 152.082 39.3226 152.082 38.6436C152.082 37.96 151.859 37.4154 151.412 37.0098C150.97 36.6042 150.353 36.4014 149.56 36.4014ZM162.509 39.1289H157.259C157.332 39.6029 157.565 40.013 157.957 40.3594C158.353 40.7057 158.823 40.8789 159.365 40.8789C159.757 40.8789 160.121 40.79 160.459 40.6123C160.8 40.4346 161.042 40.2614 161.183 40.0928L161.395 39.833L162.304 40.7422C162.277 40.7786 162.234 40.8311 162.174 40.8994C162.12 40.9632 161.999 41.0749 161.812 41.2344C161.625 41.3893 161.427 41.5283 161.217 41.6514C161.008 41.7699 160.734 41.8815 160.397 41.9863C160.064 42.0866 159.72 42.1367 159.365 42.1367C158.412 42.1367 157.59 41.7881 156.897 41.0908C156.209 40.389 155.865 39.5482 155.865 38.5684C155.865 37.625 156.2 36.8184 156.87 36.1484C157.544 35.474 158.351 35.1367 159.29 35.1367C160.233 35.1367 161.017 35.4512 161.641 36.0801C162.27 36.7044 162.585 37.4883 162.585 38.4316L162.509 39.1289ZM159.29 36.333C158.784 36.333 158.358 36.4834 158.011 36.7842C157.67 37.0804 157.439 37.4655 157.321 37.9395H161.211C161.129 37.4655 160.917 37.0804 160.575 36.7842C160.233 36.4834 159.805 36.333 159.29 36.333Z" fill="#003F80"/>
</g>
<defs>
<filter id="filter0_d_557_1548" x="0.803955" y="5.76001" width="181.533" height="22.48" filterUnits="userSpaceOnUse" color-interpolation-filters="sRGB">
<feFlood flood-opacity="0" result="BackgroundImageFix"/>
<feColorMatrix in="SourceAlpha" type="matrix" values="0 0 0 0 0 0 0 0 0 0 0 0 0 0 0 0 0 0 127 0" result="hardAlpha"/>
<feOffset dy="4"/>
<feGaussianBlur stdDeviation="2"/>
<feColorMatrix type="matrix" values="0 0 0 0 0.00649303 0 0 0 0 0.386793 0 0 0 0 0.779167 0 0 0 0.31 0"/>
<feBlend mode="normal" in2="BackgroundImageFix" result="effect1_dropShadow_557_1548"/>
<feBlend mode="normal" in="SourceGraphic" in2="effect1_dropShadow_557_1548" result="shape"/>
</filter>
<filter id="filter1_d_557_1548" x="17.6973" y="31.917" width="148.887" height="21.0225" filterUnits="userSpaceOnUse" color-interpolation-filters="sRGB">
<feFlood flood-opacity="0" result="BackgroundImageFix"/>
<feColorMatrix in="SourceAlpha" type="matrix" values="0 0 0 0 0 0 0 0 0 0 0 0 0 0 0 0 0 0 127 0" result="hardAlpha"/>
<feOffset dy="4"/>
<feGaussianBlur stdDeviation="2"/>
<feComposite in2="hardAlpha" operator="out"/>
<feColorMatrix type="matrix" values="0 0 0 0 0.00784314 0 0 0 0 0.388235 0 0 0 0 0.780392 0 0 0 0.21 0"/>
<feBlend mode="normal" in2="BackgroundImageFix" result="effect1_dropShadow_557_1548"/>
<feBlend mode="normal" in="SourceGraphic" in2="effect1_dropShadow_557_1548" result="shape"/>
</filter>
</defs>
</svg>
