<svg width="38" height="38" viewBox="0 0 38 38" fill="none" xmlns="http://www.w3.org/2000/svg">
<path fill-rule="evenodd" clip-rule="evenodd" d="M33.25 19C33.25 26.8701 26.8701 33.25 19 33.25C11.1299 33.25 4.75 26.8701 4.75 19C4.75 11.1299 11.1299 4.75 19 4.75C26.8701 4.75 33.25 11.1299 33.25 19ZM11.9596 26.0404C11.569 25.6499 11.569 25.0168 11.9596 24.6262L17.5858 19L11.9596 13.3738C11.569 12.9832 11.569 12.3501 11.9596 11.9596C12.3501 11.569 12.9832 11.569 13.3738 11.9596L19 17.5858L24.6262 11.9596C25.0168 11.569 25.6499 11.569 26.0404 11.9596C26.431 12.3501 26.431 12.9832 26.0404 13.3738L20.4142 19L26.0404 24.6262C26.431 25.0168 26.431 25.6499 26.0404 26.0404C25.6499 26.431 25.0168 26.431 24.6262 26.0404L19 20.4142L13.3738 26.0404C12.9832 26.431 12.3501 26.431 11.9596 26.0404Z" fill="#fff"/>
</svg>
