<svg width="192" height="192" viewBox="0 0 192 192" fill="none" xmlns="http://www.w3.org/2000/svg">
<circle cx="96" cy="96" r="93" stroke="none" stroke-width="6"/>
<path d="M99.9 143.15L110.45 132.4C113.217 129.533 115.317 126.75 116.75 124.05C118.217 121.317 118.95 118.5 118.95 115.6C118.95 112.667 118.317 110.533 117.05 109.2C115.817 107.833 114.133 107.15 112 107.15C110.333 107.15 108.883 107.6 107.65 108.5C106.417 109.4 105.8 110.583 105.8 112.05C105.8 113.817 106.683 115.133 108.45 116C108.45 117.2 108.083 118.117 107.35 118.75C106.617 119.383 105.75 119.7 104.75 119.7C103.683 119.7 102.767 119.317 102 118.55C101.233 117.75 100.85 116.667 100.85 115.3C100.85 113.5 101.4 111.9 102.5 110.5C103.6 109.067 105.067 107.967 106.9 107.2C108.733 106.4 110.7 106 112.8 106C116.867 106 119.883 106.967 121.85 108.9C123.817 110.8 124.8 113.317 124.8 116.45C124.8 118.35 124.4 120.1 123.6 121.7C122.833 123.267 121.9 124.633 120.8 125.8C119.733 126.967 118.267 128.367 116.4 130L115 131.2L103.05 141.75H121.7L123.75 134.35H125.05V147H99.9V143.15ZM146.064 148C143.164 148 140.631 147.217 138.464 145.65C136.297 144.083 134.614 141.733 133.414 138.6C132.214 135.433 131.614 131.567 131.614 127C131.614 122.433 132.214 118.583 133.414 115.45C134.614 112.283 136.297 109.917 138.464 108.35C140.631 106.783 143.164 106 146.064 106C148.964 106 151.497 106.783 153.664 108.35C155.831 109.917 157.514 112.283 158.714 115.45C159.914 118.583 160.514 122.433 160.514 127C160.514 131.567 159.914 135.433 158.714 138.6C157.514 141.733 155.831 144.083 153.664 145.65C151.497 147.217 148.964 148 146.064 148ZM146.064 146.85C148.564 146.85 150.531 145.633 151.964 143.2C153.397 140.767 154.114 136.967 154.114 131.8V122.15C154.114 117.017 153.397 113.233 151.964 110.8C150.531 108.367 148.564 107.15 146.064 107.15C143.564 107.15 141.597 108.367 140.164 110.8C138.731 113.233 138.014 117.017 138.014 122.15V131.8C138.014 136.933 138.731 140.733 140.164 143.2C141.597 145.633 143.564 146.85 146.064 146.85Z" fill="#003F80"/>
<path d="M42.35 86C40.2833 86 38.3833 85.6 36.65 84.8C34.95 84 33.6 82.9167 32.6 81.55C31.6 80.1833 31.1 78.65 31.1 76.95C31.1 75.5833 31.4833 74.5167 32.25 73.75C33.0167 72.95 33.9333 72.55 35 72.55C36 72.55 36.8667 72.8667 37.6 73.5C38.3333 74.1333 38.7 75.05 38.7 76.25C36.9333 77.1167 36.05 78.45 36.05 80.25C36.05 81.6167 36.6167 82.7333 37.75 83.6C38.9167 84.4333 40.45 84.85 42.35 84.85C44.75 84.85 46.7 83.95 48.2 82.15C49.7 80.35 50.45 77.8333 50.45 74.6C50.45 71.1 49.45 68.4 47.45 66.5C45.45 64.5667 42.5 63.4833 38.6 63.25V62.15C42.1 61.95 44.8167 61.0167 46.75 59.35C48.7167 57.65 49.7 55.3667 49.7 52.5C49.7 50.2667 49.0833 48.4833 47.85 47.15C46.65 45.8167 45.0333 45.15 43 45.15C41.1667 45.15 39.7167 45.4667 38.65 46.1C37.6167 46.7 37.1 47.55 37.1 48.65C37.1 50.4167 37.9333 51.6833 39.6 52.45C39.6 53.5833 39.25 54.4667 38.55 55.1C37.8833 55.7 37.0667 56 36.1 56C35.1 56 34.2333 55.6167 33.5 54.85C32.7667 54.0833 32.4 53.0667 32.4 51.8C32.4 50.3 32.9167 48.9667 33.95 47.8C34.9833 46.6 36.35 45.6667 38.05 45C39.7833 44.3333 41.6167 44 43.55 44C47.35 44 50.3167 44.7667 52.45 46.3C54.5833 47.8333 55.65 49.9833 55.65 52.75C55.65 55.65 54.6 57.9 52.5 59.5C50.4333 61.0667 47.4167 62.1167 43.45 62.65V62.8C47.6167 63 50.9667 64.1167 53.5 66.15C56.0667 68.15 57.35 70.9667 57.35 74.6C57.35 76.6333 56.7833 78.5167 55.65 80.25C54.55 81.9833 52.8667 83.3833 50.6 84.45C48.3667 85.4833 45.6167 86 42.35 86ZM72.5559 86C70.4892 86 68.5892 85.6 66.8559 84.8C65.1559 84 63.8059 82.9167 62.8059 81.55C61.8059 80.1833 61.3059 78.65 61.3059 76.95C61.3059 75.5833 61.6892 74.5167 62.4559 73.75C63.2225 72.95 64.1392 72.55 65.2059 72.55C66.2059 72.55 67.0725 72.8667 67.8059 73.5C68.5392 74.1333 68.9059 75.05 68.9059 76.25C67.1392 77.1167 66.2559 78.45 66.2559 80.25C66.2559 81.6167 66.8225 82.7333 67.9559 83.6C69.1225 84.4333 70.6559 84.85 72.5559 84.85C75.0559 84.85 77.0225 83.7833 78.4559 81.65C79.9225 79.5167 80.6559 76.75 80.6559 73.35C80.6559 69.4167 79.7892 66.4667 78.0559 64.5C76.3559 62.5 74.0892 61.5 71.2559 61.5C69.7559 61.5 68.1225 61.7833 66.3559 62.35L65.4559 61.7L67.6559 45H80.9059C82.9059 45 84.3559 44.85 85.2559 44.55C86.1892 44.2167 86.8225 43.4667 87.1559 42.3L88.3059 42.35C88.0392 45.5833 87.2225 47.8167 85.8559 49.05C84.5225 50.25 82.6225 50.85 80.1559 50.85H68.2059L66.9059 60.8C68.5725 60.3333 70.3225 60.1 72.1559 60.1C75.1225 60.1 77.7725 60.6833 80.1059 61.85C82.4725 63.0167 84.3059 64.6167 85.6059 66.65C86.9059 68.6833 87.5559 70.9333 87.5559 73.4C87.5559 75.5 87.0225 77.5167 85.9559 79.45C84.8892 81.35 83.2225 82.9167 80.9559 84.15C78.7225 85.3833 75.9225 86 72.5559 86Z" fill="#003F80"/>
<path d="M90.04 113L108.7 71H111.76L93.16 113H90.04Z" fill="#003F80"/>
</svg>
