<svg width="32" height="32" viewBox="0 0 32 32" fill="none" xmlns="http://www.w3.org/2000/svg">
<circle cx="16" cy="16" r="15" stroke="#06417D" stroke-width="2"/>
<path d="M19.75 15C20.3023 15 20.75 15.4477 20.75 16C20.75 16.5523 20.3023 17 19.75 17V15ZM9.25 17C8.69771 17 8.25 16.5523 8.25 16C8.25 15.4477 8.69771 15 9.25 15V17ZM19.75 17H9.25V15H19.75V17Z" fill="#06417D"/>
<path d="M23.2152 15.7966L19.515 13.1536C18.9855 12.7754 18.25 13.1539 18.25 13.8046V18.1954C18.25 18.8461 18.9855 19.2246 19.515 18.8464L23.2152 16.2034C23.3548 16.1037 23.3548 15.8963 23.2152 15.7966Z" fill="#06417D"/>
</svg>
