<svg width="73" height="61" viewBox="0 0 73 61" fill="none" xmlns="http://www.w3.org/2000/svg">
<g clip-path="url(#clip0_79_1507)">
<path d="M68.8339 57.7011L4.88013 57.6098C4.92695 40.4044 19.2533 26.4392 36.9038 26.4849C54.5543 26.5305 68.8339 40.4956 68.8339 57.7011Z" stroke="#021245" stroke-width="2" stroke-miterlimit="10"/>
<path d="M1.41577 59.0691L71.5495 59.206" stroke="#021245" stroke-width="2" stroke-miterlimit="10" stroke-linecap="round"/>
<path d="M39.4763 23.2507C39.4788 21.7132 38.2023 20.4648 36.625 20.4623C35.0477 20.4597 33.767 21.7041 33.7644 23.2416C33.7619 24.7791 35.0384 26.0275 36.6157 26.0301C38.193 26.0326 39.4737 24.7882 39.4763 23.2507Z" stroke="#021245" stroke-width="2" stroke-miterlimit="10"/>
<path d="M12.5122 49.8507C13.1208 48.2534 14.0572 46.2453 15.6022 44.146C17.5686 41.4077 19.6754 39.5822 21.314 38.3956" stroke="#021245" stroke-width="2" stroke-miterlimit="10" stroke-linecap="round"/>
<path d="M24.4967 36.3415C25.714 35.9307 26.8844 35.52 28.1017 35.1093" stroke="#021245" stroke-width="2" stroke-miterlimit="10" stroke-linecap="round"/>
<path d="M17.6152 12.1091C16.6788 13.0219 15.6488 14.391 15.7893 15.9427C15.9298 17.5857 17.2407 18.3159 18.0366 19.8675C18.7388 21.2367 19.0666 23.2904 17.4748 26.485" stroke="#021245" stroke-width="2" stroke-miterlimit="10" stroke-linecap="round"/>
<path d="M34.8908 1.97717C33.2054 3.34631 32.8776 4.53289 32.8308 5.21745C32.784 6.44967 33.5331 7.4537 34.5631 8.86848C35.9208 10.6483 36.6231 10.7853 36.9508 11.698C37.2786 12.5651 37.1381 13.8886 34.7972 15.6685" stroke="#021245" stroke-width="2" stroke-miterlimit="10" stroke-linecap="round"/>
<path d="M53.8526 9.91895C53.0567 10.8317 52.1671 12.2008 52.3076 13.7525C52.448 15.3955 53.5717 16.1257 54.2271 17.6774C54.8358 19.0465 55.1167 21.1002 53.7121 24.2948" stroke="#021245" stroke-width="2" stroke-miterlimit="10" stroke-linecap="round"/>
</g>
<defs>
<clipPath id="clip0_79_1507">
<rect width="72.4747" height="59.5116" fill="white" transform="translate(0.245361 0.836182)"/>
</clipPath>
</defs>
</svg>
