<svg width="41" height="39" viewBox="0 0 41 39" fill="none" xmlns="http://www.w3.org/2000/svg">
<path d="M18.0536 5.43164C16.9103 6.29099 15.9364 7.28783 15.1318 8.35342" stroke="#06417D" stroke-miterlimit="10" stroke-linecap="round"/>
<path d="M27.9813 27.9351C31.086 28.0522 33.8369 28.4424 36.9809 28.0522C37.7669 27.6619 37.7669 26.8815 37.7669 26.101C36.9809 22.9792 36.9809 20.2476 37.3739 17.5159C37.7669 15.955 39.7319 15.1745 40.1249 13.2234C40.9109 8.54062 38.1599 4.63831 34.2299 2.68715C29.514 0.735994 24.012 0.735994 19.8069 3.81882" stroke="#06417D" stroke-miterlimit="10" stroke-linecap="round"/>
<path d="M18.6246 14.264C15.2355 13.0674 15.4349 10.6742 12.1255 9.78644C8.57697 8.82145 5.34739 10.79 4.9088 11.0602C2.39691 12.6042 0.562821 15.422 0.522949 18.2783C0.522949 21.0575 2.27729 21.3277 3.11459 24.9174C4.19112 29.6265 1.63935 31.2477 3.11459 33.9497C4.74932 36.8832 9.77312 38.35 13.1622 37.1534C15.5545 36.3042 15.2355 34.7989 18.3455 33.6023C21.1365 32.5215 22.8111 33.1777 24.2464 31.6723C25.0439 30.8231 24.7648 30.3213 25.5622 28.4686C26.9976 24.9946 28.7519 24.8788 29.4696 22.64C30.3069 20.0153 29.1506 16.3097 26.7583 14.8816C24.2464 13.299 22.3725 15.5763 18.6246 14.264Z" stroke="#06417D" stroke-miterlimit="10" stroke-linecap="round"/>
<path d="M14.2552 29.3902C17.3212 29.3902 19.8066 26.9048 19.8066 23.8389C19.8066 20.7729 17.3212 18.2875 14.2552 18.2875C11.1893 18.2875 8.70386 20.7729 8.70386 23.8389C8.70386 26.9048 11.1893 29.3902 14.2552 29.3902Z" stroke="#06417D" stroke-miterlimit="10" stroke-linecap="round"/>
<path d="M15.1318 25.8842C15.402 25.8469 16.3024 25.6231 16.9326 24.9144C17.9231 23.7954 17.2478 22.4527 17.2028 22.3781" stroke="#06417D" stroke-miterlimit="10" stroke-linecap="round"/>
<path d="M15.7163 21.2092C15.6786 21.1471 15.5655 20.8987 15.2639 20.7434C14.9246 20.5881 14.623 20.6192 14.5476 20.6502" stroke="#06417D" stroke-miterlimit="10" stroke-linecap="round"/>
</svg>
