<svg width="34" height="29" viewBox="0 0 34 29" fill="none" xmlns="http://www.w3.org/2000/svg">
<path d="M31.7609 27.29L31.7602 27.79L32.2609 27.7908V27.29H31.7609ZM2.58067 27.247L2.08067 27.2456L2.07936 27.7462L2.57993 27.747L2.58067 27.247ZM1.00101 27.4354C0.724867 27.4348 0.500558 27.6583 0.500001 27.9344C0.499444 28.2105 0.722849 28.4348 0.998991 28.4354L1.00101 27.4354ZM32.999 28.5C33.2751 28.5006 33.4994 28.2772 33.5 28.001C33.5006 27.7249 33.2771 27.5006 33.001 27.5L32.999 28.5ZM17.0649 9.72114L17.0658 9.22114L17.0649 9.72114ZM18.3659 11.0367L17.8659 11.0359L18.3659 11.0367ZM17.0607 12.348L17.0615 11.848L17.0607 12.348ZM15.7597 11.0324L15.2598 11.0316L15.7597 11.0324ZM5.5938 23.4134C5.49832 23.6725 5.63096 23.9599 5.89007 24.0554C6.14918 24.1509 6.43664 24.0183 6.53212 23.7592L5.5938 23.4134ZM7.47284 20.8948L7.88022 21.1848L7.88352 21.18L7.47284 20.8948ZM10.3787 18.5821C10.5997 18.4166 10.6447 18.1032 10.4792 17.8822C10.3137 17.6611 10.0003 17.6161 9.7793 17.7816L10.3787 18.5821ZM11.3665 16.7407C11.1057 16.8316 10.9681 17.1167 11.0591 17.3775C11.15 17.6382 11.4352 17.7758 11.6959 17.6848L11.3665 16.7407ZM13.3407 17.1035C13.6015 17.0125 13.7391 16.7274 13.6481 16.4667C13.5571 16.206 13.272 16.0683 13.0113 16.1593L13.3407 17.1035ZM8.74627 6.13234C8.94076 5.93631 8.93951 5.61973 8.74348 5.42524C8.54744 5.23075 8.23086 5.232 8.03638 5.42804L8.74627 6.13234ZM7.55821 7.58883L8.05652 7.54763L8.05631 7.54523L7.55821 7.58883ZM8.58358 9.44053L9.0315 9.21834L8.58358 9.44053ZM7.87681 12.3455C7.75693 12.5943 7.86142 12.8931 8.11018 13.013C8.35895 13.1329 8.65779 13.0284 8.77767 12.7796L7.87681 12.3455ZM16.5952 1.38286C16.8067 1.20526 16.8341 0.889864 16.6565 0.678415C16.4789 0.466966 16.1635 0.439532 15.9521 0.617138L16.5952 1.38286ZM15.3337 2.52873L14.8348 2.49573L14.8343 2.50305L14.8341 2.51037L15.3337 2.52873ZM16.1241 4.25125L15.7152 4.53917L15.7218 4.54808L16.1241 4.25125ZM17.2136 5.5862L16.7412 5.75023L16.744 5.75785L17.2136 5.5862ZM15.9219 7.06636C15.7048 7.23703 15.6672 7.55137 15.8379 7.76846C16.0085 7.98554 16.3229 8.02317 16.54 7.8525L15.9219 7.06636ZM25.3076 5.06923C25.4856 4.85813 25.4588 4.54268 25.2477 4.36466C25.0366 4.18664 24.7212 4.21345 24.5432 4.42455L25.3076 5.06923ZM24.2204 6.55553L24.7187 6.51433L24.7185 6.51193L24.2204 6.55553ZM25.0963 8.40723L24.6333 8.59636L24.6369 8.60472L25.0963 8.40723ZM24.4012 11.3336C24.2931 11.5878 24.4115 11.8814 24.6656 11.9894C24.9198 12.0975 25.2134 11.9791 25.3214 11.7249L24.4012 11.3336ZM31.7616 26.79L2.58141 26.747L2.57993 27.747L31.7602 27.79L31.7616 26.79ZM3.08067 27.2483C3.10132 19.4018 9.41882 13.0417 17.1908 13.0625L17.1935 12.0625C8.85867 12.0402 2.10275 18.8574 2.08067 27.2456L3.08067 27.2483ZM17.1908 13.0625C24.9647 13.0833 31.2609 19.4444 31.2609 27.29H32.2609C32.2609 18.901 25.5264 12.0848 17.1935 12.0625L17.1908 13.0625ZM0.998991 28.4354L32.999 28.5L33.001 27.5L1.00101 27.4354L0.998991 28.4354ZM17.0641 10.2211C17.5039 10.2219 17.8666 10.5829 17.8659 11.0359L18.8659 11.0375C18.8675 10.0397 18.0653 9.22278 17.0658 9.22114L17.0641 10.2211ZM17.8659 11.0359C17.8652 11.4889 17.5013 11.8487 17.0615 11.848L17.0599 12.848C18.0594 12.8496 18.8643 12.0353 18.8659 11.0375L17.8659 11.0359ZM17.0615 11.848C16.6217 11.8472 16.259 11.4862 16.2597 11.0332L15.2598 11.0316C15.2581 12.0294 16.0603 12.8463 17.0599 12.848L17.0615 11.848ZM16.2597 11.0332C16.2605 10.5803 16.6243 10.2204 17.0641 10.2211L17.0658 9.22114C16.0662 9.21949 15.2614 10.0338 15.2598 11.0316L16.2597 11.0332ZM6.53212 23.7592C6.79904 23.0348 7.20759 22.1298 7.8802 21.1848L7.06548 20.6049C6.3282 21.6408 5.88229 22.6305 5.5938 23.4134L6.53212 23.7592ZM7.88352 21.18C8.74395 19.9411 9.66432 19.117 10.3787 18.5821L9.7793 17.7816C8.99832 18.3664 7.99612 19.2648 7.06216 20.6096L7.88352 21.18ZM11.6959 17.6848C11.9753 17.5874 12.249 17.49 12.5212 17.3932C12.7938 17.2962 13.0647 17.1998 13.3407 17.1035L13.0113 16.1593C12.7319 16.2568 12.4582 16.3542 12.186 16.451C11.9134 16.548 11.6425 16.6444 11.3665 16.7407L11.6959 17.6848ZM8.03638 5.42804C7.58932 5.87864 6.97557 6.6666 7.06012 7.63243L8.05631 7.54523C8.01269 7.04692 8.33885 6.543 8.74627 6.13234L8.03638 5.42804ZM7.05991 7.63003C7.1033 8.1548 7.33308 8.52558 7.55668 8.82805C7.79188 9.14623 7.98022 9.34937 8.13566 9.66273L9.0315 9.21834C8.82379 8.79963 8.53149 8.46448 8.36082 8.23361C8.17854 7.98703 8.07721 7.79799 8.05651 7.54763L7.05991 7.63003ZM8.13566 9.66273C8.37739 10.15 8.54673 10.9553 7.87681 12.3455L8.77767 12.7796C9.56035 11.1554 9.43063 10.0229 9.0315 9.21834L8.13566 9.66273ZM15.9521 0.617138C15.0853 1.34516 14.8657 2.02851 14.8348 2.49573L15.8326 2.56173C15.8445 2.38301 15.9239 1.94673 16.5952 1.38286L15.9521 0.617138ZM14.8341 2.51037C14.8052 3.2955 15.279 3.91947 15.7153 4.5391L16.533 3.9634C16.0293 3.24808 15.8195 2.92466 15.8334 2.54709L14.8341 2.51037ZM15.7218 4.54808C16.0557 5.00073 16.3139 5.24937 16.4928 5.42698C16.6668 5.59966 16.7076 5.65339 16.7412 5.75021L17.6859 5.42218C17.57 5.08838 17.3759 4.89449 17.1973 4.71728C17.0238 4.54501 16.812 4.34149 16.5265 3.95442L15.7218 4.54808ZM16.744 5.75785C16.778 5.85105 16.797 5.9788 16.7177 6.16807C16.6314 6.37395 16.4177 6.67656 15.9219 7.06636L16.54 7.8525C17.1122 7.40258 17.4646 6.97312 17.64 6.55459C17.8224 6.11945 17.7987 5.73044 17.6832 5.41454L16.744 5.75785ZM24.5432 4.42455C24.157 4.88245 23.6403 5.66172 23.7223 6.59913L24.7185 6.51193C24.6724 5.9852 24.9675 5.47259 25.3076 5.06923L24.5432 4.42455ZM23.7221 6.59673C23.7638 7.10117 23.9562 7.46188 24.1476 7.76473C24.3457 8.07804 24.506 8.28438 24.6334 8.59632L25.5591 8.21814C25.3875 7.79802 25.1419 7.46607 24.9929 7.23034C24.8372 6.98413 24.7411 6.78502 24.7187 6.51433L23.7221 6.59673ZM24.6369 8.60472C24.8529 9.10712 24.9968 9.93273 24.4012 11.3336L25.3214 11.7249C26.0075 10.1114 25.895 8.99923 25.5556 8.20975L24.6369 8.60472Z" fill="#06417D"/>
</svg>
