<svg width="60" height="68" viewBox="0 0 60 68" fill="none" xmlns="http://www.w3.org/2000/svg">
<path d="M18.2905 23.1527C17.352 21.9956 16.2794 20.26 16.4582 18.2573C16.5922 16.1656 17.9329 15.231 18.7374 13.2728C19.4524 11.5817 19.8099 8.91144 18.1564 4.86157" stroke="#021245" stroke-width="2" stroke-miterlimit="10" stroke-linecap="round"/>
<path d="M26.9592 19.1915C25.261 17.4113 24.9035 15.9427 24.9035 15.0526C24.8141 13.4505 25.6185 12.2044 26.6464 10.4242C27.9871 8.15449 28.7021 7.97648 29.0596 6.81937C29.3724 5.70677 29.2383 4.01561 26.8698 1.79041" stroke="#021245" stroke-width="2" stroke-miterlimit="10" stroke-linecap="round"/>
<path d="M35.6747 23.1527C34.7362 21.9956 33.6636 20.26 33.8423 18.2573C33.9764 16.1656 35.3172 15.231 36.1216 13.2728C36.8367 11.5817 37.1942 8.91144 35.5406 4.86157" stroke="#021245" stroke-width="2" stroke-miterlimit="10" stroke-linecap="round"/>
<path d="M51.0044 40.9553C51.2279 39.3532 51.3173 37.7065 51.3173 36.0599C51.0491 36.1934 50.781 36.3269 50.4682 36.4604C45.4182 38.9081 37.374 41.9344 27.1846 42.0679C26.9612 42.0679 26.7377 42.0679 26.559 42.0679C26.2014 42.0679 25.7992 42.0679 25.4417 42.0679C15.6099 41.8899 7.74443 38.9972 2.82852 36.6384C2.471 36.4604 2.15817 36.3269 1.84534 36.1489C1.84534 52.7935 13.0626 66.5008 26.6037 66.5008H26.6483C34.4244 66.5008 41.3514 62.0948 45.8651 55.1967" stroke="#021245" stroke-width="2" stroke-miterlimit="10"/>
<path d="M47.2517 52.7947C48.7265 50.08 49.8437 47.0092 50.5141 43.7604" stroke="#021245" stroke-width="2" stroke-miterlimit="10"/>
<path d="M43.3169 44.5139C42.8253 46.0715 42.1103 48.0297 40.9483 50.0769C39.4289 52.7472 37.7754 54.5273 36.524 55.6844" stroke="#021245" stroke-width="2" stroke-miterlimit="10" stroke-linecap="round"/>
<path d="M34.068 57.6854C33.1296 58.0859 32.1911 58.4864 31.2974 58.887" stroke="#021245" stroke-width="2" stroke-miterlimit="10" stroke-linecap="round"/>
<path d="M5.77747 66.456H45.3728" stroke="#021245" stroke-width="2" stroke-miterlimit="10" stroke-linecap="round"/>
<path d="M45.0146 29.3845C48.9474 30.7197 51.3606 32.4998 51.3606 34.458C51.3606 38.6414 40.2774 42.0683 26.6022 42.0683C12.927 42.0683 1.79907 38.6859 1.79907 34.458C1.79907 30.2746 12.8823 26.8478 26.5575 26.8478C31.9203 26.8478 36.8363 27.3818 40.9031 28.2719" stroke="#021245" stroke-width="2" stroke-miterlimit="10" stroke-linecap="round"/>
<path d="M48.6795 42.3313C48.9476 42.1088 51.0034 40.1951 53.7742 40.7292C56.3216 41.1742 57.5282 43.3104 57.841 43.8445C59.6734 47.0488 58.4667 51.2767 56.3216 53.7689C55.6512 54.57 53.7742 56.7952 50.6458 56.8842C47.294 56.9732 45.1489 54.57 44.8361 54.2139" stroke="#021245" stroke-miterlimit="10" stroke-linecap="round"/>
<path d="M49.305 44.558C49.4838 44.4245 50.8245 43.1784 52.6567 43.4899C54.3103 43.8015 55.1147 45.1811 55.2934 45.5371C56.5001 47.6288 55.6957 50.3881 54.3103 52.0347C53.8634 52.5688 52.6567 53.9929 50.601 54.0819C48.4112 54.1264 47.0258 52.5688 46.8024 52.3462" stroke="#021245" stroke-miterlimit="10" stroke-linecap="round"/>
</svg>
