<svg width="59" height="45" viewBox="0 0 59 45" fill="none" xmlns="http://www.w3.org/2000/svg">
<path d="M29.071 14.0778C30.0413 13.9377 31.7615 13.7742 33.7683 14.2413C36.6573 14.8719 38.3775 16.3665 39.0391 16.9737" stroke="#003F80" stroke-width="2" stroke-miterlimit="10" stroke-linecap="round"/>
<path d="M28.7856 1V4.94683" stroke="#003F80" stroke-width="2" stroke-miterlimit="10" stroke-linecap="round"/>
<path d="M43.0982 20.4999C43.5172 20.8969 44.0245 21.434 44.5096 22.1814C44.9066 22.7886 45.1712 23.3724 45.3477 23.8629" stroke="#003F80" stroke-width="2" stroke-miterlimit="10" stroke-linecap="round"/>
<path d="M7.66016 7.07129C6.55749 7.70185 4.81528 8.8929 3.2495 10.9481C2.05862 12.5128 1.37497 14.0541 1.00006 15.1518" stroke="#003F80" stroke-width="2" stroke-miterlimit="10" stroke-linecap="round"/>
<path d="M56.6172 15.6657C56.1761 14.428 55.0294 11.7422 52.4271 9.50026C49.9571 7.37504 47.443 6.69777 46.208 6.46423" stroke="#003F80" stroke-width="2" stroke-miterlimit="10" stroke-linecap="round"/>
<path d="M4.57099 34.0222C4.57099 34.3725 4.57098 34.6995 4.59304 35.0498H52.9779C53 34.6995 53 34.3725 53 34.0222C53 19.8697 42.1498 8.37952 28.7855 8.37952C15.4212 8.37952 4.57099 19.8697 4.57099 34.0222Z" stroke="#003F80" stroke-width="2" stroke-miterlimit="10" stroke-linecap="round"/>
<path d="M57.9844 39.0449H1.39564" stroke="#003F80" stroke-width="2" stroke-miterlimit="10" stroke-linecap="round"/>
<path d="M53.8594 40.5155C53.6168 41.3562 53.1537 42.3371 52.3156 42.991C51.2571 43.8084 49.7354 43.7851 49.7354 43.7851L29.0935 43.7384" fill="#003F80"/>
<path d="M53.8594 40.5155C53.6168 41.3562 53.1537 42.3371 52.3156 42.991C51.2571 43.8084 49.7354 43.7851 49.7354 43.7851L29.0935 43.7384" stroke="#003F80" stroke-width="2" stroke-miterlimit="10" stroke-linecap="round"/>
<path d="M29.3359 43.7384L8.69406 43.7851C8.69406 43.7851 7.17239 43.8084 6.11383 42.991C5.2758 42.3371 4.81269 41.3562 4.5701 40.5155" fill="#003F80"/>
<path d="M29.3359 43.7384L8.69406 43.7851C8.69406 43.7851 7.17239 43.8084 6.11383 42.991C5.2758 42.3371 4.81269 41.3562 4.5701 40.5155" stroke="#003F80" stroke-width="2" stroke-miterlimit="10" stroke-linecap="round"/>
<path d="M52.6905 40.6543C47.6402 41.6352 42.5239 41.7286 37.4516 40.9579C37.5398 40.5843 37.6501 40.2106 37.7383 39.8369C41.1125 40.3741 44.5087 40.5609 47.9269 40.4441C47.8828 40.8178 47.8387 41.2148 47.7726 41.5885C47.3536 41.4017 46.9787 41.3316 46.5155 41.4017C45.8319 41.5184 45.5231 40.3974 46.2288 40.2807C46.8904 40.1639 47.4418 40.2106 48.0813 40.4675C48.6326 40.701 48.5885 41.5885 47.9269 41.6118C44.4205 41.7286 40.9361 41.5184 37.4516 40.9579C36.7459 40.8412 37.0547 39.7202 37.7383 39.8369C42.6121 40.5843 47.552 40.4675 52.4038 39.5333C53.1095 39.3932 53.3962 40.5142 52.6905 40.6543Z" fill="#003F80"/>
<path d="M46.6504 41.4038C43.1439 41.4038 39.6375 41.3104 36.131 41.1702C35.4253 41.1469 35.4253 39.9792 36.131 40.0025C39.6375 40.1427 43.1439 40.2361 46.6504 40.2361C47.3561 40.2361 47.3561 41.4038 46.6504 41.4038Z" fill="#003F80"/>
<path d="M47.2009 43.459C40.2982 44.3231 33.3515 44.1363 26.4267 43.9961C22.9644 43.9261 19.4799 43.8794 16.0176 43.9961C12.6875 44.1129 9.26927 44.7668 5.96128 43.9961C3.18256 43.3422 4.37344 38.8349 7.1301 39.4888C8.62972 39.8391 10.1955 39.699 11.7172 39.5822C13.3712 39.4655 15.0031 39.372 16.6571 39.3253C20.0533 39.2319 23.4495 39.2786 26.8457 39.3487C33.6382 39.4655 40.4306 39.6289 47.2009 38.7882C48.3918 38.6481 49.4062 39.9559 49.4062 41.1236C49.4062 42.5015 48.3918 43.2955 47.2009 43.459Z" fill="#003F80"/>
</svg>
