<svg width="32" height="32" viewBox="0 0 32 32" fill="none" xmlns="http://www.w3.org/2000/svg">
<mask id="mask0_1604_1369" style="mask-type:alpha" maskUnits="userSpaceOnUse" x="0" y="0" width="32" height="32">
<g clip-path="url(#clip0_1604_1369)">
<path d="M29.9212 1.22995L27.4597 30.767H4.53708L2.07717 1.22995H29.9212ZM29.9212 0H2.07717C1.73248 0 1.4045 0.144254 1.17065 0.397836C0.93833 0.651419 0.821409 0.990035 0.85026 1.33321L3.31168 30.8703C3.36483 31.508 3.89781 31.9985 4.5386 31.9985H27.4582C28.1005 31.9985 28.632 31.508 28.6866 30.8703L31.1481 1.33321C31.1769 0.990035 31.0585 0.651419 30.8277 0.397836C30.5938 0.144254 30.2658 0 29.9212 0Z" fill="black"/>
<path d="M4.05273 10.1343L5.1688 23.5377H26.8251L27.9411 10.1343H4.05273V10.1343ZM14.7837 14.7838L13.5264 18.2398C13.3214 18.8047 12.6958 19.0962 12.1294 18.8927L8.6734 17.6355C8.10854 17.4305 7.81699 16.8049 8.02199 16.2385L9.27927 12.7825C9.48578 12.2176 10.1099 11.9261 10.6763 12.1311L14.1323 13.3899C14.6987 13.5933 14.9902 14.2189 14.7837 14.7838ZM24.0265 19.5852L20.5781 20.8622C20.0133 21.0717 19.3877 20.7832 19.1781 20.2168L17.9011 16.7684C17.693 16.2036 17.9816 15.578 18.5464 15.3684L21.9948 14.0929C22.5597 13.8849 23.1853 14.1719 23.3949 14.7367L24.6704 18.1851C24.8799 18.753 24.5914 19.3787 24.0265 19.5852Z" fill="black"/>
</g>
</mask>
<g mask="url(#mask0_1604_1369)">
<rect x="-31.8877" y="-28.8508" width="119.958" height="132.106" fill="#003F80"/>
</g>
<defs>
<clipPath id="clip0_1604_1369">
<rect width="32" height="31.9985" fill="white"/>
</clipPath>
</defs>
</svg>
