<svg width="74" height="67" viewBox="0 0 74 67" fill="none" xmlns="http://www.w3.org/2000/svg">
<path d="M32.6801 8.83704C30.6175 10.3515 28.8605 12.1082 27.4091 13.9861" stroke="#021245" stroke-width="2" stroke-miterlimit="10" stroke-linecap="round"/>
<path d="M50.5896 48.4953C56.1906 48.7016 61.1535 49.3893 66.8254 48.7016C68.2434 48.0139 68.2434 46.6385 68.2434 45.2631C66.8254 39.7614 66.8254 34.9474 67.5344 30.1335C68.2434 27.3826 71.7883 26.0072 72.4973 22.5687C73.9153 14.3162 68.9523 7.43909 61.8625 4.00055C53.3546 0.562003 43.4288 0.562003 35.8427 5.9949" stroke="#021245" stroke-width="2" stroke-miterlimit="10" stroke-linecap="round"/>
<path d="M33.7102 24.402C27.5962 22.2932 27.9558 18.0757 21.9857 16.5112C15.5839 14.8106 9.75766 18.2798 8.96644 18.756C4.43488 21.4769 1.12613 26.4427 1.0542 31.4765C1.0542 36.3742 4.2191 36.8504 5.72961 43.1766C7.67171 51.4756 3.06822 54.3326 5.72961 59.0943C8.67872 64.2641 17.7418 66.849 23.8558 64.7403C28.1716 63.2437 27.5962 60.5908 33.2067 58.4821C38.2417 56.5774 41.2628 57.7338 43.8522 55.0808C45.2908 53.5843 44.7873 52.7 46.2259 49.4348C48.8153 43.3127 51.9802 43.1086 53.275 39.1632C54.7855 34.5376 52.6995 28.0072 48.3838 25.4904C43.8522 22.7014 40.4715 26.7148 33.7102 24.402Z" stroke="#021245" stroke-width="2" stroke-miterlimit="10" stroke-linecap="round"/>
<path d="M25.828 51.0601C31.359 51.0601 35.8429 46.68 35.8429 41.2768C35.8429 35.8737 31.359 31.4935 25.828 31.4935C20.2969 31.4935 15.8131 35.8737 15.8131 41.2768C15.8131 46.68 20.2969 51.0601 25.828 51.0601Z" stroke="#021245" stroke-width="2" stroke-miterlimit="10" stroke-linecap="round"/>
<path d="M27.4091 44.8809C27.8964 44.8152 29.5208 44.4208 30.6579 43.1719C32.4447 41.1999 31.2264 38.8335 31.1452 38.702" stroke="#021245" stroke-width="2" stroke-miterlimit="10" stroke-linecap="round"/>
<path d="M28.4635 36.6428C28.3955 36.5333 28.1915 36.0954 27.6474 35.8218C27.0352 35.5481 26.4911 35.6029 26.3551 35.6576" stroke="#021245" stroke-width="2" stroke-miterlimit="10" stroke-linecap="round"/>
</svg>
