<svg width="70" height="61" viewBox="0 0 70 61" fill="none" xmlns="http://www.w3.org/2000/svg">
<path d="M20.024 20.9565C18.9616 19.9238 17.7767 18.3748 17.9401 16.5874C18.1036 14.7206 19.6154 13.8866 20.5143 12.1389C21.2906 10.6296 21.6992 8.24649 19.8605 4.63208" stroke="#021245" stroke-width="2" stroke-miterlimit="10" stroke-linecap="round"/>
<path d="M29.7907 17.4226C27.8702 15.8339 27.5024 14.5232 27.4616 13.7288C27.3798 12.2989 28.2379 11.1868 29.423 9.59803C30.9757 7.57237 31.7521 7.4135 32.1199 6.38081C32.4876 5.38784 32.3242 3.87852 29.6681 1.89258" stroke="#021245" stroke-width="2" stroke-miterlimit="10" stroke-linecap="round"/>
<path d="M39.6382 20.9565C38.5758 19.9238 37.391 18.3748 37.5544 16.5874C37.7178 14.7206 39.2296 13.8866 40.1285 12.1389C40.9048 10.6296 41.3133 8.24649 39.4747 4.63208" stroke="#021245" stroke-width="2" stroke-miterlimit="10" stroke-linecap="round"/>
<path d="M13.1111 31.5213C13.6076 31.5213 14.01 31.1301 14.01 30.6475C14.01 30.1649 13.6076 29.7737 13.1111 29.7737C12.6146 29.7737 12.2122 30.1649 12.2122 30.6475C12.2122 31.1301 12.6146 31.5213 13.1111 31.5213Z" stroke="#021245" stroke-width="2" stroke-miterlimit="10" stroke-linecap="round"/>
<path d="M37.5134 33.8935C38.0956 33.8935 38.5676 33.4324 38.5676 32.8637C38.5676 32.2949 38.0956 31.8339 37.5134 31.8339C36.9311 31.8339 36.4591 32.2949 36.4591 32.8637C36.4591 33.4324 36.9311 33.8935 37.5134 33.8935Z" stroke="#021245" stroke-width="2" stroke-miterlimit="10" stroke-linecap="round"/>
<path d="M21.8636 33.1817C21.9539 33.1817 22.027 33.1105 22.027 33.0228C22.027 32.935 21.9539 32.8639 21.8636 32.8639C21.7734 32.8639 21.7002 32.935 21.7002 33.0228C21.7002 33.1105 21.7734 33.1817 21.8636 33.1817Z" stroke="#021245" stroke-width="2" stroke-miterlimit="10" stroke-linecap="round"/>
<path d="M27.9108 29.5416C28.4298 29.5416 28.8506 29.1326 28.8506 28.628C28.8506 28.1235 28.4298 27.7145 27.9108 27.7145C27.3917 27.7145 26.9709 28.1235 26.9709 28.628C26.9709 29.1326 27.3917 29.5416 27.9108 29.5416Z" stroke="#021245" stroke-width="2" stroke-miterlimit="10" stroke-linecap="round"/>
<path d="M30.9919 34.5321C31.4658 34.5321 31.85 34.1586 31.85 33.698C31.85 33.2373 31.4658 32.8639 30.9919 32.8639C30.518 32.8639 30.1338 33.2373 30.1338 33.698C30.1338 34.1586 30.518 34.5321 30.9919 34.5321Z" stroke="#021245" stroke-width="0.5" stroke-miterlimit="10" stroke-linecap="round"/>
<path d="M57.249 32.4354C51.5694 34.6994 41.8855 37.7975 29.4639 37.8372C16.9198 37.8769 7.11331 34.7788 1.43372 32.5546C1.47458 47.4491 14.0596 59.6428 29.3822 59.6428C44.7866 59.6031 57.2898 47.4491 57.249 32.4354Z" stroke="#021245" stroke-width="2" stroke-miterlimit="10"/>
<path d="M48.2194 40.0206C47.6882 41.4108 46.871 43.1584 45.5225 44.9855C43.8064 47.3686 41.9676 48.9574 40.5375 49.99" stroke="#021245" stroke-width="2" stroke-miterlimit="10" stroke-linecap="round"/>
<path d="M37.759 51.7793C36.6966 52.1368 35.6751 52.4942 34.6128 52.8517" stroke="#021245" stroke-width="2" stroke-miterlimit="10" stroke-linecap="round"/>
<path d="M5.88745 59.604H50.5071" stroke="#021245" stroke-width="2" stroke-miterlimit="10" stroke-linecap="round"/>
<path d="M41.8442 29.4957C50.2206 20.3604 56.3905 13.6877 59.1282 10.3513C59.6594 9.71578 61.2121 7.80928 63.6228 7.4121C63.9906 7.33266 66.483 7.01491 67.6271 8.52422C68.6486 9.87466 67.7906 11.7812 67.668 12.0989C66.6874 14.4026 64.154 15.3558 63.5411 15.6339C60.8035 16.7857 56.0228 20.0824 47.1561 29.5752L41.8442 29.4957Z" stroke="#021245" stroke-width="2" stroke-miterlimit="10" stroke-linecap="round"/>
<path d="M50.0984 26.5185C54.5522 27.7101 57.249 29.2988 57.249 31.0465C57.249 34.78 44.7457 37.8384 29.3413 37.8384C13.9369 37.8384 1.43359 34.8198 1.43359 31.0465C1.43359 27.3129 13.9369 24.2545 29.3413 24.2545C35.3478 24.2545 40.9456 24.7311 45.4812 25.5255" stroke="#021245" stroke-width="2" stroke-miterlimit="10"/>
</svg>
