<svg width="39" height="34" viewBox="0 0 39 34" fill="none" xmlns="http://www.w3.org/2000/svg">
<path d="M37.9733 17.6573L2.36035 17.7203C2.36035 25.8113 10.3551 32.3597 20.2242 32.3597C30.0551 32.3282 38.0116 25.7799 37.9733 17.6573Z" stroke="#06417D" stroke-miterlimit="10"/>
<path d="M32.2355 21.7505C31.8912 22.5061 31.3557 23.4505 30.5141 24.4265C29.443 25.7173 28.2189 26.5673 27.3391 27.134" stroke="#06417D" stroke-miterlimit="10" stroke-linecap="round"/>
<path d="M25.5412 28.1089C24.8909 28.2978 24.2023 28.4867 23.552 28.6756" stroke="#06417D" stroke-miterlimit="10" stroke-linecap="round"/>
<path d="M12.0764 32.9578L27.9511 32.9263" stroke="#06417D" stroke-miterlimit="10" stroke-linecap="round"/>
<path d="M28.3724 16.5745C27.6074 15.5298 28.1812 14.0002 28.4107 13.4779C29.214 11.3886 31.2414 10.4186 31.8152 10.1201C34.0721 9.03821 36.9027 9.03821 36.9027 9.03821C37.0175 9.85899 37.0558 11.2394 36.5202 12.8063C36.1759 13.851 35.5257 15.8283 33.613 16.8356C31.9682 17.6937 29.367 17.8803 28.3724 16.5745Z" stroke="#06417D" stroke-miterlimit="10" stroke-linecap="round"/>
<path d="M31.815 13.5532L28.8313 16.9856" stroke="#06417D" stroke-miterlimit="10" stroke-linecap="round"/>
<path d="M12.1529 15.9042C13.1093 14.5984 12.3442 12.6957 12.0764 12.0241C11.0436 9.41253 8.51898 8.21867 7.75394 7.88289C4.88502 6.5398 1.36581 6.53979 1.36581 6.53979C1.25105 7.54712 1.17454 9.3006 1.86309 11.2779C2.28386 12.5837 3.12541 15.0461 5.57356 16.2772C7.67743 17.3219 10.9289 17.5457 12.1529 15.9042Z" stroke="#06417D" stroke-miterlimit="10" stroke-linecap="round"/>
<path d="M6.95093 11.2762C7.48647 11.4255 8.32803 11.6866 9.20784 12.3955C10.8527 13.7386 11.35 15.5667 11.4648 16.1636" stroke="#06417D" stroke-miterlimit="10" stroke-linecap="round"/>
<path d="M20.4916 16.4628C20.4916 16.6866 20.4534 16.8732 20.4534 17.097H12.4587C12.4204 16.9105 12.4204 16.6866 12.4204 16.4628C12.4204 14.2989 14.2183 12.5454 16.4369 12.5454C18.6938 12.5454 20.4916 14.2989 20.4916 16.4628Z" stroke="#06417D" stroke-miterlimit="10" stroke-linecap="round"/>
<path d="M9.89645 8.32943C9.51392 6.24017 10.0877 4.18822 11.3883 3.18089C13.4539 1.57664 16.8584 2.99435 17.2792 4.74784C17.3939 5.19554 17.2792 5.60593 17.1644 5.9417C17.1262 5.64324 17.0114 3.85244 18.159 2.47204C19.5743 0.793167 21.6017 1.20356 21.8695 1.27817C23.8203 1.72587 24.7001 3.62859 24.9679 4.15091C25.7712 5.86709 25.5799 7.54596 25.5034 8.10558C26.957 6.20286 29.2139 6.09094 30.3232 7.24749C31.05 8.03097 31.2413 9.33676 30.9735 10.6052" stroke="#06417D" stroke-miterlimit="10" stroke-linecap="round"/>
<path d="M26.7661 16.7244C26.7661 16.8736 26.7661 16.9855 26.7279 17.0975H21.7934C21.7934 16.9855 21.7551 16.8363 21.7551 16.7244C21.7551 15.3813 22.8644 14.2994 24.2415 14.2994C25.6568 14.2621 26.7661 15.3813 26.7661 16.7244Z" stroke="#06417D" stroke-miterlimit="10" stroke-linecap="round"/>
</svg>
