<svg width="41" height="35" viewBox="0 0 41 35" fill="none" xmlns="http://www.w3.org/2000/svg">
<g clip-path="url(#clip0_634_3421)">
<path d="M38.7865 32.9655L3.33496 32.9137C3.36091 23.1504 11.3025 15.2258 21.0867 15.2517C30.8709 15.2775 38.7865 23.2022 38.7865 32.9655Z" stroke="#06417D" stroke-miterlimit="10"/>
<path d="M1.41455 33.7418L40.2919 33.8195" stroke="#06417D" stroke-miterlimit="10" stroke-linecap="round"/>
<path d="M22.5126 13.4165C22.514 12.544 21.8064 11.8356 20.932 11.8342C20.0577 11.8328 19.3478 12.5389 19.3463 13.4113C19.3449 14.2838 20.0525 14.9922 20.9269 14.9937C21.8012 14.9951 22.5112 14.289 22.5126 13.4165Z" stroke="#06417D" stroke-miterlimit="10"/>
<path d="M7.56567 28.5108C7.90306 27.6044 8.42212 26.4649 9.27856 25.2736C10.3686 23.7197 11.5365 22.6838 12.4448 22.0105" stroke="#06417D" stroke-miterlimit="10" stroke-linecap="round"/>
<path d="M14.209 20.8449C14.8838 20.6118 15.5326 20.3787 16.2074 20.1456" stroke="#06417D" stroke-miterlimit="10" stroke-linecap="round"/>
<path d="M10.3943 7.09412C9.87527 7.61207 9.30431 8.38899 9.38217 9.2695C9.46002 10.2018 10.1867 10.6162 10.6279 11.4967C11.0172 12.2736 11.1989 13.439 10.3165 15.2518" stroke="#06417D" stroke-miterlimit="10" stroke-linecap="round"/>
<path d="M19.9707 1.3446C19.0364 2.12153 18.8547 2.79486 18.8288 3.18332C18.8028 3.88256 19.2181 4.4523 19.789 5.25512C20.5417 6.26512 20.931 6.34282 21.1126 6.86077C21.2943 7.35282 21.2165 8.10384 19.9188 9.11385" stroke="#06417D" stroke-miterlimit="10" stroke-linecap="round"/>
<path d="M30.4818 5.8512C30.0406 6.36915 29.5475 7.14607 29.6254 8.02658C29.7032 8.95889 30.3261 9.37325 30.6894 10.2538C31.0268 11.0307 31.1825 12.1961 30.4039 14.0089" stroke="#06417D" stroke-miterlimit="10" stroke-linecap="round"/>
</g>
<defs>
<clipPath id="clip0_634_3421">
<rect width="40.175" height="33.7703" fill="white" transform="translate(0.765625 0.697144)"/>
</clipPath>
</defs>
</svg>
