<svg width="34" height="26" viewBox="0 0 34 26" fill="none" xmlns="http://www.w3.org/2000/svg">
<path d="M32.9999 15.7116L33.4999 15.7093L33.4971 15.0806L32.8852 15.2249L32.9999 15.7116ZM17.0702 17.5596L17.0702 18.0596L17.0719 18.0596L17.0702 17.5596ZM1 15.7356L1.11478 15.2489L0.497083 15.1033L0.500005 15.7379L1 15.7356ZM4.16979 17.6995C4.00856 17.4753 3.69611 17.4242 3.47193 17.5855C3.24775 17.7467 3.19672 18.0592 3.35795 18.2833L4.16979 17.6995ZM5.40369 19.5754L5.11069 19.9806L5.11106 19.9808L5.40369 19.5754ZM8.18967 21.5352C8.4502 21.6267 8.7356 21.4897 8.82711 21.2291C8.91863 20.9686 8.78161 20.6832 8.52108 20.5917L8.18967 21.5352ZM10.4192 21.4888C10.1636 21.3841 9.87163 21.5063 9.76693 21.7619C9.66224 22.0174 9.78451 22.3094 10.04 22.4141L10.4192 21.4888ZM10.7663 22.7021C11.0218 22.8068 11.3138 22.6845 11.4185 22.429C11.5232 22.1734 11.401 21.8814 11.1454 21.7767L10.7663 22.7021ZM3.5533 24.5C3.27716 24.5 3.0533 24.7239 3.0533 25C3.0533 25.2761 3.27716 25.5 3.5533 25.5V24.5ZM29.1345 25.5C29.4106 25.5 29.6345 25.2761 29.6345 25C29.6345 24.7239 29.4106 24.5 29.1345 24.5V25.5ZM6.55547 16.2719C6.45368 16.5286 6.57926 16.8192 6.83596 16.921C7.09266 17.0228 7.38327 16.8972 7.48505 16.6405L6.55547 16.2719ZM8.56636 13.7442L8.9641 14.0472L8.96566 14.0451L8.56636 13.7442ZM12.9366 10.7353C13.1835 10.6116 13.2835 10.3112 13.1598 10.0643C13.0361 9.81738 12.7357 9.71748 12.4888 9.84114L12.9366 10.7353ZM4.69431 16.3734C4.67511 16.6489 4.88285 16.8878 5.15833 16.907C5.4338 16.9262 5.67268 16.7184 5.69189 16.4429L4.69431 16.3734ZM6.15358 13.4562L6.57658 13.7228L6.57992 13.7174L6.15358 13.4562ZM10.6204 10.7702C10.8866 10.6968 11.0429 10.4215 10.9694 10.1553C10.896 9.88905 10.6207 9.73278 10.3545 9.8062L10.6204 10.7702ZM9.31575 16.8265C9.26834 17.0985 9.45043 17.3575 9.72247 17.4049C9.99451 17.4523 10.2535 17.2702 10.3009 16.9982L9.31575 16.8265ZM11.0499 14.0083L11.4513 14.3064L11.4523 14.3051L11.0499 14.0083ZM15.7146 11.7389C15.9855 11.6855 16.1619 11.4226 16.1085 11.1517C16.0551 10.8807 15.7922 10.7044 15.5213 10.7578L15.7146 11.7389ZM19.4387 7.49774C19.7 7.58699 19.9842 7.44749 20.0734 7.18617C20.1627 6.92484 20.0232 6.64065 19.7618 6.55141L19.4387 7.49774ZM19.551 6.5034C19.2897 6.41416 19.0055 6.55365 18.9162 6.81497C18.827 7.0763 18.9665 7.36049 19.2278 7.44974L19.551 6.5034ZM13.8118 6.19259C14.0683 6.09039 14.1934 5.79957 14.0912 5.54304C13.989 5.28651 13.6982 5.1614 13.4417 5.26361L13.8118 6.19259ZM12.5257 6.3281L12.7969 6.74819L12.8007 6.74567L12.5257 6.3281ZM9.52717 10.1681L9.10188 10.431L9.11217 10.4477L9.12373 10.4634L9.52717 10.1681ZM9.85514 10.3361L9.91615 9.83984L9.88576 9.8361H9.85514V10.3361ZM13.4393 10.1921L13.3478 10.6836L13.3499 10.684L13.4393 10.1921ZM16.883 11.6801L16.7115 12.1498L16.7132 12.1504L16.883 11.6801ZM21.9898 12.7121L21.9435 13.2099L21.9451 13.2101L21.9898 12.7121ZM25.2461 12.7841L24.8442 12.4866L24.8352 12.4987L24.827 12.5114L25.2461 12.7841ZM24.0279 9.6401L23.64 9.95561L23.6419 9.95796L24.0279 9.6401ZM22.7783 7.87725C22.547 7.72644 22.2372 7.79171 22.0864 8.02303C21.9355 8.25436 22.0008 8.56414 22.2321 8.71495L22.7783 7.87725ZM11.1305 7.70807C10.8718 7.61167 10.5838 7.74329 10.4874 8.00206C10.391 8.26083 10.5227 8.54875 10.7814 8.64515L11.1305 7.70807ZM13.3689 8.70461L13.419 8.2071L13.4142 8.20667L13.3689 8.70461ZM16.2034 8.7766L16.1173 9.26913L16.118 9.26925L16.2034 8.7766ZM19.3894 10.5286L19.6215 10.0857L19.6173 10.0836L19.3894 10.5286ZM24.5309 11.4014C24.8009 11.3435 24.9728 11.0776 24.9148 10.8076C24.8569 10.5377 24.591 10.3658 24.321 10.4237L24.5309 11.4014ZM20.1398 17.6288C20.3769 17.7705 20.6839 17.6932 20.8255 17.4562C20.9672 17.2191 20.8899 16.9121 20.6528 16.7705L20.1398 17.6288ZM17.2338 15.7597L17.3981 15.2874L17.3967 15.2869L17.2338 15.7597ZM10.753 14.3239C10.477 14.3323 10.2601 14.5629 10.2685 14.8389C10.277 15.1149 10.5075 15.3319 10.7836 15.3234L10.753 14.3239ZM23.3859 17.2528C23.6008 17.4262 23.9156 17.3925 24.089 17.1775C24.2623 16.9626 24.2286 16.6478 24.0137 16.4744L23.3859 17.2528ZM19.6939 14.3676L19.8966 13.9106L19.8962 13.9103L19.6939 14.3676ZM11.5727 12.8671C11.3007 12.9147 11.1187 13.1738 11.1663 13.4458C11.2139 13.7178 11.473 13.8997 11.745 13.8521L11.5727 12.8671ZM26.598 17.022C26.7909 17.2196 27.1074 17.2234 27.305 17.0305C27.5027 16.8376 27.5065 16.5211 27.3136 16.3235L26.598 17.022ZM25.152 14.9927L25.469 14.606L25.4652 14.603L25.152 14.9927ZM22.0342 12.3419C21.7896 12.2137 21.4874 12.308 21.3592 12.5526C21.231 12.7972 21.3254 13.0994 21.5699 13.2276L22.0342 12.3419ZM27.9121 16.5394C27.8787 16.8135 28.0738 17.0628 28.3479 17.0963C28.622 17.1297 28.8713 16.9346 28.9047 16.6605L27.9121 16.5394ZM28.221 15.0639L28.6928 14.8982L28.6903 14.8914L28.221 15.0639ZM25.7953 12.2914C25.5365 12.195 25.2486 12.3266 25.1522 12.5854C25.0558 12.8442 25.1874 13.1321 25.4462 13.2285L25.7953 12.2914ZM19.9514 8.27194L19.5794 8.60602L19.5825 8.60948L19.9514 8.27194ZM19.7172 6.30394L19.2299 6.19109L19.2277 6.20157L19.7172 6.30394ZM21.5209 3.90394L21.796 4.32153L21.7994 4.31921L21.5209 3.90394ZM24.5194 2.79994L25.0065 2.68676L24.9029 2.24122L24.4499 2.30479L24.5194 2.79994ZM24.5897 5.24794L24.0974 5.16057L24.0966 5.16496L24.5897 5.24794ZM23.1373 8.03194L22.8412 7.62905L22.8411 7.62916L23.1373 8.03194ZM22.2255 6.33178C22.373 6.09831 22.3033 5.7895 22.0698 5.64204C21.8363 5.49458 21.5275 5.56431 21.38 5.79778L22.2255 6.33178ZM19.8339 8.24579C19.6864 8.47926 19.7562 8.78807 19.9897 8.93553C20.2231 9.08299 20.5319 9.01326 20.6794 8.77979L19.8339 8.24579ZM19.0148 7.86398L18.6456 7.52683L18.6437 7.52891L19.0148 7.86398ZM19.2959 5.39199L18.8083 5.50281L18.8106 5.51287L18.8133 5.52283L19.2959 5.39199ZM17.0236 2.392L16.7458 2.80774L16.752 2.81185L16.7583 2.81579L17.0236 2.392ZM13.2754 1L13.3478 0.505271L12.8895 0.438183L12.7877 0.890128L13.2754 1ZM13.1817 4.04799L12.6894 4.13537L12.6905 4.14122L13.1817 4.04799ZM15.009 7.55198L14.7157 7.95694L14.7176 7.9583L15.009 7.55198ZM16.4224 4.01009C16.1631 3.9152 15.8759 4.04851 15.781 4.30784C15.6861 4.56717 15.8195 4.85431 16.0788 4.9492L16.4224 4.01009ZM17.5156 5.39165L17.1332 5.71399L17.1404 5.72214L17.5156 5.39165ZM18.0707 8.0141C18.0875 8.28973 18.3246 8.49954 18.6002 8.48272C18.8759 8.46591 19.0857 8.22883 19.0689 7.9532L18.0707 8.0141ZM32.8852 15.2249C29.6542 15.987 24.1415 17.0358 17.0686 17.0596L17.0719 18.0596C24.242 18.0354 29.8333 16.9722 33.1147 16.1982L32.8852 15.2249ZM17.0702 17.0596C9.92721 17.0596 4.34469 16.0107 1.11478 15.2489L0.885221 16.2222C4.16775 16.9964 9.82971 18.0596 17.0702 18.0596V17.0596ZM0.500005 15.7379C0.512888 18.536 2.4975 20.9859 5.47588 22.7084C8.46866 24.4393 12.5579 25.4996 17.0234 25.4996V24.4996C12.7041 24.4996 8.79339 23.4719 5.97652 21.8427C3.14525 20.2053 1.51054 18.0232 1.49999 15.7333L0.500005 15.7379ZM17.0234 25.4996C21.5118 25.4996 25.6017 24.4395 28.5837 22.7048C31.5525 20.9778 33.5128 18.5198 33.4999 15.7093L32.4999 15.7139C32.5105 18.0154 30.8984 20.2014 28.0809 21.8404C25.2767 23.4717 21.3666 24.4996 17.0234 24.4996V25.4996ZM3.35795 18.2833C3.71948 18.786 4.27396 19.3754 5.11069 19.9806L5.69669 19.1703C4.94046 18.6234 4.4642 18.1088 4.16979 17.6995L3.35795 18.2833ZM5.11106 19.9808C6.1972 20.7648 7.34882 21.2398 8.18967 21.5352L8.52108 20.5917C7.72211 20.311 6.67168 19.874 5.69633 19.17L5.11106 19.9808ZM10.04 22.4141C10.1618 22.464 10.2888 22.5135 10.411 22.5612C10.5347 22.6095 10.6537 22.6559 10.7663 22.7021L11.1454 21.7767C11.0237 21.7269 10.8967 21.6773 10.7745 21.6296C10.6507 21.5813 10.5317 21.5349 10.4192 21.4888L10.04 22.4141ZM3.5533 25.5H29.1345V24.5H3.5533V25.5ZM7.48505 16.6405C7.77469 15.9101 8.24514 14.9909 8.9641 14.0472L8.16863 13.4412C7.38833 14.4654 6.8749 15.4663 6.55547 16.2719L7.48505 16.6405ZM8.96566 14.0451C10.3342 12.2293 11.9271 11.2409 12.9366 10.7353L12.4888 9.84114C11.3901 10.3915 9.65646 11.4671 8.16707 13.4432L8.96566 14.0451ZM5.69189 16.4429C5.73516 15.8223 5.9084 14.7827 6.57655 13.7228L5.73061 13.1895C4.94632 14.4337 4.74474 15.6501 4.69431 16.3734L5.69189 16.4429ZM6.57992 13.7174C7.85908 11.6295 10.0426 10.9296 10.6204 10.7702L10.3545 9.8062C9.71408 9.98284 7.21236 10.7709 5.72723 13.195L6.57992 13.7174ZM10.3009 16.9982C10.4097 16.3742 10.6927 15.3278 11.4513 14.3064L10.6485 13.7102C9.76725 14.8968 9.44125 16.1064 9.31575 16.8265L10.3009 16.9982ZM11.4523 14.3051C12.9259 12.3069 15.1239 11.8553 15.7146 11.7389L15.5213 10.7578C14.8939 10.8814 12.3598 11.3898 10.6475 13.7116L11.4523 14.3051ZM19.7618 6.55141C19.6828 6.52443 19.6086 6.51277 19.579 6.5077C19.5384 6.50077 19.5423 6.50042 19.551 6.5034L19.2278 7.44974C19.3068 7.47672 19.381 7.48837 19.4107 7.49344C19.4513 7.50037 19.4474 7.50072 19.4387 7.49774L19.7618 6.55141ZM13.4417 5.26361C12.9721 5.4507 12.5869 5.68909 12.2507 5.91053L12.8007 6.74567C13.1204 6.53511 13.438 6.34151 13.8118 6.19259L13.4417 5.26361ZM12.2545 5.90803C11.3553 6.48857 10.4545 7.30418 9.82934 8.07784C9.5181 8.46301 9.25736 8.85954 9.10511 9.22919C8.96478 9.56992 8.85722 10.0352 9.10188 10.431L9.95247 9.90519C9.97458 9.94096 9.9168 9.88429 10.0298 9.61001C10.1308 9.36467 10.3269 9.05319 10.6071 8.70636C11.165 8.01603 11.986 7.27163 12.7969 6.74817L12.2545 5.90803ZM9.12373 10.4634C9.18591 10.5484 9.27636 10.6473 9.40869 10.7226C9.54456 10.8 9.69585 10.8361 9.85514 10.8361V9.8361C9.85097 9.8361 9.85547 9.83568 9.86606 9.83833C9.87708 9.84109 9.89015 9.84605 9.90335 9.85356C9.93026 9.86888 9.93872 9.88381 9.93062 9.87275L9.12373 10.4634ZM9.79413 10.8324C10.02 10.8601 10.2697 10.8261 10.4892 10.7902C10.739 10.7494 10.964 10.7034 11.2625 10.6599C11.8264 10.5778 12.5173 10.529 13.3478 10.6836L13.5309 9.70055C12.5575 9.51925 11.7492 9.57845 11.1184 9.67032C10.8195 9.71385 10.5233 9.77134 10.3279 9.80327C10.1023 9.84015 9.98308 9.84807 9.91615 9.83984L9.79413 10.8324ZM13.3499 10.684C14 10.8022 14.2957 10.9598 14.6909 11.1887C15.1208 11.4378 15.6496 11.7621 16.7115 12.1498L17.0544 11.2104C16.0782 10.8541 15.6114 10.5664 15.1922 10.3235C14.7381 10.0604 14.3311 9.846 13.5287 9.70016L13.3499 10.684ZM16.7132 12.1504C18.8385 12.9174 20.6497 13.0894 21.9435 13.2099L22.0362 12.2143C20.7531 12.0947 19.0504 11.9308 17.0527 11.2098L16.7132 12.1504ZM21.9451 13.2101C23.2571 13.328 24.0547 13.4208 24.5229 13.4454C24.7538 13.4575 24.9688 13.4582 25.1513 13.4141C25.3771 13.3595 25.5467 13.2389 25.6651 13.0568L24.827 12.5114C24.8313 12.5048 24.8469 12.4837 24.8753 12.4638C24.9025 12.4448 24.9217 12.4408 24.9162 12.4421C24.8878 12.449 24.8013 12.4587 24.5754 12.4468C24.1299 12.4234 23.3931 12.3362 22.0346 12.2141L21.9451 13.2101ZM25.6479 13.0816C25.8893 12.7556 25.9066 12.3626 25.8564 12.0321C25.8053 11.6958 25.6736 11.3461 25.5181 11.0225C25.2056 10.3726 24.7468 9.72656 24.4139 9.32224L23.6419 9.95796C23.9415 10.3216 24.3494 10.8996 24.6168 11.4557C24.7511 11.7351 24.8376 11.9839 24.8678 12.1823C24.8988 12.3866 24.8605 12.4646 24.8442 12.4866L25.6479 13.0816ZM24.4158 9.32459C23.906 8.69784 23.3239 8.23299 22.7783 7.87725L22.2321 8.71495C22.7172 9.03121 23.2128 9.43037 23.64 9.95561L24.4158 9.32459ZM10.7814 8.64515C11.3332 8.85073 12.22 9.10205 13.3235 9.20254L13.4142 8.20667C12.4094 8.11516 11.6095 7.88649 11.1305 7.70807L10.7814 8.64515ZM13.3187 9.20209C14.0714 9.27794 14.57 9.25233 14.9874 9.23095C15.3953 9.21006 15.6973 9.19567 16.1173 9.26913L16.2896 8.28408C15.7491 8.18954 15.3483 8.21115 14.9363 8.23226C14.5337 8.25288 14.0953 8.27527 13.419 8.20712L13.3187 9.20209ZM16.118 9.26925C16.782 9.38438 17.1921 9.61878 17.6 9.91375C18.0033 10.2054 18.4835 10.6264 19.1614 10.9736L19.6173 10.0836C19.0302 9.78281 18.6788 9.4598 18.186 9.10344C17.6979 8.75042 17.1475 8.43283 16.2888 8.28395L16.118 9.26925ZM19.1572 10.9714C20.2802 11.5601 21.9711 11.9509 24.5309 11.4014L24.321 10.4237C21.9614 10.9302 20.5131 10.5531 19.6215 10.0857L19.1572 10.9714ZM20.6528 16.7705C19.7765 16.2467 18.6673 15.729 17.3981 15.2874L17.0695 16.2319C18.2835 16.6543 19.3295 17.1446 20.1398 17.6288L20.6528 16.7705ZM17.3967 15.2869C14.743 14.3724 12.3581 14.2748 10.753 14.3239L10.7836 15.3234C12.3175 15.2765 14.571 15.3709 17.0709 16.2324L17.3967 15.2869ZM24.0137 16.4744C22.8899 15.5681 21.5173 14.6292 19.8966 13.9106L19.4913 14.8247C21.0096 15.498 22.3076 16.3832 23.3859 17.2528L24.0137 16.4744ZM19.8962 13.9103C16.5267 12.4203 13.5633 12.5189 11.5727 12.8671L11.745 13.8521C13.5962 13.5283 16.3488 13.435 19.4917 14.8249L19.8962 13.9103ZM27.3136 16.3235C26.793 15.7901 26.1926 15.1991 25.4689 14.606L24.835 15.3794C25.517 15.9383 26.0878 16.4993 26.598 17.022L27.3136 16.3235ZM25.4652 14.603C24.2438 13.6215 23.0685 12.884 22.0342 12.3419L21.5699 13.2276C22.5503 13.7414 23.6707 14.4439 24.8388 15.3825L25.4652 14.603ZM28.9047 16.6605C28.9603 16.2054 28.9308 15.5756 28.6927 14.8982L27.7493 15.2297C27.9329 15.7523 27.9503 16.2265 27.9121 16.5394L28.9047 16.6605ZM28.6903 14.8914C27.9909 12.9897 26.0186 12.3746 25.7953 12.2914L25.4462 13.2285C25.7383 13.3373 27.233 13.8262 27.7518 15.2365L28.6903 14.8914ZM20.3234 7.93787C20.1744 7.77186 20.1059 7.51253 20.1059 7.18894C20.1059 6.8732 20.1703 6.57987 20.2066 6.4063L19.2277 6.20157C19.1938 6.36401 19.1059 6.75468 19.1059 7.18894C19.1059 7.61534 19.1897 8.17202 19.5794 8.606L20.3234 7.93787ZM20.2043 6.41676C20.4844 5.20721 21.4752 4.53278 21.796 4.32151L21.2459 3.48637C20.9108 3.7071 19.6058 4.56867 19.2301 6.19112L20.2043 6.41676ZM21.7994 4.31921C22.3827 3.92809 23.0767 3.66968 23.6406 3.50874C23.9196 3.4291 24.1602 3.37514 24.3299 3.34128C24.4147 3.32437 24.4814 3.31255 24.526 3.30508C24.5483 3.30135 24.565 3.29871 24.5757 3.29707C24.581 3.29625 24.5848 3.29569 24.5871 3.29536C24.5882 3.2952 24.5889 3.29509 24.5892 3.29505C24.5894 3.29503 24.5894 3.29502 24.5894 3.29503C24.5893 3.29503 24.5893 3.29504 24.5892 3.29505C24.5892 3.29505 24.5891 3.29506 24.5891 3.29507C24.589 3.29508 24.5889 3.29509 24.5194 2.79994C24.4499 2.30479 24.4498 2.30481 24.4497 2.30482C24.4497 2.30483 24.4496 2.30485 24.4495 2.30486C24.4493 2.30488 24.4491 2.30491 24.4489 2.30495C24.4484 2.30501 24.4478 2.30509 24.4472 2.30519C24.4458 2.30538 24.4441 2.30564 24.4419 2.30595C24.4376 2.30659 24.4316 2.30747 24.4241 2.30862C24.4091 2.31093 24.3879 2.31429 24.3609 2.31881C24.3069 2.32784 24.23 2.34151 24.1343 2.3606C23.9431 2.39874 23.6757 2.45878 23.3661 2.54714C22.7528 2.7222 21.9476 3.0158 21.2425 3.48867L21.7994 4.31921ZM24.0324 2.91313C24.1404 3.37787 24.269 4.19351 24.0974 5.16057L25.082 5.33531C25.2852 4.19037 25.1327 3.23002 25.0065 2.68676L24.0324 2.91313ZM24.0966 5.16496C23.9791 5.86323 23.7417 6.96719 22.8412 7.62905L23.4334 8.43482C24.6881 7.51268 24.966 6.02465 25.0828 5.33092L24.0966 5.16496ZM22.8411 7.62916C22.4529 7.91465 21.9133 8.13402 21.4052 8.19556C20.8839 8.2587 20.5146 8.14673 20.3203 7.93439L19.5825 8.60948C20.091 9.16515 20.8578 9.26917 21.5254 9.18831C22.2061 9.10586 22.9081 8.82122 23.4336 8.43471L22.8411 7.62916ZM21.38 5.79778L19.8339 8.24579L20.6794 8.77979L22.2255 6.33178L21.38 5.79778ZM19.384 8.20113C19.8456 7.69566 19.954 7.03635 19.954 6.51098C19.954 5.97673 19.8423 5.49633 19.7785 5.26114L18.8133 5.52283C18.8667 5.71965 18.954 6.10324 18.954 6.51098C18.954 6.92762 18.8634 7.2883 18.6456 7.52683L19.384 8.20113ZM19.7835 5.28116C19.3378 3.32041 17.7282 2.2432 17.2889 1.9682L16.7583 2.81579C17.1624 3.06879 18.4576 3.95957 18.8083 5.50281L19.7835 5.28116ZM17.3014 1.97626C16.4334 1.39629 15.4419 1.03083 14.6825 0.810759C14.3 0.699901 13.9698 0.62409 13.7341 0.575801C13.6162 0.551632 13.5216 0.534287 13.4555 0.522848C13.4225 0.517127 13.3965 0.512878 13.3784 0.509987C13.3693 0.508542 13.3622 0.507436 13.3571 0.506654C13.3545 0.506264 13.3524 0.505954 13.3509 0.505724C13.3501 0.505609 13.3495 0.505514 13.349 0.505439C13.3487 0.505401 13.3485 0.505368 13.3483 0.50534C13.3482 0.505326 13.3481 0.505309 13.3481 0.505302C13.3479 0.505285 13.3478 0.505271 13.2754 1C13.203 1.49473 13.2029 1.49472 13.2029 1.49471C13.2029 1.4947 13.2028 1.49469 13.2028 1.49469C13.2027 1.49468 13.2027 1.49468 13.2027 1.49468C13.2027 1.49468 13.2028 1.4947 13.2031 1.49474C13.2036 1.49481 13.2046 1.49497 13.2061 1.4952C13.2092 1.49567 13.2142 1.49644 13.2212 1.49755C13.235 1.49975 13.2565 1.50326 13.2849 1.50818C13.3417 1.51803 13.4263 1.53349 13.5334 1.55545C13.748 1.59941 14.0517 1.6691 14.4042 1.77124C15.1148 1.97717 15.9974 2.3077 16.7458 2.80774L17.3014 1.97626ZM12.7877 0.890128C12.6399 1.54603 12.4388 2.7234 12.6894 4.13536L13.674 3.96062C13.4561 2.73259 13.6298 1.70197 13.7632 1.10987L12.7877 0.890128ZM12.6905 4.14122C12.85 4.98178 13.1751 6.84124 14.7157 7.95694L15.3022 7.14703C14.1254 6.29473 13.8414 4.8422 13.673 3.95476L12.6905 4.14122ZM14.7176 7.9583C15.3688 8.42533 16.2321 8.77549 17.0643 8.87915C17.8818 8.98096 18.7935 8.85524 19.3859 8.19905L18.6437 7.52891C18.3694 7.83272 17.8638 7.97099 17.1879 7.88681C16.5267 7.80446 15.8204 7.51863 15.3003 7.14567L14.7176 7.9583ZM16.0788 4.9492C16.3389 5.04438 16.7532 5.26301 17.1333 5.71391L17.8979 5.06938C17.3878 4.46428 16.8182 4.15491 16.4224 4.01009L16.0788 4.9492ZM17.1404 5.72214C17.8999 6.58433 18.0501 7.67613 18.0707 8.0141L19.0689 7.9532C19.0426 7.52317 18.8649 6.16696 17.8908 5.06115L17.1404 5.72214Z" fill="#06417D"/>
</svg>
