<svg width="34" height="29" viewBox="0 0 34 29" fill="none" xmlns="http://www.w3.org/2000/svg">
<path d="M32.9999 15L33.4999 14.9976L33.4975 14.4991L32.999 14.5L32.9999 15ZM1.93297 15.0535L1.93211 14.5535L1.43297 14.5543V15.0535H1.93297ZM17.5165 27.4919V27.9919L17.518 27.9919L17.5165 27.4919ZM28.4472 18.6895C28.5642 18.4394 28.4563 18.1418 28.2062 18.0248C27.9561 17.9077 27.6585 18.0156 27.5414 18.2658L28.4472 18.6895ZM26.4927 20.7513L26.1183 20.4198L26.1121 20.4271L26.4927 20.7513ZM23.4573 22.6282C23.2234 22.775 23.1527 23.0836 23.2995 23.3175C23.4462 23.5514 23.7548 23.6221 23.9887 23.4753L23.4573 22.6282ZM22.2909 24.3613C22.5566 24.2861 22.7111 24.0098 22.6359 23.744C22.5607 23.4783 22.2844 23.3239 22.0187 23.399L22.2909 24.3613ZM20.2834 23.8805C20.0177 23.9557 19.8633 24.232 19.9384 24.4978C20.0136 24.7635 20.2899 24.9179 20.5557 24.8428L20.2834 23.8805ZM10.4074 27.5C10.1312 27.5005 9.90782 27.7248 9.90835 28.001C9.90889 28.2771 10.1332 28.5005 10.4093 28.5L10.4074 27.5ZM24.2576 28.4732C24.5337 28.4727 24.7571 28.2484 24.7566 27.9723C24.7561 27.6961 24.5318 27.4727 24.2556 27.4732L24.2576 28.4732ZM24.6246 14.0798L24.2249 14.3804L24.2307 14.3878L24.6246 14.0798ZM24.658 11.4488L25.1137 11.6544L25.1186 11.6435L25.123 11.6324L24.658 11.4488ZM27.6278 8.59586L27.4163 8.14281L27.409 8.14621L27.4019 8.14984L27.6278 8.59586ZM32.066 7.67659L32.5609 7.60554L32.4993 7.17659H32.066V7.67659ZM31.7323 10.8782L31.2605 10.7126L31.2587 10.7179L31.7323 10.8782ZM29.1962 14.3017L29.4227 14.7475L29.4244 14.7466L29.1962 14.3017ZM28.0008 11.8457C28.1847 11.6397 28.1668 11.3236 27.9607 11.1398C27.7547 10.9559 27.4386 10.9738 27.2548 11.1799L28.0008 11.8457ZM24.6519 14.0962C24.468 14.3022 24.486 14.6183 24.692 14.8022C24.898 14.986 25.2141 14.9681 25.398 14.7621L24.6519 14.0962ZM10.4758 13.5103L10.8728 13.8143L10.8754 13.8108L10.4758 13.5103ZM10.4091 10.2136L9.9458 10.4017L9.94634 10.403L10.4091 10.2136ZM6.63834 6.69499L6.43084 7.15006L6.4418 7.15475L6.63834 6.69499ZM1.06567 5.55383L1.06567 5.05383H0.620743L0.569055 5.49574L1.06567 5.55383ZM1.49947 9.57961L1.9743 9.42252L1.97028 9.41129L1.49947 9.57961ZM4.73629 13.8273L4.51635 14.2763L4.5186 14.2774L4.73629 13.8273ZM6.06902 9.09564C5.80252 9.02331 5.52784 9.18072 5.45551 9.44722C5.38318 9.71372 5.54059 9.9884 5.80709 10.0607L6.06902 9.09564ZM7.90687 10.5292L8.2181 10.1378L8.21554 10.1358L7.90687 10.5292ZM9.38515 13.8276C9.43862 14.0985 9.70159 14.2748 9.97251 14.2213C10.2434 14.1678 10.4197 13.9049 10.3662 13.634L9.38515 13.8276ZM17.7168 14.5238V15.0238H18.2168V14.5238H17.7168ZM10.7426 14.5238L10.2534 14.6268L10.337 15.0238H10.7426V14.5238ZM8.0162 7.16677C8.06722 7.43816 8.32858 7.61681 8.59997 7.56579C8.87136 7.51478 9.05 7.25341 8.99899 6.98203L8.0162 7.16677ZM9.809 2.69992L10.1101 3.09908L10.1106 3.09868L9.809 2.69992ZM14.9479 4.03128L14.4623 4.15091L14.4644 4.15854L14.9479 4.03128ZM14.8478 5.04565L14.3521 5.11088L14.6255 7.18914L15.3196 5.21121L14.8478 5.04565ZM15.7154 2.09764L15.3373 1.77041L15.3351 1.77303L15.7154 2.09764ZM18.9522 1.08326L18.8213 1.56581L18.8321 1.56876L18.8432 1.57122L18.9522 1.08326ZM21.6551 3.5241L22.1058 3.30752L22.1018 3.29929L22.0976 3.29121L21.6551 3.5241ZM22.1223 6.8842L21.6272 6.8147L21.3689 8.65494L22.5157 7.19278L22.1223 6.8842ZM26.3269 6.15512L26.689 5.81024L26.6831 5.80429L26.3269 6.15512ZM26.4055 8.90214C26.347 9.17201 26.5184 9.43821 26.7882 9.4967C27.0581 9.55519 27.3243 9.38383 27.3828 9.11395L26.4055 8.90214ZM23.19 14.5242V15.0242H23.5444L23.6618 14.6897L23.19 14.5242ZM18.8854 14.5242H18.3854V15.0242H18.8854V14.5242ZM21.021 12.1467V12.6469L21.0338 12.6466L21.021 12.1467ZM32.999 14.5L1.93211 14.5535L1.93383 15.5535L33.0007 15.5L32.999 14.5ZM1.43297 15.0535C1.43297 22.3035 8.74215 27.9919 17.5165 27.9919V26.9919C9.0722 26.9919 2.43297 21.5526 2.43297 15.0535H1.43297ZM17.518 27.9919C26.2596 27.9646 33.5351 22.2745 33.4999 14.9976L32.4999 15.0024C32.5314 21.5281 25.9252 26.9657 17.5149 26.9919L17.518 27.9919ZM27.5414 18.2658C27.2579 18.8718 26.8156 19.6323 26.1183 20.4199L26.8671 21.0828C27.638 20.212 28.1301 19.3674 28.4472 18.6895L27.5414 18.2658ZM26.1121 20.4271C25.2277 21.4651 24.2115 22.1551 23.4573 22.6282L23.9887 23.4753C24.7695 22.9855 25.889 22.231 26.8733 21.0756L26.1121 20.4271ZM22.0187 23.399C21.7372 23.4787 21.447 23.5584 21.1547 23.6388C20.863 23.7189 20.5692 23.7997 20.2834 23.8805L20.5557 24.8428C20.8372 24.7631 21.1273 24.6834 21.4197 24.603C21.7113 24.5229 22.0051 24.4421 22.2909 24.3613L22.0187 23.399ZM10.4093 28.5L24.2576 28.4732L24.2556 27.4732L10.4074 27.5L10.4093 28.5ZM25.0242 13.7793C24.8022 13.484 24.7534 13.092 24.8114 12.6652C24.8688 12.2427 25.0222 11.8572 25.1137 11.6544L24.2022 11.2432C24.0935 11.4841 23.8966 11.9704 23.8205 12.5306C23.745 13.0864 23.7796 13.788 24.225 14.3803L25.0242 13.7793ZM25.123 11.6324C25.7442 10.0587 27.3289 9.30785 27.8538 9.04188L27.4019 8.14984C26.9257 8.39106 24.9732 9.28852 24.1929 11.2652L25.123 11.6324ZM27.8394 9.04891C28.7585 8.61976 29.8116 8.39886 30.6512 8.28713C31.0678 8.23168 31.4249 8.204 31.6767 8.1902C31.8026 8.18331 31.9018 8.17991 31.9686 8.17822C32.002 8.17738 32.0274 8.17697 32.0438 8.17677C32.0521 8.17668 32.0581 8.17663 32.0618 8.17661C32.0637 8.1766 32.065 8.17659 32.0657 8.17659C32.066 8.17659 32.0662 8.17659 32.0663 8.17659C32.0663 8.17659 32.0663 8.17659 32.0662 8.17659C32.0662 8.17659 32.0662 8.17659 32.0662 8.17659C32.0661 8.17659 32.066 8.17659 32.066 7.67659C32.066 7.17659 32.0659 7.17659 32.0658 7.17659C32.0657 7.17659 32.0656 7.17659 32.0655 7.17659C32.0653 7.17659 32.0651 7.17659 32.0648 7.17659C32.0643 7.17659 32.0636 7.17659 32.0627 7.17659C32.061 7.1766 32.0588 7.17661 32.0559 7.17662C32.0501 7.17666 32.0421 7.17672 32.0317 7.17685C32.0111 7.1771 31.9814 7.17759 31.9435 7.17854C31.8676 7.18045 31.7585 7.18423 31.6221 7.1917C31.3494 7.20663 30.9661 7.2364 30.5193 7.29587C29.6319 7.41395 28.466 7.65269 27.4163 8.14281L27.8394 9.04891ZM31.5711 7.74763C31.6627 8.38623 31.6949 9.47475 31.2605 10.7126L32.2041 11.0437C32.7041 9.61892 32.6695 8.36171 32.5609 7.60554L31.5711 7.74763ZM31.2587 10.7179C30.9544 11.6173 30.437 13.1033 28.968 13.8568L29.4244 14.7466C31.2924 13.7884 31.9096 11.9143 32.2059 11.0385L31.2587 10.7179ZM28.9697 13.8559C28.3243 14.1839 27.4777 14.3874 26.7023 14.3802C25.9092 14.3729 25.3143 14.1501 25.0185 13.7718L24.2307 14.3878C24.8025 15.119 25.776 15.3717 26.693 15.3802C27.6278 15.3889 28.6332 15.1486 29.4227 14.7475L28.9697 13.8559ZM27.2548 11.1799L24.6519 14.0962L25.398 14.7621L28.0008 11.8457L27.2548 11.1799ZM10.8754 13.8108C11.4073 13.1035 11.4385 12.2631 11.3374 11.586C11.2357 10.9055 10.9881 10.3083 10.8718 10.0242L9.94634 10.403C10.0636 10.6895 10.2665 11.1859 10.3484 11.7338C10.4307 12.285 10.3786 12.8076 10.0762 13.2098L10.8754 13.8108ZM10.8723 10.0255C9.88942 7.60472 7.51051 6.52406 6.83487 6.23524L6.4418 7.15475C7.10094 7.43651 9.12678 8.38459 9.9458 10.4017L10.8723 10.0255ZM6.84578 6.24006C5.53101 5.64055 4.08324 5.34658 2.97894 5.20077C2.42387 5.12748 1.94893 5.09079 1.61169 5.0724C1.44294 5.06319 1.30833 5.05855 1.21501 5.05621C1.16834 5.05504 1.13197 5.05444 1.10679 5.05414C1.0942 5.05399 1.0844 5.05391 1.07751 5.05387C1.07407 5.05385 1.07135 5.05384 1.06937 5.05383C1.06838 5.05383 1.06758 5.05383 1.06696 5.05383C1.06665 5.05383 1.06639 5.05383 1.06617 5.05383C1.06607 5.05383 1.06594 5.05383 1.06589 5.05383C1.06577 5.05383 1.06567 5.05383 1.06567 5.55383C1.06567 6.05383 1.06559 6.05383 1.06552 6.05383C1.06552 6.05383 1.06546 6.05383 1.06545 6.05383C1.06542 6.05383 1.06544 6.05383 1.0655 6.05383C1.06563 6.05383 1.06594 6.05383 1.06644 6.05383C1.06743 6.05383 1.06915 6.05384 1.07159 6.05385C1.07647 6.05388 1.08422 6.05394 1.09473 6.05407C1.11574 6.05432 1.14777 6.05484 1.18993 6.0559C1.27427 6.05801 1.39906 6.06229 1.55723 6.07091C1.87381 6.08818 2.32279 6.12282 2.84804 6.19217C3.9044 6.33165 5.24297 6.60826 6.4309 7.14993L6.84578 6.24006ZM0.569055 5.49574C0.464118 6.3929 0.392352 7.96815 1.02865 9.74794L1.97028 9.41129C1.40529 7.83097 1.467 6.4265 1.56228 5.61191L0.569055 5.49574ZM1.02477 9.73666C1.39163 10.8455 2.17712 13.1305 4.51635 14.2763L4.95623 13.3783C3.02419 12.4319 2.34143 10.5326 1.97416 9.42256L1.02477 9.73666ZM4.5186 14.2774C5.5051 14.7545 6.74997 15.0416 7.90125 15.0246C9.03395 15.0079 10.2014 14.6913 10.8728 13.8142L10.0788 13.2064C9.68241 13.7241 8.89774 14.0098 7.88647 14.0247C6.89377 14.0394 5.80279 13.7877 4.95397 13.3772L4.5186 14.2774ZM5.80709 10.0607C6.2513 10.1813 6.9091 10.3817 7.5982 10.9225L8.21554 10.1358C7.36964 9.472 6.55917 9.22867 6.06902 9.09564L5.80709 10.0607ZM7.59565 10.9205C8.89859 11.9567 9.29598 13.3758 9.38515 13.8276L10.3662 13.634C10.2552 13.0714 9.78495 11.3839 8.21809 10.1378L7.59565 10.9205ZM17.2502 13.9849C17.2502 14.0527 17.2443 14.117 17.2358 14.2067C17.2277 14.2914 17.2168 14.4014 17.2168 14.5238H18.2168C18.2168 14.456 18.2226 14.3916 18.2312 14.302C18.2393 14.2173 18.2502 14.1073 18.2502 13.9849H17.2502ZM17.7168 14.0238H10.7426V15.0238H17.7168V14.0238ZM11.2319 14.4208C11.2115 14.3236 11.2093 14.1902 11.2093 13.9849H10.2093C10.2093 14.16 10.2071 14.407 10.2534 14.6268L11.2319 14.4208ZM11.2093 13.9849C11.2093 12.4464 12.5293 11.1565 14.213 11.1565V10.1565C12.026 10.1565 10.2093 11.8463 10.2093 13.9849H11.2093ZM14.213 11.1565C15.9334 11.1565 17.2502 12.4494 17.2502 13.9849H18.2502C18.2502 11.8433 16.4303 10.1565 14.213 10.1565V11.1565ZM8.99899 6.98203C8.68758 5.32544 9.1756 3.80405 10.1101 3.09908L9.50789 2.30076C8.17328 3.30754 7.66022 5.27305 8.0162 7.16677L8.99899 6.98203ZM10.1106 3.09868C10.8441 2.54385 11.8548 2.48761 12.7673 2.77296C13.2181 2.91394 13.6197 3.13181 13.9217 3.38576C14.2275 3.64284 14.4037 3.91246 14.4624 4.15089L15.4334 3.91167C15.3086 3.40518 14.9759 2.96553 14.5652 2.62032C14.1509 2.27199 13.6286 1.99456 13.0658 1.81855C11.951 1.46992 10.5758 1.49293 9.50736 2.30116L10.1106 3.09868ZM14.4644 4.15854C14.5235 4.38344 14.4716 4.60758 14.376 4.8801L15.3196 5.21121C15.4242 4.91314 15.5725 4.4399 15.4314 3.90403L14.4644 4.15854ZM15.3435 4.98042C15.3159 4.77097 15.2349 3.43079 16.0957 2.42224L15.3351 1.77303C14.1937 3.11022 14.3129 4.81315 14.3521 5.11088L15.3435 4.98042ZM16.0934 2.42486C16.6123 1.82539 17.2393 1.59865 17.7751 1.52739C18.3209 1.4548 18.7533 1.54738 18.8213 1.56581L19.0832 0.600722C18.9175 0.555755 18.3488 0.442287 17.6433 0.536118C16.9278 0.631275 16.0531 0.943419 15.3373 1.77041L16.0934 2.42486ZM18.8432 1.57122C20.2864 1.89381 20.9598 3.27652 21.2127 3.75698L22.0976 3.29121C21.8833 2.8841 21.0217 1.0335 19.0613 0.595305L18.8432 1.57122ZM21.2045 3.74067C21.8391 5.06122 21.6904 6.36422 21.6272 6.8147L22.6175 6.9537C22.6877 6.45322 22.8727 4.90329 22.1058 3.30752L21.2045 3.74067ZM22.5157 7.19278C23.6469 5.75066 25.2667 5.79114 25.9706 6.50595L26.6831 5.80429C25.4516 4.55376 23.1338 4.78444 21.7289 6.57562L22.5157 7.19278ZM25.9648 6.49996C26.4415 7.00045 26.6197 7.91388 26.4055 8.90214L27.3828 9.11395C27.6358 7.94666 27.4803 6.64116 26.6889 5.81028L25.9648 6.49996ZM22.7233 14.2072C22.7233 14.2757 22.723 14.3097 22.7208 14.3372C22.719 14.359 22.7169 14.3622 22.7182 14.3586L23.6618 14.6897C23.7284 14.4998 23.7233 14.3156 23.7233 14.2072H22.7233ZM23.19 14.0242H18.8854V15.0242H23.19V14.0242ZM19.3854 14.5242C19.3854 14.4316 19.3699 14.336 19.3631 14.2913C19.3587 14.262 19.3558 14.2425 19.3538 14.2254C19.3518 14.2081 19.352 14.2037 19.352 14.2072H18.352C18.352 14.2997 18.3675 14.3953 18.3742 14.44C18.3787 14.4694 18.3815 14.4888 18.3835 14.506C18.3856 14.5232 18.3854 14.5276 18.3854 14.5242H19.3854ZM19.352 14.2072C19.352 13.366 20.0713 12.6467 21.021 12.6467V11.6467C19.5681 11.6467 18.352 12.766 18.352 14.2072H19.352ZM21.0338 12.6466C21.9997 12.6218 22.7233 13.3594 22.7233 14.2072H23.7233C23.7233 12.7727 22.5116 11.6083 21.0082 11.6469L21.0338 12.6466Z" fill="#06417D"/>
</svg>
