<svg width="64" height="64" viewBox="0 0 64 64" fill="none" xmlns="http://www.w3.org/2000/svg">
<path d="M16.964 30.756L15.992 28.938H15.92L16.1 30.756V39H14.696V26.202H15.488L21.518 34.608L22.454 36.336H22.544L22.346 34.608V26.4H23.75V39.198H22.958L16.964 30.756ZM26.8073 26.4H33.6653V27.732H28.3013V31.854H33.2153V33.186H28.3013V37.668H33.7553V39H26.8073V26.4ZM38.9237 34.842L39.2117 36.93H39.2297L39.5357 34.806L42.1277 26.4H42.8477L45.4577 34.842L45.7637 36.93H45.7817L46.1057 34.806L48.2297 26.4H49.6877L46.1777 39.198H45.3497L42.7937 30.756L42.4697 28.848H42.3797L42.0557 30.774L39.4997 39.198H38.6717L35.0717 26.4H36.6557L38.9237 34.842Z" fill="#021245"/>
<path d="M33.3771 0.570312C30.8538 2.85195 28.4452 5.01951 25.9219 7.30115L16.6316 4.67726L14.5671 13.8038L5.27673 15.9714L7.68533 25.0979L0.574219 31.9429L7.57063 38.2174L4.81795 47.9143L14.1083 49.6256L16.1728 59.3225L25.4631 56.4705L31.7714 63.4295L38.6531 56.4705L47.5993 59.0944L50.1226 50.5382L58.9542 47.9143L56.3162 38.7878L63.4273 32.171L56.4309 26.1247L58.8395 17.1122L50.2373 15.2869L47.8287 5.58992C44.8466 6.50258 41.8645 7.52931 38.9972 8.44197C37.162 5.704 35.2122 3.1942 33.3771 0.570312Z" stroke="#021245" stroke-width="2" stroke-miterlimit="10" stroke-linecap="round" stroke-linejoin="round"/>
</svg>
