<svg width="25" height="25" viewBox="0 0 25 25" fill="none" xmlns="http://www.w3.org/2000/svg">
<path d="M8.93511 12.54L8.7151 12.1H8.69511L8.75911 12.54V14H8.2391V11.18H8.63911L9.69911 12.672L9.91111 13.1H9.93111L9.86711 12.672V11.2H10.3871V14.02H9.98711L8.93511 12.54ZM10.868 11.2H12.528V11.688H11.416V12.34H12.428V12.828H11.416V13.512H12.548V14H10.868V11.2ZM13.6859 12.764L13.7379 13.26H13.7539L13.8099 12.756L14.2979 11.2H14.6579L15.1379 12.764L15.1939 13.26H15.2099L15.2699 12.756L15.6099 11.2H16.1659L15.3939 14.02H15.0259L14.5259 12.464L14.4579 12.036H14.4379L14.3699 12.468L13.8739 14.02H13.4859L12.7179 11.2H13.3139L13.6859 12.764Z" fill="#06417D"/>
<path d="M12.9014 3.33325C12.1654 3.99871 11.4628 4.63089 10.7268 5.29635L8.01695 4.53107L7.41476 7.1929L4.70491 7.82509L5.40746 10.4869L3.33325 12.4833L5.37401 14.3133L4.57109 17.1415L7.28094 17.6406L7.88313 20.4688L10.593 19.6369L12.433 21.6666L14.4403 19.6369L17.0498 20.4022L17.7858 17.9068L20.3618 17.1415L19.5924 14.4797L21.6666 12.5498L19.6258 10.7864L20.3284 8.15781L17.8193 7.62545L17.1167 4.79726C16.2469 5.06344 15.377 5.3629 14.5407 5.62908C14.0054 4.83053 13.4367 4.09853 12.9014 3.33325Z" stroke="#06417D" stroke-miterlimit="10" stroke-linecap="round" stroke-linejoin="round"/>
<circle cx="12.5" cy="12.5" r="12" stroke="#003F80"/>
</svg>
