<svg width="32" height="24" viewBox="0 0 32 24" fill="none" xmlns="http://www.w3.org/2000/svg">
<path fill-rule="evenodd" clip-rule="evenodd" d="M31.418 12.7146C28.8361 8.10481 24.5916 5.28594 19.6166 4.76357C17.1224 1.6215 9.29607 0.825505 8.95828 0.792713C8.73819 0.770067 8.51677 0.865664 8.38181 1.04436C8.24619 1.22178 8.21276 1.457 8.29353 1.66522C9.06084 3.6518 9.84692 5.9114 10.055 6.83584C8.63375 7.48449 7.39151 8.17426 6.59065 8.74904C4.85368 5.9774 1.30794 5.9428 1.14585 5.9428C0.788869 5.9428 0.5 6.23092 0.5 6.58698C0.5 10.3192 1.8043 12.1925 2.67654 13.0286C1.8043 13.8645 0.5 15.7379 0.5 19.4701C0.5 19.8261 0.788869 20.1142 1.14585 20.1142C1.30794 20.1142 4.85374 20.0796 6.59065 17.308C7.65464 18.0717 9.4943 19.0374 11.5046 19.8402C11.0603 20.5568 10.8334 21.6967 10.8334 23.335C10.8334 23.6911 11.1222 23.9792 11.4792 23.9792C11.6713 23.9792 16.0631 23.9412 18.2503 21.3822C23.8127 21.2751 28.6025 18.3694 31.418 13.3424C31.5271 13.1474 31.5271 12.9096 31.418 12.7146ZM9.87909 2.20366C12.0492 2.51696 15.6118 3.28777 17.6251 4.66749C15.7687 4.73984 13.4001 5.43988 11.253 6.3183C10.9671 5.186 10.3327 3.417 9.87909 2.20366ZM12.7569 20.3102C12.6407 20.404 12.2262 20.8619 12.1401 22.6537C13.1375 22.5659 15.0474 22.2599 16.4483 21.2767C15.2905 21.101 14.0154 20.7509 12.7569 20.3102ZM17.9375 20.1142C14.1635 20.1142 7.99271 17.0236 6.84989 15.8573C6.72752 15.7321 6.56041 15.6636 6.38822 15.6636C6.34911 15.6636 6.30939 15.6674 6.27027 15.6743C6.05896 15.7133 5.88047 15.8555 5.79534 16.0523C4.92371 18.0684 2.87396 18.6189 1.8087 18.7693C2.0105 14.7326 3.92596 13.6538 4.02435 13.6015C4.23687 13.4927 4.36807 13.2731 4.37122 13.0348C4.37437 12.7938 4.23874 12.5693 4.02495 12.4561C3.93855 12.4102 2.01177 11.3389 1.8087 7.29148C2.87329 7.44687 4.93061 8.00547 5.79534 10.0046C5.88047 10.2015 6.05896 10.3437 6.27027 10.3826C6.48346 10.4223 6.69979 10.3531 6.84989 10.1996C7.99271 9.0333 14.1635 5.94274 17.9375 5.94274C23.0367 5.94274 27.4535 8.51999 30.11 13.0284C27.4535 17.5369 23.0367 20.1142 17.9375 20.1142ZM21.0595 8.23067C21.0475 8.2489 19.875 10.0644 19.875 13.0285C19.875 16.0197 21.0462 17.8069 21.0581 17.8244C21.2562 18.1207 21.1761 18.5201 20.879 18.7177C20.7687 18.7907 20.6444 18.8259 20.5214 18.8259C20.3127 18.8259 20.1077 18.7252 19.9835 18.5391C19.9261 18.4535 18.5833 16.4053 18.5833 13.0285C18.5833 9.65169 19.9261 7.60352 19.9835 7.51795C20.1803 7.22355 20.5801 7.14365 20.8765 7.33865C21.173 7.53492 21.255 7.93373 21.0595 8.23067ZM18.2932 7.33865C17.9962 7.14365 17.5975 7.22355 17.4001 7.51795C17.3427 7.60346 16 9.65169 16 13.0284C16 14.832 16.3897 16.2492 16.7171 17.1204C16.8142 17.379 17.0602 17.5388 17.322 17.5388C17.3971 17.5388 17.474 17.5255 17.5484 17.4979C17.8827 17.3733 18.0518 17.0022 17.9268 16.6688C17.6374 15.8969 17.2917 14.6388 17.2917 13.0284C17.2917 10.0643 18.4642 8.24884 18.4762 8.23061C18.6716 7.93373 18.5897 7.53492 18.2932 7.33865ZM25.0416 11.0959C25.0416 11.8074 24.4633 12.3842 23.75 12.3842C23.0366 12.3842 22.4583 11.8074 22.4583 11.0959C22.4583 10.3844 23.0366 9.80765 23.75 9.80765C24.4633 9.80765 25.0416 10.3844 25.0416 11.0959Z" fill="white"/>
</svg>
