<svg width="26" height="26" viewBox="0 0 26 26" fill="none" xmlns="http://www.w3.org/2000/svg">
<g opacity="0.5">
<path d="M7.58337 12C7.03109 12 6.58337 12.4477 6.58337 13C6.58337 13.5523 7.03109 14 7.58337 14V12ZM22.75 14C23.3023 14 23.75 13.5523 23.75 13C23.75 12.4477 23.3023 12 22.75 12V14ZM7.58337 14H22.75V12H7.58337V14Z" fill="#003F80"/>
<path d="M2.45143 12.7966L8.48497 8.48694C9.01446 8.10873 9.74996 8.48723 9.74996 9.13793V16.8622C9.74996 17.5129 9.01446 17.8914 8.48497 17.5131L2.45143 13.2035C2.31185 13.1038 2.31185 12.8963 2.45143 12.7966Z" fill="#003F80"/>
</g>
</svg>
