<svg width="26" height="26" viewBox="0 0 26 26" fill="none" xmlns="http://www.w3.org/2000/svg">
<path d="M18.4167 12C18.969 12 19.4167 12.4477 19.4167 13C19.4167 13.5523 18.969 14 18.4167 14V12ZM3.25 14C2.69772 14 2.25 13.5523 2.25 13C2.25 12.4477 2.69772 12 3.25 12V14ZM18.4167 14H3.25V12H18.4167V14Z" fill="#003F80"/>
<path d="M23.5485 12.7966L17.515 8.48694C16.9855 8.10873 16.25 8.48723 16.25 9.13793V16.8622C16.25 17.5129 16.9855 17.8914 17.515 17.5131L23.5485 13.2035C23.6881 13.1038 23.6881 12.8963 23.5485 12.7966Z" fill="#003F80"/>
</svg>
