<svg width="206" height="158" viewBox="0 0 206 158" fill="none" xmlns="http://www.w3.org/2000/svg">
<path d="M197.527 123.953H48.755C46.4932 123.953 44.6837 123.465 44.6837 122.855V121.712C44.6837 121.102 46.4932 120.614 48.755 120.614H197.527C199.789 120.614 201.598 121.102 201.598 121.712V122.855C201.598 123.45 199.789 123.953 197.527 123.953Z" fill="#003F80" stroke="#003F80" stroke-width="5" stroke-miterlimit="10"/>
<path d="M77.4363 61.8854H43.8491" stroke="#003F80" stroke-width="5" stroke-miterlimit="10" stroke-linecap="round" stroke-linejoin="round"/>
<path d="M43.8493 45.9813H32.9562" stroke="#003F80" stroke-width="5" stroke-miterlimit="10" stroke-linecap="round" stroke-linejoin="round"/>
<path d="M32.9567 61.8854H22.9713" stroke="#003F80" stroke-width="5" stroke-miterlimit="10" stroke-linecap="round" stroke-linejoin="round"/>
<path d="M65.636 80.0619H40.2186" stroke="#003F80" stroke-width="5" stroke-miterlimit="10" stroke-linecap="round" stroke-linejoin="round"/>
<path d="M60.6424 96.4191H27.963" stroke="#003F80" stroke-width="5" stroke-miterlimit="10" stroke-linecap="round" stroke-linejoin="round"/>
<path d="M30.6873 80.0619H22.9713" stroke="#003F80" stroke-width="5" stroke-miterlimit="10" stroke-linecap="round" stroke-linejoin="round"/>
<path d="M14.347 77.7894H3" stroke="#003F80" stroke-width="5" stroke-miterlimit="10" stroke-linecap="round" stroke-linejoin="round"/>
<path d="M78.7983 95.5127C75.6212 95.6832 72.444 95.7968 69.2668 95.9672" stroke="#003F80" stroke-width="5" stroke-miterlimit="10" stroke-linecap="round" stroke-linejoin="round"/>
<path d="M52.9275 45.9813H142.853V107.782" stroke="#003F80" stroke-width="5" stroke-miterlimit="10" stroke-linecap="round" stroke-linejoin="round"/>
<path d="M88.3301 95.5127L139.675 96.4216" stroke="#003F80" stroke-width="5" stroke-miterlimit="10" stroke-linecap="round" stroke-linejoin="round"/>
<path d="M145.26 64.3015C152.586 63.403 158.378 64.0373 162.07 64.7244C164.682 65.2 166.784 65.6229 169.339 66.8385C174.791 69.4811 177.631 73.7623 178.88 75.7178C182.912 82.0602 180.811 84.3858 184.786 88.8254C188.137 92.5252 189.954 91.2567 192.964 94.745C195.69 97.9162 196.201 102.25 197.053 110.812C198.019 120.696 196.883 122.07 196.145 122.651C192.567 125.664 185.127 122.546 184.332 122.229C140.546 122.493 96.7596 122.81 53.0302 123.074C53.2574 117.208 53.4278 111.341 53.6549 105.474" stroke="#003F80" stroke-width="5" stroke-miterlimit="10" stroke-linecap="round" stroke-linejoin="round"/>
<path d="M125.094 27.3497C126.966 23.6007 131.845 15.1372 141.888 9.17293C145.122 7.24165 157.433 0.254968 172.752 4.17433C186.708 7.75287 193.914 18.0341 195.899 20.9878C202.708 31.0418 203.105 41.039 203.162 44.6176C203.445 57.5685 198.169 66.9409 195.899 70.5194" fill="white"/>
<path d="M125.094 27.3497C126.966 23.6007 131.845 15.1372 141.888 9.17293C145.122 7.24165 157.433 0.254968 172.752 4.17433C186.708 7.75287 193.914 18.0341 195.899 20.9878C202.708 31.0418 203.105 41.039 203.162 44.6176C203.445 57.5685 198.169 66.9409 195.899 70.5194" stroke="#003F80" stroke-width="5" stroke-miterlimit="10" stroke-linecap="round" stroke-linejoin="round"/>
<path d="M165.831 16.5566V43.4809C170.993 40.2431 176.1 36.9486 181.263 33.7109" stroke="#003F80" stroke-width="5" stroke-miterlimit="10" stroke-linecap="round" stroke-linejoin="round"/>
<path d="M185.063 30.9848L188.241 29.0535" stroke="#003F80" stroke-width="5" stroke-miterlimit="10" stroke-linecap="round" stroke-linejoin="round"/>
<path d="M166.511 46.4895C168.547 46.4895 170.198 44.8365 170.198 42.7974C170.198 40.7583 168.547 39.1052 166.511 39.1052C164.474 39.1052 162.823 40.7583 162.823 42.7974C162.823 44.8365 164.474 46.4895 166.511 46.4895Z" fill="#003F80" stroke="#003F80" stroke-width="5" stroke-miterlimit="10" stroke-linecap="round" stroke-linejoin="round"/>
<path d="M76.9848 155.169C86.0658 155.169 93.4274 147.807 93.4274 138.726C93.4274 129.645 86.0658 122.284 76.9848 122.284C67.9037 122.284 60.5421 129.645 60.5421 138.726C60.5421 147.807 67.9037 155.169 76.9848 155.169Z" stroke="#003F80" stroke-width="5" stroke-miterlimit="10" stroke-linecap="round"/>
<path d="M165.458 155.169C174.539 155.169 181.901 147.807 181.901 138.726C181.901 129.645 174.539 122.284 165.458 122.284C156.377 122.284 149.015 129.645 149.015 138.726C149.015 147.807 156.377 155.169 165.458 155.169Z" stroke="#003F80" stroke-width="5" stroke-miterlimit="10" stroke-linecap="round"/>
<path d="M76.9841 141.233C78.367 141.233 79.488 140.112 79.488 138.729C79.488 137.346 78.367 136.225 76.9841 136.225C75.6012 136.225 74.4801 137.346 74.4801 138.729C74.4801 140.112 75.6012 141.233 76.9841 141.233Z" stroke="#003F80" stroke-width="5" stroke-miterlimit="10" stroke-linecap="round"/>
<path d="M165.457 141.233C166.84 141.233 167.961 140.112 167.961 138.729C167.961 137.346 166.84 136.225 165.457 136.225C164.074 136.225 162.953 137.346 162.953 138.729C162.953 140.112 164.074 141.233 165.457 141.233Z" stroke="#003F80" stroke-width="5" stroke-miterlimit="10" stroke-linecap="round"/>
</svg>
