<svg width="192" height="154" viewBox="0 0 192 154" fill="none" xmlns="http://www.w3.org/2000/svg">
<g clip-path="url(#clip0_43_346)">
<path d="M166.125 101.73L49.1523 101.559C49.238 69.2758 75.4412 43.0726 107.724 43.1582C140.007 43.1582 166.21 69.4471 166.125 101.73Z" stroke="#003F80" stroke-width="4" stroke-miterlimit="10"/>
<path d="M42.8157 104.299L171.092 104.47" stroke="#003F80" stroke-width="5" stroke-miterlimit="10" stroke-linecap="round"/>
<path d="M112.403 36.9699C112.408 34.085 110.073 31.7425 107.188 31.7378C104.303 31.7331 101.96 34.0679 101.956 36.9528C101.951 39.8377 104.286 42.1801 107.171 42.1849C110.056 42.1896 112.398 39.8547 112.403 36.9699Z" stroke="#003F80" stroke-width="5" stroke-miterlimit="10"/>
<path d="M63.1104 86.9159C64.2236 84.0044 65.9362 80.2366 68.762 76.2119C72.3585 71.0741 76.212 67.6488 79.2091 65.4224" stroke="#003F80" stroke-width="5" stroke-miterlimit="10" stroke-linecap="round"/>
<path d="M85.032 61.6546C87.2584 60.8839 89.3992 60.1132 91.6256 59.3426" stroke="#003F80" stroke-width="5" stroke-miterlimit="10" stroke-linecap="round"/>
<path d="M14.7286 37.164C16.27 38.1916 17.7257 39.1336 19.0958 39.8186" stroke="#003F80" stroke-width="5" stroke-miterlimit="10" stroke-linecap="round"/>
<path d="M28.0015 43.1582C30.9129 43.7576 33.4819 43.672 35.7939 43.3295C47.7823 41.1887 51.2932 29.2003 63.2816 27.1452C67.3919 26.4601 71.331 27.1452 75.0131 28.5153" stroke="#003F80" stroke-width="5" stroke-miterlimit="10" stroke-linecap="round" stroke-dasharray="11.06 11.06"/>
<path d="M79.2091 30.5704C80.7505 31.4267 82.2062 32.3687 83.5763 33.3106" stroke="#003F80" stroke-width="5" stroke-miterlimit="10" stroke-linecap="round"/>
<path d="M2.14075 13.1873C3.33959 14.3861 4.53843 15.5849 5.90853 16.6981" stroke="#003F80" stroke-width="5" stroke-miterlimit="10" stroke-linecap="round"/>
<path d="M14.3004 22.4354C18.2395 24.405 22.6067 25.4325 27.0595 24.6619C37.3353 23.0349 41.3599 13.3585 50.6081 7.19305C57.4586 2.65458 67.6488 -0.428147 83.0624 4.79537" stroke="#003F80" stroke-width="5" stroke-miterlimit="10" stroke-linecap="round" stroke-dasharray="11.95 11.95"/>
<path d="M87.9434 6.67926C89.4847 7.27868 91.0261 8.04936 92.6531 8.82005" stroke="#003F80" stroke-width="5" stroke-miterlimit="10" stroke-linecap="round"/>
<path d="M26.3745 111.064L189.759 111.321" stroke="#003F80" stroke-width="5" stroke-miterlimit="10" stroke-linecap="round"/>
<path d="M67.6488 118.171H145.745" stroke="#003F80" stroke-width="4" stroke-miterlimit="10" stroke-linecap="round"/>
<path d="M86.8302 123.737H126.82" stroke="#003F80" stroke-width="4" stroke-miterlimit="10" stroke-linecap="round"/>
<path d="M50.6938 148.827C60.0106 148.827 67.5632 141.275 67.5632 131.958C67.5632 122.641 60.0106 115.089 50.6938 115.089C41.3771 115.089 33.8245 122.641 33.8245 131.958C33.8245 141.275 41.3771 148.827 50.6938 148.827Z" stroke="#003F80" stroke-width="5" stroke-miterlimit="10" stroke-linecap="round"/>
<path d="M166.981 148.827C176.298 148.827 183.851 141.275 183.851 131.958C183.851 122.641 176.298 115.089 166.981 115.089C157.664 115.089 150.112 122.641 150.112 131.958C150.112 141.275 157.664 148.827 166.981 148.827Z" stroke="#003F80" stroke-width="5" stroke-miterlimit="10" stroke-linecap="round"/>
<path d="M50.6938 134.527C52.1126 134.527 53.2628 133.377 53.2628 131.958C53.2628 130.539 52.1126 129.389 50.6938 129.389C49.275 129.389 48.1249 130.539 48.1249 131.958C48.1249 133.377 49.275 134.527 50.6938 134.527Z" stroke="#003F80" stroke-width="5" stroke-miterlimit="10" stroke-linecap="round"/>
<path d="M166.981 134.527C168.4 134.527 169.55 133.377 169.55 131.958C169.55 130.539 168.4 129.389 166.981 129.389C165.563 129.389 164.412 130.539 164.412 131.958C164.412 133.377 165.563 134.527 166.981 134.527Z" stroke="#003F80" stroke-width="5" stroke-miterlimit="10" stroke-linecap="round"/>
<path d="M11.9884 148.999H21.836" stroke="#003F80" stroke-width="4" stroke-miterlimit="10" stroke-linecap="round"/>
<path d="M29.5428 148.999H52.3208" stroke="#003F80" stroke-width="4" stroke-miterlimit="10" stroke-linecap="round"/>
<path d="M122.197 148.999H132.045" stroke="#003F80" stroke-width="4" stroke-miterlimit="10" stroke-linecap="round"/>
<path d="M139.665 148.999H166.895" stroke="#003F80" stroke-width="4" stroke-miterlimit="10" stroke-linecap="round"/>
</g>
<defs>
<clipPath id="clip0_43_346">
<rect width="191.9" height="153.195" fill="white"/>
</clipPath>
</defs>
</svg>
