<svg width="26" height="26" viewBox="0 0 26 26" fill="none" xmlns="http://www.w3.org/2000/svg">
<g>
<path d="M18.4167 14C18.969 14 19.4167 13.5523 19.4167 13C19.4167 12.4477 18.969 12 18.4167 12L18.4167 14ZM3.25002 12C2.69773 12 2.25002 12.4477 2.25002 13C2.25002 13.5523 2.69773 14 3.25002 14L3.25002 12ZM18.4167 12L3.25002 12L3.25002 14L18.4167 14L18.4167 12Z" fill="white"/>
<path d="M23.5485 13.2034L17.515 17.5131C16.9855 17.8913 16.25 17.5128 16.25 16.8621L16.25 9.13784C16.25 8.48714 16.9855 8.10865 17.515 8.48686L23.5485 12.7965C23.6881 12.8962 23.6881 13.1037 23.5485 13.2034Z" fill="white"/>
</g>
</svg>
