<svg width="26" height="26" viewBox="0 0 26 26" fill="none" xmlns="http://www.w3.org/2000/svg">
<g>
<path d="M7.58331 14C7.03103 14 6.58331 13.5523 6.58331 13C6.58331 12.4477 7.03103 12 7.58331 12L7.58331 14ZM22.75 12C23.3023 12 23.75 12.4477 23.75 13C23.75 13.5523 23.3023 14 22.75 14L22.75 12ZM7.58331 12L22.75 12L22.75 14L7.58331 14L7.58331 12Z" fill="white"/>
<path d="M2.45149 13.2034L8.48503 17.5131C9.01452 17.8913 9.75002 17.5128 9.75002 16.8621L9.75002 9.13784C9.75002 8.48714 9.01452 8.10865 8.48503 8.48686L2.45149 12.7965C2.31191 12.8962 2.31191 13.1037 2.45149 13.2034Z" fill="white"/>
</g>
</svg>
