<svg width="34" height="34" viewBox="0 0 34 34" fill="none" xmlns="http://www.w3.org/2000/svg">
<path fill-rule="evenodd" clip-rule="evenodd" d="M29.75 17C29.75 24.0416 24.0416 29.75 17 29.75C9.95837 29.75 4.25 24.0416 4.25 17C4.25 9.95837 9.95837 4.25 17 4.25C24.0416 4.25 29.75 9.95837 29.75 17ZM10.6262 23.3738C10.2357 22.9832 10.2357 22.3501 10.6262 21.9596L15.5858 17L10.6262 12.0404C10.2357 11.6499 10.2357 11.0168 10.6262 10.6262C11.0168 10.2357 11.6499 10.2357 12.0404 10.6262L17 15.5858L21.9596 10.6262C22.3501 10.2357 22.9833 10.2357 23.3738 10.6262C23.7643 11.0168 23.7643 11.6499 23.3738 12.0404L18.4142 17L23.3738 21.9596C23.7643 22.3501 23.7643 22.9832 23.3738 23.3738C22.9832 23.7643 22.3501 23.7643 21.9596 23.3738L17 18.4142L12.0404 23.3738C11.6499 23.7643 11.0168 23.7643 10.6262 23.3738Z" fill="#003F80"/>
</svg>
