<svg width="26" height="26" viewBox="0 0 26 26" fill="none" xmlns="http://www.w3.org/2000/svg">
<g opacity="0.5">
<path d="M7.58337 14C7.03109 14 6.58337 13.5523 6.58337 13C6.58337 12.4477 7.03109 12 7.58337 12L7.58337 14ZM22.75 12C23.3023 12 23.75 12.4477 23.75 13C23.75 13.5523 23.3023 14 22.75 14L22.75 12ZM7.58337 12L22.75 12L22.75 14L7.58337 14L7.58337 12Z" fill="#003F80"/>
<path d="M2.45143 13.2034L8.48497 17.5131C9.01446 17.8913 9.74996 17.5128 9.74996 16.8621L9.74996 9.13787C9.74996 8.48717 9.01446 8.10868 8.48497 8.48689L2.45143 12.7966C2.31184 12.8963 2.31185 13.1037 2.45143 13.2034Z" fill="#003F80"/>
</g>
</svg>
