<svg width="42" height="36" viewBox="0 0 42 36" fill="none" xmlns="http://www.w3.org/2000/svg">
<g clip-path="url(#clip0_347_3711)">
<path d="M33.0272 22.2569L6.64326 22.6397C6.40106 15.41 12.1083 9.47293 19.4043 9.36283C26.6875 9.26685 32.785 15.0273 33.0272 22.2569Z" stroke="white" stroke-miterlimit="10"/>
<path d="M5.23505 23.2723L34.1609 22.857" stroke="white" stroke-miterlimit="10" stroke-linecap="round"/>
<path d="M19.2576 9.17412C19.9086 9.16478 20.4192 8.63474 20.398 7.99023C20.3769 7.34572 19.8321 6.83081 19.1811 6.84015C18.5302 6.84949 18.0196 7.37953 18.0407 8.02404C18.0618 8.66855 18.6067 9.18346 19.2576 9.17412Z" stroke="white" stroke-miterlimit="10"/>
<path d="M11.5607 17.8328C11.9045 17.221 12.4305 16.4655 13.1874 15.6861C14.1631 14.6935 15.1502 14.0935 15.8912 13.7079" stroke="white" stroke-miterlimit="10" stroke-linecap="round"/>
<path d="M4.74414 26.4383H36.2028" stroke="white" stroke-miterlimit="10" stroke-linecap="round"/>
<path d="M14.3557 28.2633L26.9376 28.1305" stroke="white" stroke-miterlimit="10" stroke-linecap="round"/>
<path d="M17.5735 29.9317L23.3818 30.0076" stroke="white" stroke-miterlimit="10" stroke-linecap="round"/>
<path d="M8.42635 34.654C10.5981 34.654 12.3587 32.9571 12.3587 30.8638C12.3587 28.7705 10.5981 27.0736 8.42635 27.0736C6.25458 27.0736 4.49402 28.7705 4.49402 30.8638C4.49402 32.9571 6.25458 34.654 8.42635 34.654Z" stroke="white" stroke-miterlimit="10"/>
<path d="M31.7718 1.9852C31.3821 2.45964 30.9534 3.14283 31.0119 3.95887C31.0703 4.79389 31.6159 5.17344 31.9472 5.95152C32.2395 6.63472 32.3759 7.69746 31.7134 9.34852" stroke="white" stroke-miterlimit="10" stroke-linecap="round"/>
<path d="M36.0227 2.23349C35.4771 3.2393 35.3796 4.0933 35.3601 4.60569C35.3407 5.51662 35.5745 6.23777 35.9252 7.24358C36.3539 8.55304 36.5878 8.62895 36.6852 9.31214C36.7826 9.95738 36.7437 10.9063 35.9837 12.1967" stroke="white" stroke-miterlimit="10" stroke-linecap="round"/>
<path d="M32.02 34.654C34.1917 34.654 35.9523 32.9571 35.9523 30.8638C35.9523 28.7705 34.1917 27.0736 32.02 27.0736C29.8482 27.0736 28.0876 28.7705 28.0876 30.8638C28.0876 32.9571 29.8482 34.654 32.02 34.654Z" stroke="white" stroke-miterlimit="10"/>
<path d="M8.42675 31.4047C8.737 31.4047 8.98851 31.1623 8.98851 30.8633C8.98851 30.5642 8.737 30.3218 8.42675 30.3218C8.1165 30.3218 7.86499 30.5642 7.86499 30.8633C7.86499 31.1623 8.1165 31.4047 8.42675 31.4047Z" stroke="white" stroke-miterlimit="10"/>
<path d="M32.0204 31.4047C32.3306 31.4047 32.5821 31.1623 32.5821 30.8633C32.5821 30.5642 32.3306 30.3218 32.0204 30.3218C31.7101 30.3218 31.4586 30.5642 31.4586 30.8633C31.4586 31.1623 31.7101 31.4047 32.0204 31.4047Z" stroke="white" stroke-miterlimit="10"/>
</g>
<defs>
<clipPath id="clip0_347_3711">
<rect width="41.0086" height="35.736" fill="white"/>
</clipPath>
</defs>
</svg>
