<svg width="32" height="37" viewBox="0 0 32 37" fill="none" xmlns="http://www.w3.org/2000/svg">
<path d="M22.6249 19.9143C20.7094 19.9143 20.3398 18.82 18.7268 18.8955C16.9458 18.9709 15.6688 20.3671 15.3664 20.7067C13.2829 23.0085 13.5854 26.3669 13.6526 27.1216C13.955 30.6309 16.1393 33.612 18.8276 34.9704C18.8948 35.0082 19.0292 35.0836 19.1972 35.1591C22.1544 36.5175 24.9771 35.4232 25.246 35.31C27.9679 34.2157 29.3121 31.9516 29.6817 31.2724C30.2194 30.3668 31.4627 28.1027 31.0259 25.1971C30.9587 24.8575 30.5218 22.2161 28.64 20.6313C27.4302 19.6501 25.9853 19.386 25.75 19.3483C25.6492 19.3483 25.582 19.3483 25.5148 19.3483C24.137 19.3105 24.0362 19.9143 22.6249 19.9143Z" stroke="white" stroke-miterlimit="10" stroke-linecap="round"/>
<path d="M25.1147 14.1387C24.5435 15.0066 23.8715 16.101 23.3338 17.4594C22.9978 18.2896 22.729 19.082 22.5273 19.799" stroke="white" stroke-miterlimit="10" stroke-linecap="round"/>
<path d="M27.533 27.9498C27.2641 28.5159 26.8609 29.2705 26.2224 30.063C25.6176 30.7799 25.0127 31.2705 24.5422 31.6101" stroke="white" stroke-miterlimit="10" stroke-linecap="round"/>
<path d="M27.0962 23.725C27.197 23.7628 27.533 23.9514 27.7683 24.3665C28.0035 24.8571 27.9363 25.3099 27.9363 25.4231" stroke="white" stroke-miterlimit="10" stroke-linecap="round"/>
<path d="M23.0968 17.4198C23.8361 16.8915 23.8698 15.6463 23.8698 15.2312C23.9034 13.5331 22.9288 12.2879 22.6264 11.9105C21.5174 10.5144 19.8036 9.72192 19.8036 9.72192C19.5348 10.2502 19.1315 11.2313 19.0643 12.4766C18.9971 13.3067 18.8963 14.8916 19.8372 16.1368C20.6101 17.1934 22.1559 18.0613 23.0968 17.4198Z" stroke="white" stroke-miterlimit="10" stroke-linecap="round"/>
<path d="M21.5182 13.6493C21.7534 13.838 22.1231 14.2153 22.3919 14.7813C22.896 15.8756 22.7615 17.0454 22.7279 17.4227" stroke="white" stroke-miterlimit="10" stroke-linecap="round"/>
<path d="M19.469 18.9715C18.3601 16.9338 17.3183 15.9527 16.8143 15.4999C16.7471 15.4622 16.7135 15.4245 16.6462 15.349C14.8316 13.8773 14.4284 13.9528 14.0587 13.2736C13.8907 12.9717 13.7899 12.5566 13.5883 11.7642C13.4202 11.085 13.4874 11.085 13.353 10.6699C13.017 9.53788 12.4793 8.78319 12.3449 8.63225C11.8744 8.0285 11.404 7.68889 11.236 7.57568C11.1352 7.50021 9.52214 6.44365 7.6067 7.00966C7.50589 7.0474 7.40508 7.08513 7.33788 7.12287C6.80021 7.31154 5.9601 7.61342 5.18721 8.44358C5.12 8.51904 3.67502 10.1794 3.80943 12.4057C3.87664 13.6887 4.44791 15.5377 4.41431 16.481C4.41431 16.9716 4.3135 17.3867 4.3135 17.3867C4.07827 18.481 3.70862 18.6319 2.96933 20.2922C2.80131 20.6696 1.96121 22.594 1.69237 24.2166C1.28912 26.9712 2.33084 30.5183 4.75035 32.5937C6.59858 34.1785 8.58123 34.254 10.127 34.3672C12.8826 34.5181 15.0668 33.688 16.243 33.0842" stroke="white" stroke-miterlimit="10" stroke-linecap="round"/>
<path d="M7.6748 1.45801V8.51447" stroke="white" stroke-miterlimit="10" stroke-linecap="round"/>
<path d="M7.43831 4.85548C7.70713 4.02532 7.13588 3.08196 6.93426 2.78008C6.12778 1.49711 4.78365 1.23297 4.38041 1.11976C2.86825 0.780154 1.22168 1.2707 1.22168 1.2707C1.28889 1.83672 1.49051 2.78008 2.06176 3.76118C2.4314 4.40266 3.13707 5.61017 4.414 5.94978C5.52291 6.25165 7.10227 5.91204 7.43831 4.85548Z" stroke="white" stroke-miterlimit="10"/>
<path d="M4.95264 3.42377L7.27136 5.23499" stroke="white" stroke-miterlimit="10" stroke-linecap="round"/>
</svg>
