<svg width="23" height="23" viewBox="0 0 23 23" fill="none" xmlns="http://www.w3.org/2000/svg">
<path d="M3.33919 16.7779C3.04593 16.3663 2.70379 15.79 2.36165 15.0765C1.6285 13.5122 1.45743 12.1676 1.40855 11.7834C1.3108 11.0699 1.11529 9.2861 1.82401 7.17303C2.48384 5.19718 3.60802 4.04459 4.26786 3.38597C4.82994 2.80968 5.83192 1.84919 7.42042 1.2729C7.95807 1.0808 9.35106 0.614283 11.0618 0.971035C12.2592 1.21802 13.0657 1.76687 13.3101 1.93152C14.1899 2.5627 14.6298 3.2762 14.7275 3.44086C15.0208 3.90738 15.2652 4.34646 15.2163 4.92275C15.2163 5.00508 15.143 5.71858 14.6787 6.10278C14.3121 6.40464 14.0188 6.23999 13.8477 6.54186C13.6767 6.81628 13.8966 7.03582 13.7989 7.61211C13.7989 7.667 13.6767 8.24329 13.2857 8.68237C12.8702 9.14889 12.5525 9.01168 12.3326 9.39587C12.1615 9.69774 12.1371 10.1643 12.3081 10.4936C12.4792 10.8229 12.8702 10.9327 13.6278 11.0973C14.2388 11.2345 14.3365 11.1522 14.7031 11.2894C15.2652 11.4815 15.5584 11.8108 15.9495 12.1401C16.7559 12.8262 17.5868 13.0457 18.1734 13.2104C18.7354 13.375 19.8107 13.6495 20.9838 13.2104C21.3748 13.0732 22.2302 12.7439 22.3035 12.1401C22.3279 11.8657 22.2057 11.5638 21.3259 10.7131C20.4461 9.8624 19.7619 9.36843 19.3953 9.06656C19.0531 8.79214 18.4666 8.1884 17.2691 6.98094C16.5604 6.26743 15.9739 5.69114 15.5829 5.2795" stroke="white" stroke-miterlimit="10" stroke-linecap="round"/>
<path d="M15.5828 7.74955L16.6092 8.84728" stroke="white" stroke-miterlimit="10" stroke-linecap="round"/>
<path d="M18.9069 21.7449C18.687 21.1412 18.2715 20.2356 17.5628 19.33C17.2695 18.9458 16.7563 18.3695 14.1903 16.5583C12.9684 15.6801 12.5285 15.4057 11.5265 14.6647C10.2313 13.7042 9.35147 13.0456 9.3026 12.0851C9.27816 11.4265 9.66917 10.6856 10.2557 10.3288C10.94 9.88972 11.6487 10.1641 11.7709 10.1916" stroke="white" stroke-miterlimit="10" stroke-linecap="round"/>
<path d="M4.31677 17.8212C4.56116 18.0133 4.82999 18.2328 5.09881 18.4798C5.3432 18.7268 5.56315 18.9463 5.75866 19.1933" stroke="white" stroke-miterlimit="10" stroke-linecap="round"/>
</svg>
