<svg width="22" height="24" viewBox="0 0 22 24" fill="none" xmlns="http://www.w3.org/2000/svg">
<path d="M15.4268 13.1146C14.1838 13.1146 13.9439 12.4045 12.8972 12.4534C11.7414 12.5024 10.9127 13.4084 10.7165 13.6288C9.36446 15.1226 9.56072 17.3019 9.60433 17.7917C9.8006 20.069 11.218 22.0035 12.9626 22.8851C13.0062 22.9095 13.0934 22.9585 13.2025 23.0075C15.1215 23.889 16.9532 23.1789 17.1277 23.1054C18.8941 22.3953 19.7663 20.9261 20.0062 20.4853C20.3551 19.8976 21.162 18.4284 20.8785 16.5428C20.8349 16.3224 20.5514 14.6083 19.3302 13.5799C18.5452 12.9432 17.6075 12.7718 17.4548 12.7473C17.3894 12.7473 17.3458 12.7473 17.3022 12.7473C16.4081 12.7228 16.3427 13.1146 15.4268 13.1146Z" stroke="white" stroke-miterlimit="10" stroke-linecap="round"/>
<path d="M17.0426 9.36662C16.6719 9.92984 16.2358 10.64 15.8869 11.5215C15.6688 12.0603 15.4944 12.5745 15.3635 13.0398" stroke="white" stroke-miterlimit="10" stroke-linecap="round"/>
<path d="M18.6118 18.3291C18.4374 18.6965 18.1757 19.1862 17.7614 19.7004C17.3688 20.1657 16.9763 20.484 16.671 20.7044" stroke="white" stroke-miterlimit="10" stroke-linecap="round"/>
<path d="M18.3284 15.5875C18.3938 15.612 18.6119 15.7344 18.7645 16.0038C18.9172 16.3221 18.8735 16.616 18.8735 16.6895" stroke="white" stroke-miterlimit="10" stroke-linecap="round"/>
<path d="M15.733 11.4958C16.2128 11.153 16.2346 10.3449 16.2346 10.0756C16.2564 8.97363 15.624 8.16554 15.4277 7.92067C14.7081 7.01463 13.5959 6.5004 13.5959 6.5004C13.4215 6.84322 13.1598 7.4799 13.1162 8.28798C13.0726 8.82671 13.0071 9.85518 13.6177 10.6633C14.1193 11.3489 15.1224 11.9121 15.733 11.4958Z" stroke="white" stroke-miterlimit="10" stroke-linecap="round"/>
<path d="M14.7086 9.049C14.8613 9.17144 15.1011 9.41631 15.2756 9.78362C15.6027 10.4937 15.5155 11.2529 15.4937 11.4977" stroke="white" stroke-miterlimit="10" stroke-linecap="round"/>
<path d="M13.3789 12.5028C12.6592 11.1805 11.9832 10.5438 11.6561 10.2499C11.6125 10.2255 11.5907 10.201 11.5471 10.152C10.3695 9.19699 10.1078 9.24597 9.86794 8.8052C9.75891 8.6093 9.69349 8.33994 9.56265 7.82571C9.45361 7.38493 9.49722 7.38494 9.41 7.11558C9.19193 6.38096 8.84301 5.89121 8.75579 5.79326C8.45049 5.40146 8.14519 5.18108 8.03616 5.10762C7.97074 5.05864 6.924 4.373 5.681 4.74031C5.61558 4.76479 5.55016 4.78928 5.50655 4.81377C5.15764 4.93621 4.61246 5.1321 4.1109 5.67082C4.06729 5.7198 3.12959 6.79724 3.21681 8.24199C3.26043 9.07456 3.63114 10.2744 3.60934 10.8866C3.60934 11.205 3.54392 11.4743 3.54392 11.4743C3.39127 12.1844 3.15139 12.2824 2.67164 13.3598C2.5626 13.6047 2.01743 14.8536 1.84298 15.9065C1.58129 17.6941 2.2573 19.9959 3.82741 21.3427C5.02679 22.3712 6.3134 22.4201 7.31652 22.4936C9.1047 22.5915 10.5222 22.0528 11.2854 21.661" stroke="white" stroke-miterlimit="10" stroke-linecap="round"/>
<path d="M5.7251 1.13764V5.71683" stroke="white" stroke-miterlimit="10" stroke-linecap="round"/>
<path d="M5.57167 3.34238C5.74612 2.80366 5.37541 2.19148 5.24457 1.99558C4.72122 1.16302 3.84897 0.991605 3.58729 0.918143C2.606 0.697758 1.53748 1.01609 1.53748 1.01609C1.58109 1.3834 1.71193 1.99558 2.08264 2.63225C2.32251 3.04854 2.78044 3.83213 3.60909 4.05251C4.3287 4.24841 5.35361 4.02803 5.57167 3.34238Z" stroke="white" stroke-miterlimit="10"/>
<path d="M3.95862 2.41329L5.46332 3.58866" stroke="white" stroke-miterlimit="10" stroke-linecap="round"/>
</svg>
