<svg width="23" height="18" viewBox="0 0 23 18" fill="none" xmlns="http://www.w3.org/2000/svg">
<path d="M0.596934 6.7475L0.993538 14.2419L21.4781 16.7743L21.3393 13.9742C20.6651 14.0154 20.1099 13.4389 20.1099 12.78C20.1099 12.1624 20.5858 11.6271 21.2204 11.5859L21.0815 9.05345L9.71883 7.75635L7.16073 7.46811L0.596934 6.7475Z" stroke="white" stroke-miterlimit="10" stroke-linecap="round"/>
<path d="M15.3708 12.9444C14.4946 12.9444 13.7844 12.2069 13.7844 11.2973C13.7844 10.3876 14.4946 9.65016 15.3708 9.65016C16.2469 9.65016 16.9572 10.3876 16.9572 11.2973C16.9572 12.2069 16.2469 12.9444 15.3708 12.9444Z" stroke="white" stroke-miterlimit="10" stroke-linecap="round"/>
<path d="M10.0302 4.87185C9.99968 4.2814 10.569 3.76968 11.3017 3.72891C12.0345 3.68813 12.6532 4.13373 12.6837 4.72418C12.7142 5.31463 12.1449 5.82635 11.4121 5.86713C10.6794 5.9079 10.0606 5.4623 10.0302 4.87185Z" stroke="white" stroke-miterlimit="10" stroke-linecap="round"/>
<path d="M6.90376 8.41683C6.94342 9.26097 7.63746 9.89922 8.43064 9.83746C9.24366 9.79628 9.85837 9.07567 9.79888 8.25212C9.79888 8.08741 9.75922 7.9227 9.69973 7.77858L7.14172 7.49034C6.96325 7.75799 6.88393 8.08741 6.90376 8.41683Z" stroke="white" stroke-miterlimit="10" stroke-linecap="round"/>
<path d="M21.0626 8.72357L18.802 6.87058C17.87 7.59119 16.8586 7.44706 16.6008 6.99411C16.4025 6.6441 16.5612 6.06761 16.9379 5.55289L11.3657 1.08511C10.1759 1.08511 7.77643 1.22923 5.17868 2.64986C2.73957 3.96755 1.29198 5.75878 0.597924 6.74704" stroke="white" stroke-miterlimit="10" stroke-linecap="round"/>
<path d="M0.835742 11.4414L5.81311 12.3268" stroke="white" stroke-miterlimit="10" stroke-linecap="round"/>
<path d="M7.51905 12.6556L8.66919 12.8203" stroke="white" stroke-miterlimit="10" stroke-linecap="round"/>
</svg>
