<svg width="34" height="26" viewBox="0 0 34 26" fill="none" xmlns="http://www.w3.org/2000/svg">
<path d="M0.969115 9.72565L1.58028 21.2743L33.1467 25.1768L32.9328 20.8619C31.8938 20.9253 31.0382 20.037 31.0382 19.0217C31.0382 18.0699 31.7716 17.245 32.7495 17.1815L32.5356 13.2791L15.0258 11.2803L11.0838 10.8361L0.969115 9.72565Z" stroke="white" stroke-miterlimit="10" stroke-linecap="round"/>
<path d="M23.7354 19.2749C22.3852 19.2749 21.2908 18.1385 21.2908 16.7368C21.2908 15.335 22.3852 14.1986 23.7354 14.1986C25.0855 14.1986 26.1799 15.335 26.1799 16.7368C26.1799 18.1385 25.0855 19.2749 23.7354 19.2749Z" stroke="white" stroke-miterlimit="10" stroke-linecap="round"/>
<path d="M15.5056 6.83531C15.4586 5.92543 16.3359 5.13689 17.4651 5.07405C18.5942 5.01121 19.5477 5.69787 19.5946 6.60775C19.6416 7.51763 18.7643 8.30617 17.6352 8.36901C16.506 8.43185 15.5526 7.74519 15.5056 6.83531Z" stroke="white" stroke-miterlimit="10" stroke-linecap="round"/>
<path d="M10.6878 12.2981C10.7489 13.5989 11.8184 14.5824 13.0407 14.4872C14.2936 14.4238 15.2408 13.3133 15.1491 12.0443C15.1491 11.7904 15.088 11.5366 14.9964 11.3145L11.0545 10.8704C10.7795 11.2828 10.6573 11.7904 10.6878 12.2981Z" stroke="white" stroke-miterlimit="10" stroke-linecap="round"/>
<path d="M32.5063 12.7708L29.0227 9.91531C27.5865 11.0258 26.0281 10.8037 25.6308 10.1057C25.3252 9.56632 25.5697 8.67796 26.1503 7.88478L17.5635 1C15.73 1 12.0325 1.22209 8.02945 3.41126C4.27083 5.44179 2.04011 8.20205 0.970581 9.72495" stroke="white" stroke-miterlimit="10" stroke-linecap="round"/>
<path d="M1.33704 16.9589L9.00708 18.3232" stroke="white" stroke-miterlimit="10" stroke-linecap="round"/>
<path d="M11.636 18.83L13.4083 19.0838" stroke="white" stroke-miterlimit="10" stroke-linecap="round"/>
</svg>
