<svg width="34" height="34" viewBox="0 0 34 34" fill="none" xmlns="http://www.w3.org/2000/svg">
<path d="M3.85058 25.5594C3.39867 24.9251 2.87144 24.037 2.34421 22.9375C1.21443 20.5271 0.950816 18.4549 0.875498 17.8629C0.72486 16.7634 0.423586 14.0147 1.51571 10.7584C2.53251 7.71368 4.26484 5.93757 5.28164 4.92265C6.1478 4.03459 7.69184 2.5545 10.1397 1.66644C10.9682 1.37042 13.1148 0.651521 15.7509 1.20127C17.5962 1.58187 18.839 2.42763 19.2156 2.68136C20.5713 3.654 21.2492 4.7535 21.3998 5.00723C21.8517 5.72613 22.2283 6.40274 22.153 7.2908C22.153 7.41766 22.04 8.51716 21.3245 9.1092C20.7596 9.57437 20.3077 9.32064 20.0441 9.78581C19.7805 10.2087 20.1194 10.547 19.9688 11.4351C19.9688 11.5196 19.7805 12.4077 19.1779 13.0843C18.5377 13.8032 18.0482 13.5918 17.7092 14.1838C17.4456 14.649 17.4079 15.3679 17.6716 15.8753C17.9352 16.3828 18.5377 16.552 19.7052 16.8057C20.6466 17.0171 20.7973 16.8903 21.3622 17.1017C22.2283 17.3977 22.6802 17.9052 23.2828 18.4126C24.5256 19.4699 25.806 19.8082 26.7098 20.0619C27.576 20.3156 29.233 20.7385 31.0406 20.0619C31.6432 19.8505 32.9612 19.343 33.0742 18.4126C33.1119 17.9898 32.9236 17.5246 31.5678 16.2137C30.2121 14.9027 29.1577 14.1415 28.5928 13.6763C28.0655 13.2535 27.1617 12.3231 25.3164 10.4624C24.2243 9.36293 23.3205 8.47487 22.7179 7.84055" stroke="white" stroke-miterlimit="10" stroke-linecap="round"/>
<path d="M22.7177 11.6469L24.2993 13.3384" stroke="white" stroke-miterlimit="10" stroke-linecap="round"/>
<path d="M27.8401 33.2135C27.5012 32.2832 26.8609 30.8876 25.7688 29.4921C25.3169 28.9001 24.5261 28.012 20.5719 25.221C18.6889 23.8677 18.011 23.4448 16.467 22.303C14.4711 20.8229 13.1153 19.808 13.04 18.3279C13.0023 17.313 13.6049 16.1712 14.5087 15.6214C15.5632 14.9448 16.6553 15.3677 16.8436 15.41" stroke="white" stroke-miterlimit="10" stroke-linecap="round"/>
<path d="M5.35706 27.1671C5.73365 27.4631 6.14791 27.8014 6.56217 28.182C6.93876 28.5626 7.2777 28.9009 7.57898 29.2815" stroke="white" stroke-miterlimit="10" stroke-linecap="round"/>
</svg>
