<svg width="192" height="192" viewBox="0 0 192 192" fill="none" xmlns="http://www.w3.org/2000/svg">
<circle cx="96" cy="96" r="93" stroke="none" stroke-width="6"/>
<path d="M54.69 130C55.11 125.56 55.95 121.36 57.21 117.4C58.53 113.44 60 109.84 61.62 106.6C63.3 103.36 65.49 99.34 68.19 94.54C71.37 88.96 73.92 84.22 75.84 80.32C77.76 76.36 79.38 72.04 80.7 67.36H50.55L48.12 78.07H45.78V58H85.29C84.57 64.18 83.46 70 81.96 75.46C80.46 80.86 78.42 87.4 75.84 95.08C73.26 102.46 71.25 108.73 69.81 113.89C68.43 118.99 67.5 124.36 67.02 130H54.69ZM118.32 131.8C113.1 131.8 108.54 130.39 104.64 127.57C100.74 124.75 97.71 120.52 95.55 114.88C93.39 109.18 92.31 102.22 92.31 94C92.31 85.78 93.39 78.85 95.55 73.21C97.71 67.51 100.74 63.25 104.64 60.43C108.54 57.61 113.1 56.2 118.32 56.2C123.54 56.2 128.1 57.61 132 60.43C135.9 63.25 138.93 67.51 141.09 73.21C143.25 78.85 144.33 85.78 144.33 94C144.33 102.22 143.25 109.18 141.09 114.88C138.93 120.52 135.9 124.75 132 127.57C128.1 130.39 123.54 131.8 118.32 131.8ZM118.32 129.73C122.82 129.73 126.36 127.54 128.94 123.16C131.52 118.78 132.81 111.94 132.81 102.64V85.27C132.81 76.03 131.52 69.22 128.94 64.84C126.36 60.46 122.82 58.27 118.32 58.27C113.82 58.27 110.28 60.46 107.7 64.84C105.12 69.22 103.83 76.03 103.83 85.27V102.64C103.83 111.88 105.12 118.72 107.7 123.16C110.28 127.54 113.82 129.73 118.32 129.73Z" fill="#003F80"/>
</svg>
