<svg width="317" height="278" viewBox="0 0 317 278" fill="none" xmlns="http://www.w3.org/2000/svg">
<g clip-path="url(#clip0_414_8954)">
<path d="M255.318 173.186L51.3666 176.094C49.4751 119.854 93.5772 73.6838 149.976 72.8465C206.276 72.119 253.427 116.946 255.318 173.186Z" stroke="#003F80" stroke-width="10" stroke-miterlimit="10"/>
<path d="M40.4786 181.017L264.078 177.863" stroke="#003F80" stroke-width="10" stroke-miterlimit="10" stroke-linecap="round"/>
<path d="M148.876 71.3816C153.906 71.3106 157.85 67.1872 157.685 62.1717C157.52 57.1563 153.308 53.1479 148.278 53.2189C143.248 53.2899 139.304 57.4133 139.469 62.4287C139.634 67.4442 143.845 71.4525 148.876 71.3816Z" stroke="#003F80" stroke-width="10" stroke-miterlimit="10"/>
<path d="M89.3679 138.73C92.0245 133.97 96.0899 128.093 101.941 122.03C109.483 114.309 117.114 109.643 122.842 106.644" stroke="#003F80" stroke-width="10" stroke-miterlimit="10" stroke-linecap="round"/>
<path d="M36.6797 205.665H279.858" stroke="#003F80" stroke-width="10" stroke-miterlimit="10" stroke-linecap="round"/>
<path d="M110.977 219.865L208.236 218.831" stroke="#003F80" stroke-width="10" stroke-miterlimit="10" stroke-linecap="round"/>
<path d="M135.849 232.844L180.747 233.434" stroke="#003F80" stroke-width="10" stroke-miterlimit="10" stroke-linecap="round"/>
<path d="M65.1434 269.581C81.9313 269.581 95.5406 256.38 95.5406 240.096C95.5406 223.812 81.9313 210.612 65.1434 210.612C48.3554 210.612 34.7461 223.812 34.7461 240.096C34.7461 256.38 48.3554 269.581 65.1434 269.581Z" stroke="#003F80" stroke-width="10" stroke-miterlimit="10"/>
<path d="M245.599 15.4445C242.586 19.1353 239.272 24.45 239.724 30.7982C240.176 37.294 244.394 40.2466 246.954 46.2995C249.214 51.6143 250.268 59.8817 245.147 72.7256" stroke="#003F80" stroke-width="10" stroke-miterlimit="10" stroke-linecap="round"/>
<path d="M278.458 17.375C274.241 25.1995 273.488 31.8429 273.337 35.829C273.186 42.9153 274.994 48.5253 277.705 56.3498C281.019 66.5364 282.827 67.1269 283.58 72.4417C284.333 77.4612 284.032 84.8428 278.157 94.8817" stroke="#003F80" stroke-width="10" stroke-miterlimit="10" stroke-linecap="round"/>
<path d="M247.519 269.581C264.307 269.581 277.917 256.38 277.917 240.096C277.917 223.812 264.307 210.612 247.519 210.612C230.731 210.612 217.122 223.812 217.122 240.096C217.122 256.38 230.731 269.581 247.519 269.581Z" stroke="#003F80" stroke-width="10" stroke-miterlimit="10"/>
<path d="M65.1393 244.313C67.5376 244.313 69.4818 242.427 69.4818 240.101C69.4818 237.775 67.5376 235.889 65.1393 235.889C62.7411 235.889 60.7969 237.775 60.7969 240.101C60.7969 242.427 62.7411 244.313 65.1393 244.313Z" stroke="#003F80" stroke-width="10" stroke-miterlimit="10"/>
<path d="M247.514 244.313C249.913 244.313 251.857 242.427 251.857 240.101C251.857 237.775 249.913 235.889 247.514 235.889C245.116 235.889 243.172 237.775 243.172 240.101C243.172 242.427 245.116 244.313 247.514 244.313Z" stroke="#003F80" stroke-width="10" stroke-miterlimit="10"/>
</g>
<defs>
<clipPath id="clip0_414_8954">
<rect width="317" height="278" fill="white"/>
</clipPath>
</defs>
</svg>
