<svg width="18" height="18" viewBox="0 0 18 18" fill="none" xmlns="http://www.w3.org/2000/svg">
<path d="M12.75 8C13.3023 8 13.75 8.44772 13.75 9C13.75 9.55228 13.3023 10 12.75 10V8ZM2.25 10C1.69771 10 1.25 9.55228 1.25 9C1.25 8.44772 1.69771 8 2.25 8V10ZM12.75 10H2.25V8H12.75V10Z" fill="#06417D"/>
<path d="M16.2152 8.79657L12.515 6.15356C11.9855 5.77535 11.25 6.15385 11.25 6.80455V11.1954C11.25 11.8461 11.9855 12.2246 12.515 11.8464L16.2152 9.20343C16.3548 9.10373 16.3548 8.89627 16.2152 8.79657Z" fill="#06417D"/>
</svg>
