<svg width="34" height="31" viewBox="0 0 34 31" fill="none" xmlns="http://www.w3.org/2000/svg">
<path d="M15.1171 4.29407C14.1964 4.9861 13.4121 5.78886 12.7642 6.64699" stroke="#06417D" stroke-miterlimit="10" stroke-linecap="round"/>
<path d="M23.1124 22.4162C25.6126 22.5105 27.828 22.8247 30.3599 22.5105C30.9929 22.1962 30.9929 21.5677 30.9929 20.9392C30.3599 18.4252 30.3599 16.2254 30.6764 14.0256C30.9929 12.7686 32.5753 12.1401 32.8918 10.5688C33.5247 6.79774 31.3093 3.65519 28.1445 2.08391C24.3467 0.512636 19.9159 0.512636 16.5295 2.99525" stroke="#06417D" stroke-miterlimit="10" stroke-linecap="round"/>
<path d="M15.5773 11.4067C12.8481 10.4431 13.0086 8.51585 10.3436 7.80091C7.48594 7.0238 4.88514 8.6091 4.53195 8.82669C2.50911 10.0701 1.03211 12.3392 1 14.6395C1 16.8775 2.41278 17.0951 3.08706 19.986C3.95399 23.7782 1.89904 25.0838 3.08706 27.2597C4.40351 29.6221 8.4492 30.8033 11.1784 29.8397C13.105 29.1558 12.8481 27.9435 15.3526 26.9799C17.6002 26.1096 18.9487 26.638 20.1046 25.4257C20.7468 24.7418 20.522 24.3378 21.1642 22.8457C22.3201 20.0481 23.7329 19.9549 24.3109 18.152C24.9851 16.0382 24.054 13.0542 22.1275 11.904C20.1046 10.6296 18.5955 12.4636 15.5773 11.4067Z" stroke="#06417D" stroke-miterlimit="10" stroke-linecap="round"/>
<path d="M12.0584 23.5882C14.5275 23.5882 16.529 21.5867 16.529 19.1176C16.529 16.6486 14.5275 14.6471 12.0584 14.6471C9.58943 14.6471 7.58789 16.6486 7.58789 19.1176C7.58789 21.5867 9.58943 23.5882 12.0584 23.5882Z" stroke="#06417D" stroke-miterlimit="10" stroke-linecap="round"/>
<path d="M12.7642 20.7647C12.9817 20.7346 13.7068 20.5544 14.2144 19.9837C15.012 19.0826 14.4681 18.0012 14.4319 17.9412" stroke="#06417D" stroke-miterlimit="10" stroke-linecap="round"/>
<path d="M13.2351 16.9999C13.2047 16.9499 13.1137 16.7498 12.8708 16.6247C12.5975 16.4997 12.3547 16.5247 12.2939 16.5497" stroke="#06417D" stroke-miterlimit="10" stroke-linecap="round"/>
</svg>
