<svg width="34" height="31" viewBox="0 0 34 31" fill="none" xmlns="http://www.w3.org/2000/svg">
<path d="M9.56394 10.9238C9.75752 11.1207 10.0741 11.1234 10.271 10.9299C10.4679 10.7363 10.4707 10.4197 10.2771 10.2228L9.56394 10.9238ZM8.92059 8.37929L9.4187 8.42281L9.41885 8.42097L8.92059 8.37929ZM10.1558 6.14541L9.70706 5.92486L10.1558 6.14541ZM10.2918 2.15714C10.171 1.90878 9.87185 1.80532 9.62349 1.92604C9.37514 2.04677 9.27168 2.34597 9.3924 2.59432L10.2918 2.15714ZM14.2796 9.17666C14.4884 9.3574 14.8042 9.33469 14.9849 9.12591C15.1657 8.91714 15.143 8.60138 14.9342 8.42063L14.2796 9.17666ZM13.4893 6.94372L13.9887 6.91918L13.9886 6.91646L13.4893 6.94372ZM14.4305 4.8694L14.0271 4.57393L14.0233 4.57922L14.4305 4.8694ZM15.7245 3.25383L15.2531 3.08701L15.2512 3.09276L15.7245 3.25383ZM14.8562 0.60623C14.6388 0.436054 14.3245 0.474395 14.1543 0.691868C13.9842 0.90934 14.0225 1.22359 14.24 1.39377L14.8562 0.60623ZM18.9756 10.9238C19.1692 11.1207 19.4858 11.1234 19.6827 10.9299C19.8796 10.7363 19.8823 10.4197 19.6888 10.2228L18.9756 10.9238ZM18.3323 8.37929L18.8304 8.42281L18.8305 8.42097L18.3323 8.37929ZM19.5675 6.14541L19.1187 5.92486L19.5675 6.14541ZM19.7034 2.15714C19.5827 1.90878 19.2835 1.80532 19.0352 1.92604C18.7868 2.04677 18.6833 2.34597 18.8041 2.59432L19.7034 2.15714ZM27.7827 16.3374L28.2827 16.3361L28.2807 15.5879L27.5902 15.876L27.7827 16.3374ZM14.4501 19.05L14.4518 19.55H14.4518L14.4501 19.05ZM1 16.3973L1.18961 15.9346L0.498043 15.6512L0.500002 16.3986L1 16.3973ZM14.4109 30V30.5L14.4123 30.5L14.4109 30ZM23.9194 20.318C24.0142 20.0586 23.8807 19.7716 23.6213 19.6769C23.3619 19.5821 23.0748 19.7156 22.9801 19.975L23.9194 20.318ZM22.1557 22.6397L21.7471 22.3515L21.7438 22.3563L22.1557 22.6397ZM19.4622 24.7539C19.2419 24.9204 19.1983 25.2339 19.3647 25.4543C19.5312 25.6746 19.8448 25.7182 20.0651 25.5517L19.4622 24.7539ZM18.5967 26.5228C18.8572 26.4311 18.994 26.1455 18.9023 25.8851C18.8105 25.6246 18.525 25.4878 18.2646 25.5795L18.5967 26.5228ZM16.7548 26.118C16.4944 26.2098 16.3576 26.4953 16.4493 26.7557C16.541 27.0162 16.8265 27.153 17.087 27.0613L16.7548 26.118ZM3.13696 29.4806C2.86082 29.4806 2.63696 29.7044 2.63696 29.9806C2.63696 30.2567 2.86082 30.4806 3.13696 30.4806V29.4806ZM24.5474 30.4806C24.8235 30.4806 25.0474 30.2567 25.0474 29.9806C25.0474 29.7044 24.8235 29.4806 24.5474 29.4806V30.4806ZM20.3909 14.8611L20.0149 14.5316L19.3029 15.3442L20.3831 15.3611L20.3909 14.8611ZM28.6845 5.24746L28.2938 4.93541L28.2911 4.93895L28.6845 5.24746ZM30.8413 3.77151L30.9262 4.26424L30.9389 4.26204L30.9515 4.2592L30.8413 3.77151ZM32.7627 4.32998L33.1679 4.03708L33.1677 4.03667L32.7627 4.32998ZM32.7823 6.12506L33.2455 6.31345L33.2486 6.30578L33.2515 6.298L32.7823 6.12506ZM30.8021 7.9002L31.0035 8.3578L31.0101 8.35493L31.0165 8.35188L30.8021 7.9002ZM22.9398 14.901L22.932 15.401L23.1606 15.4045L23.3128 15.234L22.9398 14.901ZM10.2771 10.2228C9.7866 9.72381 9.3606 9.0877 9.41869 8.42281L8.42249 8.33577C8.32373 9.46596 9.03489 10.3856 9.56394 10.9238L10.2771 10.2228ZM9.41885 8.42097C9.44659 8.08939 9.58327 7.84107 9.80794 7.5371C10.0207 7.24926 10.3624 6.85859 10.6045 6.36596L9.70706 5.92486C9.51785 6.30982 9.28117 6.56738 9.00375 6.94272C8.73826 7.30193 8.47302 7.73176 8.42233 8.3376L9.41885 8.42097ZM10.6045 6.36596C11.0533 5.45287 11.2329 4.09315 10.2918 2.15714L9.3924 2.59432C10.2159 4.28837 10.0033 5.3221 9.70706 5.92486L10.6045 6.36596ZM14.9342 8.42063C14.1033 7.70131 14.0009 7.16595 13.9887 6.91918L12.9899 6.96827C13.017 7.51932 13.2675 8.30034 14.2796 9.17666L14.9342 8.42063ZM13.9886 6.91646C13.9609 6.40931 14.2349 6.00534 14.8376 5.15959L14.0233 4.57922C13.4889 5.32909 12.9394 6.04207 12.9901 6.97099L13.9886 6.91646ZM14.8338 5.16485C15.1834 4.68763 15.4407 4.43528 15.6473 4.22514C15.8597 4.00907 16.0701 3.79021 16.1978 3.4149L15.2512 3.09276C15.2024 3.23602 15.1384 3.31635 14.9341 3.52412C14.7241 3.73782 14.4226 4.03397 14.0271 4.57396L14.8338 5.16485ZM16.1959 3.42063C16.3226 3.06252 16.3496 2.62001 16.1419 2.1216C15.9407 1.63858 15.5331 1.13586 14.8562 0.60623L14.24 1.39377C14.8376 1.86141 15.1064 2.23629 15.2188 2.5062C15.3249 2.76073 15.3029 2.9465 15.2531 3.08702L16.1959 3.42063ZM19.6888 10.2228C19.1983 9.72381 18.7723 9.0877 18.8304 8.42281L17.8342 8.33577C17.7354 9.46596 18.4466 10.3856 18.9756 10.9238L19.6888 10.2228ZM18.8305 8.42097C18.8583 8.08939 18.9949 7.84107 19.2196 7.5371C19.4324 7.24926 19.7741 6.85859 20.0162 6.36596L19.1187 5.92486C18.9295 6.30982 18.6928 6.56738 18.4154 6.94272C18.1499 7.30193 17.8847 7.73176 17.834 8.3376L18.8305 8.42097ZM20.0162 6.36596C20.465 5.45287 20.6445 4.09315 19.7034 2.15714L18.8041 2.59432C19.6275 4.28837 19.415 5.3221 19.1187 5.92486L20.0162 6.36596ZM6.535 15.4398C6.535 15.4141 6.55772 15.3786 6.6036 15.3786V16.3786C7.12599 16.3786 7.535 15.9502 7.535 15.4398H6.535ZM6.6036 15.3786C6.64948 15.3786 6.67221 15.4141 6.67221 15.4398H5.67221C5.67221 15.9502 6.08122 16.3786 6.6036 16.3786V15.3786ZM6.67221 15.4398C6.67221 15.4656 6.64948 15.501 6.6036 15.501V14.501C6.08122 14.501 5.67221 14.9294 5.67221 15.4398H6.67221ZM6.6036 15.501C6.55772 15.501 6.535 15.4656 6.535 15.4398H7.535C7.535 14.9294 7.12599 14.501 6.6036 14.501V15.501ZM18.3184 16.5525C18.3184 16.5574 18.3175 16.5605 18.3166 16.5627C18.3156 16.5651 18.3142 16.5671 18.3128 16.5686C18.3114 16.57 18.3106 16.5703 18.311 16.5701C18.3118 16.5698 18.3127 16.5697 18.3125 16.5697V17.5697C18.8784 17.5697 19.3184 17.1038 19.3184 16.5525H18.3184ZM18.3125 16.5697C18.3124 16.5697 18.3133 16.5698 18.3141 16.5701C18.3145 16.5703 18.3137 16.57 18.3123 16.5686C18.3109 16.5671 18.3095 16.5651 18.3085 16.5627C18.3076 16.5605 18.3067 16.5574 18.3067 16.5525H17.3067C17.3067 17.1038 17.7467 17.5697 18.3125 17.5697V16.5697ZM18.3067 16.5525C18.3067 16.5477 18.3076 16.5445 18.3085 16.5424C18.3095 16.5399 18.3109 16.5379 18.3123 16.5365C18.3137 16.535 18.3145 16.5348 18.3141 16.535C18.3133 16.5353 18.3124 16.5354 18.3125 16.5354V15.5354C17.7467 15.5354 17.3067 16.0012 17.3067 16.5525H18.3067ZM18.3125 16.5354C18.3127 16.5354 18.3118 16.5353 18.311 16.535C18.3106 16.5348 18.3114 16.535 18.3128 16.5365C18.3142 16.5379 18.3156 16.5399 18.3166 16.5424C18.3175 16.5445 18.3184 16.5477 18.3184 16.5525H19.3184C19.3184 16.0012 18.8784 15.5354 18.3125 15.5354V16.5354ZM10.3817 16.6323C10.3817 16.4084 10.5624 16.2121 10.8033 16.2121V17.2121C11.1308 17.2121 11.3817 16.9444 11.3817 16.6323H10.3817ZM10.8033 16.2121C11.0442 16.2121 11.2248 16.4084 11.2248 16.6323H10.2248C10.2248 16.9444 10.4757 17.2121 10.8033 17.2121V16.2121ZM11.2248 16.6323C11.2248 16.8563 11.0441 17.0526 10.8033 17.0526V16.0526C10.4758 16.0526 10.2248 16.3202 10.2248 16.6323H11.2248ZM10.8033 17.0526C10.5624 17.0526 10.3817 16.8563 10.3817 16.6323H11.3817C11.3817 16.3203 11.1307 16.0526 10.8033 16.0526V17.0526ZM13.6561 14.4256C13.6561 14.4109 13.67 14.3843 13.7052 14.3843V15.3843C14.2384 15.3843 14.6561 14.9469 14.6561 14.4256H13.6561ZM13.7052 14.3843C13.7403 14.3843 13.7542 14.4109 13.7542 14.4256H12.7542C12.7542 14.9469 13.1719 15.3843 13.7052 15.3843V14.3843ZM13.7542 14.4256C13.7542 14.4402 13.7403 14.4668 13.7052 14.4668V13.4668C13.1719 13.4668 12.7542 13.9042 12.7542 14.4256H13.7542ZM13.7052 14.4668C13.67 14.4668 13.6561 14.4402 13.6561 14.4256H14.6561C14.6561 13.9042 14.2384 13.4668 13.7052 13.4668V14.4668ZM15.0952 16.9714C15.0952 16.9347 15.1267 16.8903 15.1834 16.8903V17.8903C15.695 17.8903 16.0952 17.4708 16.0952 16.9714H15.0952ZM15.1834 16.8903C15.2402 16.8903 15.2717 16.9347 15.2717 16.9714H14.2717C14.2717 17.4708 14.6719 17.8903 15.1834 17.8903V16.8903ZM15.2717 16.9714C15.2717 17.0082 15.2402 17.0526 15.1834 17.0526V16.0526C14.6719 16.0526 14.2717 16.472 14.2717 16.9714H15.2717ZM15.1834 17.0526C15.1267 17.0526 15.0952 17.0082 15.0952 16.9714H16.0952C16.0952 16.472 15.695 16.0526 15.1834 16.0526V17.0526ZM27.5902 15.876C24.9023 16.9972 20.3223 18.5303 14.4485 18.55L14.4518 19.55C20.4988 19.5298 25.2124 17.9514 27.9752 16.7989L27.5902 15.876ZM14.4485 18.55C8.51651 18.5697 3.87816 17.0365 1.18961 15.9346L0.810388 16.8599C3.57249 17.9919 8.34532 19.5702 14.4518 19.55L14.4485 18.55ZM0.500002 16.3986C0.52031 24.1458 6.77498 30.5 14.4109 30.5V29.5C7.34192 29.5 1.5189 23.6077 1.5 16.396L0.500002 16.3986ZM14.4123 30.5C22.0871 30.4793 28.303 24.1446 28.2827 16.3361L27.2827 16.3387C27.3016 23.609 21.5182 29.4808 14.4096 29.5L14.4123 30.5ZM22.9801 19.975C22.7358 20.6441 22.3621 21.4794 21.7471 22.3515L22.5643 22.9279C23.2434 21.965 23.6539 21.0452 23.9194 20.318L22.9801 19.975ZM21.7438 22.3563C20.9568 23.5 20.1151 24.2605 19.4622 24.7539L20.0651 25.5517C20.7847 25.0079 21.7077 24.1728 22.5676 22.9231L21.7438 22.3563ZM18.2646 25.5795C18.008 25.6699 17.7566 25.7601 17.5068 25.8498C17.2566 25.9396 17.0081 26.0289 16.7548 26.118L17.087 27.0613C17.3435 26.9709 17.595 26.8807 17.8447 26.791C18.0949 26.7012 18.3435 26.6119 18.5967 26.5228L18.2646 25.5795ZM3.13696 30.4806H24.5474V29.4806H3.13696V30.4806ZM20.767 15.1906C24.7782 10.6125 27.7533 7.24549 29.078 5.55597L28.2911 4.93895C26.9885 6.60026 24.0423 9.93493 20.0149 14.5316L20.767 15.1906ZM29.0752 5.5595C29.3421 5.22531 29.9799 4.42739 30.9262 4.26424L30.7563 3.27878C29.389 3.51453 28.5367 4.63137 28.2939 4.93543L29.0752 5.5595ZM30.9515 4.2592C30.9512 4.25927 30.9526 4.25894 30.9561 4.25827C30.9595 4.25761 30.9641 4.25676 30.9701 4.25574C30.982 4.2537 30.9979 4.25124 31.0175 4.24865C31.0567 4.24346 31.1082 4.23809 31.1687 4.23446C31.2906 4.22715 31.4417 4.22741 31.5988 4.24752C31.9258 4.28936 32.1996 4.40494 32.3578 4.62328L33.1677 4.03667C32.7768 3.49709 32.1781 3.31349 31.7258 3.25561C31.2701 3.1973 30.8678 3.2529 30.731 3.28381L30.9515 4.2592ZM32.3575 4.62288C32.4942 4.81198 32.5239 5.06736 32.4834 5.35146C32.4435 5.63151 32.3489 5.85534 32.3132 5.95212L33.2515 6.298C33.2746 6.23521 33.4153 5.90058 33.4734 5.49251C33.5309 5.08849 33.5214 4.52612 33.1679 4.03708L32.3575 4.62288ZM32.3192 5.93667C31.9354 6.88021 30.93 7.28599 30.5876 7.44851L31.0165 8.35188C31.2623 8.23517 32.6882 7.68357 33.2455 6.31345L32.3192 5.93667ZM30.6006 7.44259C29.1818 8.06728 26.8276 9.79416 22.5668 14.5681L23.3128 15.234C27.5612 10.474 29.795 8.88994 31.0035 8.3578L30.6006 7.44259ZM22.9476 14.4011L20.3988 14.3612L20.3831 15.3611L22.932 15.401L22.9476 14.4011ZM24.2167 13.8479C25.2627 14.1408 26.0659 14.4732 26.596 14.8178C27.1476 15.1764 27.2826 15.4647 27.2826 15.6402H28.2826C28.2826 14.9382 27.7707 14.3887 27.141 13.9794C26.4898 13.5561 25.5773 13.1904 24.4863 12.8849L24.2167 13.8479ZM27.2826 15.6402C27.2826 15.8267 27.1221 16.1447 26.4721 16.5356C25.8536 16.9074 24.9256 17.2605 23.7353 17.5641C21.3622 18.1695 18.0578 18.5509 14.3913 18.5509V19.5509C18.1166 19.5509 21.5078 19.1644 23.9825 18.5331C25.216 18.2184 26.2499 17.836 26.9873 17.3926C27.6932 16.9682 28.2826 16.3911 28.2826 15.6402H27.2826ZM14.3913 18.5509C10.7243 18.5509 7.41986 18.1744 5.04689 17.5715C3.8566 17.2691 2.92902 16.9167 2.31102 16.5442C1.66285 16.1536 1.5 15.8333 1.5 15.6402H0.5C0.5 16.3945 1.0871 16.9742 1.79486 17.4007C2.53277 17.8454 3.56708 18.2273 4.80065 18.5407C7.27542 19.1694 10.6666 19.5509 14.3913 19.5509V18.5509ZM1.5 15.6402C1.5 15.4537 1.66049 15.1357 2.31058 14.7448C2.92902 14.373 3.85703 14.0199 5.04736 13.7163C7.42045 13.1109 10.7249 12.7295 14.3913 12.7295V11.7295C10.6661 11.7295 7.27484 12.116 4.80019 12.7473C3.56665 13.062 2.53277 13.4444 1.79529 13.8878C1.08946 14.3122 0.5 14.8893 0.5 15.6402H1.5ZM14.3913 12.7295C17.2479 12.7295 19.9034 12.9669 22.0458 13.3596L22.2261 12.376C20.0158 11.9708 17.2991 11.7295 14.3913 11.7295V12.7295Z" fill="#06417D"/>
</svg>
