<svg width="39" height="35" viewBox="0 0 39 35" fill="none" xmlns="http://www.w3.org/2000/svg">
<path d="M10.9182 11.8859C10.3293 11.2999 9.67247 10.4209 9.76307 9.40671C9.85366 8.34743 10.6917 7.87414 11.19 6.88247C11.6203 6.02603 11.8468 4.67375 10.8276 2.6228" stroke="#06417D" stroke-miterlimit="10" stroke-linecap="round"/>
<path d="M16.3318 9.88056C15.2673 8.97904 15.0635 8.23529 15.0408 7.78454C14.9955 6.97317 15.4712 6.34211 16.128 5.44059C16.9887 4.29116 17.419 4.20101 17.6229 3.61502C17.8267 3.05157 17.7361 2.19513 16.2639 1.06824" stroke="#06417D" stroke-miterlimit="10" stroke-linecap="round"/>
<path d="M21.7905 11.8859C21.2016 11.2999 20.5448 10.4209 20.6354 9.40671C20.726 8.34743 21.564 7.87414 22.0623 6.88247C22.4926 6.02603 22.7191 4.67375 21.6999 2.6228" stroke="#06417D" stroke-miterlimit="10" stroke-linecap="round"/>
<path d="M7.08648 17.8808C7.3617 17.8808 7.58482 17.6588 7.58482 17.385C7.58482 17.1112 7.3617 16.8892 7.08648 16.8892C6.81125 16.8892 6.58813 17.1112 6.58813 17.385C6.58813 17.6588 6.81125 17.8808 7.08648 17.8808Z" stroke="#06417D" stroke-miterlimit="10" stroke-linecap="round"/>
<path d="M20.6127 19.2267C20.9354 19.2267 21.197 18.9651 21.197 18.6423C21.197 18.3196 20.9354 18.058 20.6127 18.058C20.2899 18.058 20.0283 18.3196 20.0283 18.6423C20.0283 18.9651 20.2899 19.2267 20.6127 19.2267Z" stroke="#06417D" stroke-miterlimit="10" stroke-linecap="round"/>
<path d="M11.938 18.8226C11.988 18.8226 12.0286 18.7823 12.0286 18.7325C12.0286 18.6827 11.988 18.6423 11.938 18.6423C11.888 18.6423 11.8474 18.6827 11.8474 18.7325C11.8474 18.7823 11.888 18.8226 11.938 18.8226Z" stroke="#06417D" stroke-miterlimit="10" stroke-linecap="round"/>
<path d="M15.2902 16.7572C15.5779 16.7572 15.8111 16.5251 15.8111 16.2388C15.8111 15.9525 15.5779 15.7205 15.2902 15.7205C15.0025 15.7205 14.7693 15.9525 14.7693 16.2388C14.7693 16.5251 15.0025 16.7572 15.2902 16.7572Z" stroke="#06417D" stroke-miterlimit="10" stroke-linecap="round"/>
<path d="M16.9979 19.5889C17.2606 19.5889 17.4736 19.377 17.4736 19.1156C17.4736 18.8542 17.2606 18.6423 16.9979 18.6423C16.7352 18.6423 16.5222 18.8542 16.5222 19.1156C16.5222 19.377 16.7352 19.5889 16.9979 19.5889Z" stroke="#06417D" stroke-miterlimit="10" stroke-linecap="round"/>
<path d="M31.5524 18.3993C28.4041 19.684 23.0362 21.4419 16.1508 21.4644C9.19741 21.487 3.76155 19.729 0.613281 18.4669C0.635931 26.9186 7.61195 33.8377 16.1055 33.8377C24.6443 33.8152 31.575 26.9186 31.5524 18.3993Z" stroke="#06417D" stroke-miterlimit="10"/>
<path d="M26.547 22.7035C26.2525 23.4923 25.7995 24.484 25.0521 25.5207C24.1008 26.873 23.0816 27.7745 22.2888 28.3605" stroke="#06417D" stroke-miterlimit="10" stroke-linecap="round"/>
<path d="M20.7489 29.3756C20.16 29.5784 19.5938 29.7813 19.0049 29.9841" stroke="#06417D" stroke-miterlimit="10" stroke-linecap="round"/>
<path d="M3.08179 33.8158H27.815" stroke="#06417D" stroke-miterlimit="10" stroke-linecap="round"/>
<path d="M23.0134 16.7311C27.6566 11.5474 31.0766 7.761 32.5941 5.86782C32.8886 5.50721 33.7493 4.42539 35.0856 4.20002C35.2894 4.15494 36.671 3.97464 37.3052 4.83108C37.8715 5.59736 37.3958 6.67918 37.3279 6.85949C36.7843 8.16668 35.38 8.70759 35.0403 8.86536C33.5228 9.51896 30.8728 11.3896 25.9579 16.7762L23.0134 16.7311Z" stroke="#06417D" stroke-miterlimit="10" stroke-linecap="round"/>
<path d="M27.5887 15.0421C30.0575 15.7182 31.5524 16.6198 31.5524 17.6114C31.5524 19.73 24.6217 21.4654 16.0828 21.4654C7.544 21.4654 0.613281 19.7525 0.613281 17.6114C0.613281 15.4929 7.544 13.7574 16.0828 13.7574C19.4123 13.7574 22.5153 14.0279 25.0293 14.4787" stroke="#06417D" stroke-miterlimit="10"/>
</svg>
