<svg width="44" height="33" viewBox="0 0 44 33" fill="none" xmlns="http://www.w3.org/2000/svg">
<path d="M42.9896 19.8525C38.7723 20.8214 31.5817 22.1535 22.3584 22.1837C13.044 22.1837 5.76242 20.8516 1.54517 19.8828C1.57551 26.3012 10.9202 31.5691 22.2977 31.5691C33.7359 31.5691 43.0199 26.3012 42.9896 19.8525Z" stroke="#06417D" stroke-miterlimit="10"/>
<path d="M5.12476 22.7284C5.54952 23.3036 6.21699 24 7.24855 24.7266C8.58351 25.6651 10.0095 26.2404 11.0714 26.6037" stroke="#06417D" stroke-miterlimit="10" stroke-linecap="round"/>
<path d="M13.4988 27.724C13.8022 27.8451 14.136 27.9662 14.4394 28.0873" stroke="#06417D" stroke-miterlimit="10" stroke-linecap="round"/>
<path d="M4.85205 31.5697H37.9832" stroke="#06417D" stroke-miterlimit="10" stroke-linecap="round"/>
<path d="M9.34229 20.7919C9.7367 19.8231 10.3738 18.612 11.3447 17.3708C13.1954 14.979 15.3495 13.6772 16.7148 13.0111" stroke="#06417D" stroke-miterlimit="10" stroke-linecap="round"/>
<path d="M6.97583 20.7313C7.03651 19.8836 7.27923 18.4607 8.21978 17.0074C10.0099 14.1616 13.0439 13.223 13.8327 13.0111" stroke="#06417D" stroke-miterlimit="10" stroke-linecap="round"/>
<path d="M12.9531 21.3673C13.1048 20.5196 13.4992 19.0966 14.5611 17.704C16.6242 14.9792 19.6886 14.3737 20.4774 14.2223" stroke="#06417D" stroke-miterlimit="10" stroke-linecap="round"/>
<path d="M25.6351 8.89417C25.5441 8.8639 25.4531 8.8639 25.3621 8.83362" stroke="#06417D" stroke-miterlimit="10" stroke-linecap="round"/>
<path d="M17.8984 7.25867C17.3523 7.4706 16.8972 7.74307 16.4725 8.01555C14.2576 9.40822 12.0125 11.9514 12.5889 12.8596C12.68 12.9807 12.8013 13.0716 13.0137 13.0716C13.7722 13.1624 15.3195 12.466 17.6557 12.8899C19.5368 13.2229 19.4761 13.8284 22.1157 14.767C24.7856 15.7055 27.0611 15.9174 28.7298 16.0688C32.1886 16.3716 32.7044 16.523 32.9471 16.1596C33.6146 15.2817 32.1886 13.1624 31.3694 12.1936C30.7626 11.467 30.0648 10.922 29.3973 10.4981" stroke="#06417D" stroke-miterlimit="10" stroke-linecap="round"/>
<path d="M14.4395 10.3474C15.1069 10.5896 16.1992 10.8924 17.5645 11.0135C19.4152 11.1951 19.9917 10.8924 21.2356 11.1043C23.2077 11.4373 23.7235 12.4969 25.3619 13.3144C26.6665 13.9804 28.6993 14.4648 31.885 13.7988" stroke="#06417D" stroke-miterlimit="10" stroke-linecap="round"/>
<path d="M26.6662 21.7297C25.574 21.0939 24.1783 20.4582 22.5703 19.9132C19.233 18.793 16.2293 18.6719 14.1965 18.7325" stroke="#06417D" stroke-miterlimit="10" stroke-linecap="round"/>
<path d="M30.9446 21.3058C29.5186 20.1857 27.7892 19.0352 25.7564 18.1572C21.5392 16.3407 17.8377 16.4618 15.3499 16.8856" stroke="#06417D" stroke-miterlimit="10" stroke-linecap="round"/>
<path d="M35.1616 21.065C34.4941 20.3989 33.7356 19.6723 32.8254 18.9457C31.2781 17.7347 29.7914 16.8265 28.4868 16.1604" stroke="#06417D" stroke-miterlimit="10" stroke-linecap="round"/>
<path d="M37.0428 20.9732C37.1035 20.4888 37.0731 19.7925 36.8001 19.0356C36.0113 16.9466 33.7661 16.2503 33.4324 16.1292" stroke="#06417D" stroke-miterlimit="10" stroke-linecap="round"/>
<path d="M26.0898 10.4676C25.392 9.71073 25.6954 8.40889 25.7864 7.98503C26.2112 6.19878 27.6978 5.22997 28.1226 4.95749C29.7913 3.86757 32.0061 3.56482 32.0061 3.56482C32.1578 4.2006 32.3398 5.32079 32.0971 6.65291C31.9454 7.5309 31.6116 9.16577 30.216 10.1649C29.0328 11.0126 27 11.4364 26.0898 10.4676Z" stroke="#06417D" stroke-miterlimit="10" stroke-linecap="round"/>
<path d="M28.4878 7.68335L26.4854 10.7715" stroke="#06417D" stroke-miterlimit="10" stroke-linecap="round"/>
<path d="M24.8768 9.95295C25.7567 9.01441 25.3926 7.37954 25.2409 6.83458C24.7251 4.62448 22.844 3.38319 22.2979 3.05016C20.2044 1.68777 17.4435 1.29419 17.4435 1.29419C17.2615 2.08135 17.0188 3.47402 17.3222 5.13916C17.5345 6.22908 17.929 8.31808 19.6887 9.55937C21.2057 10.619 23.7542 11.164 24.8768 9.95295Z" stroke="#06417D" stroke-miterlimit="10" stroke-linecap="round"/>
<path d="M21.2969 5.68372C21.7216 5.83509 22.3588 6.16812 22.9353 6.83419C24.0579 8.07548 24.2702 9.61953 24.3006 10.1039" stroke="#06417D" stroke-miterlimit="10" stroke-linecap="round"/>
</svg>
