<svg width="25" height="25" viewBox="0 0 25 25" fill="none" xmlns="http://www.w3.org/2000/svg">
<path d="M9.65016 9.53377C9.78398 9.67326 10.0055 9.67786 10.145 9.54404C10.2845 9.41022 10.2891 9.18865 10.1553 9.04917L9.65016 9.53377ZM9.46526 8.30796L9.81399 8.3377L9.8141 8.33644L9.46526 8.30796ZM10.0057 7.30656L9.69008 7.15519L10.0057 7.30656ZM10.1846 5.46669C10.1018 5.29205 9.89304 5.21763 9.71839 5.30049C9.54375 5.38334 9.46934 5.59208 9.55219 5.76673L10.1846 5.46669ZM11.7208 8.75777C11.8654 8.88605 12.0866 8.87281 12.2149 8.72821C12.3431 8.5836 12.3299 8.36239 12.1853 8.23412L11.7208 8.75777ZM11.4641 7.66443L11.8137 7.64766L11.8136 7.6458L11.4641 7.66443ZM11.8758 6.73456L11.5911 6.53101L11.5885 6.53471L11.8758 6.73456ZM12.442 6.01034L12.1111 5.89607L12.1098 5.90003L12.442 6.01034ZM12.1462 4.72693C11.9954 4.60602 11.7751 4.63025 11.6542 4.78106C11.5333 4.93187 11.5575 5.15215 11.7084 5.27307L12.1462 4.72693ZM13.7678 9.53377C13.9016 9.67326 14.1231 9.67786 14.2626 9.54404C14.4021 9.41021 14.4067 9.18865 14.2729 9.04917L13.7678 9.53377ZM13.5829 8.30796L13.9316 8.3377L13.9317 8.33644L13.5829 8.30796ZM14.1233 7.30656L13.8077 7.15519L14.1233 7.30656ZM14.3022 5.46669C14.2194 5.29205 14.0106 5.21763 13.836 5.30049C13.6614 5.38334 13.5869 5.59208 13.6698 5.76673L14.3022 5.46669ZM17.7174 11.8754L18.0674 11.8745L18.0661 11.3457L17.5798 11.5536L17.7174 11.8754ZM11.8844 13.0914L11.8856 13.4414H11.8856L11.8844 13.0914ZM6 11.9022L6.13551 11.5795L5.64865 11.3751L5.65 11.9031L6 11.9022ZM11.8673 18V18.35L11.8683 18.35L11.8673 18ZM16.1515 13.7004C16.2164 13.5183 16.1213 13.3181 15.9393 13.2532C15.7572 13.1883 15.557 13.2834 15.4921 13.4654L16.1515 13.7004ZM15.2556 14.7006L14.9673 14.5021L14.9651 14.5054L15.2556 14.7006ZM13.9948 15.5504C13.842 15.6687 13.814 15.8886 13.9324 16.0414C14.0507 16.1942 14.2705 16.2222 14.4234 16.1039L13.9948 15.5504ZM13.7447 16.5591C13.9265 16.4935 14.0207 16.2929 13.9551 16.111C13.8895 15.9292 13.689 15.835 13.5071 15.9006L13.7447 16.5591ZM12.8466 16.142C12.6648 16.2076 12.5706 16.4082 12.6362 16.59C12.7018 16.7718 12.9024 16.8661 13.0842 16.8005L12.8466 16.142ZM6.93492 17.6413C6.74162 17.6413 6.58492 17.798 6.58492 17.9913C6.58492 18.1846 6.74162 18.3413 6.93492 18.3413V17.6413ZM16.302 18.3413C16.4953 18.3413 16.652 18.1846 16.652 17.9913C16.652 17.798 16.4953 17.6413 16.302 17.6413V18.3413ZM14.4835 11.2136L14.2175 10.9861L13.734 11.5516L14.4779 11.5636L14.4835 11.2136ZM18.112 6.90404L17.8359 6.68885L17.834 6.69134L18.112 6.90404ZM19.0556 6.2424L19.1164 6.58706L19.1255 6.58546L19.1345 6.58337L19.0556 6.2424ZM19.8962 6.49275L20.1822 6.291L20.182 6.29071L19.8962 6.49275ZM19.9048 7.29744L20.2302 7.42665L20.2341 7.41593L19.9048 7.29744ZM19.0384 8.09319L19.1824 8.41236L19.1915 8.40793L19.0384 8.09319ZM15.5987 11.2315L15.593 11.5814L15.7557 11.5841L15.8626 11.4614L15.5987 11.2315ZM10.1553 9.04917C9.9467 8.83175 9.79324 8.58102 9.81399 8.3377L9.11652 8.27822C9.06865 8.83958 9.4127 9.28626 9.65016 9.53377L10.1553 9.04917ZM9.8141 8.33644C9.82359 8.22021 9.86844 8.13086 9.96142 8.00196C10.0466 7.88384 10.2089 7.69207 10.3212 7.45794L9.69008 7.15519C9.61368 7.31446 9.52294 7.41328 9.3937 7.59245C9.27224 7.76083 9.14124 7.97548 9.11642 8.27947L9.8141 8.33644ZM10.3212 7.45794C10.5354 7.01149 10.6102 6.36363 10.1846 5.46669L9.55219 5.76673C9.89867 6.49705 9.80189 6.92211 9.69008 7.15519L10.3212 7.45794ZM12.1853 8.23412C11.8452 7.93245 11.8173 7.72287 11.8137 7.64766L11.1145 7.6812C11.128 7.96363 11.2545 8.34415 11.7208 8.75777L12.1853 8.23412ZM11.8136 7.6458C11.8041 7.46832 11.8919 7.32442 12.1632 6.93441L11.5885 6.53471C11.3622 6.85998 11.0897 7.21678 11.1146 7.68306L11.8136 7.6458ZM12.1606 6.9381C12.3078 6.73214 12.4149 6.62462 12.5047 6.53093C12.5991 6.43257 12.7089 6.31714 12.7741 6.12065L12.1098 5.90003C12.0979 5.936 12.0875 5.95468 11.9996 6.04632C11.9072 6.14263 11.7698 6.28099 11.5911 6.53102L12.1606 6.9381ZM12.7728 6.1246C12.8372 5.93824 12.8496 5.7097 12.7469 5.45715C12.6482 5.21456 12.453 4.97286 12.1462 4.72693L11.7084 5.27307C11.9592 5.47419 12.0598 5.6259 12.0984 5.72083C12.133 5.8058 12.124 5.8589 12.1111 5.89608L12.7728 6.1246ZM14.2729 9.04917C14.0643 8.83175 13.9108 8.58102 13.9316 8.3377L13.2341 8.27822C13.1863 8.83958 13.5303 9.28626 13.7678 9.53377L14.2729 9.04917ZM13.9317 8.33644C13.9412 8.22021 13.986 8.13086 14.079 8.00196C14.1642 7.88384 14.3265 7.69207 14.4388 7.45794L13.8077 7.15519C13.7313 7.31446 13.6405 7.41328 13.5113 7.59245C13.3898 7.76083 13.2588 7.97548 13.234 8.27947L13.9317 8.33644ZM14.4388 7.45794C14.653 7.01149 14.7278 6.36363 14.3022 5.46669L13.6698 5.76673C14.0163 6.49705 13.9195 6.92211 13.8077 7.15519L14.4388 7.45794ZM8.29031 11.473C8.29031 11.4021 8.34901 11.3197 8.45158 11.3197V12.0197C8.76261 12.0197 8.99031 11.7612 8.99031 11.473H8.29031ZM8.45158 11.3197C8.55414 11.3197 8.61284 11.4021 8.61284 11.473H7.91284C7.91284 11.7612 8.14054 12.0197 8.45158 12.0197V11.3197ZM8.61284 11.473C8.61284 11.5439 8.55414 11.6263 8.45158 11.6263V10.9263C8.14054 10.9263 7.91284 11.1849 7.91284 11.473H8.61284ZM8.45158 11.6263C8.34901 11.6263 8.29031 11.5439 8.29031 11.473H8.99031C8.99031 11.1849 8.76261 10.9263 8.45158 10.9263V11.6263ZM13.4455 11.9718C13.4455 11.922 13.488 11.8536 13.5742 11.8536V12.5536C13.9049 12.5536 14.1455 12.2777 14.1455 11.9718H13.4455ZM13.5742 11.8536C13.6604 11.8536 13.7029 11.922 13.7029 11.9718H13.0029C13.0029 12.2777 13.2436 12.5536 13.5742 12.5536V11.8536ZM13.7029 11.9718C13.7029 12.0216 13.6604 12.09 13.5742 12.09V11.39C13.2436 11.39 13.0029 11.666 13.0029 11.9718H13.7029ZM13.5742 12.09C13.488 12.09 13.4455 12.0216 13.4455 11.9718H14.1455C14.1455 11.666 13.9049 11.39 13.5742 11.39V12.09ZM9.97323 12.0076C9.97323 11.8479 10.101 11.6934 10.2889 11.6934V12.3934C10.5147 12.3934 10.6732 12.2068 10.6732 12.0076H9.97323ZM10.2889 11.6934C10.4768 11.6934 10.6046 11.8479 10.6046 12.0076H9.90462C9.90462 12.2068 10.0631 12.3934 10.2889 12.3934V11.6934ZM10.6046 12.0076C10.6046 12.1673 10.4768 12.3218 10.2889 12.3218V11.6218C10.0631 11.6218 9.90462 11.8084 9.90462 12.0076H10.6046ZM10.2889 12.3218C10.101 12.3218 9.97323 12.1673 9.97323 12.0076H10.6732C10.6732 11.8084 10.5147 11.6218 10.2889 11.6218V12.3218ZM11.4058 11.0184C11.4058 10.9525 11.4606 10.874 11.5585 10.874V11.574C11.8743 11.574 12.1058 11.3114 12.1058 11.0184H11.4058ZM11.5585 10.874C11.6564 10.874 11.7112 10.9525 11.7112 11.0184H11.0112C11.0112 11.3114 11.2427 11.574 11.5585 11.574V10.874ZM11.7112 11.0184C11.7112 11.0843 11.6564 11.1627 11.5585 11.1627V10.4627C11.2427 10.4627 11.0112 10.7253 11.0112 11.0184H11.7112ZM11.5585 11.1627C11.4606 11.1627 11.4058 11.0843 11.4058 11.0184H12.1058C12.1058 10.7253 11.8743 10.4627 11.5585 10.4627V11.1627ZM12.0354 12.1596C12.0354 12.0838 12.0979 11.9974 12.2053 11.9974V12.6974C12.5116 12.6974 12.7354 12.4428 12.7354 12.1596H12.0354ZM12.2053 11.9974C12.3126 11.9974 12.3751 12.0838 12.3751 12.1596H11.6751C11.6751 12.4428 11.8989 12.6974 12.2053 12.6974V11.9974ZM12.3751 12.1596C12.3751 12.2354 12.3126 12.3218 12.2053 12.3218V11.6218C11.899 11.6218 11.6751 11.8764 11.6751 12.1596H12.3751ZM12.2053 12.3218C12.0979 12.3218 12.0354 12.2354 12.0354 12.1596H12.7354C12.7354 11.8764 12.5116 11.6218 12.2053 11.6218V12.3218ZM17.5798 11.5536C16.414 12.0519 14.4288 12.7327 11.8832 12.7414L11.8856 13.4414C14.5554 13.4322 16.6361 12.7182 17.855 12.1972L17.5798 11.5536ZM11.8833 12.7414C9.31243 12.7501 7.30182 12.0693 6.13551 11.5795L5.86449 12.2249C7.08284 12.7365 9.18962 13.4505 11.8856 13.4414L11.8833 12.7414ZM5.65 11.9031C5.65904 15.4353 8.44425 18.35 11.8673 18.35V17.65C8.85689 17.65 6.35812 15.0749 6.35 11.9013L5.65 11.9031ZM11.8683 18.35C15.3082 18.3405 18.0764 15.4344 18.0674 11.8745L17.3674 11.8763C17.3755 15.0758 14.8941 17.6416 11.8663 17.65L11.8683 18.35ZM15.4921 13.4654C15.3877 13.7584 15.2286 14.1225 14.9673 14.5021L15.5439 14.899C15.8488 14.456 16.0328 14.0333 16.1515 13.7004L15.4921 13.4654ZM14.9651 14.5054C14.6297 15.0048 14.2717 15.336 13.9948 15.5504L14.4234 16.1039C14.747 15.8533 15.161 15.4692 15.5462 14.8957L14.9651 14.5054ZM13.5071 15.9006C13.3944 15.9413 13.284 15.9819 13.1748 16.022C13.0653 16.0623 12.9569 16.1022 12.8466 16.142L13.0842 16.8005C13.1969 16.7598 13.3073 16.7192 13.4165 16.679C13.526 16.6387 13.6344 16.5989 13.7447 16.5591L13.5071 15.9006ZM6.93492 18.3413H16.302V17.6413H6.93492V18.3413ZM14.7495 11.4411C16.5024 9.39115 17.8076 7.8777 18.3899 7.11673L17.834 6.69134C17.2669 7.43247 15.9816 8.92319 14.2175 10.9861L14.7495 11.4411ZM18.388 7.11921C18.509 6.96404 18.7599 6.65005 19.1164 6.58706L18.9947 5.89774C18.339 6.01357 17.938 6.55792 17.8359 6.68886L18.388 7.11921ZM19.1345 6.58337C19.1307 6.58426 19.158 6.57855 19.2072 6.57554C19.2539 6.57266 19.311 6.57286 19.3693 6.58049C19.4936 6.59679 19.5706 6.6385 19.6104 6.69478L20.182 6.29071C19.9816 6.00723 19.6769 5.91483 19.4603 5.88643C19.2425 5.85787 19.0499 5.88445 18.9766 5.90143L19.1345 6.58337ZM19.6102 6.6945C19.644 6.74243 19.6597 6.82032 19.6439 6.93407C19.6285 7.04444 19.5925 7.13158 19.5754 7.17896L20.2341 7.41593C20.2428 7.39177 20.3097 7.22856 20.3372 7.03047C20.3643 6.83575 20.3628 6.54707 20.1822 6.291L19.6102 6.6945ZM19.5795 7.1683C19.4328 7.53781 19.046 7.70028 18.8853 7.77845L19.1915 8.40793C19.2881 8.36093 19.965 8.09423 20.2301 7.42658L19.5795 7.1683ZM18.8945 7.77416C18.2457 8.06686 17.2001 8.86019 15.3347 11.0016L15.8626 11.4614C17.72 9.32898 18.6817 8.6381 19.1823 8.41222L18.8945 7.77416ZM15.6043 10.8815L14.4891 10.8637L14.4779 11.5636L15.593 11.5814L15.6043 10.8815ZM16.1198 10.88C16.5711 11.0095 16.9076 11.1538 17.1234 11.2976C17.3525 11.4501 17.3674 11.5464 17.3674 11.5628H18.0674C18.0674 11.1859 17.7993 10.9067 17.5115 10.715C17.2105 10.5145 16.7965 10.3459 16.3128 10.2071L16.1198 10.88ZM17.3674 11.5628C17.3674 11.5796 17.3477 11.6892 17.0732 11.8583C16.8185 12.0152 16.4269 12.1693 15.9122 12.3039C14.8881 12.5715 13.4545 12.7418 11.8587 12.7418V13.4418C13.4967 13.4418 14.9925 13.2678 16.0893 12.9811C16.635 12.8385 17.1017 12.6629 17.4403 12.4543C17.759 12.258 18.0674 11.9663 18.0674 11.5628H17.3674ZM11.8587 12.7418C10.2625 12.7418 8.82888 12.5737 7.80482 12.3071C7.29018 12.1731 6.89886 12.0193 6.64455 11.8623C6.37135 11.6936 6.35 11.5829 6.35 11.5628H5.65C5.65 11.9675 5.95676 12.2603 6.27677 12.4579C6.61567 12.6672 7.08268 12.8425 7.62848 12.9845C8.72531 13.2701 10.221 13.4418 11.8587 13.4418V12.7418ZM6.35 11.5628C6.35 11.5461 6.36973 11.4365 6.64424 11.2674C6.89886 11.1105 7.29048 10.9564 7.80516 10.8218C8.8293 10.5542 10.2629 10.3839 11.8587 10.3839V9.68393C10.2207 9.68393 8.72488 9.85793 7.62814 10.1446C7.08238 10.2872 6.61567 10.4628 6.27708 10.6714C5.95837 10.8677 5.65 11.1594 5.65 11.5628H6.35ZM11.8587 10.3839C13.1013 10.3839 14.2546 10.4898 15.1824 10.664L15.3116 9.97606C14.3351 9.79267 13.138 9.68393 11.8587 9.68393V10.3839Z" fill="#06417D"/>
<circle cx="12.5" cy="12.5" r="12" stroke="#003F80"/>
</svg>
