<svg width="25" height="25" viewBox="0 0 25 25" fill="none" xmlns="http://www.w3.org/2000/svg">
<path d="M20.9999 12.7407L21.3499 12.739L21.3482 12.3901L20.9994 12.3907L20.9999 12.7407ZM5.46649 12.7665L5.46591 12.4165L5.11649 12.4171V12.7665H5.46649ZM13.2582 18.7554V19.1054L13.2593 19.1054L13.2582 18.7554ZM18.812 14.5681C18.8965 14.3942 18.824 14.1848 18.6501 14.1003C18.4762 14.0159 18.2668 14.0884 18.1824 14.2622L18.812 14.5681ZM17.7463 15.5099L17.4886 15.273L17.4842 15.278L17.7463 15.5099ZM16.1805 16.3179C16.0151 16.4179 15.962 16.633 16.0619 16.7985C16.1619 16.964 16.377 17.0171 16.5425 16.9171L16.1805 16.3179ZM15.6694 17.3541C15.8559 17.3033 15.9659 17.1109 15.9151 16.9244C15.8643 16.7379 15.6719 16.6279 15.4854 16.6787L15.6694 17.3541ZM14.6178 16.9105C14.4313 16.9613 14.3213 17.1537 14.3721 17.3402C14.4229 17.5267 14.6153 17.6367 14.8018 17.5859L14.6178 16.9105ZM9.70352 18.65C9.51023 18.6504 9.35382 18.8074 9.35418 19.0007C9.35454 19.194 9.51153 19.3504 9.70483 19.35L9.70352 18.65ZM16.6289 19.3371C16.8222 19.3368 16.9787 19.1798 16.9783 18.9865C16.9779 18.7932 16.8209 18.6368 16.6276 18.6371L16.6289 19.3371ZM16.8123 12.2977L16.5364 12.5131L16.5406 12.5183L16.8123 12.2977ZM16.829 11.0309L17.1459 11.1794L17.1496 11.1716L17.1528 11.1637L16.829 11.0309ZM18.3139 9.65727L18.1703 9.33789L18.1605 9.34271L18.3139 9.65727ZM20.533 9.21465L20.8792 9.16305L20.8347 8.86465H20.533V9.21465ZM20.3662 10.7562L20.0373 10.6363L20.0359 10.6401L20.3662 10.7562ZM19.0981 12.4045L19.2519 12.7189L19.2531 12.7183L19.0981 12.4045ZM18.5706 11.2996C18.702 11.1579 18.6936 10.9364 18.5518 10.805C18.41 10.6736 18.1886 10.682 18.0572 10.8238L18.5706 11.2996ZM16.7558 12.228C16.6244 12.3697 16.6328 12.5912 16.7746 12.7226C16.9163 12.854 17.1378 12.8456 17.2692 12.7038L16.7558 12.228ZM9.7379 12.0235L10.0119 12.2413L10.0138 12.2389L9.7379 12.0235ZM9.70453 10.4362L9.38203 10.5722L9.38243 10.5731L9.70453 10.4362ZM7.81917 8.74203L7.67842 9.06259L7.68594 9.06568L7.81917 8.74203ZM5.03283 8.19258L5.03283 7.84258H4.72277L4.68539 8.15038L5.03283 8.19258ZM5.24973 10.1309L5.58084 10.0172L5.57785 10.0091L5.24973 10.1309ZM6.86814 12.1761L6.71883 12.4927L6.72039 12.4934L6.86814 12.1761ZM7.55753 9.79161C7.37051 9.74273 7.17928 9.85472 7.1304 10.0417C7.08152 10.2288 7.19351 10.42 7.38053 10.4689L7.55753 9.79161ZM8.45344 10.5881L8.66625 10.3102L8.66445 10.3089L8.45344 10.5881ZM9.09497 12.1999C9.13379 12.3893 9.31876 12.5113 9.50812 12.4725C9.69749 12.4337 9.81953 12.2487 9.78071 12.0594L9.09497 12.1999ZM13.3584 12.5115V12.8615H13.7084V12.5115H13.3584ZM9.87132 12.5115L9.5294 12.5862L9.58958 12.8615H9.87132V12.5115ZM8.41028 8.99177C8.44732 9.18149 8.63114 9.30526 8.82086 9.26823C9.01057 9.23119 9.13435 9.04737 9.09731 8.85765L8.41028 8.99177ZM9.4045 6.81848L9.6102 7.10165L9.61057 7.10138L9.4045 6.81848ZM11.9739 7.45951L11.6348 7.54627L11.6363 7.55178L11.9739 7.45951ZM11.9239 7.94791L11.5771 7.99529L11.7686 9.39642L12.2527 8.06774L11.9239 7.94791ZM12.3577 6.52849L12.0974 6.29452L12.0958 6.29633L12.3577 6.52849ZM13.9761 6.04009L13.8876 6.37872L13.895 6.38065L13.9025 6.38225L13.9761 6.04009ZM15.3276 7.21531L15.641 7.05891L15.6347 7.04744L15.3276 7.21531ZM15.5612 8.83313L15.2148 8.78265L15.032 10.037L15.8325 9.05417L15.5612 8.83313ZM17.6634 8.4821L17.9123 8.23594L17.9081 8.23185L17.6634 8.4821ZM17.6056 9.77887C17.5632 9.96746 17.6816 10.1547 17.8702 10.1972C18.0588 10.2396 18.2461 10.1212 18.2885 9.93257L17.6056 9.77887ZM16.095 12.5116V12.8616H16.34L16.4238 12.6315L16.095 12.5116ZM13.9427 12.5116H13.5927V12.8616H13.9427V12.5116ZM15.0105 11.367V11.7171L15.0191 11.7168L15.0105 11.367ZM20.9994 12.3907L5.46591 12.4165L5.46707 13.1165L21.0005 13.0907L20.9994 12.3907ZM5.11649 12.7665C5.11649 14.5526 6.05824 16.1449 7.53485 17.2797C9.01104 18.4141 11.0356 19.1054 13.2582 19.1054V18.4054C11.1763 18.4054 9.30491 17.7571 7.96139 16.7246C6.61829 15.6925 5.81649 14.2904 5.81649 12.7665H5.11649ZM13.2593 19.1054C17.6497 19.0922 21.368 16.3354 21.3499 12.739L20.6499 12.7425C20.6653 15.7918 17.4427 18.3928 13.2572 18.4054L13.2593 19.1054ZM18.1824 14.2622C18.0447 14.5457 17.8293 14.9026 17.4887 15.273L18.004 15.7468C18.3976 15.3187 18.6494 14.9029 18.812 14.5681L18.1824 14.2622ZM17.4842 15.278C17.0527 15.7657 16.5554 16.0915 16.1805 16.3179L16.5425 16.9171C16.9352 16.6799 17.5056 16.3102 18.0085 15.7418L17.4842 15.278ZM15.4854 16.6787C15.345 16.7169 15.2003 16.7552 15.054 16.7939C14.9083 16.8325 14.761 16.8715 14.6178 16.9105L14.8018 17.5859C14.9422 17.5476 15.0869 17.5093 15.2331 17.4706C15.3789 17.4321 15.5261 17.3931 15.6694 17.3541L15.4854 16.6787ZM9.70483 19.35L16.6289 19.3371L16.6276 18.6371L9.70352 18.65L9.70483 19.35ZM17.0882 12.0823C17.0033 11.9736 16.9779 11.8218 17.0045 11.633C17.0309 11.4463 17.1022 11.2728 17.1459 11.1794L16.512 10.8824C16.4557 11.0027 16.3518 11.2488 16.3114 11.5353C16.2713 11.8196 16.2876 12.1944 16.5364 12.5131L17.0882 12.0823ZM17.1528 11.1637C17.4451 10.4506 18.1975 10.1035 18.4674 9.97183L18.1605 9.34271C17.9298 9.45521 16.9136 9.90181 16.5051 10.8981L17.1528 11.1637ZM18.4575 9.97648C18.905 9.77527 19.4214 9.67042 19.8371 9.61714C20.0428 9.59078 20.219 9.57763 20.3431 9.57108C20.4051 9.56781 20.4539 9.56621 20.4865 9.56541C20.5028 9.56502 20.5151 9.56483 20.523 9.56474C20.5269 9.56469 20.5297 9.56467 20.5314 9.56466C20.5323 9.56466 20.5328 9.56465 20.5331 9.56465C20.5332 9.56465 20.5333 9.56465 20.5333 9.56465C20.5333 9.56465 20.5332 9.56465 20.5332 9.56465C20.5332 9.56465 20.5331 9.56465 20.5331 9.56465C20.5331 9.56465 20.533 9.56465 20.533 9.21465C20.533 8.86465 20.5329 8.86465 20.5329 8.86465C20.5328 8.86465 20.5328 8.86465 20.5327 8.86465C20.5326 8.86465 20.5324 8.86465 20.5323 8.86465C20.532 8.86465 20.5316 8.86465 20.5311 8.86466C20.5302 8.86466 20.529 8.86466 20.5274 8.86467C20.5244 8.86469 20.5202 8.86472 20.5148 8.86478C20.5041 8.86491 20.4889 8.86515 20.4695 8.86562C20.4308 8.86656 20.3754 8.86841 20.3063 8.87205C20.1681 8.87934 19.9742 8.89385 19.7481 8.92282C19.3004 8.98019 18.7073 9.09665 18.1704 9.33805L18.4575 9.97648ZM20.1868 9.26626C20.2305 9.55923 20.2463 10.0627 20.0373 10.6363L20.695 10.876C20.9531 10.1676 20.9356 9.54163 20.8792 9.16305L20.1868 9.26626ZM20.0359 10.6401C19.8839 11.073 19.6371 11.7479 18.9431 12.0907L19.2531 12.7183C20.2276 12.2369 20.5481 11.2941 20.6964 10.8722L20.0359 10.6401ZM18.9443 12.0901C18.6351 12.2414 18.2259 12.3364 17.852 12.3331C17.4641 12.3296 17.203 12.2237 17.084 12.077L16.5406 12.5183C16.8553 12.9059 17.3785 13.0289 17.8457 13.033C18.3268 13.0373 18.8436 12.9187 19.2519 12.7189L18.9443 12.0901ZM18.0572 10.8238L16.7558 12.228L17.2692 12.7038L18.5706 11.2996L18.0572 10.8238ZM10.0138 12.2389C10.3066 11.8638 10.3204 11.4212 10.2673 11.0789C10.214 10.7352 10.0846 10.4356 10.0266 10.2992L9.38243 10.5731C9.44126 10.7115 9.53713 10.9384 9.57557 11.1862C9.61422 11.4353 9.58631 11.6489 9.46204 11.8081L10.0138 12.2389ZM10.027 10.3002C9.51672 9.08992 8.28897 8.55693 7.9524 8.41838L7.68594 9.06568C8.01675 9.20186 8.99138 9.64568 9.38203 10.5722L10.027 10.3002ZM7.95988 8.42157C7.29082 8.12779 6.55711 7.98478 6.00089 7.91406C5.72074 7.87844 5.48101 7.8606 5.31059 7.85165C5.22529 7.84717 5.15713 7.8449 5.10969 7.84376C5.08596 7.84318 5.0674 7.84289 5.05444 7.84274C5.04797 7.84266 5.04289 7.84263 5.03927 7.8426C5.03746 7.84259 5.03601 7.84259 5.03494 7.84259C5.0344 7.84258 5.03396 7.84258 5.03361 7.84258C5.03343 7.84258 5.03328 7.84258 5.03315 7.84258C5.03309 7.84258 5.03301 7.84258 5.03297 7.84258C5.0329 7.84258 5.03283 7.84258 5.03283 8.19258C5.03283 8.54258 5.03278 8.54258 5.03273 8.54258C5.03272 8.54258 5.03268 8.54258 5.03266 8.54258C5.03262 8.54258 5.03261 8.54258 5.03262 8.54258C5.03264 8.54258 5.03276 8.54258 5.03296 8.54258C5.03337 8.54258 5.03415 8.54259 5.03528 8.54259C5.03755 8.54261 5.04124 8.54263 5.04631 8.54269C5.05646 8.54281 5.07209 8.54305 5.09278 8.54355C5.13417 8.54455 5.19571 8.54658 5.27387 8.55069C5.43037 8.55891 5.65259 8.57541 5.9126 8.60847C6.43671 8.67511 7.09617 8.80683 7.67846 9.0625L7.95988 8.42157ZM4.68539 8.15038C4.63168 8.59259 4.59459 9.3719 4.92162 10.2527L5.57785 10.0091C5.30423 9.27212 5.33389 8.61675 5.38028 8.23478L4.68539 8.15038ZM4.91873 10.2446C5.10314 10.7814 5.50817 11.9216 6.71883 12.4927L7.01746 11.8595C6.09249 11.4233 5.76339 10.5488 5.58074 10.0172L4.91873 10.2446ZM6.72039 12.4934C7.22649 12.7291 7.86262 12.8702 8.45191 12.8618C9.02664 12.8537 9.6473 12.6998 10.0119 12.2413L9.46394 11.8057C9.2946 12.0187 8.9392 12.1548 8.44195 12.1619C7.95925 12.1688 7.42745 12.0505 7.0159 11.8588L6.72039 12.4934ZM7.38053 10.4689C7.59894 10.5259 7.91336 10.6187 8.24242 10.8674L8.66445 10.3089C8.22601 9.97756 7.80629 9.85663 7.55753 9.79161L7.38053 10.4689ZM8.24063 10.866C8.86401 11.3434 9.05343 11.9972 9.09497 12.1999L9.78071 12.0594C9.72215 11.7736 9.47776 10.9317 8.66624 10.3102L8.24063 10.866ZM13.0251 12.252C13.0251 12.2779 13.0228 12.3033 13.0185 12.3471C13.0145 12.3873 13.0084 12.4458 13.0084 12.5115H13.7084C13.7084 12.4855 13.7107 12.4601 13.715 12.4163C13.719 12.3762 13.7251 12.3176 13.7251 12.252H13.0251ZM13.3584 12.1615H9.87132V12.8615H13.3584V12.1615ZM10.2132 12.4367C10.2063 12.4048 10.2046 12.3545 10.2046 12.252H9.50464C9.50464 12.3326 9.503 12.4655 9.5294 12.5862L10.2132 12.4367ZM10.2046 12.252C10.2046 11.5888 10.8021 10.9994 11.6065 10.9994V10.2994C10.4755 10.2994 9.50464 11.1448 9.50464 12.252H10.2046ZM11.6065 10.9994C12.4299 10.9994 13.0251 11.5908 13.0251 12.252H13.7251C13.7251 11.1427 12.752 10.2994 11.6065 10.2994V10.9994ZM9.09731 8.85765C8.94777 8.09161 9.18584 7.40992 9.6102 7.10165L9.1988 6.53531C8.4886 7.05122 8.22613 8.04841 8.41028 8.99177L9.09731 8.85765ZM9.61057 7.10138C9.94535 6.85753 10.4184 6.82681 10.8573 6.95901C11.0727 7.02389 11.2619 7.12344 11.4015 7.23646C11.5443 7.35203 11.6137 7.46334 11.6349 7.54626L12.313 7.37275C12.2425 7.097 12.0574 6.86682 11.842 6.6924C11.6234 6.51543 11.3506 6.3765 11.0592 6.28875C10.4846 6.1157 9.76463 6.12314 9.19843 6.53558L9.61057 7.10138ZM11.6363 7.55178C11.6556 7.62212 11.6419 7.69953 11.595 7.82808L12.2527 8.06774C12.306 7.92156 12.3924 7.66319 12.3116 7.36724L11.6363 7.55178ZM12.2707 7.90052C12.2585 7.81176 12.2218 7.20951 12.6196 6.76065L12.0958 6.29633C11.4925 6.9769 11.5559 7.83986 11.5771 7.99529L12.2707 7.90052ZM12.618 6.76246C12.8566 6.49703 13.1459 6.39487 13.3991 6.36245C13.6581 6.32928 13.8624 6.37213 13.8876 6.37872L14.0646 5.70147C13.973 5.67753 13.6768 5.62117 13.3101 5.66812C12.9376 5.71583 12.4761 5.87314 12.0974 6.29452L12.618 6.76246ZM13.9025 6.38225C14.5752 6.52706 14.8917 7.14761 15.0205 7.38317L15.6347 7.04744C15.5299 6.85565 15.0788 5.91943 14.0498 5.69793L13.9025 6.38225ZM15.0144 7.3716C15.3155 7.97483 15.2455 8.57216 15.2148 8.78265L15.9075 8.88362C15.9436 8.63623 16.0404 7.85993 15.6407 7.05902L15.0144 7.3716ZM15.8325 9.05417C16.3687 8.39587 17.1161 8.43645 17.4187 8.73234L17.9081 8.23185C17.243 7.58146 16.0216 7.71362 15.2898 8.6121L15.8325 9.05417ZM17.4146 8.72822C17.6171 8.93296 17.7075 9.32636 17.6056 9.77887L18.2885 9.93257C18.4203 9.34723 18.3438 8.67226 17.9123 8.23597L17.4146 8.72822ZM15.7617 12.359C15.7617 12.375 15.7617 12.3858 15.7615 12.3955C15.7613 12.4047 15.761 12.4095 15.7608 12.4117C15.7605 12.4149 15.7611 12.4057 15.7661 12.3918L16.4238 12.6315C16.4654 12.5173 16.4617 12.4069 16.4617 12.359H15.7617ZM16.095 12.1616H13.9427V12.8616H16.095V12.1616ZM14.2927 12.5116C14.2927 12.4804 14.2899 12.4525 14.2875 12.4327C14.2851 12.4129 14.2821 12.3935 14.2802 12.3813C14.2779 12.3668 14.2768 12.3594 14.2761 12.3535C14.2753 12.3476 14.276 12.3507 14.276 12.359H13.576C13.576 12.3902 13.5788 12.4181 13.5812 12.4379C13.5836 12.4578 13.5866 12.4771 13.5885 12.4893C13.5908 12.5038 13.5919 12.5112 13.5926 12.5171C13.5934 12.5231 13.5927 12.52 13.5927 12.5116H14.2927ZM14.276 12.359C14.276 12.0316 14.5732 11.717 15.0105 11.717V11.017C14.2466 11.017 13.576 11.5876 13.576 12.359H14.276ZM15.0191 11.7168C15.4616 11.7059 15.7617 12.0274 15.7617 12.359H16.4617C16.4617 11.5917 15.794 10.9975 15.0018 11.0171L15.0191 11.7168Z" fill="#06417D"/>
<circle cx="12.5" cy="12.5" r="12" stroke="#003F80"/>
</svg>
