<svg width="68" height="68" viewBox="0 0 68 68" fill="none" xmlns="http://www.w3.org/2000/svg">
<path d="M61.7151 21.3773L6.85657 21.4569C6.89673 36.4603 19.1857 48.6382 34.326 48.5984C49.4663 48.5984 61.7552 36.3807 61.7151 21.3773Z" stroke="#021245" stroke-width="2" stroke-miterlimit="10"/>
<path d="M1.27454 24.8397L66.7354 24.7601" stroke="#021245" stroke-width="2" stroke-miterlimit="10" stroke-linecap="round"/>
<path d="M52.8401 28.9775C52.318 30.3704 51.5148 32.1215 50.1896 33.9522C48.5028 36.34 46.6956 37.9319 45.29 38.9666" stroke="#021245" stroke-width="2" stroke-miterlimit="10" stroke-linecap="round"/>
<path d="M42.5593 40.7592C41.5151 41.1174 40.5111 41.4755 39.4669 41.8337" stroke="#021245" stroke-width="2" stroke-miterlimit="10" stroke-linecap="round"/>
<path d="M10.9934 66.3085L18.9855 45.0569" stroke="#021245" stroke-width="2" stroke-miterlimit="10" stroke-linecap="round"/>
<path d="M55.6513 66.9849L47.6595 45.7332" stroke="#021245" stroke-width="2" stroke-miterlimit="10" stroke-linecap="round"/>
<path d="M26.5757 15.9245C25.7725 15.1286 24.8889 13.9347 25.0094 12.5816C25.1299 11.1489 26.2544 10.5121 26.9371 9.159C27.5396 7.96509 27.8207 6.17422 26.4552 3.38843" stroke="#021245" stroke-width="2" stroke-miterlimit="10" stroke-linecap="round"/>
<path d="M33.9642 13.2193C32.5185 12.0254 32.2374 10.9906 32.1972 10.3937C32.1571 9.31916 32.7996 8.44363 33.6831 7.20992C34.8477 5.65783 35.4501 5.53844 35.7313 4.7425C36.0124 3.98635 35.8919 2.83224 33.8839 1.28015" stroke="#021245" stroke-width="2" stroke-miterlimit="10" stroke-linecap="round"/>
<path d="M41.394 15.9245C40.5908 15.1286 39.7073 13.9347 39.8277 12.5816C39.9482 11.1489 41.0728 10.5121 41.7555 9.159C42.3579 7.96509 42.6391 6.17422 41.2736 3.38843" stroke="#021245" stroke-width="2" stroke-miterlimit="10" stroke-linecap="round"/>
</svg>
