<svg width="25" height="25" viewBox="0 0 25 25" fill="none" xmlns="http://www.w3.org/2000/svg">
<path d="M11.6176 6.86255C11.186 7.18694 10.8184 7.56323 10.5146 7.96548" stroke="#06417D" stroke-width="0.5" stroke-miterlimit="10" stroke-linecap="round"/>
<path d="M15.3653 15.3575C16.5372 15.4016 17.5757 15.549 18.7625 15.4016C19.0592 15.2543 19.0592 14.9597 19.0592 14.6651C18.7625 13.4867 18.7625 12.4555 18.9109 11.4244C19.0592 10.8351 19.801 10.5405 19.9493 9.80398C20.246 8.03629 19.2076 6.56322 17.7241 5.82669C15.9438 5.09015 13.8669 5.09015 12.2795 6.25388" stroke="#06417D" stroke-width="0.5" stroke-miterlimit="10" stroke-linecap="round"/>
<path d="M11.8334 10.1967C10.554 9.74499 10.6293 8.8416 9.38006 8.50648C8.04053 8.14221 6.82141 8.88532 6.65585 8.98731C5.70764 9.57014 5.0153 10.6338 5.00024 11.712C5.00024 12.7611 5.66248 12.8631 5.97855 14.2182C6.38493 15.9958 5.42167 16.6078 5.97855 17.6278C6.59564 18.7351 8.49206 19.2888 9.77139 18.8371C10.6744 18.5166 10.554 17.9483 11.728 17.4966C12.7816 17.0887 13.4137 17.3364 13.9555 16.7681C14.2566 16.4475 14.1512 16.2581 14.4522 15.5587C14.9941 14.2474 15.6563 14.2036 15.9272 13.3585C16.2433 12.3677 15.8068 10.9689 14.9037 10.4298C13.9555 9.83242 13.2481 10.6921 11.8334 10.1967Z" stroke="#06417D" stroke-width="0.5" stroke-miterlimit="10" stroke-linecap="round"/>
<path d="M10.1837 15.9067C11.3411 15.9067 12.2793 14.9685 12.2793 13.8111C12.2793 12.6538 11.3411 11.7156 10.1837 11.7156C9.02635 11.7156 8.08813 12.6538 8.08813 13.8111C8.08813 14.9685 9.02635 15.9067 10.1837 15.9067Z" stroke="#06417D" stroke-width="0.5" stroke-miterlimit="10" stroke-linecap="round"/>
<path d="M10.5146 14.583C10.6166 14.569 10.9565 14.4845 11.1944 14.217C11.5683 13.7946 11.3134 13.2877 11.2964 13.2595" stroke="#06417D" stroke-width="0.5" stroke-miterlimit="10" stroke-linecap="round"/>
<path d="M10.7356 12.8186C10.7214 12.7952 10.6787 12.7014 10.5648 12.6428C10.4367 12.5841 10.3229 12.5959 10.2944 12.6076" stroke="#06417D" stroke-width="0.5" stroke-miterlimit="10" stroke-linecap="round"/>
<circle cx="12.5" cy="12.5" r="12" stroke="#003F80"/>
</svg>
