<svg width="25" height="25" viewBox="0 0 25 25" fill="none" xmlns="http://www.w3.org/2000/svg">
<path d="M18.8496 8.89395L19.1996 8.89306L19.1987 8.54341L18.849 8.54395L18.8496 8.89395ZM6.27905 8.91333L6.27851 8.56333L5.92817 8.56387L5.92905 8.91421L6.27905 8.91333ZM12.5735 15.5226V15.1726L12.5725 15.1726L12.5735 15.5226ZM4.99955 9.38707C4.80625 9.38732 4.64975 9.54423 4.65 9.73753C4.65025 9.93083 4.80715 10.0873 5.00045 10.0871L4.99955 9.38707ZM20.0005 10.0677C20.1938 10.0674 20.3502 9.91054 20.35 9.71724C20.3497 9.52394 20.1928 9.36744 19.9995 9.36769L20.0005 10.0677ZM17.1461 10.8611C17.2104 10.6788 17.1147 10.4789 16.9324 10.4146C16.7501 10.3503 16.5502 10.446 16.4859 10.6283L17.1461 10.8611ZM16.2086 11.9561L15.9193 11.759L15.9171 11.7623L16.2086 11.9561ZM14.8703 12.9015C14.718 13.0206 14.6912 13.2405 14.8103 13.3928C14.9294 13.545 15.1493 13.5719 15.3016 13.4528L14.8703 12.9015ZM14.5801 13.9425C14.7617 13.8763 14.8552 13.6754 14.789 13.4938C14.7228 13.3122 14.5219 13.2186 14.3403 13.2848L14.5801 13.9425ZM13.6317 13.5465C13.4501 13.6127 13.3566 13.8136 13.4228 13.9952C13.489 14.1768 13.6899 14.2703 13.8715 14.2041L13.6317 13.5465ZM6.89708 19.7184C6.8326 19.9006 6.92805 20.1006 7.11027 20.1651C7.2925 20.2296 7.4925 20.1341 7.55698 19.9519L6.89708 19.7184ZM9.38827 14.7769C9.45275 14.5947 9.3573 14.3947 9.17508 14.3302C8.99285 14.2657 8.79285 14.3612 8.72837 14.5434L9.38827 14.7769ZM17.1302 20.1168C17.1947 20.299 17.3947 20.3944 17.5769 20.33C17.7592 20.2655 17.8546 20.0655 17.7901 19.8832L17.1302 20.1168ZM15.9588 14.7082C15.8943 14.526 15.6943 14.4306 15.5121 14.495C15.3299 14.5595 15.2344 14.7595 15.2989 14.9417L15.9588 14.7082ZM10.5437 7.80698C10.6768 7.94715 10.8984 7.95287 11.0386 7.81977C11.1787 7.68666 11.1844 7.46513 11.0513 7.32496L10.5437 7.80698ZM10.4386 6.75192L10.7874 6.78114L10.7875 6.77953L10.4386 6.75192ZM10.8804 5.91849L11.1965 6.06861L10.8804 5.91849ZM11.0878 4.36669C11.0068 4.19116 10.7989 4.1145 10.6233 4.19546C10.4478 4.27642 10.3712 4.48435 10.4521 4.65988L11.0878 4.36669ZM12.2598 7.17038C12.4051 7.29788 12.6262 7.28346 12.7537 7.13818C12.8812 6.99289 12.8668 6.77175 12.7215 6.64425L12.2598 7.17038ZM12.0857 6.21925L11.7358 6.23156L11.7364 6.24136L12.0857 6.21925ZM12.4262 5.44397L12.1402 5.24204L12.136 5.24837L12.4262 5.44397ZM12.8955 4.84312L12.5651 4.72753L12.5634 4.73273L12.8955 4.84312ZM12.6944 3.72954C12.545 3.60685 12.3245 3.62847 12.2018 3.77784C12.0791 3.92721 12.1007 4.14776 12.2501 4.27046L12.6944 3.72954ZM13.9394 7.80697C14.0725 7.94714 14.2941 7.95288 14.4343 7.81977C14.5744 7.68667 14.5802 7.46514 14.4471 7.32496L13.9394 7.80697ZM13.8344 6.75192L14.1831 6.78114L14.1833 6.77953L13.8344 6.75192ZM14.2761 5.91849L14.5922 6.0686L14.2761 5.91849ZM14.4835 4.3667C14.4025 4.19117 14.1946 4.1145 14.0191 4.19546C13.8435 4.27642 13.7669 4.48434 13.8478 4.65987L14.4835 4.3667ZM18.849 8.54395L6.27851 8.56333L6.27959 9.26333L18.8501 9.24395L18.849 8.54395ZM5.92905 8.91421C5.9387 12.7427 8.89394 15.8829 12.5745 15.8726L12.5725 15.1726C9.31446 15.1817 6.63781 12.391 6.62905 8.91245L5.92905 8.91421ZM12.5735 15.8726C16.2535 15.8726 19.2092 12.7228 19.1996 8.89306L18.4996 8.89483C18.5083 12.3722 15.8322 15.1726 12.5735 15.1726V15.8726ZM5.00045 10.0871L20.0005 10.0677L19.9995 9.36769L4.99955 9.38707L5.00045 10.0871ZM16.4859 10.6283C16.3733 10.9477 16.2015 11.3449 15.9194 11.759L16.4979 12.1531C16.8231 11.6757 17.0195 11.2201 17.1461 10.8611L16.4859 10.6283ZM15.9171 11.7623C15.5553 12.3067 15.169 12.6678 14.8703 12.9015L15.3016 13.4528C15.647 13.1826 16.089 12.7684 16.5001 12.1498L15.9171 11.7623ZM14.3403 13.2848C14.2195 13.3289 14.1011 13.3728 13.984 13.4164C13.8665 13.4601 13.7502 13.5033 13.6317 13.5465L13.8715 14.2041C13.9923 14.1601 14.1107 14.1161 14.2278 14.0725C14.3453 14.0289 14.4616 13.9856 14.5801 13.9425L14.3403 13.2848ZM7.55698 19.9519L9.38827 14.7769L8.72837 14.5434L6.89708 19.7184L7.55698 19.9519ZM17.7901 19.8832L15.9588 14.7082L15.2989 14.9417L17.1302 20.1168L17.7901 19.8832ZM11.0513 7.32496C10.8828 7.14747 10.7729 6.95389 10.7874 6.78114L10.0899 6.7227C10.0491 7.20894 10.3442 7.59683 10.5437 7.80698L11.0513 7.32496ZM10.7875 6.77953C10.794 6.69735 10.8238 6.63337 10.8969 6.53009C10.9628 6.4369 11.101 6.26977 11.1965 6.06861L10.5642 5.76837C10.5033 5.8967 10.4344 5.97185 10.3255 6.12578C10.2237 6.26962 10.1108 6.45761 10.0897 6.72431L10.7875 6.77953ZM11.1965 6.06861C11.3856 5.67036 11.4373 5.12457 11.0878 4.36669L10.4521 4.65988C10.7283 5.25875 10.6512 5.58516 10.5642 5.76837L11.1965 6.06861ZM12.7215 6.64425C12.4578 6.41282 12.4382 6.24653 12.435 6.19714L11.7364 6.24136C11.7517 6.4827 11.8609 6.82035 12.2598 7.17038L12.7215 6.64425ZM12.4355 6.20695C12.4311 6.08242 12.4928 5.97144 12.7165 5.63956L12.136 5.24837C11.9547 5.51733 11.7219 5.83277 11.736 6.23155L12.4355 6.20695ZM12.7121 5.64584C12.8293 5.47995 12.9148 5.39417 12.9888 5.31743C13.067 5.23627 13.1685 5.13166 13.2277 4.95351L12.5634 4.73273C12.5582 4.74841 12.5584 4.75524 12.4848 4.83156C12.407 4.9123 12.29 5.03003 12.1403 5.24209L12.7121 5.64584ZM13.2259 4.9587C13.2844 4.79152 13.2952 4.58767 13.2054 4.36394C13.1198 4.15036 12.9516 3.94079 12.6944 3.72954L12.2501 4.27046C12.453 4.43716 12.5287 4.55709 12.5557 4.62454C12.5787 4.68186 12.5711 4.71059 12.5652 4.72754L13.2259 4.9587ZM14.4471 7.32496C14.2785 7.14748 14.1687 6.9539 14.1831 6.78114L13.4856 6.7227C13.4448 7.20893 13.7399 7.59682 13.9394 7.80697L14.4471 7.32496ZM14.1833 6.77953C14.1898 6.69735 14.2196 6.63337 14.2926 6.53009C14.3586 6.43689 14.4967 6.26977 14.5922 6.0686L13.9599 5.76838C13.899 5.8967 13.8301 5.97186 13.7212 6.12579C13.6194 6.26963 13.5066 6.45761 13.4855 6.72431L14.1833 6.77953ZM14.5922 6.0686C14.7813 5.67035 14.833 5.12457 14.4835 4.3667L13.8478 4.65987C14.124 5.25875 14.0469 5.58516 13.9599 5.76838L14.5922 6.0686Z" fill="#06417D"/>
<circle cx="12.5" cy="12.5" r="12" stroke="#003F80"/>
</svg>
