<svg width="25" height="25" viewBox="0 0 25 25" fill="none" xmlns="http://www.w3.org/2000/svg">
<path d="M22 13.5818L22.35 13.5802L22.348 13.1363L21.9168 13.2418L22 13.5818ZM13.0395 14.6598V15.0098L13.0407 15.0098L13.0395 14.6598ZM4 13.5958L4.08316 13.2558L3.64801 13.1494L3.65 13.5973L4 13.5958ZM5.84228 14.7122C5.73212 14.5533 5.51406 14.5139 5.35522 14.624C5.19638 14.7342 5.15692 14.9523 5.26708 15.1111L5.84228 14.7122ZM6.47708 15.8357L6.26708 16.1157L6.26734 16.1158L6.47708 15.8357ZM8.0176 17.0325C8.19923 17.0987 8.4001 17.0051 8.46626 16.8235C8.53242 16.6418 8.43882 16.441 8.25719 16.3748L8.0176 17.0325ZM9.32852 16.8995C9.15062 16.8239 8.94512 16.9069 8.86952 17.0848C8.79393 17.2627 8.87687 17.4682 9.05478 17.5438L9.32852 16.8995ZM9.4633 17.7118C9.64121 17.7874 9.84671 17.7044 9.9223 17.5265C9.99789 17.3486 9.91495 17.1431 9.73704 17.0675L9.4633 17.7118ZM5.43623 18.65C5.24293 18.65 5.08623 18.8067 5.08623 19C5.08623 19.1933 5.24293 19.35 5.43623 19.35V18.65ZM19.8256 19.35C20.0189 19.35 20.1756 19.1933 20.1756 19C20.1756 18.8067 20.0189 18.65 19.8256 18.65V19.35ZM7.05948 13.8911C6.99044 14.0716 7.08084 14.274 7.26139 14.343C7.44195 14.4121 7.64428 14.3217 7.71331 14.1411L7.05948 13.8911ZM8.25608 12.4341L8.53815 12.6413L8.53921 12.6399L8.25608 12.4341ZM10.7497 10.7287C10.9213 10.6396 10.9881 10.4283 10.899 10.2568C10.8099 10.0852 10.5986 10.0184 10.4271 10.1075L10.7497 10.7287ZM6.00941 13.9646C5.99644 14.1575 6.14228 14.3243 6.33514 14.3373C6.52801 14.3503 6.69486 14.2044 6.70783 14.0116L6.00941 13.9646ZM6.89889 12.2661L7.19799 12.4479L7.20023 12.4441L6.89889 12.2661ZM9.43293 10.7546C9.61878 10.7015 9.72634 10.5077 9.67318 10.3219C9.62002 10.136 9.42627 10.0285 9.24042 10.0816L9.43293 10.7546ZM8.60952 14.2242C8.57749 14.4148 8.70605 14.5953 8.89667 14.6273C9.0873 14.6594 9.2678 14.5308 9.29984 14.3402L8.60952 14.2242ZM9.65307 12.5882L9.93763 12.792L9.9383 12.791L9.65307 12.5882ZM12.2927 11.3211C12.4821 11.2824 12.6042 11.0975 12.5655 10.9081C12.5268 10.7187 12.3419 10.5966 12.1525 10.6353L12.2927 11.3211ZM14.3458 8.84425C14.528 8.90879 14.728 8.81339 14.7926 8.63118C14.8571 8.44897 14.7617 8.24895 14.5795 8.18441L14.3458 8.84425ZM14.4609 8.15641C14.2787 8.09188 14.0787 8.18728 14.0141 8.36949C13.9496 8.55169 14.045 8.75172 14.2272 8.81625L14.4609 8.15641ZM11.2362 8.08154C11.4148 8.00772 11.4998 7.80306 11.426 7.62441C11.3522 7.44576 11.1475 7.36077 10.9689 7.43458L11.2362 8.08154ZM10.4832 8.10806L10.6779 8.39891L10.6806 8.39708L10.4832 8.10806ZM8.79654 10.3481L8.4959 10.5273L8.50281 10.5389L8.5106 10.5499L8.79654 10.3481ZM8.98102 10.4461L9.02528 10.0989L9.00324 10.0961H8.98102V10.4461ZM10.9971 10.3621L10.9307 10.7057L10.9323 10.706L10.9971 10.3621ZM12.9342 11.2301L12.8102 11.5574L12.8115 11.5579L12.9342 11.2301ZM15.8068 11.8321L15.7731 12.1804L15.7743 12.1805L15.8068 11.8321ZM17.6384 11.8741L17.3536 11.6707L17.3475 11.6792L17.3419 11.688L17.6384 11.8741ZM16.9532 10.0401L16.6778 10.2561L16.6791 10.2577L16.9532 10.0401ZM16.2927 8.96611C16.1326 8.85784 15.915 8.89989 15.8067 9.06002C15.6985 9.22016 15.7405 9.43774 15.9006 9.54601L16.2927 8.96611ZM9.72637 8.85987C9.54606 8.79021 9.34342 8.87991 9.27376 9.06022C9.20409 9.24053 9.29379 9.44318 9.4741 9.51284L9.72637 8.85987ZM10.9575 9.49435L10.9939 9.14623L10.9904 9.1459L10.9575 9.49435ZM12.5519 9.53635L12.4895 9.88073L12.49 9.88083L12.5519 9.53635ZM14.344 10.5583L14.5112 10.2508L14.5082 10.2492L14.344 10.5583ZM17.2531 11.124C17.4418 11.082 17.5607 10.895 17.5187 10.7063C17.4767 10.5176 17.2897 10.3987 17.101 10.4407L17.2531 11.124ZM14.7261 14.7473C14.8904 14.8491 15.1061 14.7985 15.2079 14.6342C15.3098 14.4699 15.2591 14.2541 15.0948 14.1523L14.7261 14.7473ZM13.1315 13.6098L13.2503 13.2806L13.2493 13.2802L13.1315 13.6098ZM9.48356 12.714C9.29036 12.7201 9.1387 12.8817 9.14483 13.0749C9.15096 13.2681 9.31255 13.4197 9.50575 13.4136L9.48356 12.714ZM16.5441 14.5223C16.6923 14.6463 16.9131 14.6266 17.0371 14.4783C17.1611 14.3301 17.1414 14.1093 16.9932 13.9853L16.5441 14.5223ZM14.5153 12.7978L14.6616 12.4798L14.6612 12.4796L14.5153 12.7978ZM9.93312 11.8654C9.74293 11.8999 9.61671 12.0821 9.65121 12.2723C9.68571 12.4624 9.86786 12.5887 10.0581 12.5542L9.93312 11.8654ZM18.3453 14.3823C18.4778 14.5231 18.6993 14.5298 18.84 14.3973C18.9808 14.2648 18.9875 14.0433 18.855 13.9025L18.3453 14.3823ZM17.5855 13.1624L17.8122 12.8957L17.8096 12.8935L17.5855 13.1624ZM15.8683 11.5669C15.6985 11.4746 15.486 11.5374 15.3937 11.7073C15.3013 11.8771 15.3642 12.0896 15.534 12.1819L15.8683 11.5669ZM19.0696 14.0591C19.0471 14.251 19.1844 14.425 19.3763 14.4476C19.5683 14.4702 19.7423 14.3328 19.7648 14.1409L19.0696 14.0591ZM19.3118 13.204L19.6433 13.0916L19.6417 13.087L19.3118 13.204ZM17.9753 11.5335C17.795 11.4638 17.5924 11.5535 17.5227 11.7338C17.453 11.9141 17.5427 12.1168 17.723 12.1864L17.9753 11.5335ZM14.6602 9.24196L14.3956 9.47109L14.3977 9.47354L14.6602 9.24196ZM14.5284 8.09396L14.1867 8.01766L14.1853 8.02477L14.5284 8.09396ZM15.543 6.69397L15.7404 6.983L15.7429 6.98131L15.543 6.69397ZM17.2297 6.04997L17.5712 5.97343L17.5003 5.6569L17.1793 5.70362L17.2297 6.04997ZM17.2692 7.47796L16.9242 7.41893L16.9237 7.4219L17.2692 7.47796ZM16.4522 9.10196L16.2401 8.8236L16.24 8.82368L16.4522 9.10196ZM16.0005 8.13651C16.101 7.97142 16.0487 7.75608 15.8836 7.65553C15.7185 7.55499 15.5032 7.60731 15.4026 7.7724L16.0005 8.13651ZM14.5329 9.2004C14.4324 9.36549 14.4847 9.58084 14.6498 9.68138C14.8149 9.78193 15.0302 9.72961 15.1308 9.56451L14.5329 9.2004ZM14.1333 9.00399L13.8706 8.77269L13.8694 8.77417L14.1333 9.00399ZM14.2914 7.56199L13.9493 7.63699L13.9528 7.65052L14.2914 7.56199ZM13.0133 5.812L12.8138 6.09982L12.8227 6.10555L13.0133 5.812ZM10.9049 5L10.9575 4.65396L10.6326 4.60466L10.5629 4.92571L10.9049 5ZM10.8522 6.77799L10.5072 6.83704L10.5079 6.841L10.8522 6.77799ZM11.88 8.82199L11.6699 9.10185L11.6712 9.10283L11.88 8.82199ZM12.7026 6.70256C12.5219 6.63398 12.3198 6.7249 12.2512 6.90563C12.1826 7.08635 12.2736 7.28845 12.4543 7.35703L12.7026 6.70256ZM13.29 7.56179L13.0184 7.78262L13.0233 7.78838L13.29 7.56179ZM13.5336 9.09435C13.545 9.28732 13.7106 9.43454 13.9036 9.42319C14.0965 9.41184 14.2438 9.24621 14.2324 9.05324L13.5336 9.09435ZM21.9168 13.2418C20.1034 13.6853 17.0089 14.2959 13.0383 14.3098L13.0407 15.0098C17.0819 14.9956 20.2333 14.3742 22.0831 13.9217L21.9168 13.2418ZM13.0395 14.3098C9.02953 14.3098 5.89581 13.6991 4.08316 13.2558L3.91684 13.9357C5.76744 14.3884 8.95874 15.0098 13.0395 15.0098V14.3098ZM3.65 13.5973C3.65735 15.2529 4.79 16.6982 6.47847 17.7109C8.17483 18.7283 10.4891 19.3497 13.0132 19.3497V18.6497C10.5958 18.6497 8.41007 18.0532 6.83851 17.1106C5.25904 16.1633 4.35582 14.9066 4.35 13.5942L3.65 13.5973ZM13.0132 19.3497C15.5501 19.3497 17.8648 18.7285 19.5552 17.7087C21.2385 16.6932 22.3573 15.243 22.35 13.5802L21.65 13.5833C21.6558 14.9026 20.7651 16.1613 19.1936 17.1093C17.6293 18.053 15.444 18.6497 13.0132 18.6497V19.3497ZM5.26708 15.1111C5.47422 15.4098 5.7909 15.7585 6.26708 16.1157L6.68707 15.5556C6.26721 15.2408 6.00409 14.9455 5.84228 14.7122L5.26708 15.1111ZM6.26734 16.1158C6.88603 16.579 7.54119 16.859 8.0176 17.0325L8.25719 16.3748C7.8112 16.2123 7.22771 15.9603 6.68682 15.5555L6.26734 16.1158ZM9.05478 17.5438C9.12394 17.5732 9.19599 17.6023 9.26462 17.6301C9.33436 17.6583 9.40068 17.6852 9.4633 17.7118L9.73704 17.0675C9.66788 17.0381 9.59583 17.009 9.5272 16.9812C9.45746 16.953 9.39114 16.9261 9.32852 16.8995L9.05478 17.5438ZM5.43623 19.35H19.8256V18.65H5.43623V19.35ZM7.71331 14.1411C7.8748 13.7188 8.13721 13.1871 8.53815 12.6413L7.97401 12.2269C7.53162 12.8291 7.2406 13.4174 7.05948 13.8911L7.71331 14.1411ZM8.53921 12.6399C9.30189 11.5905 10.1888 11.0201 10.7497 10.7287L10.4271 10.1075C9.80206 10.4322 8.81787 11.0658 7.97295 12.2283L8.53921 12.6399ZM6.70783 14.0116C6.73188 13.6539 6.82816 13.0563 7.19796 12.4479L6.59981 12.0843C6.15262 12.82 6.03807 13.5383 6.00941 13.9646L6.70783 14.0116ZM7.20023 12.4441C7.9076 11.2468 9.11495 10.8456 9.43293 10.7546L9.24042 10.0816C8.87319 10.1867 7.44509 10.6535 6.59754 12.0881L7.20023 12.4441ZM9.29984 14.3402C9.36032 13.9803 9.51762 13.3785 9.93763 12.792L9.36851 12.3844C8.86613 13.0859 8.68081 13.8 8.60952 14.2242L9.29984 14.3402ZM9.9383 12.791C10.7523 11.6464 11.9654 11.388 12.2927 11.3211L12.1525 10.6353C11.7946 10.7084 10.3459 11.01 9.36784 12.3854L9.9383 12.791ZM14.5795 8.18441C14.5282 8.16624 14.4802 8.1585 14.4644 8.15569C14.4407 8.1515 14.4491 8.15224 14.4609 8.15641L14.2272 8.81625C14.2785 8.83443 14.3265 8.84216 14.3423 8.84497C14.366 8.84916 14.3576 8.84843 14.3458 8.84425L14.5795 8.18441ZM10.9689 7.43458C10.6976 7.54669 10.476 7.68916 10.2858 7.81904L10.6806 8.39708C10.8594 8.27496 11.0331 8.16543 11.2362 8.08154L10.9689 7.43458ZM10.2885 7.81722C9.77647 8.16002 9.26476 8.6406 8.90918 9.09693C8.73218 9.32408 8.58211 9.56013 8.4939 9.78225C8.4136 9.98442 8.3454 10.2748 8.4959 10.5273L9.09717 10.1688C9.12249 10.2113 9.08229 10.1972 9.14447 10.0406C9.19873 9.90399 9.30562 9.72703 9.46134 9.52718C9.77121 9.12952 10.228 8.7001 10.6779 8.3989L10.2885 7.81722ZM8.5106 10.5499C8.54842 10.6035 8.60549 10.6689 8.6911 10.7195C8.77974 10.7718 8.87851 10.7961 8.98102 10.7961V10.0961C8.99128 10.0961 9.01758 10.0993 9.04692 10.1166C9.07323 10.1322 9.08419 10.1486 9.08247 10.1462L8.5106 10.5499ZM8.93675 10.7932C9.07678 10.8111 9.2279 10.789 9.35082 10.7682C9.49569 10.7436 9.6165 10.7177 9.78438 10.6924C10.0962 10.6453 10.4752 10.6177 10.9307 10.7057L11.0635 10.0184C10.5044 9.91041 10.0401 9.94582 9.67984 10.0002C9.51171 10.0256 9.33933 10.0601 9.23383 10.078C9.10638 10.0996 9.04997 10.102 9.02528 10.0989L8.93675 10.7932ZM10.9323 10.706C11.2858 10.7726 11.4436 10.86 11.6618 10.9911C11.9044 11.1368 12.2064 11.3288 12.8102 11.5574L13.0581 10.9027C12.5155 10.6973 12.2575 10.5323 12.0224 10.391C11.7629 10.2352 11.5254 10.1055 11.062 10.0181L10.9323 10.706ZM12.8115 11.5579C14.017 12.009 15.0444 12.1101 15.7731 12.1804L15.8404 11.4837C15.1197 11.4141 14.1705 11.3191 13.0568 10.9023L12.8115 11.5579ZM15.7743 12.1805C16.5085 12.249 16.9621 12.3036 17.2273 12.318C17.3577 12.3251 17.4891 12.3264 17.6041 12.2975C17.7508 12.2608 17.8604 12.1788 17.9349 12.0601L17.3419 11.688C17.3637 11.6533 17.4058 11.6256 17.4338 11.6186C17.4361 11.618 17.4264 11.6206 17.3958 11.6217C17.3659 11.6228 17.3242 11.6223 17.2654 11.6191C17.0167 11.6055 16.6072 11.5551 15.8393 11.4836L15.7743 12.1805ZM17.9232 12.0774C18.0708 11.8708 18.079 11.6263 18.05 11.4285C18.0203 11.2258 17.9441 11.0168 17.8555 10.8256C17.6774 10.4415 17.4166 10.0608 17.2273 9.82239L16.6791 10.2577C16.8456 10.4673 17.0723 10.8006 17.2204 11.12C17.2948 11.2805 17.3414 11.4207 17.3574 11.53C17.3741 11.644 17.351 11.6743 17.3536 11.6707L17.9232 12.0774ZM17.2286 9.82405C16.9369 9.45217 16.604 9.17658 16.2927 8.96611L15.9006 9.54601C16.1691 9.72754 16.4424 9.95594 16.6778 10.2561L17.2286 9.82405ZM9.4741 9.51284C9.79009 9.63492 10.2958 9.78342 10.9246 9.8428L10.9904 9.1459C10.4332 9.09328 9.99018 8.96179 9.72637 8.85987L9.4741 9.51284ZM10.9211 9.84246C11.3507 9.88735 11.6361 9.87215 11.8721 9.85961C12.1011 9.84744 12.263 9.83966 12.4895 9.88073L12.6144 9.19197C12.3006 9.13505 12.0671 9.14826 11.835 9.1606C11.6098 9.17256 11.368 9.18535 10.9939 9.14625L10.9211 9.84246ZM12.49 9.88083C12.8479 9.94519 13.0681 10.0752 13.2923 10.2434C13.5129 10.4088 13.792 10.6614 14.1798 10.8674L14.5082 10.2492C14.1844 10.0773 13.9957 9.8959 13.7123 9.68334C13.4325 9.4735 13.1124 9.28152 12.6139 9.19188L12.49 9.88083ZM14.1769 10.8658C14.8261 11.2187 15.7967 11.4482 17.2531 11.124L17.101 10.4407C15.7903 10.7325 14.9952 10.5139 14.5112 10.2508L14.1769 10.8658ZM15.0948 14.1523C14.5971 13.8439 13.9686 13.5397 13.2503 13.2806L13.0127 13.939C13.6913 14.1839 14.275 14.4677 14.7261 14.7473L15.0948 14.1523ZM13.2493 13.2802C11.7445 12.7424 10.3924 12.6851 9.48356 12.714L9.50575 13.4136C10.3626 13.3864 11.6196 13.4412 13.0137 13.9394L13.2493 13.2802ZM16.9932 13.9853C16.3581 13.4542 15.5808 12.9025 14.6616 12.4798L14.3691 13.1158C15.2156 13.505 15.9405 14.0174 16.5441 14.5223L16.9932 13.9853ZM14.6612 12.4796C12.7484 11.6024 11.0644 11.6602 9.93312 11.8654L10.0581 12.5542C11.0878 12.3674 12.6191 12.3132 14.3694 13.1159L14.6612 12.4796ZM18.855 13.9025C18.5616 13.5908 18.2219 13.244 17.8122 12.8957L17.3588 13.4291C17.7397 13.7528 18.0589 14.078 18.3453 14.3823L18.855 13.9025ZM17.8096 12.8935C17.119 12.3181 16.4541 11.8853 15.8683 11.5669L15.534 12.1819C16.0815 12.4795 16.7079 12.8868 17.3614 13.4313L17.8096 12.8935ZM19.7648 14.1409C19.7968 13.869 19.7798 13.4943 19.6433 13.0916L18.9803 13.3163C19.0811 13.6136 19.0904 13.883 19.0696 14.0591L19.7648 14.1409ZM19.6417 13.087C19.2383 11.9497 18.0996 11.5815 17.9753 11.5335L17.723 12.1864C17.8886 12.2504 18.7001 12.5263 18.982 13.321L19.6417 13.087ZM14.9248 9.01285C14.8542 8.93139 14.8158 8.79535 14.8158 8.61021C14.8158 8.43148 14.851 8.26488 14.8715 8.16316L14.1853 8.02477C14.1663 8.11905 14.1158 8.35145 14.1158 8.61021C14.1158 8.86258 14.163 9.20253 14.3956 9.47108L14.9248 9.01285ZM14.87 8.17025C15.0228 7.48591 15.5632 7.10402 15.7404 6.98298L15.3456 6.40495C15.1539 6.53591 14.4029 7.05002 14.1868 8.01767L14.87 8.17025ZM15.7429 6.98131C16.0623 6.75919 16.4444 6.61124 16.7575 6.51857C16.912 6.47283 17.0452 6.44186 17.139 6.42246C17.1858 6.41278 17.2225 6.40603 17.2468 6.40181C17.259 6.3997 17.268 6.39822 17.2737 6.39732C17.2765 6.39687 17.2785 6.39657 17.2795 6.3964C17.2801 6.39632 17.2804 6.39627 17.2805 6.39626C17.2805 6.39625 17.2805 6.39625 17.2805 6.39626C17.2804 6.39627 17.2804 6.39627 17.2803 6.39628C17.2803 6.39629 17.2802 6.3963 17.2802 6.3963C17.2802 6.39631 17.2801 6.39632 17.2297 6.04997C17.1793 5.70362 17.1792 5.70363 17.1791 5.70364C17.1791 5.70364 17.179 5.70365 17.179 5.70366C17.1788 5.70368 17.1787 5.7037 17.1785 5.70372C17.1782 5.70377 17.1779 5.70382 17.1775 5.70388C17.1766 5.70401 17.1756 5.70417 17.1743 5.70437C17.1717 5.70476 17.1681 5.70531 17.1637 5.706C17.1549 5.7074 17.1426 5.70942 17.1271 5.71213C17.096 5.71752 17.0519 5.72565 16.9971 5.73697C16.8879 5.75958 16.7353 5.7951 16.5588 5.84736C16.2097 5.95069 15.7485 6.12474 15.3432 6.40662L15.7429 6.98131ZM16.8881 6.1265C16.9481 6.39386 17.0194 6.86301 16.9242 7.41893L17.6142 7.537C17.7299 6.86092 17.6431 6.29407 17.5712 5.97343L16.8881 6.1265ZM16.9237 7.4219C16.8572 7.8317 16.725 8.45397 16.2401 8.8236L16.6644 9.38032C17.3917 8.82596 17.5494 7.93623 17.6147 7.53403L16.9237 7.4219ZM16.24 8.82368C16.031 8.98306 15.7398 9.10557 15.4681 9.13969C15.1887 9.17478 15.0109 9.11045 14.9226 9.01039L14.3977 9.47354C14.7047 9.82147 15.166 9.88314 15.5554 9.83423C15.9524 9.78436 16.3596 9.61286 16.6645 9.38025L16.24 8.82368ZM15.4026 7.7724L14.5329 9.2004L15.1308 9.56451L16.0005 8.13651L15.4026 7.7724ZM14.396 9.23528C14.6692 8.92502 14.7304 8.52508 14.7304 8.21474C14.7304 7.89729 14.6664 7.61256 14.6301 7.47346L13.9528 7.65052C13.9824 7.76343 14.0304 7.98269 14.0304 8.21474C14.0304 8.4539 13.9796 8.64895 13.8706 8.77269L14.396 9.23528ZM14.6333 7.48706C14.378 6.32194 13.4557 5.68193 13.2039 5.51844L12.8227 6.10555C13.0453 6.25006 13.7569 6.75805 13.9496 7.63693L14.6333 7.48706ZM13.2126 5.52431C12.7158 5.1801 12.1501 4.96415 11.7189 4.83456C11.5013 4.76918 11.3135 4.72445 11.1792 4.69592C11.112 4.68164 11.058 4.67137 11.0201 4.66456C11.0011 4.66116 10.9862 4.65862 10.9756 4.65687C10.9704 4.656 10.9662 4.65533 10.9631 4.65485C10.9616 4.65461 10.9604 4.65441 10.9594 4.65427C10.9589 4.65419 10.9585 4.65413 10.9582 4.65408C10.9581 4.65405 10.9579 4.65403 10.9578 4.65401C10.9577 4.654 10.9576 4.65399 10.9576 4.65399C10.9575 4.65397 10.9575 4.65396 10.9049 5C10.8524 5.34604 10.8523 5.34603 10.8523 5.34602C10.8523 5.34602 10.8522 5.34601 10.8522 5.346C10.8521 5.346 10.8521 5.34599 10.8521 5.34599C10.852 5.34598 10.8521 5.34599 10.8522 5.346C10.8524 5.34604 10.8529 5.34611 10.8537 5.34624C10.8552 5.34648 10.8579 5.34691 10.8616 5.34752C10.8691 5.34875 10.8808 5.35074 10.8964 5.35354C10.9276 5.35915 10.9743 5.36801 11.0338 5.38064C11.1527 5.40592 11.3215 5.44607 11.5174 5.50494C11.9131 5.62385 12.4015 5.8139 12.8139 6.09969L13.2126 5.52431ZM10.5629 4.92571C10.4791 5.31137 10.3648 6.0049 10.5072 6.83703L11.1972 6.71896C11.0761 6.01109 11.1726 5.41663 11.247 5.07429L10.5629 4.92571ZM10.5079 6.841C10.5968 7.32671 10.7812 8.4344 11.6699 9.10185L12.0902 8.54213C11.4504 8.06158 11.2921 7.23728 11.1965 6.71499L10.5079 6.841ZM11.6712 9.10283C12.0465 9.38196 12.5439 9.59158 13.0261 9.65385C13.4994 9.71499 14.0428 9.64099 14.3973 9.23381L13.8694 8.77417C13.7363 8.92699 13.4824 9.00698 13.1158 8.95962C12.7579 8.9134 12.3724 8.75202 12.0889 8.54114L11.6712 9.10283ZM12.4543 7.35703C12.5898 7.40846 12.8125 7.52918 13.0184 7.78256L13.5616 7.34102C13.2668 6.9784 12.936 6.79112 12.7026 6.70256L12.4543 7.35703ZM13.0233 7.78838C13.4386 8.2773 13.5222 8.90049 13.5336 9.09435L14.2324 9.05324C14.2175 8.7991 14.1166 7.99428 13.5568 7.33521L13.0233 7.78838Z" fill="#06417D"/>
<circle cx="12.5" cy="12.5" r="12" stroke="#003F80"/>
</svg>
