<svg width="67" height="69" viewBox="0 0 67 69" fill="none" xmlns="http://www.w3.org/2000/svg">
<path d="M41.8379 34.8782C41.8379 34.9915 41.7455 35.0482 41.6531 35.0482C41.5606 35.0482 41.5144 34.9349 41.5144 34.8215C41.5144 34.7082 41.6068 34.6516 41.6993 34.6516C41.7917 34.6516 41.8379 34.7649 41.8379 34.8782Z" stroke="#021245" stroke-width="2" stroke-miterlimit="10"/>
<path d="M62.7267 37.9965C62.8191 37.1465 62.7729 36.1832 62.6343 35.2199C62.6805 35.9566 62.7729 36.8065 62.7267 37.7698C62.7267 37.8265 62.7267 37.8832 62.7267 37.9965Z" stroke="#021245" stroke-width="2" stroke-miterlimit="10"/>
<path d="M62.7261 37.5434C62.7261 37.6567 62.7261 37.7134 62.7261 37.77C62.7261 37.8267 62.7261 37.94 62.7261 37.9967C62.5875 40.9999 61.6633 43.4931 61.6633 43.4931C61.386 44.2297 61.1087 44.853 60.7852 45.4197C52.1898 45.6463 43.4095 45.8163 34.4444 45.8163C34.0285 45.363 33.3353 44.6264 32.6421 43.5498C31.9489 42.4731 31.2558 41.1132 30.7936 39.3566C29.7308 35.3335 30.4702 31.9336 30.7936 30.5737C31.4868 27.5705 32.7808 25.4739 33.6588 24.2839C34.1209 24.5106 34.7217 24.6239 35.3686 24.7372C35.3686 24.7372 35.3686 24.7373 35.3686 24.7939C35.3224 24.9072 35.3224 25.0206 35.3686 25.1906C35.4611 26.2672 35.9694 27.2305 36.7088 27.5705C37.7716 28.0804 39.2042 27.3438 39.7126 25.7005C39.8512 25.7572 40.036 25.8139 40.2209 25.8705C40.6368 26.0405 41.0527 26.2105 41.5148 26.4372C41.6072 26.4938 41.7459 26.5505 41.8383 26.6072C42.3004 26.8905 42.9474 27.1738 43.5944 27.7405C43.6868 27.7971 43.7792 27.9104 43.8716 27.9671C43.9641 28.0238 44.9807 29.1571 45.4891 29.7237C45.0731 31.4803 45.6277 33.3502 46.783 34.3135C48.1231 35.4468 50.064 35.1068 51.2193 33.4635C51.2656 33.5202 51.358 33.5202 51.4042 33.5202C51.5428 33.5769 51.7277 33.6335 51.8663 33.6902C51.9125 33.6902 51.9587 33.7469 52.0049 33.7469C52.2822 33.8602 52.5595 33.9735 52.883 34.0302C53.2527 34.1435 53.6224 34.2568 53.9459 34.3702C54.1307 34.4268 54.3155 34.4835 54.4542 34.5402C55.286 34.7668 56.1178 34.9368 56.9034 34.9935C56.8572 35.3335 57.1345 35.6734 57.5504 35.7868C58.0125 35.9001 58.4746 35.6734 58.6133 35.3335C58.6133 35.2768 58.6133 35.2768 58.6595 35.2201C58.6595 35.2201 58.6595 35.1635 58.6595 35.1068C59.7686 35.1068 60.7852 34.9368 61.7095 34.6535C61.9405 34.5968 62.1254 34.4835 62.3102 34.3702C62.6799 35.6734 62.7261 36.7501 62.7261 37.5434Z" stroke="#021245" stroke-width="2" stroke-miterlimit="10"/>
<path d="M63.3731 28.762C63.142 29.1019 62.8185 29.5552 62.4026 30.0086C61.8481 30.5752 61.2935 30.8585 60.9238 31.0852" stroke="#021245" stroke-width="2" stroke-miterlimit="10" stroke-linecap="round"/>
<path d="M58.7056 31.8782C58.4283 31.8782 58.1972 31.8782 57.9199 31.9349" stroke="#021245" stroke-width="2" stroke-miterlimit="10" stroke-linecap="round"/>
<path d="M38.2329 38.1084C38.1404 38.6751 37.7245 39.0717 37.3086 38.9584C36.8927 38.8451 36.5692 38.3351 36.6616 37.7684C36.7541 37.2018 37.17 36.8051 37.5859 36.9184C38.0018 37.0318 38.2791 37.5417 38.2329 38.1084Z" stroke="#021245" stroke-width="2" stroke-miterlimit="10"/>
<path d="M61.571 22.4138C61.34 22.2438 61.1089 22.0738 60.8779 21.9605C59.168 20.9405 57.2271 20.6572 55.2862 20.6005C55.24 20.6005 55.24 20.5439 55.1937 20.5439C54.2233 22.8671 52.1437 24.227 49.9255 23.7737C47.4301 23.2638 45.674 20.5439 45.8127 17.484C44.1028 16.9174 41.746 16.3507 39.4354 16.5207C38.2338 16.5774 37.0323 16.8607 35.9694 17.4273C33.4278 18.7306 31.6717 21.6772 32.6884 23.4337C32.6884 23.4904 32.7346 23.4904 32.7346 23.5471C32.9656 23.8871 33.2891 24.1704 33.705 24.3404C34.1672 24.567 34.7679 24.6804 35.4149 24.7937C35.4149 24.7937 35.4149 24.7937 35.4149 24.8504C35.4149 24.9637 35.4149 25.077 35.4149 25.247C35.5073 26.3236 36.0157 27.2869 36.755 27.6269C37.8179 28.1369 39.2505 27.4002 39.7588 25.757C39.8975 25.8136 40.0823 25.8703 40.2672 25.927C40.6369 26.0403 41.099 26.267 41.5611 26.4936C41.6535 26.5503 41.7922 26.6069 41.8846 26.6636C42.3467 26.9469 42.9937 27.2302 43.6407 27.7969C43.7331 27.8536 43.8255 27.9669 43.918 28.0235C44.0104 28.0802 44.0566 28.1369 44.149 28.2502C44.6573 28.7602 45.027 29.2702 45.5354 29.8368C45.1195 31.5934 45.674 33.4633 46.8293 34.4266C48.1695 35.5599 50.1104 35.2199 51.2657 33.5766C51.3119 33.6333 51.4043 33.6333 51.4506 33.6333C51.5892 33.69 51.774 33.7466 51.9127 33.8033C51.9589 33.8033 52.0051 33.86 52.0513 33.86C52.3286 33.9733 52.6059 34.0866 52.9293 34.1433C53.299 34.2566 53.6687 34.3699 53.9922 34.4833C54.1771 34.5399 54.3619 34.5966 54.5006 34.6533C55.3786 34.8799 56.1642 35.0499 56.9498 35.1066C56.9036 35.4466 57.1809 35.7865 57.5968 35.8999C58.0589 36.0132 58.521 35.7865 58.6597 35.4466C58.6597 35.3899 58.6597 35.3899 58.7059 35.3332C58.7059 35.3332 58.7059 35.2766 58.7059 35.2199C59.815 35.2199 60.8316 35.0499 61.7559 34.7666C61.9869 34.7099 62.1718 34.5966 62.3566 34.4833C62.5877 34.3699 62.7726 34.2566 63.0036 34.0866C64.8983 32.7833 65.0832 30.6868 65.1756 29.9501C65.5453 27.1736 64.0203 24.1704 61.571 22.4138ZM46.1824 30.2334C46.0899 30.1201 45.8127 29.9501 45.674 29.7801C45.9513 30.0635 46.0899 30.1768 46.1824 30.2334Z" stroke="#021245" stroke-width="2" stroke-miterlimit="10"/>
<path d="M45.9513 17.4853C45.9513 17.2587 45.9975 16.9753 46.0437 16.7487C46.5058 13.4622 49.0475 11.1956 51.774 11.7623C53.068 12.0456 54.177 12.8955 54.9164 14.0855C55.702 15.3887 56.0717 17.032 55.8407 18.7319C55.7483 19.3552 55.6096 19.9219 55.3786 20.4318" stroke="#021245" stroke-width="2" stroke-miterlimit="10" stroke-linecap="round"/>
<path d="M52.0046 16.5211L59.4909 10.2314" stroke="#021245" stroke-width="2" stroke-miterlimit="10" stroke-linecap="round"/>
<path d="M65.1758 45.2495C65.2221 57.3189 51.0811 67.1217 33.6591 67.1784H33.6129C16.3295 67.1784 2.04993 57.3189 2.04993 45.3061C3.11281 45.3628 4.17569 45.3628 5.23857 45.4194C6.44009 45.4761 7.68782 45.4761 8.88934 45.5328C9.25904 45.5328 9.67494 45.5328 10.0446 45.5894C11.9856 45.6461 13.9727 45.6461 15.9598 45.7028C21.4129 45.7594 26.9583 45.8161 32.55 45.8161H33.7053C42.6243 45.8161 51.4046 45.6461 60.0463 45.4194C61.7561 45.3628 63.466 45.3061 65.1758 45.2495Z" stroke="#021245" stroke-width="2" stroke-miterlimit="10"/>
<path d="M9.25879 50.1794C9.85955 51.3127 10.7838 52.7293 12.3088 54.2025C14.2497 56.1291 16.3293 57.4324 17.9467 58.2257" stroke="#021245" stroke-width="2" stroke-miterlimit="10" stroke-linecap="round"/>
<path d="M21.0897 59.6995C22.2912 59.9828 23.4465 60.2662 24.648 60.5495" stroke="#021245" stroke-width="2" stroke-miterlimit="10" stroke-linecap="round"/>
<path d="M57.5508 67.1796H33.6592" stroke="#021245" stroke-width="2" stroke-miterlimit="10" stroke-linecap="round"/>
<path d="M33.6125 67.1796H7.08679" stroke="#021245" stroke-width="2" stroke-miterlimit="10" stroke-linecap="round"/>
<path d="M18.9632 36.9194C19.0397 36.9194 19.1018 36.8433 19.1018 36.7494C19.1018 36.6555 19.0397 36.5794 18.9632 36.5794C18.8866 36.5794 18.8246 36.6555 18.8246 36.7494C18.8246 36.8433 18.8866 36.9194 18.9632 36.9194Z" stroke="#021245" stroke-width="2" stroke-miterlimit="10"/>
<path d="M29.9145 40.3197C29.8221 39.923 29.7759 39.4697 29.7297 38.9597C29.5911 37.8265 29.5911 36.4665 29.7297 34.9366C29.9145 33.4066 30.238 32.1034 30.6077 31.0267C27.3267 27.6269 23.1213 25.8136 18.7774 26.2103C10.413 26.8903 6.06905 35.2766 5.65314 36.0699C5.28345 37.2032 4.82133 38.9031 4.77511 41.113C4.7289 42.7562 4.95996 44.2295 5.19102 45.3628C6.39254 45.4195 7.64027 45.4195 8.84178 45.4761C8.98042 45.3061 9.21148 45.1361 9.44254 45.1361C9.6736 45.1361 9.90466 45.2495 10.0433 45.4761C11.9842 45.5328 13.9713 45.5328 15.9585 45.5895C21.4115 45.7595 26.957 45.8161 32.5486 45.8161C30.8388 43.1529 30.0532 40.773 29.9145 40.3197ZM13.463 35.7299C13.0471 35.7299 12.7236 35.2766 12.7236 34.7099C12.7236 34.1433 13.0471 33.69 13.463 33.69C13.8789 33.69 14.2024 34.1433 14.2024 34.7099C14.2024 35.2766 13.8789 35.7299 13.463 35.7299ZM18.9623 36.5232C19.0547 36.5232 19.1009 36.6365 19.1009 36.6932C19.1009 36.7498 19.0547 36.8632 18.9623 36.8632C18.8698 36.8632 18.8236 36.7498 18.8236 36.6932C18.8236 36.6365 18.916 36.5232 18.9623 36.5232Z" stroke="#021245" stroke-width="2" stroke-miterlimit="10"/>
<path d="M13.4632 35.7866C13.8716 35.7866 14.2026 35.33 14.2026 34.7667C14.2026 34.2034 13.8716 33.7467 13.4632 33.7467C13.0548 33.7467 12.7238 34.2034 12.7238 34.7667C12.7238 35.33 13.0548 35.7866 13.4632 35.7866Z" stroke="#021245" stroke-width="2" stroke-miterlimit="10"/>
<path d="M18.9629 36.9204C19.0395 36.9204 19.1015 36.8443 19.1015 36.7504C19.1015 36.6565 19.0395 36.5804 18.9629 36.5804C18.8864 36.5804 18.8243 36.6565 18.8243 36.7504C18.8243 36.8443 18.8864 36.9204 18.9629 36.9204Z" stroke="#021245" stroke-width="2" stroke-miterlimit="10"/>
<path d="M13.4634 35.7876C13.8718 35.7876 14.2028 35.331 14.2028 34.7677C14.2028 34.2044 13.8718 33.7477 13.4634 33.7477C13.0551 33.7477 12.724 34.2044 12.724 34.7677C12.724 35.331 13.0551 35.7876 13.4634 35.7876Z" stroke="#021245" stroke-width="2" stroke-miterlimit="10"/>
<path d="M18.8706 24.9639C17.4381 24.1706 17.1146 21.6774 17.0221 20.8841C16.6062 17.5409 18.1312 14.7644 18.5934 13.9711C20.3032 10.9112 23.2608 8.81464 23.2608 8.81464C23.8615 9.83459 24.7396 11.5912 25.1555 14.0844C25.4328 15.7276 25.9411 18.7875 24.5085 21.5074C23.3532 23.8306 20.7191 25.9838 18.8706 24.9639Z" stroke="#021245" stroke-width="2" stroke-miterlimit="10" stroke-linecap="round"/>
<path d="M20.6732 18.448L19.6102 25.2477" stroke="#021245" stroke-width="2" stroke-miterlimit="10" stroke-linecap="round"/>
<path d="M16.8829 24.9652C17.5761 22.6987 16.0973 20.1488 15.6351 19.2988C13.6018 15.8423 10.2745 14.9924 9.30407 14.7657C5.56088 13.8591 1.448 15.1624 1.448 15.1624C1.63285 16.6923 2.09497 19.2988 3.48133 21.962C4.35937 23.7186 6.11543 27.0051 9.35028 27.9684C12.0768 28.705 15.9586 27.8551 16.8829 24.9652Z" stroke="#021245" stroke-width="2" stroke-miterlimit="10" stroke-linecap="round"/>
<path d="M9.39746 20.0913C10.0906 20.0913 11.1535 20.2046 12.355 20.8846C14.6656 22.2445 15.821 24.7944 16.1906 25.5877" stroke="#021245" stroke-width="2" stroke-miterlimit="10" stroke-linecap="round"/>
</svg>
