<svg width="25" height="25" viewBox="0 0 25 25" fill="none" xmlns="http://www.w3.org/2000/svg">
<path d="M20.3417 17.6319L20.3412 17.9819L20.6917 17.9824V17.6319H20.3417ZM4.83973 17.6095L4.48973 17.6086L4.48879 17.959L4.83923 17.9595L4.83973 17.6095ZM4.00069 17.6165C3.80739 17.6161 3.65038 17.7725 3.65 17.9658C3.64962 18.1591 3.80601 18.3161 3.99931 18.3165L4.00069 17.6165ZM20.9993 18.35C21.1926 18.3504 21.3496 18.194 21.35 18.0007C21.3504 17.8074 21.194 17.6504 21.0007 17.65L20.9993 18.35ZM12.5345 8.52207L12.5351 8.17207L12.5345 8.52207ZM13.2256 9.20421L12.8756 9.20363L13.2256 9.20421ZM12.5322 9.88413L12.5328 9.53413L12.5322 9.88413ZM11.8411 9.20199L11.4911 9.20141L11.8411 9.20199ZM6.36226 15.5878C6.29398 15.7686 6.38523 15.9706 6.56607 16.0388C6.74691 16.1071 6.94886 16.0159 7.01714 15.835L6.36226 15.5878ZM7.4387 14.3158L7.72151 14.5221L7.72387 14.5188L7.4387 14.3158ZM9.02972 13.1917C9.18579 13.0776 9.21984 12.8587 9.10579 12.7026C8.99173 12.5465 8.77276 12.5125 8.61669 12.6265L9.02972 13.1917ZM9.48186 12.0753C9.29888 12.1376 9.20105 12.3365 9.26337 12.5194C9.32568 12.7024 9.52453 12.8002 9.70751 12.7379L9.48186 12.0753ZM10.5813 12.4365C10.7643 12.3742 10.8621 12.1753 10.7998 11.9923C10.7375 11.8094 10.5387 11.7115 10.3557 11.7739L10.5813 12.4365ZM8.1721 6.72812C8.30989 6.59256 8.3117 6.37096 8.17614 6.23316C8.04058 6.09536 7.81898 6.09355 7.68118 6.22911L8.1721 6.72812ZM7.48405 7.41643L7.83281 7.38689L7.83265 7.38516L7.48405 7.41643ZM8.02878 8.37657L8.34079 8.21799L8.02878 8.37657ZM7.57876 9.84047C7.49319 10.0138 7.56432 10.2237 7.73765 10.3093C7.91097 10.3948 8.12085 10.3237 8.20643 10.1504L7.57876 9.84047ZM12.336 4.27067C12.4855 4.14812 12.5074 3.92759 12.3848 3.7781C12.2622 3.62862 12.0417 3.60678 11.8922 3.72933L12.336 4.27067ZM11.6148 4.79268L11.2654 4.769L11.265 4.77951L11.6148 4.79268ZM12.0347 5.68583L11.7508 5.89065L11.7555 5.89688L12.0347 5.68583ZM12.6135 6.37803L12.2837 6.49536L12.2857 6.50078L12.6135 6.37803ZM11.8784 7.07166C11.725 7.18934 11.6961 7.40905 11.8138 7.56241C11.9314 7.71576 12.1512 7.74468 12.3045 7.627L11.8784 7.07166ZM16.9752 6.17166C17.1016 6.02539 17.0855 5.80437 16.9392 5.67799C16.7929 5.55162 16.5719 5.56774 16.4455 5.71401L16.9752 6.17166ZM16.3359 6.88065L16.6846 6.8511L16.6845 6.84938L16.3359 6.88065ZM16.8011 7.84079L16.4782 7.97594L16.4808 7.98187L16.8011 7.84079ZM16.3554 9.31985C16.2782 9.49706 16.3593 9.70331 16.5365 9.78051C16.7137 9.85771 16.92 9.77663 16.9972 9.59942L16.3554 9.31985ZM20.3422 17.2819L4.84024 17.2595L4.83923 17.9595L20.3412 17.9819L20.3422 17.2819ZM5.18973 17.6105C5.20055 13.5991 8.51176 10.3347 12.6012 10.3454L12.603 9.64538C8.13566 9.63373 4.50161 13.202 4.48973 17.6086L5.18973 17.6105ZM12.6012 10.3454C16.6919 10.3561 19.9917 13.621 19.9917 17.6319H20.6917C20.6917 13.2247 17.069 9.65704 12.603 9.64538L12.6012 10.3454ZM3.99931 18.3165L20.9993 18.35L21.0007 17.65L4.00069 17.6165L3.99931 18.3165ZM12.5339 8.87207C12.7284 8.87238 12.8759 9.02619 12.8756 9.20363L13.5756 9.20479C13.5766 8.62999 13.1053 8.17299 12.5351 8.17207L12.5339 8.87207ZM12.8756 9.20363C12.8753 9.38109 12.7273 9.53444 12.5328 9.53413L12.5317 10.2341C13.1019 10.235 13.5747 9.77958 13.5756 9.20479L12.8756 9.20363ZM12.5328 9.53413C12.3384 9.53382 12.1908 9.38001 12.1911 9.20257L11.4911 9.20141C11.4902 9.77621 11.9615 10.2332 12.5317 10.2341L12.5328 9.53413ZM12.1911 9.20257C12.1914 9.02511 12.3395 8.87176 12.5339 8.87207L12.5351 8.17207C11.9649 8.17116 11.4921 8.62662 11.4911 9.20141L12.1911 9.20257ZM7.01714 15.835C7.15679 15.4651 7.37022 15.0038 7.72149 14.5221L7.1559 14.1096C6.75817 14.655 6.51767 15.1761 6.36226 15.5878L7.01714 15.835ZM7.72387 14.5188C8.17419 13.8859 8.65581 13.465 9.02972 13.1917L8.61669 12.6265C8.19622 12.9338 7.65647 13.4061 7.15352 14.1129L7.72387 14.5188ZM9.70751 12.7379C9.85619 12.6873 10.0019 12.6367 10.1464 12.5865C10.2912 12.5362 10.435 12.4863 10.5813 12.4365L10.3557 11.7739C10.207 11.8245 10.0613 11.8751 9.9168 11.9253C9.77195 11.9755 9.62824 12.0254 9.48186 12.0753L9.70751 12.7379ZM7.68118 6.22911C7.44142 6.46499 7.08638 6.90055 7.13545 7.4477L7.83265 7.38516C7.81363 7.17313 7.95793 6.93882 8.1721 6.72812L7.68118 6.22911ZM7.1353 7.44597C7.16064 7.74512 7.29554 7.95473 7.41783 8.11619C7.54884 8.28917 7.63915 8.38245 7.71676 8.53515L8.34079 8.21799C8.22548 7.99111 8.06045 7.80527 7.97584 7.69356C7.88251 7.57032 7.84151 7.48966 7.8328 7.38689L7.1353 7.44597ZM7.71676 8.53515C7.82955 8.75706 7.92352 9.14219 7.57876 9.84047L8.20643 10.1504C8.63337 9.28563 8.56846 8.66595 8.34079 8.21799L7.71676 8.53515ZM11.8922 3.72933C11.415 4.12061 11.284 4.49772 11.2656 4.76901L11.964 4.81634C11.9683 4.7527 11.9962 4.54926 12.336 4.27067L11.8922 3.72933ZM11.265 4.77951C11.2564 5.01041 11.3238 5.20877 11.4174 5.38597C11.5065 5.55474 11.6314 5.72496 11.7508 5.8906L12.3185 5.48107C12.1884 5.3006 12.0976 5.17496 12.0363 5.05905C11.9796 4.95155 11.9619 4.87639 11.9646 4.80584L11.265 4.77951ZM11.7555 5.89688C11.9373 6.13744 12.0787 6.27034 12.1742 6.36284C12.2666 6.45244 12.2738 6.46754 12.2837 6.49534L12.9432 6.26071C12.8737 6.06523 12.756 5.95194 12.6612 5.86011C12.5695 5.77119 12.4612 5.66964 12.3139 5.47479L11.7555 5.89688ZM12.2857 6.50078C12.2956 6.5273 12.3053 6.56761 12.2734 6.64186C12.2362 6.72861 12.1356 6.8743 11.8784 7.07166L12.3045 7.627C12.6147 7.38896 12.8149 7.15505 12.9166 6.91804C13.0238 6.66851 13.0107 6.44088 12.9412 6.25528L12.2857 6.50078ZM16.4455 5.71401C16.237 5.95537 15.94 6.38505 15.9873 6.91191L16.6845 6.84938C16.6636 6.61705 16.7979 6.37687 16.9752 6.17166L16.4455 5.71401ZM15.9871 6.91019C16.0112 7.19482 16.123 7.39742 16.2279 7.55937C16.3379 7.72909 16.4149 7.82438 16.4783 7.97592L17.124 7.70565C17.0286 7.4776 16.8899 7.29379 16.8154 7.17881C16.7359 7.05607 16.6945 6.96839 16.6846 6.8511L15.9871 6.91019ZM16.4808 7.98187C16.5833 8.2144 16.6629 8.61405 16.3554 9.31985L16.9972 9.59942C17.3706 8.74219 17.3141 8.13705 17.1215 7.6997L16.4808 7.98187Z" fill="#06417D"/>
<circle cx="12.5" cy="12.5" r="12" stroke="#003F80"/>
</svg>
