<svg width="39" height="39" viewBox="0 0 39 39" fill="none" xmlns="http://www.w3.org/2000/svg">
<path d="M34.9197 12.4307L4.51099 12.4758C4.53325 20.9894 11.3451 27.8995 19.7376 27.8769C28.13 27.8769 34.9419 20.9442 34.9197 12.4307Z" stroke="#06417D" stroke-miterlimit="10"/>
<path d="M1.41699 14.3953L37.7027 14.3501" stroke="#06417D" stroke-miterlimit="10" stroke-linecap="round"/>
<path d="M30.0003 16.7433C29.7109 17.5337 29.2657 18.5273 28.5311 19.5661C27.5961 20.921 26.5943 21.8243 25.8152 22.4114" stroke="#06417D" stroke-miterlimit="10" stroke-linecap="round"/>
<path d="M24.3015 23.4286C23.7227 23.6318 23.1662 23.8351 22.5874 24.0383" stroke="#06417D" stroke-miterlimit="10" stroke-linecap="round"/>
<path d="M6.8042 37.9261L11.2342 25.8672" stroke="#06417D" stroke-miterlimit="10" stroke-linecap="round"/>
<path d="M31.5587 38.3102L27.1287 26.2512" stroke="#06417D" stroke-miterlimit="10" stroke-linecap="round"/>
<path d="M15.4415 9.33609C14.9963 8.88444 14.5065 8.20697 14.5733 7.43918C14.6401 6.62621 15.2634 6.26489 15.6419 5.49709C15.9758 4.81962 16.1316 3.80342 15.3747 2.22266" stroke="#06417D" stroke-miterlimit="10" stroke-linecap="round"/>
<path d="M19.5371 7.8013C18.7357 7.12383 18.5799 6.53669 18.5576 6.19796C18.5354 5.58824 18.8915 5.09143 19.3813 4.39137C20.0268 3.51066 20.3608 3.44292 20.5166 2.99127C20.6724 2.56221 20.6056 1.90732 19.4926 1.02661" stroke="#06417D" stroke-miterlimit="10" stroke-linecap="round"/>
<path d="M23.6558 9.33609C23.2106 8.88444 22.7209 8.20697 22.7876 7.43918C22.8544 6.62621 23.4777 6.26489 23.8561 5.49709C24.1901 4.81962 24.3459 3.80342 23.589 2.22266" stroke="#06417D" stroke-miterlimit="10" stroke-linecap="round"/>
</svg>
