<svg width="77" height="57" viewBox="0 0 77 57" fill="none" xmlns="http://www.w3.org/2000/svg">
<path d="M75.862 34.7356C68.254 36.4429 55.2819 38.7906 38.6426 38.8439C21.8391 38.8439 8.70282 36.4963 1.09473 34.7889C1.14946 46.1001 18.0077 55.3839 38.5331 55.3839C59.168 55.3839 75.9168 46.1001 75.862 34.7356Z" stroke="#021245" stroke-width="2" stroke-miterlimit="10"/>
<path d="M7.55273 39.8038C8.31902 40.8176 9.52317 42.0447 11.3841 43.3252C13.7925 44.9792 16.365 45.9929 18.2807 46.6332" stroke="#021245" stroke-width="2" stroke-miterlimit="10" stroke-linecap="round"/>
<path d="M22.6599 48.6075C23.2073 48.821 23.8095 49.0344 24.3569 49.2478" stroke="#021245" stroke-width="2" stroke-miterlimit="10" stroke-linecap="round"/>
<path d="M7.06042 55.3851H66.8304" stroke="#021245" stroke-width="2" stroke-miterlimit="10" stroke-linecap="round"/>
<path d="M15.1613 36.3912C15.8728 34.6839 17.0222 32.5497 18.7737 30.3621C22.1125 26.1471 25.9986 23.8529 28.4616 22.6791" stroke="#021245" stroke-width="2" stroke-miterlimit="10" stroke-linecap="round"/>
<path d="M10.8921 36.2845C11.0016 34.7906 11.4394 32.2829 13.1362 29.7219C16.3656 24.7066 21.8391 23.0526 23.2623 22.6791" stroke="#021245" stroke-width="2" stroke-miterlimit="10" stroke-linecap="round"/>
<path d="M21.6757 37.4052C21.9493 35.9112 22.6609 33.4036 24.5766 30.9493C28.2985 26.1473 33.8267 25.0802 35.2498 24.8135" stroke="#021245" stroke-width="2" stroke-miterlimit="10" stroke-linecap="round"/>
<path d="M44.554 15.4251C44.3898 15.3717 44.2256 15.3717 44.0614 15.3184" stroke="#021245" stroke-width="2" stroke-miterlimit="10" stroke-linecap="round"/>
<path d="M30.5974 12.5417C29.6121 12.9152 28.7911 13.3954 28.0248 13.8756C24.0292 16.3299 19.9789 20.8117 21.0188 22.4123C21.183 22.6258 21.402 22.7858 21.7851 22.7858C23.1535 22.9459 25.9449 21.7187 30.1595 22.4657C33.553 23.0526 33.4436 24.1197 38.2054 25.7737C43.0221 27.4277 47.1272 27.8011 50.1376 28.0679C56.3773 28.6015 57.3078 28.8682 57.7457 28.228C58.9498 26.6807 56.3773 22.9459 54.8995 21.2385C53.8048 19.958 52.5459 18.9976 51.3417 18.2507" stroke="#021245" stroke-width="2" stroke-miterlimit="10" stroke-linecap="round"/>
<path d="M24.3569 17.9847C25.5611 18.4116 27.5315 18.9451 29.9946 19.1585C33.3334 19.4787 34.3734 18.9451 36.6175 19.3186C40.1752 19.9055 41.1057 21.7729 44.0614 23.2135C46.415 24.3873 50.0822 25.241 55.8293 24.0672" stroke="#021245" stroke-width="2" stroke-miterlimit="10" stroke-linecap="round"/>
<path d="M46.4141 38.0446C44.4436 36.9242 41.9258 35.8038 39.0249 34.8434C33.004 32.8693 27.5852 32.6559 23.918 32.7626" stroke="#021245" stroke-width="2" stroke-miterlimit="10" stroke-linecap="round"/>
<path d="M54.1321 37.2987C51.5596 35.3245 48.4398 33.2971 44.7726 31.7498C37.1645 28.5485 30.4869 28.7619 25.9987 29.5089" stroke="#021245" stroke-width="2" stroke-miterlimit="10" stroke-linecap="round"/>
<path d="M61.7404 36.8727C60.5362 35.6989 59.1679 34.4184 57.5259 33.1379C54.7344 31.0037 52.0524 29.403 49.6989 28.2292" stroke="#021245" stroke-width="2" stroke-miterlimit="10" stroke-linecap="round"/>
<path d="M65.1347 36.711C65.2442 35.8573 65.1895 34.6301 64.6968 33.2963C63.2738 29.6148 59.2234 28.3876 58.6213 28.1742" stroke="#021245" stroke-width="2" stroke-miterlimit="10" stroke-linecap="round"/>
<path d="M45.3742 18.1965C44.1153 16.8627 44.6627 14.5684 44.8269 13.8214C45.5932 10.6735 48.2752 8.96613 49.0415 8.48594C52.0519 6.56516 56.0475 6.03162 56.0475 6.03162C56.3212 7.15207 56.6496 9.1262 56.2117 11.4738C55.938 13.0211 55.336 15.9023 52.8182 17.663C50.6835 19.1569 47.0163 19.9039 45.3742 18.1965Z" stroke="#021245" stroke-width="2" stroke-miterlimit="10" stroke-linecap="round"/>
<path d="M49.6999 13.2893L46.0875 18.7315" stroke="#021245" stroke-width="2" stroke-miterlimit="10" stroke-linecap="round"/>
<path d="M43.1856 17.2891C44.7729 15.6351 44.1161 12.7539 43.8424 11.7935C42.9119 7.89867 39.5184 5.71113 38.5332 5.12423C34.7565 2.72327 29.7757 2.02966 29.7757 2.02966C29.4473 3.41688 29.0094 5.87119 29.5568 8.80569C29.9399 10.7265 30.6515 14.4079 33.8261 16.5955C36.5628 18.4629 41.1605 19.4233 43.1856 17.2891Z" stroke="#021245" stroke-width="2" stroke-miterlimit="10" stroke-linecap="round"/>
<path d="M36.7272 9.76624C37.4935 10.033 38.6429 10.6199 39.6828 11.7937C41.708 13.9812 42.0912 16.7023 42.1459 17.556" stroke="#021245" stroke-width="2" stroke-miterlimit="10" stroke-linecap="round"/>
</svg>
