<svg width="42" height="35" viewBox="0 0 42 35" fill="none" xmlns="http://www.w3.org/2000/svg">
<path d="M26.3433 17.7574C26.3433 17.8159 26.2852 17.8452 26.2271 17.8452C26.169 17.8452 26.1399 17.7867 26.1399 17.7282C26.1399 17.6696 26.198 17.6404 26.2561 17.6404C26.3142 17.6404 26.3433 17.6989 26.3433 17.7574Z" stroke="#06417D" stroke-miterlimit="10"/>
<path d="M39.476 19.367C39.5341 18.9282 39.5051 18.4308 39.418 17.9335C39.447 18.3138 39.5051 18.7526 39.476 19.25C39.476 19.2792 39.476 19.3085 39.476 19.367Z" stroke="#06417D" stroke-miterlimit="10"/>
<path d="M39.4762 19.1332C39.4762 19.1917 39.4762 19.221 39.4762 19.2502C39.4762 19.2795 39.4762 19.338 39.4762 19.3673C39.3891 20.9178 38.808 22.205 38.808 22.205C38.6336 22.5853 38.4593 22.9072 38.2559 23.1997C32.8519 23.3167 27.3316 23.4045 21.6951 23.4045C21.4336 23.1705 20.9978 22.7901 20.562 22.2343C20.1261 21.6784 19.6903 20.9763 19.3998 20.0694C18.7316 17.9923 19.1964 16.2369 19.3998 15.5348C19.8356 13.9843 20.6491 12.9018 21.2012 12.2875C21.4917 12.4045 21.8694 12.463 22.2762 12.5215C22.2762 12.5215 22.2762 12.5215 22.2762 12.5508C22.2471 12.6093 22.2471 12.6678 22.2762 12.7556C22.3343 13.3114 22.6539 13.8088 23.1187 13.9843C23.787 14.2476 24.6877 13.8673 25.0072 13.0189C25.0944 13.0481 25.2106 13.0774 25.3268 13.1066C25.5883 13.1944 25.8498 13.2822 26.1404 13.3992C26.1985 13.4284 26.2856 13.4577 26.3437 13.4869C26.6343 13.6332 27.041 13.7795 27.4478 14.072C27.5059 14.1013 27.564 14.1598 27.6221 14.1891C27.6802 14.2183 28.3194 14.8034 28.639 15.096C28.3775 16.0029 28.7262 16.9683 29.4525 17.4657C30.2951 18.0508 31.5154 17.8752 32.2417 17.0268C32.2708 17.0561 32.3289 17.0561 32.3579 17.0561C32.4451 17.0853 32.5613 17.1146 32.6485 17.1439C32.6775 17.1439 32.7066 17.1731 32.7357 17.1731C32.91 17.2316 33.0843 17.2901 33.2877 17.3194C33.5201 17.3779 33.7525 17.4364 33.9559 17.4949C34.0721 17.5242 34.1884 17.5534 34.2755 17.5827C34.7985 17.6997 35.3215 17.7875 35.8154 17.8167C35.7863 17.9923 35.9607 18.1678 36.2222 18.2263C36.5127 18.2848 36.8032 18.1678 36.8904 17.9923C36.8904 17.963 36.8904 17.963 36.9194 17.9338C36.9194 17.9338 36.9194 17.9045 36.9194 17.8752C37.6167 17.8752 38.2559 17.7875 38.837 17.6412C38.9823 17.6119 39.0985 17.5534 39.2147 17.4949C39.4472 18.1678 39.4762 18.7236 39.4762 19.1332Z" stroke="#06417D" stroke-miterlimit="10"/>
<path d="M39.8829 14.5991C39.7377 14.7747 39.5343 15.0087 39.2728 15.2428C38.9241 15.5353 38.5755 15.6816 38.343 15.7986" stroke="#06417D" stroke-miterlimit="10" stroke-linecap="round"/>
<path d="M36.9482 16.2081C36.7739 16.2081 36.6287 16.2081 36.4543 16.2374" stroke="#06417D" stroke-miterlimit="10" stroke-linecap="round"/>
<path d="M24.077 19.4254C24.0189 19.7179 23.7574 19.9227 23.4959 19.8642C23.2344 19.8057 23.031 19.5424 23.0891 19.2498C23.1472 18.9573 23.4087 18.7525 23.6702 18.811C23.9317 18.8695 24.106 19.1328 24.077 19.4254Z" stroke="#06417D" stroke-miterlimit="10"/>
<path d="M38.7494 11.3216C38.6042 11.2338 38.4589 11.146 38.3136 11.0875C37.2386 10.5609 36.0184 10.4147 34.7981 10.3854C34.769 10.3854 34.769 10.3561 34.74 10.3561C34.1298 11.5556 32.8224 12.2577 31.4278 12.0237C29.8589 11.7604 28.7548 10.3561 28.842 8.77636C27.767 8.4838 26.2852 8.19125 24.8325 8.27902C24.0771 8.30827 23.3217 8.45455 22.6534 8.7471C21.0555 9.41997 19.9514 10.9412 20.5906 11.8482C20.5906 11.8774 20.6197 11.8774 20.6197 11.9067C20.7649 12.0822 20.9683 12.2285 21.2298 12.3162C21.5203 12.4333 21.898 12.4918 22.3048 12.5503C22.3048 12.5503 22.3048 12.5503 22.3048 12.5795C22.3048 12.6381 22.3048 12.6966 22.3048 12.7843C22.3629 13.3402 22.6825 13.8375 23.1474 14.0131C23.8156 14.2763 24.7163 13.896 25.0359 13.0476C25.123 13.0769 25.2393 13.1061 25.3555 13.1354C25.5879 13.1939 25.8785 13.3109 26.169 13.4279C26.2271 13.4572 26.3143 13.4865 26.3724 13.5157C26.6629 13.662 27.0697 13.8083 27.4764 14.1008C27.5345 14.1301 27.5927 14.1886 27.6508 14.2178C27.7089 14.2471 27.7379 14.2763 27.796 14.3349C28.1156 14.5982 28.3481 14.8615 28.6677 15.154C28.4062 16.0609 28.7548 17.0263 29.4812 17.5237C30.3237 18.1088 31.544 17.9333 32.2704 17.0849C32.2994 17.1141 32.3575 17.1141 32.3866 17.1141C32.4737 17.1434 32.59 17.1726 32.6771 17.2019C32.7062 17.2019 32.7352 17.2311 32.7643 17.2311C32.9386 17.2896 33.1129 17.3482 33.3163 17.3774C33.5488 17.4359 33.7812 17.4944 33.9846 17.5529C34.1008 17.5822 34.217 17.6115 34.3042 17.6407C34.8562 17.7577 35.3501 17.8455 35.844 17.8747C35.815 18.0503 35.9893 18.2258 36.2508 18.2843C36.5413 18.3428 36.8319 18.2258 36.919 18.0503C36.919 18.021 36.919 18.021 36.9481 17.9918C36.9481 17.9918 36.9481 17.9625 36.9481 17.9333C37.6454 17.9333 38.2846 17.8455 38.8657 17.6992C39.0109 17.67 39.1271 17.6115 39.2434 17.5529C39.3886 17.4944 39.5049 17.4359 39.6501 17.3482C40.8413 16.6753 40.9576 15.5928 41.0157 15.2125C41.2481 13.779 40.2893 12.2285 38.7494 11.3216ZM29.0744 15.3588C29.0163 15.3003 28.842 15.2125 28.7548 15.1248C28.9291 15.271 29.0163 15.3295 29.0744 15.3588Z" stroke="#06417D" stroke-miterlimit="10"/>
<path d="M28.929 8.777C28.929 8.65998 28.958 8.5137 28.9871 8.39668C29.2776 6.69987 30.8756 5.52966 32.5898 5.82221C33.4033 5.96849 34.1006 6.40732 34.5655 7.02168C35.0594 7.69455 35.2918 8.54296 35.1465 9.42062C35.0884 9.74243 35.0013 10.035 34.856 10.2983" stroke="#06417D" stroke-miterlimit="10" stroke-linecap="round"/>
<path d="M32.7349 8.27945L37.4417 5.0321" stroke="#06417D" stroke-miterlimit="10" stroke-linecap="round"/>
<path d="M41.0161 23.1118C41.0451 29.3432 32.1545 34.4043 21.2011 34.4336H21.1721C10.3058 34.4336 1.32812 29.3432 1.32812 23.1411C1.99637 23.1703 2.66461 23.1703 3.33286 23.1996C4.08827 23.2288 4.87273 23.2288 5.62813 23.2581C5.86057 23.2581 6.12205 23.2581 6.35449 23.2873C7.57476 23.3166 8.82409 23.3166 10.0734 23.3459C13.5018 23.3751 16.9883 23.4044 20.5038 23.4044H21.2302C26.8376 23.4044 32.3579 23.3166 37.791 23.1996C38.866 23.1703 39.9411 23.1411 41.0161 23.1118Z" stroke="#06417D" stroke-miterlimit="10"/>
<path d="M5.8606 25.6573C6.2383 26.2425 6.81938 26.9738 7.77817 27.7345C8.99845 28.7292 10.3059 29.402 11.3228 29.8116" stroke="#06417D" stroke-miterlimit="10" stroke-linecap="round"/>
<path d="M13.2986 30.572C14.054 30.7183 14.7804 30.8646 15.5358 31.0108" stroke="#06417D" stroke-miterlimit="10" stroke-linecap="round"/>
<path d="M36.222 34.434H21.2009" stroke="#06417D" stroke-miterlimit="10" stroke-linecap="round"/>
<path d="M21.1719 34.434H4.49487" stroke="#06417D" stroke-miterlimit="10" stroke-linecap="round"/>
<path d="M11.9614 18.811C12.0096 18.811 12.0486 18.7717 12.0486 18.7233C12.0486 18.6748 12.0096 18.6355 11.9614 18.6355C11.9133 18.6355 11.8743 18.6748 11.8743 18.7233C11.8743 18.7717 11.9133 18.811 11.9614 18.811Z" stroke="#06417D" stroke-miterlimit="10"/>
<path d="M18.8471 20.5667C18.789 20.3619 18.7599 20.1278 18.7309 19.8645C18.6437 19.2794 18.6437 18.5773 18.7309 17.7874C18.8471 16.9975 19.0505 16.3246 19.2829 15.7688C17.22 14.0135 14.5761 13.0773 11.845 13.2821C6.5862 13.6331 3.8551 17.9629 3.59361 18.3725C3.36118 18.9576 3.07064 19.8353 3.04158 20.9762C3.01253 21.8246 3.1578 22.5853 3.30307 23.1704C4.05848 23.1996 4.84294 23.1996 5.59835 23.2289C5.68552 23.1411 5.83079 23.0534 5.97606 23.0534C6.12133 23.0534 6.2666 23.1119 6.35376 23.2289C7.57404 23.2581 8.82337 23.2581 10.0727 23.2874C13.5011 23.3752 16.9876 23.4044 20.5032 23.4044C19.4282 22.0294 18.9342 20.8007 18.8471 20.5667ZM8.50378 18.197C8.24229 18.197 8.03891 17.9629 8.03891 17.6704C8.03891 17.3778 8.24229 17.1438 8.50378 17.1438C8.76526 17.1438 8.96864 17.3778 8.96864 17.6704C8.96864 17.9629 8.76526 18.197 8.50378 18.197ZM11.9612 18.6065C12.0193 18.6065 12.0484 18.6651 12.0484 18.6943C12.0484 18.7236 12.0193 18.7821 11.9612 18.7821C11.9031 18.7821 11.8741 18.7236 11.8741 18.6943C11.8741 18.6651 11.9322 18.6065 11.9612 18.6065Z" stroke="#06417D" stroke-miterlimit="10"/>
<path d="M8.50365 18.2263C8.76037 18.2263 8.96848 17.9905 8.96848 17.6997C8.96848 17.4089 8.76037 17.1731 8.50365 17.1731C8.24693 17.1731 8.03882 17.4089 8.03882 17.6997C8.03882 17.9905 8.24693 18.2263 8.50365 18.2263Z" stroke="#06417D" stroke-miterlimit="10"/>
<path d="M11.9614 18.8114C12.0096 18.8114 12.0486 18.7721 12.0486 18.7236C12.0486 18.6752 12.0096 18.6359 11.9614 18.6359C11.9133 18.6359 11.8743 18.6752 11.8743 18.7236C11.8743 18.7721 11.9133 18.8114 11.9614 18.8114Z" stroke="#06417D" stroke-miterlimit="10"/>
<path d="M8.50389 18.2267C8.76061 18.2267 8.96872 17.9909 8.96872 17.7001C8.96872 17.4092 8.76061 17.1735 8.50389 17.1735C8.24717 17.1735 8.03906 17.4092 8.03906 17.7001C8.03906 17.9909 8.24717 18.2267 8.50389 18.2267Z" stroke="#06417D" stroke-miterlimit="10"/>
<path d="M11.9034 12.6382C11.0027 12.2286 10.7993 10.9414 10.7412 10.5318C10.4797 8.80574 11.4385 7.37223 11.7291 6.96265C12.8041 5.38286 14.6636 4.30042 14.6636 4.30042C15.0413 4.82701 15.5933 5.73393 15.8548 7.02116C16.0291 7.86957 16.3487 9.44936 15.448 10.8536C14.7217 12.0531 13.0656 13.1648 11.9034 12.6382Z" stroke="#06417D" stroke-miterlimit="10" stroke-linecap="round"/>
<path d="M13.0371 9.27429L12.3689 12.7849" stroke="#06417D" stroke-miterlimit="10" stroke-linecap="round"/>
<path d="M10.654 12.6391C11.0898 11.4689 10.1601 10.1524 9.86957 9.71356C8.59119 7.92898 6.49929 7.49015 5.88915 7.37313C3.53577 6.90504 0.949951 7.57792 0.949951 7.57792C1.06617 8.36781 1.35671 9.71356 2.22833 11.0886C2.78036 11.9955 3.88442 13.6923 5.91821 14.1896C7.6324 14.57 10.0729 14.1311 10.654 12.6391Z" stroke="#06417D" stroke-miterlimit="10" stroke-linecap="round"/>
<path d="M5.94751 10.1224C6.38332 10.1224 7.05157 10.1809 7.80698 10.532C9.25969 11.2341 9.98604 12.5506 10.2185 12.9602" stroke="#06417D" stroke-miterlimit="10" stroke-linecap="round"/>
</svg>
