<svg width="69" height="59" viewBox="0 0 69 59" fill="none" xmlns="http://www.w3.org/2000/svg">
<path d="M67.42 30.4097L3.17261 30.5206C3.17261 44.7795 17.5955 56.3198 35.3998 56.3198C53.1351 56.2643 67.489 44.724 67.42 30.4097Z" stroke="#021245" stroke-width="2" stroke-miterlimit="10"/>
<path d="M57.0686 37.6232C56.4475 38.9547 55.4814 40.6192 53.9632 42.3391C52.031 44.6139 49.8227 46.1119 48.2355 47.1106" stroke="#021245" stroke-width="2" stroke-miterlimit="10" stroke-linecap="round"/>
<path d="M44.9925 48.8286C43.8193 49.1615 42.5772 49.4944 41.4041 49.8273" stroke="#021245" stroke-width="2" stroke-miterlimit="10" stroke-linecap="round"/>
<path d="M20.7004 57.3742L49.3392 57.3187" stroke="#021245" stroke-width="2" stroke-miterlimit="10" stroke-linecap="round"/>
<path d="M50.0987 28.5005C48.7185 26.6595 49.7536 23.9638 50.1677 23.0434C51.6169 19.3614 55.2743 17.6519 56.3095 17.126C60.381 15.2192 65.4876 15.2192 65.4876 15.2192C65.6947 16.6657 65.7637 19.0984 64.7976 21.8599C64.1765 23.7008 63.0033 27.1855 59.5529 28.9607C56.5855 30.473 51.8929 30.8017 50.0987 28.5005Z" stroke="#021245" stroke-width="2" stroke-miterlimit="10" stroke-linecap="round"/>
<path d="M56.3093 23.1761L50.9265 29.2251" stroke="#021245" stroke-width="2" stroke-miterlimit="10" stroke-linecap="round"/>
<path d="M20.8384 27.3192C22.5637 25.018 21.1835 21.6648 20.7004 20.4813C18.8372 15.8789 14.2826 13.775 12.9024 13.1832C7.72679 10.8163 1.37799 10.8163 1.37799 10.8163C1.17097 12.5915 1.03295 15.6817 2.27511 19.1664C3.0342 21.4676 4.55239 25.807 8.96895 27.9767C12.7644 29.8177 18.6302 30.2121 20.8384 27.3192Z" stroke="#021245" stroke-width="2" stroke-miterlimit="10" stroke-linecap="round"/>
<path d="M11.4534 19.1641C12.4195 19.4271 13.9377 19.8873 15.5249 21.1365C18.4922 23.5035 19.3893 26.7252 19.5963 27.7772" stroke="#021245" stroke-width="2" stroke-miterlimit="10" stroke-linecap="round"/>
<path d="M35.8824 28.3043C35.8824 28.6987 35.8134 29.0275 35.8134 29.422H21.3905C21.3215 29.0932 21.3215 28.6987 21.3215 28.3043C21.3215 24.4908 24.565 21.4006 28.5675 21.4006C32.639 21.4006 35.8824 24.4908 35.8824 28.3043Z" stroke="#021245" stroke-width="2" stroke-miterlimit="10" stroke-linecap="round"/>
<path d="M16.7675 13.9705C16.0774 10.2886 17.1125 6.67243 19.4588 4.89722C23.1853 2.07003 29.3271 4.56848 30.0862 7.65866C30.2932 8.44765 30.0862 9.17088 29.8792 9.76262C29.8102 9.23663 29.6031 6.0807 31.6734 3.648C34.2267 0.689309 37.8842 1.41254 38.3673 1.54404C41.8867 2.33302 43.4739 5.68621 43.957 6.60669C45.4062 9.63112 45.0611 12.5898 44.9231 13.576C47.5455 10.2229 51.617 10.0256 53.6182 12.0638C54.9294 13.4445 55.2745 15.7457 54.7914 17.9812" stroke="#021245" stroke-width="2" stroke-miterlimit="10" stroke-linecap="round"/>
<path d="M47.2007 28.7652C47.2007 29.0282 47.2007 29.2254 47.1317 29.4227H38.2297C38.2297 29.2254 38.1606 28.9624 38.1606 28.7652C38.1606 26.3982 40.1619 24.4915 42.6462 24.4915C45.1995 24.4257 47.2007 26.3982 47.2007 28.7652Z" stroke="#021245" stroke-width="2" stroke-miterlimit="10" stroke-linecap="round"/>
</svg>
