<svg width="34" height="35" viewBox="0 0 34 35" fill="none" xmlns="http://www.w3.org/2000/svg">
<path d="M30.5457 11.0938L31.0457 11.0925L31.0444 10.593L30.545 10.5938L30.5457 11.0938ZM3.72864 11.1337L3.7279 10.6337L3.22734 10.6345L3.22865 11.135L3.72864 11.1337ZM17.1568 24.7654V24.2654L17.1555 24.2654L17.1568 24.7654ZM0.999375 12.3327C0.723233 12.3331 0.499655 12.5572 0.5 12.8333C0.500345 13.1095 0.724483 13.3331 1.00062 13.3327L0.999375 12.3327ZM33.0006 13.2927C33.2768 13.2924 33.5003 13.0683 33.5 12.7921C33.4997 12.516 33.2755 12.2924 32.9994 12.2927L33.0006 13.2927ZM26.6772 15.0823C26.7718 14.8229 26.6382 14.5359 26.3788 14.4412C26.1194 14.3466 25.8324 14.4802 25.7377 14.7396L26.6772 15.0823ZM24.9117 17.4094L24.503 17.1214L24.4997 17.1261L24.9117 17.4094ZM22.215 19.5291C21.9948 19.6956 21.9513 20.0092 22.1178 20.2295C22.2844 20.4497 22.598 20.4932 22.8182 20.3266L22.215 19.5291ZM21.348 21.2997C21.6084 21.2079 21.7451 20.9224 21.6533 20.6619C21.5615 20.4015 21.276 20.2648 21.0156 20.3566L21.348 21.2997ZM19.5039 20.8962C19.2435 20.988 19.1067 21.2736 19.1985 21.534C19.2903 21.7944 19.5758 21.9312 19.8363 21.8394L19.5039 20.8962ZM5.28147 33.4881C5.18655 33.7475 5.31982 34.0346 5.57914 34.1295C5.83846 34.2245 6.12562 34.0912 6.22054 33.8319L5.28147 33.4881ZM10.1273 23.1584C10.2222 22.8991 10.0889 22.612 9.82961 22.517C9.57029 22.4221 9.28312 22.5554 9.18821 22.8147L10.1273 23.1584ZM27.1122 34.1719C27.2071 34.4312 27.4943 34.5645 27.7536 34.4695C28.0129 34.3746 28.1462 34.0875 28.0513 33.8281L27.1122 34.1719ZM24.1444 23.1547C24.0495 22.8954 23.7624 22.7621 23.503 22.857C23.2437 22.9519 23.1105 23.2391 23.2054 23.4984L24.1444 23.1547ZM13.0114 8.70518C13.2049 8.90218 13.5215 8.90502 13.7185 8.71152C13.9155 8.51802 13.9183 8.20145 13.7248 8.00444L13.0114 8.70518ZM12.6024 6.67583L13.1006 6.719L13.1008 6.71662L12.6024 6.67583ZM13.5448 4.95688L13.9936 5.17729L13.5448 4.95688ZM13.7605 1.84336C13.6416 1.59412 13.3431 1.48847 13.0939 1.60738C12.8447 1.72628 12.739 2.02471 12.8579 2.27394L13.7605 1.84336ZM16.6566 7.37759C16.8671 7.55625 17.1826 7.53038 17.3613 7.31981C17.5399 7.10925 17.5141 6.79373 17.3035 6.61507L16.6566 7.37759ZM16.1162 5.5772L15.6166 5.59538L15.6168 5.60263L15.6173 5.60987L16.1162 5.5772ZM16.8426 3.97818L16.4387 3.68321L16.4324 3.69226L16.8426 3.97818ZM17.8438 2.73894L17.3736 2.56878L17.371 2.57639L17.8438 2.73894ZM17.2517 0.60845C17.0355 0.436718 16.721 0.472805 16.5492 0.689052C16.3775 0.905299 16.4136 1.21982 16.6298 1.39155L17.2517 0.60845ZM20.2555 8.70517C20.449 8.90218 20.7656 8.90503 20.9626 8.71153C21.1596 8.51803 21.1625 8.20146 20.969 8.00445L20.2555 8.70517ZM19.8466 6.67583L20.3448 6.719L20.345 6.71662L19.8466 6.67583ZM20.789 4.95688L21.2378 5.17728L20.789 4.95688ZM21.0047 1.84337C20.8858 1.59413 20.5873 1.48847 20.3381 1.60737C20.0889 1.72627 19.9832 2.0247 20.1021 2.27393L21.0047 1.84337ZM30.545 10.5938L3.7279 10.6337L3.72939 11.6337L30.5465 11.5938L30.545 10.5938ZM3.22865 11.135C3.24897 18.9365 9.47085 25.2861 17.1582 25.2654L17.1555 24.2654C10.0404 24.2846 4.24758 18.4017 4.22864 11.1324L3.22865 11.135ZM17.1568 25.2654C24.8433 25.2654 31.0661 18.8958 31.0457 11.0925L30.0457 11.0951C30.0647 18.3625 24.2727 24.2654 17.1568 24.2654V25.2654ZM1.00062 13.3327L33.0006 13.2927L32.9994 12.2927L0.999375 12.3327L1.00062 13.3327ZM25.7377 14.7396C25.4931 15.4101 25.1189 16.2474 24.503 17.1214L25.3205 17.6974C26.0003 16.7326 26.4114 15.8109 26.6772 15.0823L25.7377 14.7396ZM24.4997 17.1261C23.7116 18.2724 22.8688 19.0346 22.215 19.5291L22.8182 20.3266C23.5387 19.7817 24.4628 18.9449 25.3237 17.6927L24.4997 17.1261ZM21.0156 20.3566C20.7587 20.4471 20.5069 20.5376 20.2568 20.6274C20.0063 20.7174 19.7574 20.8069 19.5039 20.8962L19.8363 21.8394C20.0932 21.7488 20.3449 21.6584 20.595 21.5685C20.8455 21.4785 21.0944 21.3891 21.348 21.2997L21.0156 20.3566ZM6.22054 33.8319L10.1273 23.1584L9.18821 22.8147L5.28147 33.4881L6.22054 33.8319ZM28.0513 33.8281L24.1444 23.1547L23.2054 23.4984L27.1122 34.1719L28.0513 33.8281ZM13.7248 8.00444C13.3526 7.62545 13.0617 7.16711 13.1006 6.719L12.1043 6.63266C12.0253 7.54373 12.5983 8.28465 13.0114 8.70518L13.7248 8.00444ZM13.1008 6.71662C13.1191 6.4928 13.2082 6.3233 13.374 6.09666C13.5286 5.88541 13.8009 5.56962 13.9936 5.17729L13.096 4.73647C12.9549 5.02373 12.7855 5.20763 12.567 5.50607C12.3599 5.78912 12.1447 6.13931 12.1041 6.63504L13.1008 6.71662ZM13.9936 5.17729C14.3654 4.42016 14.4834 3.35872 13.7605 1.84336L12.8579 2.27394C13.47 3.55687 13.3131 4.29433 13.096 4.73647L13.9936 5.17729ZM17.3035 6.61507C16.6943 6.09814 16.6255 5.70177 16.6152 5.54453L15.6173 5.60987C15.6463 6.05227 15.8523 6.69526 16.6566 7.37759L17.3035 6.61507ZM16.6159 5.55902C16.6036 5.2213 16.788 4.93088 17.2528 4.26409L16.4324 3.69226C16.0334 4.26472 15.5896 4.85376 15.6166 5.59538L16.6159 5.55902ZM17.2464 4.27307C17.5071 3.91615 17.7 3.72891 17.8592 3.56922C18.0237 3.40427 18.2074 3.21931 18.3167 2.90148L17.371 2.57639C17.3428 2.65832 17.3106 2.70321 17.1511 2.86307C16.9865 3.02818 16.7475 3.26068 16.4388 3.68328L17.2464 4.27307ZM18.314 2.90907C18.4227 2.60878 18.4446 2.23958 18.2738 1.82777C18.1096 1.43205 17.7809 1.02868 17.2517 0.60845L16.6298 1.39155C17.0822 1.75084 17.2738 2.02706 17.3501 2.21098C17.4197 2.37882 17.4024 2.48933 17.3737 2.5688L18.314 2.90907ZM20.969 8.00445C20.5968 7.62547 20.3059 7.16712 20.3448 6.719L19.3485 6.63266C19.2696 7.54372 19.8425 8.28464 20.2555 8.70517L20.969 8.00445ZM20.345 6.71662C20.3633 6.49279 20.4524 6.32329 20.6182 6.09665C20.7728 5.8854 21.0451 5.56961 21.2378 5.17728L20.3401 4.73648C20.1991 5.02374 20.0296 5.20764 19.8112 5.50608C19.6041 5.78913 19.3889 6.13932 19.3483 6.63505L20.345 6.71662ZM21.2378 5.17728C21.6096 4.42016 21.7276 3.35873 21.0047 1.84337L20.1021 2.27393C20.7141 3.55687 20.5573 4.29433 20.3401 4.73648L21.2378 5.17728Z" fill="#06417D"/>
</svg>
