<svg width="34" height="39" viewBox="0 0 34 39" fill="none" xmlns="http://www.w3.org/2000/svg">
<path d="M10.508 13.1219C9.9878 12.4653 9.39327 11.4804 9.49236 10.344C9.56668 9.15714 10.3098 8.62682 10.7557 7.51568C11.1521 6.55605 11.3503 5.04085 10.4337 2.7428" stroke="#06417D" stroke-miterlimit="10" stroke-linecap="round"/>
<path d="M15.3134 10.874C14.3721 9.86389 14.1739 9.03054 14.1739 8.52547C14.1244 7.61635 14.5703 6.90926 15.14 5.89913C15.8832 4.61122 16.2795 4.5102 16.4777 3.85362C16.6511 3.22229 16.5768 2.26266 15.2639 1" stroke="#06417D" stroke-miterlimit="10" stroke-linecap="round"/>
<path d="M20.1442 13.1219C19.624 12.4653 19.0295 11.4804 19.1286 10.344C19.2029 9.15714 19.9461 8.62682 20.392 7.51568C20.7883 6.55605 20.9865 5.04085 20.0699 2.7428" stroke="#06417D" stroke-miterlimit="10" stroke-linecap="round"/>
<path d="M28.6418 23.2237C28.7657 22.3146 28.8152 21.3802 28.8152 20.4458C28.6666 20.5216 28.5179 20.5973 28.3445 20.6731C25.5453 22.062 21.0863 23.7792 15.4382 23.855C15.3143 23.855 15.1905 23.855 15.0914 23.855C14.8932 23.855 14.6703 23.855 14.4721 23.855C9.02218 23.754 4.66227 22.1125 1.93732 20.7741C1.73915 20.6731 1.56574 20.5973 1.39233 20.4963C1.39233 29.9411 7.61017 37.7191 15.1162 37.7191H15.1409C19.4513 37.7191 23.291 35.219 25.793 31.3048" stroke="#06417D" stroke-miterlimit="10"/>
<path d="M26.5618 29.9419C27.3792 28.4015 27.9985 26.659 28.3701 24.8156" stroke="#06417D" stroke-miterlimit="10"/>
<path d="M24.3806 25.2429C24.1081 26.1268 23.7117 27.2379 23.0677 28.3996C22.2254 29.9148 21.3088 30.9249 20.6152 31.5815" stroke="#06417D" stroke-miterlimit="10" stroke-linecap="round"/>
<path d="M19.2539 32.7169C18.7337 32.9442 18.2135 33.1715 17.718 33.3987" stroke="#06417D" stroke-miterlimit="10" stroke-linecap="round"/>
<path d="M3.57202 37.6934H25.5203" stroke="#06417D" stroke-miterlimit="10" stroke-linecap="round"/>
<path d="M25.3216 16.6581C27.5015 17.4157 28.8392 18.4258 28.8392 19.5369C28.8392 21.9107 22.6957 23.8552 15.1154 23.8552C7.53502 23.8552 1.3667 21.936 1.3667 19.5369C1.3667 17.1631 7.51024 15.2186 15.0906 15.2186C18.0633 15.2186 20.7882 15.5217 23.0425 16.0267" stroke="#06417D" stroke-miterlimit="10" stroke-linecap="round"/>
<path d="M27.3531 24.0045C27.5017 23.8782 28.6413 22.7924 30.1772 23.0954C31.5892 23.3479 32.2581 24.5601 32.4315 24.8631C33.4471 26.6814 32.7783 29.0804 31.5892 30.4946C31.2176 30.9492 30.1772 32.2118 28.4431 32.2624C26.5851 32.3129 25.3961 30.9492 25.2227 30.7472" stroke="#06417D" stroke-miterlimit="10" stroke-linecap="round"/>
<path d="M27.7 25.2676C27.7991 25.1919 28.5422 24.4848 29.5579 24.6616C30.4744 24.8383 30.9203 25.6212 31.0194 25.8232C31.6883 27.0101 31.2424 28.5758 30.4744 29.5102C30.2267 29.8132 29.5579 30.6213 28.4184 30.6718C27.2045 30.6971 26.4366 29.8132 26.3127 29.6869" stroke="#06417D" stroke-miterlimit="10" stroke-linecap="round"/>
</svg>
