<svg width="39" height="39" viewBox="0 0 39 39" fill="none" xmlns="http://www.w3.org/2000/svg">
<path d="M10.4245 18.42L9.88445 17.41H9.84445L9.94445 18.42V23H9.16445V15.89H9.60445L12.9545 20.56L13.4745 21.52H13.5245L13.4145 20.56V16H14.1945V23.11H13.7545L10.4245 18.42ZM15.893 16H19.703V16.74H16.723V19.03H19.453V19.77H16.723V22.26H19.753V23H15.893V16ZM22.6243 20.69L22.7843 21.85H22.7943L22.9643 20.67L24.4043 16H24.8043L26.2543 20.69L26.4243 21.85H26.4343L26.6143 20.67L27.7943 16H28.6043L26.6543 23.11H26.1943L24.7743 18.42L24.5943 17.36H24.5443L24.3643 18.43L22.9443 23.11H22.4843L20.4843 16H21.3643L22.6243 20.69Z" fill="#06417D"/>
<path d="M20.1685 1C18.694 2.33329 17.2865 3.59992 15.812 4.93321L10.3832 3.39992L9.17678 8.73308L3.74794 9.99971L5.15541 15.3329L1 19.3327L5.08839 22.9993L3.47984 28.6658L8.90869 29.6657L10.1151 35.3322L15.544 33.6656L19.2302 37.7321L23.2516 33.6656L28.4794 35.1989L29.9539 30.1991L35.1146 28.6658L33.5731 23.3326L37.7285 19.4661L33.6401 15.9328L35.0476 10.6664L30.0209 9.59972L28.6134 3.93324C26.8708 4.46655 25.1282 5.06653 23.4526 5.59985C22.3803 3.9999 21.2409 2.53328 20.1685 1Z" stroke="#06417D" stroke-miterlimit="10" stroke-linecap="round" stroke-linejoin="round"/>
</svg>
