<svg width="34" height="34" viewBox="0 0 34 34" fill="none" xmlns="http://www.w3.org/2000/svg">
<path d="M12.7694 16.5186L12.4454 15.9126H12.4214L12.4814 16.5186V19.2666H12.0134V15.0006H12.2774L14.2874 17.8026L14.5994 18.3786H14.6294L14.5634 17.8026V15.0666H15.0314V19.3326H14.7674L12.7694 16.5186ZM16.0505 15.0666H18.3365V15.5106H16.5485V16.8846H18.1865V17.3286H16.5485V18.8226H18.3665V19.2666H16.0505V15.0666ZM20.0893 17.8806L20.1853 18.5766H20.1913L20.2933 17.8686L21.1573 15.0666H21.3973L22.2673 17.8806L22.3693 18.5766H22.3753L22.4833 17.8686L23.1913 15.0666H23.6773L22.5073 19.3326H22.2313L21.3793 16.5186L21.2713 15.8826H21.2413L21.1333 16.5246L20.2813 19.3326H20.0053L18.8053 15.0666H19.3333L20.0893 17.8806Z" fill="#06417D"/>
<path d="M17.7007 1C16.4161 2.16164 15.1898 3.2652 13.9051 4.42684L9.17518 3.09095L8.12409 7.73751L3.39416 8.84107L4.62044 13.4876L1 16.9725L4.56204 20.1671L3.16058 25.104L7.89051 25.9752L8.94161 30.9122L13.6715 29.4602L16.8832 33.0032L20.3869 29.4602L24.9416 30.7961L26.2263 26.4399L30.7226 25.104L29.3796 20.4575L33 17.0887L29.438 14.0104L30.6642 9.42189L26.2847 8.49257L25.0584 3.55561C23.5401 4.02026 22.0219 4.543 20.562 5.00766C19.6277 3.61369 18.635 2.33589 17.7007 1Z" stroke="#06417D" stroke-miterlimit="10" stroke-linecap="round" stroke-linejoin="round"/>
</svg>
