<svg width="183" height="149" viewBox="0 0 183 149" fill="none" xmlns="http://www.w3.org/2000/svg">
<circle cx="91.3497" cy="41.3497" r="41.3497" fill="white"/>
<g filter="url(#filter0_d_144_8472)">
<path d="M4.80394 116V115.42C5.33727 115.167 5.88394 115.007 6.44394 114.94V103.08C6.17727 103.027 5.90394 102.96 5.62394 102.88C5.34394 102.787 5.0706 102.687 4.80394 102.58V102H6.92394C7.17727 102 7.41727 101.993 7.64394 101.98C7.88394 101.967 8.1306 101.953 8.38394 101.94C8.63727 101.927 8.9106 101.913 9.20394 101.9C9.49727 101.887 9.83061 101.88 10.2039 101.88C10.7373 101.88 11.2773 101.927 11.8239 102.02C12.3839 102.1 12.8839 102.26 13.3239 102.5C13.7773 102.74 14.1439 103.08 14.4239 103.52C14.7039 103.947 14.8439 104.507 14.8439 105.2C14.8439 105.547 14.7906 105.893 14.6839 106.24C14.5773 106.587 14.4106 106.913 14.1839 107.22C13.9706 107.513 13.6973 107.773 13.3639 108C13.0306 108.227 12.6373 108.393 12.1839 108.5V108.58C12.5839 108.647 12.9773 108.76 13.3639 108.92C13.7639 109.08 14.1173 109.3 14.4239 109.58C14.7306 109.847 14.9773 110.18 15.1639 110.58C15.3639 110.98 15.4639 111.46 15.4639 112.02C15.4639 112.74 15.3039 113.36 14.9839 113.88C14.6639 114.4 14.2439 114.827 13.7239 115.16C13.2173 115.493 12.6373 115.74 11.9839 115.9C11.3306 116.047 10.6706 116.12 10.0039 116.12C9.53727 116.12 9.0106 116.1 8.42394 116.06C7.83727 116.02 7.2706 116 6.72394 116H4.80394ZM10.1439 115.08C10.6239 115.08 11.0706 115.007 11.4839 114.86C11.9106 114.713 12.2706 114.513 12.5639 114.26C12.8706 113.993 13.1106 113.68 13.2839 113.32C13.4573 112.947 13.5439 112.547 13.5439 112.12C13.5439 111.587 13.4373 111.147 13.2239 110.8C13.0239 110.44 12.7439 110.16 12.3839 109.96C12.0373 109.747 11.6306 109.6 11.1639 109.52C10.7106 109.44 10.2373 109.4 9.74394 109.4H8.24394V114.92C8.4306 114.973 8.6506 115.013 8.90394 115.04C9.1706 115.067 9.58394 115.08 10.1439 115.08ZM9.24394 108.36C9.4706 108.36 9.73727 108.353 10.0439 108.34C10.3639 108.313 10.6239 108.287 10.8239 108.26C11.4373 108.047 11.9373 107.707 12.3239 107.24C12.7239 106.76 12.9239 106.2 12.9239 105.56C12.9239 104.68 12.6573 104.02 12.1239 103.58C11.6039 103.14 10.9039 102.92 10.0239 102.92C9.6106 102.92 9.25727 102.927 8.96394 102.94C8.6706 102.953 8.4306 102.973 8.24394 103V108.36H9.24394ZM17.1086 102H22.5886V102.58C22.2686 102.7 21.9486 102.807 21.6286 102.9C21.3086 102.98 20.9886 103.04 20.6686 103.08V114.96H25.2686L26.4486 111.74H26.9686C27.0086 112.02 27.042 112.347 27.0686 112.72C27.1086 113.08 27.1353 113.46 27.1486 113.86C27.1753 114.247 27.1886 114.627 27.1886 115C27.1886 115.373 27.182 115.707 27.1686 116H17.1086V115.42C17.4286 115.273 17.722 115.167 17.9886 115.1C18.2553 115.033 18.5086 114.98 18.7486 114.94V103.08C18.442 103.027 18.1486 102.96 17.8686 102.88C17.5886 102.787 17.3353 102.687 17.1086 102.58V102ZM31.9452 116H27.5052V115.42C27.9852 115.207 28.4652 115.047 28.9452 114.94L34.0052 101.76H34.5852L39.6452 114.94C39.9119 114.993 40.1719 115.053 40.4252 115.12C40.6919 115.187 40.9385 115.287 41.1652 115.42V116H36.0452V115.42C36.3119 115.313 36.5852 115.22 36.8652 115.14C37.1452 115.06 37.4185 114.993 37.6852 114.94L36.3252 111.28H31.5452L30.2252 114.94C30.7852 115.02 31.3585 115.18 31.9452 115.42V116ZM31.9452 110.24H35.9852L34.4052 106L34.0252 104.28H33.9852L33.4852 106.04L31.9452 110.24ZM50.8975 102H55.2175V102.58C54.6575 102.953 54.1109 103.22 53.5775 103.38V116.24H52.4375L45.1775 105.22L44.3975 103.66H44.3375L44.5175 105.22V114.72C45.0642 114.867 45.5775 115.1 46.0575 115.42V116H41.7375V115.42C41.9775 115.273 42.2309 115.147 42.4975 115.04C42.7775 114.92 43.0709 114.813 43.3775 114.72V103.26C43.1109 103.153 42.8442 103.04 42.5775 102.92C42.3242 102.8 42.0842 102.68 41.8575 102.56V102H45.2375L51.5375 111.5L52.4575 113.22H52.5375L52.4375 111.5V103.38C52.1575 103.26 51.8842 103.133 51.6175 103C51.3642 102.867 51.1242 102.727 50.8975 102.58V102ZM66.746 112.36H67.266C67.3326 112.733 67.3926 113.207 67.446 113.78C67.4993 114.34 67.5126 114.887 67.486 115.42C67.286 115.58 67.046 115.713 66.766 115.82C66.486 115.913 66.186 115.993 65.866 116.06C65.5593 116.127 65.2393 116.173 64.906 116.2C64.586 116.227 64.2793 116.24 63.986 116.24C62.866 116.24 61.866 116.1 60.986 115.82C60.106 115.527 59.3593 115.087 58.746 114.5C58.146 113.913 57.6793 113.167 57.346 112.26C57.026 111.34 56.866 110.253 56.866 109C56.866 107.693 57.046 106.587 57.406 105.68C57.766 104.76 58.2526 104.013 58.866 103.44C59.4793 102.853 60.1926 102.427 61.006 102.16C61.8193 101.893 62.6726 101.76 63.566 101.76C64.446 101.76 65.186 101.82 65.786 101.94C66.386 102.047 66.9126 102.213 67.366 102.44C67.366 102.653 67.3593 102.907 67.346 103.2C67.3326 103.48 67.3126 103.78 67.286 104.1C67.2593 104.42 67.226 104.733 67.186 105.04C67.146 105.347 67.106 105.627 67.066 105.88H66.546L65.506 103C65.3593 102.92 65.1126 102.867 64.766 102.84C64.4326 102.813 64.0993 102.8 63.766 102.8C63.0993 102.8 62.466 102.927 61.866 103.18C61.2793 103.42 60.7593 103.8 60.306 104.32C59.866 104.827 59.5126 105.473 59.246 106.26C58.9793 107.033 58.846 107.947 58.846 109C58.846 109.947 58.966 110.807 59.206 111.58C59.446 112.34 59.7926 112.993 60.246 113.54C60.6993 114.073 61.2526 114.487 61.906 114.78C62.5593 115.06 63.2993 115.2 64.126 115.2C64.566 115.2 64.9326 115.167 65.226 115.1C65.5193 115.033 65.7126 114.947 65.806 114.84L66.746 112.36ZM74.1203 116V115.42C74.587 115.207 75.1337 115.047 75.7603 114.94V103.08C75.4537 103.013 75.1603 102.94 74.8803 102.86C74.6003 102.767 74.347 102.673 74.1203 102.58V102H76.1603C76.387 102 76.6537 101.993 76.9603 101.98C77.267 101.967 77.5803 101.953 77.9003 101.94C78.2337 101.913 78.547 101.893 78.8403 101.88C79.147 101.853 79.4003 101.84 79.6003 101.84C81.867 101.84 83.607 102.447 84.8203 103.66C86.047 104.873 86.6603 106.593 86.6603 108.82C86.6603 109.873 86.507 110.853 86.2003 111.76C85.907 112.653 85.4537 113.427 84.8403 114.08C84.227 114.733 83.447 115.247 82.5003 115.62C81.567 115.993 80.4603 116.18 79.1803 116.18C78.9803 116.18 78.7537 116.167 78.5003 116.14C78.247 116.127 77.9803 116.107 77.7003 116.08C77.4203 116.067 77.1337 116.047 76.8403 116.02C76.5603 116.007 76.2937 116 76.0403 116H74.1203ZM79.3203 102.88C78.9737 102.88 78.6403 102.887 78.3203 102.9C78.0003 102.9 77.747 102.92 77.5603 102.96V115.08C77.627 115.093 77.747 115.107 77.9203 115.12C78.0937 115.12 78.2803 115.127 78.4803 115.14C78.6803 115.14 78.867 115.14 79.0403 115.14C79.227 115.14 79.3603 115.14 79.4403 115.14C80.3603 115.14 81.1403 114.967 81.7803 114.62C82.4203 114.273 82.9403 113.813 83.3403 113.24C83.7537 112.653 84.0537 111.98 84.2403 111.22C84.427 110.46 84.5203 109.66 84.5203 108.82C84.5203 108.167 84.427 107.493 84.2403 106.8C84.067 106.093 83.7737 105.453 83.3603 104.88C82.9603 104.293 82.427 103.813 81.7603 103.44C81.0937 103.067 80.2803 102.88 79.3203 102.88ZM97.7605 102C97.7472 102.533 97.7205 103.073 97.6805 103.62C97.6538 104.153 97.6072 104.693 97.5405 105.24H97.0205L96.2005 103.04H91.8405V108.34H95.1005L95.8805 106.86H96.3805C96.4605 108.18 96.4605 109.527 96.3805 110.9H95.8805L95.1005 109.38H91.8405V114.96H96.4405L97.4205 112.56H97.9205C98.0138 113.12 98.0805 113.687 98.1205 114.26C98.1605 114.833 98.1672 115.413 98.1405 116H88.2805V115.42C88.7472 115.207 89.2938 115.047 89.9205 114.94V103.08C89.6538 103.027 89.3805 102.96 89.1005 102.88C88.8205 102.787 88.5472 102.687 88.2805 102.58V102H97.7605ZM104.784 116V115.42C105.318 115.167 105.864 115.007 106.424 114.94V103.08C106.158 103.027 105.884 102.96 105.604 102.88C105.324 102.787 105.051 102.687 104.784 102.58V102H106.904C107.158 102 107.398 101.993 107.624 101.98C107.864 101.967 108.111 101.953 108.364 101.94C108.618 101.927 108.891 101.913 109.184 101.9C109.478 101.887 109.811 101.88 110.184 101.88C110.718 101.88 111.258 101.927 111.804 102.02C112.364 102.1 112.864 102.26 113.304 102.5C113.758 102.74 114.124 103.08 114.404 103.52C114.684 103.947 114.824 104.507 114.824 105.2C114.824 105.547 114.771 105.893 114.664 106.24C114.558 106.587 114.391 106.913 114.164 107.22C113.951 107.513 113.678 107.773 113.344 108C113.011 108.227 112.618 108.393 112.164 108.5V108.58C112.564 108.647 112.958 108.76 113.344 108.92C113.744 109.08 114.098 109.3 114.404 109.58C114.711 109.847 114.958 110.18 115.144 110.58C115.344 110.98 115.444 111.46 115.444 112.02C115.444 112.74 115.284 113.36 114.964 113.88C114.644 114.4 114.224 114.827 113.704 115.16C113.198 115.493 112.618 115.74 111.964 115.9C111.311 116.047 110.651 116.12 109.984 116.12C109.518 116.12 108.991 116.1 108.404 116.06C107.818 116.02 107.251 116 106.704 116H104.784ZM110.124 115.08C110.604 115.08 111.051 115.007 111.464 114.86C111.891 114.713 112.251 114.513 112.544 114.26C112.851 113.993 113.091 113.68 113.264 113.32C113.438 112.947 113.524 112.547 113.524 112.12C113.524 111.587 113.418 111.147 113.204 110.8C113.004 110.44 112.724 110.16 112.364 109.96C112.018 109.747 111.611 109.6 111.144 109.52C110.691 109.44 110.218 109.4 109.724 109.4H108.224V114.92C108.411 114.973 108.631 115.013 108.884 115.04C109.151 115.067 109.564 115.08 110.124 115.08ZM109.224 108.36C109.451 108.36 109.718 108.353 110.024 108.34C110.344 108.313 110.604 108.287 110.804 108.26C111.418 108.047 111.918 107.707 112.304 107.24C112.704 106.76 112.904 106.2 112.904 105.56C112.904 104.68 112.638 104.02 112.104 103.58C111.584 103.14 110.884 102.92 110.004 102.92C109.591 102.92 109.238 102.927 108.944 102.94C108.651 102.953 108.411 102.973 108.224 103V108.36H109.224ZM117.089 102H122.569V102.58C122.249 102.7 121.929 102.807 121.609 102.9C121.289 102.98 120.969 103.04 120.649 103.08V114.96H125.249L126.429 111.74H126.949C126.989 112.02 127.022 112.347 127.049 112.72C127.089 113.08 127.116 113.46 127.129 113.86C127.156 114.247 127.169 114.627 127.169 115C127.169 115.373 127.162 115.707 127.149 116H117.089V115.42C117.409 115.273 117.702 115.167 117.969 115.1C118.236 115.033 118.489 114.98 118.729 114.94V103.08C118.422 103.027 118.129 102.96 117.849 102.88C117.569 102.787 117.316 102.687 117.089 102.58V102ZM131.926 116H127.486V115.42C127.966 115.207 128.446 115.047 128.926 114.94L133.986 101.76H134.566L139.626 114.94C139.892 114.993 140.152 115.053 140.406 115.12C140.672 115.187 140.919 115.287 141.146 115.42V116H136.026V115.42C136.292 115.313 136.566 115.22 136.846 115.14C137.126 115.06 137.399 114.993 137.666 114.94L136.306 111.28H131.526L130.206 114.94C130.766 115.02 131.339 115.18 131.926 115.42V116ZM131.926 110.24H135.966L134.386 106L134.006 104.28H133.966L133.466 106.04L131.926 110.24ZM150.878 102H155.198V102.58C154.638 102.953 154.091 103.22 153.558 103.38V116.24H152.418L145.158 105.22L144.378 103.66H144.318L144.498 105.22V114.72C145.045 114.867 145.558 115.1 146.038 115.42V116H141.718V115.42C141.958 115.273 142.211 115.147 142.478 115.04C142.758 114.92 143.051 114.813 143.358 114.72V103.26C143.091 103.153 142.825 103.04 142.558 102.92C142.305 102.8 142.065 102.68 141.838 102.56V102H145.218L151.518 111.5L152.438 113.22H152.518L152.418 111.5V103.38C152.138 103.26 151.865 103.133 151.598 103C151.345 102.867 151.105 102.727 150.878 102.58V102ZM166.726 112.36H167.246C167.313 112.733 167.373 113.207 167.426 113.78C167.48 114.34 167.493 114.887 167.466 115.42C167.266 115.58 167.026 115.713 166.746 115.82C166.466 115.913 166.166 115.993 165.846 116.06C165.54 116.127 165.22 116.173 164.886 116.2C164.566 116.227 164.26 116.24 163.966 116.24C162.846 116.24 161.846 116.1 160.966 115.82C160.086 115.527 159.34 115.087 158.726 114.5C158.126 113.913 157.66 113.167 157.326 112.26C157.006 111.34 156.846 110.253 156.846 109C156.846 107.693 157.026 106.587 157.386 105.68C157.746 104.76 158.233 104.013 158.846 103.44C159.46 102.853 160.173 102.427 160.986 102.16C161.8 101.893 162.653 101.76 163.546 101.76C164.426 101.76 165.166 101.82 165.766 101.94C166.366 102.047 166.893 102.213 167.346 102.44C167.346 102.653 167.34 102.907 167.326 103.2C167.313 103.48 167.293 103.78 167.266 104.1C167.24 104.42 167.206 104.733 167.166 105.04C167.126 105.347 167.086 105.627 167.046 105.88H166.526L165.486 103C165.34 102.92 165.093 102.867 164.746 102.84C164.413 102.813 164.08 102.8 163.746 102.8C163.08 102.8 162.446 102.927 161.846 103.18C161.26 103.42 160.74 103.8 160.286 104.32C159.846 104.827 159.493 105.473 159.226 106.26C158.96 107.033 158.826 107.947 158.826 109C158.826 109.947 158.946 110.807 159.186 111.58C159.426 112.34 159.773 112.993 160.226 113.54C160.68 114.073 161.233 114.487 161.886 114.78C162.54 115.06 163.28 115.2 164.106 115.2C164.546 115.2 164.913 115.167 165.206 115.1C165.5 115.033 165.693 114.947 165.786 114.84L166.726 112.36ZM171.658 114.62C171.818 114.78 172.024 114.92 172.278 115.04C172.531 115.147 172.911 115.2 173.418 115.2C173.844 115.2 174.244 115.147 174.618 115.04C174.991 114.92 175.311 114.753 175.578 114.54C175.858 114.313 176.078 114.047 176.238 113.74C176.398 113.42 176.478 113.06 176.478 112.66C176.478 112.127 176.311 111.68 175.978 111.32C175.658 110.96 175.251 110.64 174.758 110.36C174.278 110.08 173.751 109.807 173.178 109.54C172.604 109.273 172.071 108.96 171.578 108.6C171.098 108.227 170.691 107.787 170.358 107.28C170.038 106.76 169.878 106.113 169.878 105.34C169.878 104.78 169.978 104.28 170.178 103.84C170.378 103.4 170.658 103.027 171.018 102.72C171.391 102.413 171.831 102.18 172.338 102.02C172.844 101.847 173.411 101.76 174.038 101.76C174.851 101.76 175.591 101.827 176.258 101.96C176.938 102.08 177.471 102.233 177.858 102.42C177.858 102.647 177.838 102.913 177.798 103.22C177.771 103.513 177.731 103.82 177.678 104.14C177.638 104.46 177.591 104.773 177.538 105.08C177.484 105.373 177.431 105.633 177.378 105.86H176.858L176.058 103.12C175.818 103.013 175.511 102.933 175.138 102.88C174.778 102.827 174.391 102.8 173.978 102.8C173.298 102.8 172.751 102.993 172.338 103.38C171.924 103.753 171.718 104.28 171.718 104.96C171.718 105.507 171.878 105.967 172.198 106.34C172.531 106.713 172.944 107.047 173.438 107.34C173.931 107.633 174.458 107.92 175.018 108.2C175.591 108.467 176.124 108.78 176.618 109.14C177.111 109.5 177.518 109.927 177.838 110.42C178.171 110.913 178.338 111.527 178.338 112.26C178.338 112.86 178.224 113.407 177.998 113.9C177.784 114.393 177.471 114.813 177.058 115.16C176.644 115.507 176.138 115.773 175.538 115.96C174.938 116.147 174.258 116.24 173.498 116.24C172.658 116.24 171.904 116.14 171.238 115.94C170.571 115.74 170.098 115.527 169.818 115.3C169.831 115.073 169.851 114.8 169.878 114.48C169.918 114.16 169.958 113.833 169.998 113.5C170.051 113.153 170.104 112.82 170.158 112.5C170.211 112.18 170.264 111.907 170.318 111.68H170.838L171.658 114.62Z" fill="white"/>
</g>
<g filter="url(#filter1_d_144_8472)">
<path d="M30.9668 130.159C31.7871 130.916 32.1973 131.85 32.1973 132.962C32.1973 134.069 31.7871 135.001 30.9668 135.758C30.1465 136.514 29.0641 136.911 27.7197 136.947V138.28H26.1816V136.947C24.8372 136.911 23.7526 136.514 22.9277 135.758C22.1074 135.001 21.6973 134.069 21.6973 132.962C21.6973 131.85 22.1074 130.916 22.9277 130.159C23.7526 129.403 24.8372 129.006 26.1816 128.97V127.917H27.7197V128.97C29.0641 129.006 30.1465 129.403 30.9668 130.159ZM29.8867 134.855C30.4017 134.377 30.6592 133.746 30.6592 132.962C30.6592 132.178 30.4017 131.549 29.8867 131.075C29.3763 130.597 28.654 130.339 27.7197 130.303V135.621C28.654 135.585 29.3763 135.329 29.8867 134.855ZM24.0078 131.075C23.4974 131.549 23.2422 132.178 23.2422 132.962C23.2422 133.746 23.4974 134.377 24.0078 134.855C24.5228 135.329 25.2474 135.585 26.1816 135.621V130.303C25.2474 130.339 24.5228 130.597 24.0078 131.075ZM38.6321 138.137C38.3814 138.137 38.1376 138.107 37.9006 138.048C37.6636 137.989 37.4608 137.916 37.2922 137.829C37.1236 137.738 36.9732 137.647 36.8411 137.556C36.7135 137.46 36.62 137.385 36.5608 137.33L36.4651 137.228V140.939H35.0637V131.28H36.4651V132.053C36.5289 131.989 36.6177 131.905 36.7317 131.8C36.8502 131.695 37.0985 131.558 37.4768 131.39C37.8551 131.221 38.2401 131.137 38.6321 131.137C39.5207 131.137 40.2909 131.479 40.9426 132.162C41.5989 132.841 41.927 133.666 41.927 134.637C41.927 135.607 41.5989 136.435 40.9426 137.118C40.2909 137.797 39.5207 138.137 38.6321 138.137ZM39.9104 133.058C39.5002 132.62 39.0286 132.401 38.4954 132.401C37.9621 132.401 37.4905 132.62 37.0803 133.058C36.6702 133.495 36.4651 134.024 36.4651 134.644C36.4651 135.259 36.6702 135.785 37.0803 136.223C37.4905 136.66 37.9621 136.879 38.4954 136.879C39.0286 136.879 39.5002 136.66 39.9104 136.223C40.3205 135.785 40.5256 135.259 40.5256 134.644C40.5256 134.024 40.3205 133.495 39.9104 133.058ZM50.1118 138H48.7104V137.303C48.6922 137.321 48.6603 137.351 48.6147 137.392C48.5737 137.433 48.4871 137.501 48.355 137.597C48.2274 137.688 48.0884 137.772 47.938 137.85C47.7876 137.923 47.5985 137.989 47.3706 138.048C47.1427 138.107 46.9126 138.137 46.6802 138.137C45.9966 138.137 45.4292 137.938 44.978 137.542C44.5268 137.146 44.3013 136.692 44.3013 136.182C44.3013 135.63 44.4744 135.168 44.8208 134.794C45.1717 134.42 45.6502 134.183 46.2563 134.083L48.7104 133.659C48.7104 133.304 48.5783 133.005 48.3139 132.764C48.0542 132.522 47.7192 132.401 47.3091 132.401C46.9536 132.401 46.63 132.477 46.3384 132.627C46.0513 132.773 45.853 132.921 45.7436 133.071L45.5591 133.311L44.6499 132.401C44.6772 132.365 44.7137 132.319 44.7593 132.265C44.8094 132.205 44.9165 132.105 45.0805 131.964C45.2492 131.818 45.4269 131.688 45.6138 131.574C45.8006 131.46 46.0467 131.36 46.352 131.273C46.6619 131.182 46.9809 131.137 47.3091 131.137C48.1294 131.137 48.8016 131.381 49.3257 131.868C49.8498 132.351 50.1118 132.948 50.1118 133.659V138ZM46.8921 136.879C47.4617 136.879 47.9061 136.71 48.2251 136.373C48.5486 136.031 48.7104 135.546 48.7104 134.917V134.78L46.5366 135.129C46.286 135.174 46.0832 135.277 45.9282 135.437C45.7733 135.596 45.6958 135.797 45.6958 136.038C45.6958 136.261 45.8029 136.457 46.0171 136.626C46.2358 136.795 46.5275 136.879 46.8921 136.879ZM54.7351 135.197V138H53.3337V131.28H54.7351V133.939H58.0232V131.28H59.4245V138H58.0232V135.197H54.7351ZM62.6464 138V131.28H64.0478V136.742H67.1992V131.28H68.6005V136.742H69.5781V139.682H68.1767V138H62.6464ZM73.8459 138.697L74.1262 138L71.3918 131.28H72.8615L74.8234 136.182L76.7854 131.28H78.2551L75.2404 138.697C74.8941 139.527 74.55 140.108 74.2082 140.44C73.871 140.773 73.4471 140.939 72.9367 140.939C72.7499 140.939 72.5744 140.928 72.4104 140.905C72.2463 140.882 72.1255 140.857 72.048 140.83L71.9523 140.803V139.538C72.1848 139.629 72.4195 139.677 72.6564 139.682C73.1896 139.677 73.5861 139.349 73.8459 138.697ZM85.1069 133.03C85.1069 133.34 85.0203 133.611 84.8471 133.844C84.6785 134.076 84.5053 134.229 84.3276 134.302L84.061 134.432C84.0974 134.441 84.1453 134.457 84.2045 134.479C84.2683 134.502 84.3732 134.557 84.519 134.644C84.6694 134.726 84.8015 134.826 84.9155 134.944C85.034 135.058 85.1411 135.218 85.2368 135.423C85.337 135.628 85.3871 135.858 85.3871 136.113C85.3871 136.674 85.1365 137.152 84.6352 137.549C84.1385 137.941 83.4571 138.137 82.5913 138.137C82.2631 138.137 81.9464 138.096 81.6411 138.014C81.3403 137.932 81.0896 137.834 80.8891 137.72C80.6886 137.606 80.5131 137.492 80.3627 137.378C80.2123 137.259 80.1007 137.159 80.0278 137.077L79.9321 136.947L80.8413 136.038C80.8959 136.102 80.9689 136.182 81.06 136.277C81.1557 136.373 81.3562 136.498 81.6616 136.653C81.9715 136.804 82.2814 136.879 82.5913 136.879C83.0561 136.879 83.4047 136.792 83.6371 136.619C83.8741 136.446 83.9926 136.229 83.9926 135.97C83.9926 135.71 83.8741 135.493 83.6371 135.32C83.4047 135.147 83.0561 135.061 82.5913 135.061H81.8188V133.939H82.5913C82.9558 133.939 83.2338 133.869 83.4252 133.728C83.6166 133.582 83.7123 133.397 83.7123 133.174C83.7123 132.946 83.6166 132.761 83.4252 132.62C83.2338 132.474 82.9558 132.401 82.5913 132.401C82.3224 132.401 82.058 132.454 81.7983 132.559C81.5431 132.659 81.3539 132.764 81.2309 132.873L81.0532 133.03L80.1371 132.121C80.201 132.048 80.2944 131.957 80.4174 131.848C80.5405 131.738 80.8139 131.592 81.2377 131.41C81.6616 131.228 82.1127 131.137 82.5913 131.137C83.366 131.137 83.9789 131.324 84.4301 131.697C84.8813 132.071 85.1069 132.515 85.1069 133.03ZM88.8141 137.098C88.1214 136.4 87.7751 135.582 87.7751 134.644C87.7751 133.7 88.1214 132.88 88.8141 132.183C89.5114 131.485 90.3317 131.137 91.2751 131.137C91.7992 131.137 92.2868 131.251 92.738 131.479C93.1891 131.702 93.5127 131.925 93.7087 132.148L94.0026 132.47L93.0934 133.379C93.0479 133.306 92.9772 133.217 92.8815 133.112C92.7904 133.003 92.5876 132.857 92.2731 132.675C91.9632 132.493 91.6305 132.401 91.2751 132.401C90.7054 132.401 90.211 132.618 89.7917 133.051C89.377 133.484 89.1696 134.015 89.1696 134.644C89.1696 135.268 89.377 135.797 89.7917 136.229C90.211 136.662 90.7054 136.879 91.2751 136.879C91.6305 136.879 91.9632 136.79 92.2731 136.612C92.5876 136.435 92.8132 136.261 92.9499 136.093L93.1618 135.833L94.071 136.742C94.0436 136.779 94.0026 136.831 93.9479 136.899C93.8932 136.963 93.7748 137.075 93.5925 137.234C93.4102 137.389 93.2188 137.528 93.0182 137.651C92.8177 137.77 92.558 137.882 92.2389 137.986C91.9199 138.087 91.5986 138.137 91.2751 138.137C90.3317 138.137 89.5114 137.79 88.8141 137.098ZM102.68 131.28L100.089 134.083L102.885 138H101.347L99.1796 134.992L98.1269 136.113V138H96.7255V131.28H98.1269V134.288L100.998 131.28H102.68ZM109.531 136.229C109.946 135.797 110.153 135.268 110.153 134.644C110.153 134.015 109.946 133.484 109.531 133.051C109.117 132.618 108.625 132.401 108.055 132.401C107.485 132.401 106.991 132.618 106.571 133.051C106.157 133.484 105.949 134.015 105.949 134.644C105.949 135.268 106.157 135.797 106.571 136.229C106.991 136.662 107.485 136.879 108.055 136.879C108.625 136.879 109.117 136.662 109.531 136.229ZM105.594 137.098C104.901 136.4 104.555 135.582 104.555 134.644C104.555 133.7 104.901 132.88 105.594 132.183C106.291 131.485 107.111 131.137 108.055 131.137C108.998 131.137 109.816 131.485 110.509 132.183C111.206 132.88 111.555 133.7 111.555 134.644C111.555 135.582 111.206 136.4 110.509 137.098C109.816 137.79 108.998 138.137 108.055 138.137C107.111 138.137 106.291 137.79 105.594 137.098ZM120.58 135.129H115.33C115.403 135.603 115.636 136.013 116.028 136.359C116.424 136.706 116.894 136.879 117.436 136.879C117.828 136.879 118.192 136.79 118.53 136.612C118.871 136.435 119.113 136.261 119.254 136.093L119.466 135.833L120.375 136.742C120.348 136.779 120.305 136.831 120.246 136.899C120.191 136.963 120.07 137.075 119.883 137.234C119.696 137.389 119.498 137.528 119.288 137.651C119.079 137.77 118.805 137.882 118.468 137.986C118.135 138.087 117.791 138.137 117.436 138.137C116.483 138.137 115.661 137.788 114.968 137.091C114.28 136.389 113.936 135.548 113.936 134.568C113.936 133.625 114.271 132.818 114.941 132.148C115.615 131.474 116.422 131.137 117.361 131.137C118.304 131.137 119.088 131.451 119.712 132.08C120.341 132.704 120.656 133.488 120.656 134.432L120.58 135.129ZM117.361 132.333C116.855 132.333 116.429 132.483 116.082 132.784C115.741 133.08 115.51 133.465 115.392 133.939H119.282C119.2 133.465 118.988 133.08 118.646 132.784C118.304 132.483 117.876 132.333 117.361 132.333ZM133.464 131.28L130.873 134.083L133.669 138H132.131L129.964 134.992L128.911 136.113V138H127.51V131.28H128.911V134.288L131.782 131.28H133.464ZM141.437 138H140.035V137.303C140.017 137.321 139.985 137.351 139.94 137.392C139.899 137.433 139.812 137.501 139.68 137.597C139.552 137.688 139.413 137.772 139.263 137.85C139.112 137.923 138.923 137.989 138.695 138.048C138.468 138.107 138.237 138.137 138.005 138.137C137.321 138.137 136.754 137.938 136.303 137.542C135.852 137.146 135.626 136.692 135.626 136.182C135.626 135.63 135.799 135.168 136.146 134.794C136.497 134.42 136.975 134.183 137.581 134.083L140.035 133.659C140.035 133.304 139.903 133.005 139.639 132.764C139.379 132.522 139.044 132.401 138.634 132.401C138.278 132.401 137.955 132.477 137.663 132.627C137.376 132.773 137.178 132.921 137.068 133.071L136.884 133.311L135.975 132.401C136.002 132.365 136.039 132.319 136.084 132.265C136.134 132.205 136.241 132.105 136.405 131.964C136.574 131.818 136.752 131.688 136.939 131.574C137.125 131.46 137.372 131.36 137.677 131.273C137.987 131.182 138.306 131.137 138.634 131.137C139.454 131.137 140.126 131.381 140.651 131.868C141.175 132.351 141.437 132.948 141.437 133.659V138ZM138.217 136.879C138.787 136.879 139.231 136.71 139.55 136.373C139.873 136.031 140.035 135.546 140.035 134.917V134.78L137.861 135.129C137.611 135.174 137.408 135.277 137.253 135.437C137.098 135.596 137.021 135.797 137.021 136.038C137.021 136.261 137.128 136.457 137.342 136.626C137.561 136.795 137.852 136.879 138.217 136.879ZM148.159 140.939V138.137C146.992 138.137 146.046 137.804 145.322 137.139C144.602 136.473 144.242 135.642 144.242 134.644C144.242 133.641 144.602 132.807 145.322 132.142C146.046 131.472 146.992 131.137 148.159 131.137V128.197H149.56V131.137C150.727 131.137 151.67 131.472 152.39 132.142C153.115 132.807 153.477 133.641 153.477 134.644C153.477 135.642 153.115 136.473 152.39 137.139C151.67 137.804 150.727 138.137 149.56 138.137V140.939H148.159ZM148.159 136.879V132.401C147.366 132.401 146.746 132.604 146.299 133.01C145.857 133.415 145.636 133.96 145.636 134.644C145.636 135.323 145.857 135.865 146.299 136.271C146.746 136.676 147.366 136.879 148.159 136.879ZM149.56 132.401V136.879C150.353 136.879 150.97 136.676 151.412 136.271C151.859 135.865 152.082 135.323 152.082 134.644C152.082 133.96 151.859 133.415 151.412 133.01C150.97 132.604 150.353 132.401 149.56 132.401ZM162.509 135.129H157.259C157.332 135.603 157.565 136.013 157.957 136.359C158.353 136.706 158.823 136.879 159.365 136.879C159.757 136.879 160.121 136.79 160.459 136.612C160.8 136.435 161.042 136.261 161.183 136.093L161.395 135.833L162.304 136.742C162.277 136.779 162.234 136.831 162.174 136.899C162.12 136.963 161.999 137.075 161.812 137.234C161.625 137.389 161.427 137.528 161.217 137.651C161.008 137.77 160.734 137.882 160.397 137.986C160.064 138.087 159.72 138.137 159.365 138.137C158.412 138.137 157.59 137.788 156.897 137.091C156.209 136.389 155.865 135.548 155.865 134.568C155.865 133.625 156.2 132.818 156.87 132.148C157.544 131.474 158.351 131.137 159.29 131.137C160.233 131.137 161.017 131.451 161.641 132.08C162.27 132.704 162.585 133.488 162.585 134.432L162.509 135.129ZM159.29 132.333C158.784 132.333 158.358 132.483 158.011 132.784C157.67 133.08 157.439 133.465 157.321 133.939H161.211C161.129 133.465 160.917 133.08 160.575 132.784C160.233 132.483 159.805 132.333 159.29 132.333Z" fill="white"/>
</g>
<g clip-path="url(#clip0_144_8472)">
<path fill-rule="evenodd" clip-rule="evenodd" d="M78.4878 46.8233C79.0938 47.1331 79.7534 47.3159 80.4285 47.3613C80.9386 47.3314 81.5067 46.1616 81.6726 45.1113C81.5836 44.6738 81.4574 44.2452 81.2952 43.8306C80.8556 42.8956 80.3166 41.888 79.7443 42.1997C79.1721 42.5113 79.7443 43.9373 79.3711 44.6289C79.0594 45.2407 78.8 45.8792 78.5957 46.5373L78.5086 46.8361L78.4878 46.8233ZM80.1465 63.4736C80.1465 63.0466 80.9552 62.0135 81.6311 61.1767C82.307 60.3399 84.1191 59.0933 84.8075 58.0473C85.4959 57.0013 85.5498 57.7698 86.6984 57.3514C87.8471 56.933 88.9252 56.7281 88.9957 55.6138C89.0662 54.4995 88.9252 53.8079 88.0503 53.3895C87.1753 52.9711 86.6321 52.4844 85.8857 52.6936C85.1392 52.9028 81.5647 53.9445 80.0802 53.8079C78.5957 53.6713 77.3765 52.6936 76.4974 52.6936C75.6183 52.6936 75.2202 53.5347 74.3908 53.8122C73.5615 54.0897 72.0977 54.7856 71.4218 54.0897C70.7458 53.3938 70.2731 54.2989 69.9331 54.3672C69.593 54.4355 69.2572 52.5698 69.0581 51.447C68.8591 50.3242 69.2572 47.4808 69.3277 46.2299C69.3981 44.979 70.7458 42.4772 71.1522 41.8496C71.3347 41.5636 71.4757 41.713 71.5669 42.0204C71.6291 41.5166 71.6872 41.0299 71.7411 40.6969C71.8738 39.843 71.8074 38.3701 71.9069 36.6667C72.0065 34.9632 73.1219 31.4283 73.9306 30.3182C74.6519 29.3118 75.5044 28.4125 76.4642 27.6457C76.9411 27.3511 77.6834 25.511 78.2473 25.0841L78.1229 24.9731C77.7083 24.623 77.6875 24.4522 77.787 23.7563C77.8866 23.0604 79.2384 22.3347 80.4161 21.7113C81.4626 21.2433 82.5536 20.8885 83.6713 20.6526V20.3196C83.7708 18.6887 84.6831 17.822 86.3335 16.9041C87.0672 16.5105 87.8823 16.305 88.7096 16.305C89.5369 16.305 90.352 16.5105 91.0857 16.9041C92.2426 17.5018 95.0376 19.8926 95.7549 20.5714C96.236 20.5373 96.6548 20.6141 96.717 20.2384C96.7792 19.8627 95.954 19.0345 95.4315 18.3429C94.8529 17.5393 94.0712 16.9146 93.1715 16.537C92.2634 16.2253 91.3511 15.9478 91.3511 15.4953C91.3511 15.0427 92.4666 14.8378 93.3084 15.1494C94.1502 15.4611 94.9588 16.2808 95.954 17.0237C96.9492 17.7665 98.5167 20.3537 99.1926 20.7721C99.8685 21.1905 100.673 20.9087 101.113 20.9087C101.552 20.9087 101.552 20.1829 101.888 20.1829C102.224 20.1829 102.224 20.3196 102.999 21.1179C104.889 23.1738 106.62 25.3792 108.174 27.714C110.567 31.2191 110.368 36.4618 110.368 36.4618C110.368 36.4618 108.647 35.6079 108.174 35.0742C107.702 34.5406 106.458 33.1274 106.051 32.6066C105.401 31.8421 104.638 31.1867 103.791 30.6641C103.092 30.2871 102.323 30.0632 101.536 30.0066C101.03 30.0507 100.521 30.0406 100.018 29.9767C99.9515 30.4292 99.8934 30.8604 100.151 31.0824C100.565 31.4283 101.635 31.1508 102.311 31.2874C102.987 31.424 103.725 31.9491 104.6 32.6066C105.23 33.0612 105.74 33.6701 106.085 34.3783C106.126 34.4535 106.158 34.5339 106.18 34.6174C106.662 34.8859 107.085 35.2536 107.424 35.6976C107.753 36.1013 108.015 36.5587 108.199 37.0509C108.39 37.5077 108.614 38.067 108.539 38.4043C108.465 38.7416 108.058 38.6562 107.863 38.4726C107.669 38.289 107.81 37.7511 107.66 37.5718C107.511 37.3925 107.275 37.179 107.188 37.6401C107.1 38.1012 106.914 39.3478 107.225 39.9668C107.536 40.5859 108.295 40.6158 108.776 40.6969C109.187 40.7361 109.6 40.6388 109.953 40.4194C110.264 40.2614 110.634 40.3255 110.559 39.7918C110.484 39.2581 109.73 38.2207 109.584 37.6572C109.439 37.0936 109.489 36.8673 109.783 36.6496C109.961 36.5371 110.166 36.4775 110.374 36.4775C110.583 36.4775 110.788 36.5371 110.965 36.6496C111.4 36.9762 111.72 37.4391 111.878 37.9688C112.202 38.891 112.479 39.8301 112.707 40.7823C112.964 41.7429 113.151 42.9169 113.449 43.7324C113.737 44.3613 114.074 44.9652 114.457 45.5383C114.706 46.025 114.872 45.5383 114.93 46.6483C114.988 47.7583 115.104 51.067 114.863 52.1984C114.623 53.3297 114.146 52.5655 113.619 52.7875C113.015 53.1208 112.369 53.3665 111.699 53.5176C110.928 53.5489 110.155 53.4669 109.406 53.2742C108.85 53.1462 108.274 53.2742 108.357 52.779H108.328C107.552 53.0223 106.607 53.4706 105.292 53.4023C104.007 53.3102 102.732 53.1017 101.482 52.779C100.54 52.5356 100.403 52.3265 99.8229 52.604C99.2424 52.8815 98.7779 53.5432 97.9693 53.5774C97.1607 53.6115 96.858 53.2998 96.688 53.7524C96.4735 54.6487 96.427 55.579 96.5511 56.4933C96.7211 57.0141 97.8657 57.3941 98.8111 57.6033C99.9525 57.9283 101.034 58.4447 102.012 59.1317C102.146 59.222 102.25 59.3519 102.311 59.5043C102.372 59.6568 102.386 59.8245 102.352 59.9856C101.622 59.8032 100.911 59.5472 100.229 59.2214C99.487 58.9097 96.7211 58.0046 96.1489 57.4496C95.5766 56.8946 95.2366 55.2637 95.2698 54.3288C95.303 53.3938 94.71 53.2614 94.2953 52.7406C93.9884 52.3435 93.7023 52.1898 93.5779 51.8867C93.4825 51.9934 93.3913 52.1002 93.3125 52.2026C92.8398 52.8302 92.4334 53.7311 91.6911 53.7311C90.9489 53.7311 90.2066 54.0128 90.1402 55.0545C90.0739 56.0962 89.8666 56.933 89.0579 57.2788C88.2493 57.6246 87.6397 58.3931 86.8975 58.4614C86.1552 58.5297 85.2761 58.8072 84.9361 59.3665C84.596 59.9258 83.7874 60.2204 83.2483 61.0358C82.7092 61.8512 82.3692 63.3284 81.8301 63.5376C81.2911 63.7468 80.1424 63.4693 80.1424 63.4693L80.1465 63.4736ZM71.0486 45.2053C70.8048 46.0835 70.6574 46.9871 70.609 47.8992C70.609 49.291 70.949 51.7928 71.625 52.2795C72.3009 52.7662 73.1095 53.2529 73.7854 52.7662C74.3784 52.3393 75.0751 51.9123 75.3736 51.4384C75.1842 51.1242 74.9692 50.8272 74.7309 50.5504C74.2243 50.0741 73.7721 49.5399 73.3832 48.958C73.0409 48.325 72.8066 47.6361 72.6907 46.9215C72.4926 47.0061 72.2889 47.076 72.0811 47.1307C72.179 47.4803 72.2579 47.8352 72.3175 48.1938C72.4946 49.0276 72.8517 49.8097 73.3624 50.4821C73.8684 51.2463 74.3079 51.7629 73.9679 51.9422C73.6278 52.1215 72.8441 51.7159 72.475 51.2463C71.9963 50.5698 71.5994 49.8358 71.2932 49.0604C71.0527 48.4926 70.9864 46.5245 71.0486 45.2181V45.2053ZM75.7137 51.1823C76.402 51.3701 78.3551 53.0608 80.0678 53.0608C82.0914 53.0608 84.5919 52.3649 85.3341 51.5281C85.3918 51.465 85.4527 51.4051 85.5166 51.3488C85.2678 51.0542 84.8697 50.6017 84.4426 50.6017C84.0155 50.6017 81.0257 51.558 79.7568 51.558C78.4878 51.558 77.2687 50.9005 76.7877 50.8664C76.3066 50.8322 75.9583 50.6572 75.7759 50.9688C75.7427 51.0309 75.7216 51.0991 75.7137 51.1695V51.1823ZM86.292 51.0627C86.8602 51.0627 87.6854 51.2933 89.2528 51.4598C90.7789 51.567 92.3105 51.3639 93.7604 50.8621C94.005 50.549 94.3361 50.3198 94.71 50.2046C95.0037 50.1208 95.2623 49.9392 95.4453 49.6882C95.6283 49.4372 95.7255 49.1309 95.7218 48.8171C95.7302 48.5786 95.8045 48.3474 95.9359 48.1508C96.0674 47.9542 96.2506 47.8003 96.464 47.7071C96.5906 47.6237 96.7401 47.5853 96.8899 47.5976C97.0396 47.61 97.1813 47.6724 97.2934 47.7754C97.4031 47.955 97.4467 48.1692 97.4163 48.3791C97.3858 48.589 97.2834 48.7807 97.1275 48.9196C96.7129 49.3465 96.0121 49.4404 96.518 49.8246C97.0239 50.2089 97.3971 50.4821 97.762 50.2729C98.639 49.5232 99.4206 48.6625 100.088 47.7113C100.279 47.3636 100.521 47.0482 100.806 46.7764C100.279 47.0197 99.9764 47.5278 99.4124 47.6302C98.7449 47.7541 98.0574 47.6907 97.4219 47.4466C96.9658 47.2118 97.4219 46.5373 97.0073 46.4391C96.5926 46.3409 96.1779 46.6953 95.6264 47.0283C95.0749 47.3613 94.3202 48.0913 93.7728 48.4158C93.334 48.683 92.8545 48.8721 92.3546 48.9751C91.9068 49.0733 91.4299 49.2696 91.1106 49.0092C91.0059 48.9062 90.9253 48.78 90.875 48.6402C90.8247 48.5004 90.806 48.3507 90.8203 48.2023C90.4111 48.4162 90.0329 48.6878 89.6965 49.0092C89.1575 49.5301 87.6232 49.8417 87.167 49.8631C86.7109 49.8844 86.1925 49.8972 86.0889 50.3498C86.0101 50.7041 86.205 50.8664 86.2879 51.0542L86.292 51.0627ZM91.8072 55.1698C91.8072 55.1698 90.8659 57.5649 90.1485 57.8082C89.4311 58.0516 88.2949 59.089 87.3163 59.4391C86.3377 59.7892 85.1268 61.1468 84.6209 61.7616C84.115 62.3764 83.4391 63.8109 82.9622 64.4342C82.4853 65.0575 82.4895 65.9967 82.9622 66.2742C83.4349 66.5517 84.0735 66.7012 84.3099 66.2059C84.5463 65.7107 84.2104 65.0276 84.5463 64.2976C84.8821 63.5675 85.6286 62.9783 86.4372 62.2141C87.2458 61.4499 88.324 59.4732 88.8962 59.1957C89.4685 58.9182 89.8085 59.6483 89.6385 59.9599C89.4685 60.2716 89.0994 60.3869 88.7262 60.8949C88.353 61.403 87.3122 62.7691 86.7731 63.0296C86.234 63.29 85.3217 64.2463 85.3217 64.8355C85.3217 65.4246 84.9526 66.6755 85.8276 66.5005C86.7026 66.3255 86.8062 66.3639 87.3453 66.6072C87.8844 66.8506 88.0212 66.5347 88.2203 65.843C88.279 65.5487 88.3963 65.2701 88.5647 65.0246C88.7331 64.7792 88.9491 64.5724 89.1989 64.4171C89.7372 64.0783 90.1525 63.5668 90.3808 62.9613C90.4803 62.5087 90.2107 62.0263 90.2439 61.5012C90.2771 60.976 90.5798 60.6687 90.9198 60.912C91.2599 61.1554 90.8867 61.9196 90.9862 62.4404C91.0857 62.9613 90.6835 63.3412 90.6835 64.0371C90.6835 64.733 90.8867 65.9113 91.4589 66.223C92.0312 66.5347 93.2462 66.6072 93.4494 66.1205C93.6525 65.6338 92.7071 65.4588 92.7071 64.7672V62.9613C92.7071 62.2995 92.2924 61.7104 92.0975 60.9846C91.8936 60.3323 91.8706 59.6344 92.0312 58.9695C92.3412 58.1538 92.7128 57.3645 93.1425 56.6086C93.412 56.1816 92.5039 56.3994 92.3339 56.2627C92.1152 55.9142 91.9344 55.542 91.7948 55.1527L91.8072 55.1698ZM94.6063 57.1806C94.3368 57.1806 94.1916 58.1882 93.864 58.2907C93.6153 58.4264 93.4098 58.6331 93.2723 58.886C93.1347 59.1389 93.071 59.4273 93.0886 59.7166C93.1549 60.3741 93.5613 61.3133 93.5945 61.9708C93.6277 62.6283 93.3913 63.8792 93.6982 64.4342C94.005 64.9892 94.4695 65.1642 94.7431 65.8601C95.0168 66.556 95.079 66.9701 95.5725 66.9018C96.066 66.8335 97.3597 67.2476 97.5588 66.7609C97.7578 66.2742 97.5961 65.6168 97.2561 65.5826C96.6973 65.4853 96.1671 65.2591 95.7052 64.9209C95.1993 64.5409 94.9629 64.2634 95.1661 63.845C95.3693 63.4266 95.7052 64.02 96.1116 64.0542C96.518 64.0884 98.0647 64.1567 98.4711 64.1951C98.8775 64.2335 99.7856 64.2634 99.7856 64.622C99.7856 64.9806 99.4497 65.3179 98.9562 65.5613C98.4628 65.8046 97.9776 66.0821 98.214 66.3938C98.3478 66.5918 98.5319 66.7483 98.7461 66.8462C98.9603 66.944 99.1965 66.9795 99.429 66.9488C100.101 66.9146 101.146 66.8079 101.249 66.2529C101.353 65.6979 101.079 64.3445 100.706 63.9645C100.333 63.5846 97.9444 62.782 97.3349 62.8161C96.7253 62.8503 96.0577 62.3892 95.5849 61.7744C95.0307 61.0955 94.7359 60.2318 94.7556 59.3452C94.7472 58.6304 94.6904 57.9171 94.5856 57.2105L94.6063 57.1806ZM96.265 58.9524C96.1149 59.1235 96.0308 59.3452 96.0286 59.5757C96.06 60.1912 96.3128 60.7725 96.7377 61.2066C97.31 61.8683 97.9818 61.6335 99.0309 62.0049C99.7782 62.2377 100.455 62.664 100.996 63.243C101.569 63.798 102.004 64.5238 102.004 65.1173C102.004 65.7107 102.78 66.3297 103.153 66.1248C103.237 66.0621 103.307 65.9802 103.356 65.8854C103.405 65.7906 103.432 65.6855 103.435 65.5782C103.438 65.4709 103.417 65.3643 103.374 65.2666C103.331 65.1689 103.267 65.0828 103.186 65.0148C102.85 64.6647 102.916 64.3189 103.153 63.8322C103.389 63.3455 103.862 63.623 104.467 63.623C105.073 63.623 105.579 63.5205 105.749 63.1961C105.919 62.8716 105.413 62.5343 104.6 61.9452C103.917 61.3439 103.069 60.9768 102.174 60.8949C100.93 60.7242 99.4787 60.3058 98.7696 60.1691C98.0606 60.0325 96.8829 59.1957 96.2816 58.9524H96.265ZM102.788 46.3324C102.806 46.3711 102.816 46.4133 102.817 46.4562C102.817 46.7337 103.049 47.2887 102.477 47.8095C101.905 48.3304 101.162 49.5471 100.59 49.9442C99.9737 50.4624 99.3067 50.9131 98.5996 51.289C98.0937 51.4641 97.3888 52.0532 97.6583 52.2283C97.9279 52.4033 98.6701 51.6007 99.2756 51.3744C99.9514 51.1871 100.658 51.1507 101.349 51.2677C101.921 51.3744 103.642 51.8568 104.314 51.9636C105.201 52.0243 106.091 52.0357 106.98 51.9977C107.283 51.9977 106.64 51.0926 106.151 50.576C105.662 50.0595 104.67 50.2985 103.995 50.0893C103.319 49.8801 102.68 48.7018 102.751 48.3816C102.821 48.0614 102.854 46.8575 103.526 46.3366L103.596 46.2854C103.361 46.2622 103.123 46.2622 102.887 46.2854H102.792L102.788 46.3324ZM104.542 46.2214C104.898 46.3438 105.235 46.5162 105.545 46.7337C105.915 46.977 105.375 47.0112 106.085 47.5875C106.794 48.1639 107.163 47.2417 107.839 46.3751C108.415 45.6365 108.573 43.9586 108.772 43.2457C108.631 43.0895 108.477 42.9467 108.311 42.8187C107.838 42.3936 107.267 42.0997 106.653 41.9649C106.147 41.9265 106.159 42.5839 105.823 42.87C105.479 43.1362 105.174 43.451 104.915 43.8049C104.704 44.1294 104.165 44.313 104.409 44.4667C104.654 44.6204 105.127 44.2361 105.384 44.0824C105.641 43.9288 106.002 43.5445 106.329 43.5616C106.406 43.5572 106.482 43.5696 106.554 43.5979C106.626 43.6263 106.691 43.6699 106.745 43.726C106.799 43.782 106.841 43.8493 106.868 43.9232C106.895 43.9972 106.906 44.0762 106.901 44.155C106.93 44.582 106.449 44.7826 106.072 45.1242C105.64 45.5666 105.138 45.9304 104.588 46.2H104.563L104.542 46.2214ZM110.231 44.915C110.012 45.5579 109.734 46.1782 109.402 46.7678C108.83 47.9163 107.246 48.5737 107.175 49.0946C107.105 49.6155 107.482 49.893 107.851 50.2046C108.22 50.5163 109.033 49.9271 109.572 49.1629C110.24 48.3189 110.723 47.3357 110.986 46.2811C111.026 46.0686 111.091 45.8621 111.181 45.6664H111.156C110.785 45.5048 110.46 45.2492 110.211 44.9235L110.231 44.915ZM112.761 44.8765C112.869 45.376 112.529 46.3708 112.694 46.8746C112.735 47.0129 112.747 47.158 112.732 47.3015C112.796 47.2685 112.865 47.2489 112.936 47.2437C113.007 47.2386 113.079 47.2481 113.146 47.2716C113.437 47.3826 113.122 47.8352 113.25 48.1255C113.379 48.4158 113.549 49.0434 113.889 49.0306C114.229 49.0177 114.204 48.6036 114.229 48.0913C114.261 47.3903 114.192 46.6884 114.026 46.0079C113.963 45.7905 113.856 45.5889 113.714 45.4162C113.571 45.2434 113.395 45.1033 113.196 45.0046C113.067 44.9363 112.926 44.8943 112.782 44.8808L112.761 44.8765ZM111.994 48.8384C111.902 48.9494 111.811 49.0604 111.716 49.1629C111.073 49.8588 110.335 50.8706 109.929 51.2976C109.858 51.3744 109.792 51.4598 109.721 51.5537H109.759C110.256 51.4256 110.389 52.066 110.874 52.1087C111.442 52.1247 112.007 52.0186 112.533 51.7971C112.881 51.622 112.823 51.6263 112.736 51.1737C112.649 50.7212 112.11 49.7862 112.027 49.1928C112.011 49.074 112.002 48.9542 112.002 48.8342L111.994 48.8384ZM91.6248 47.1905C91.7293 47.1374 91.8304 47.0775 91.9275 47.0112C92.2841 46.7593 92.8978 46.7508 93.072 46.247C93.2462 45.7432 92.79 45.1797 92.8025 44.4795C92.8071 43.669 92.9201 42.8631 93.1383 42.0844C93.3645 41.5316 93.6974 41.0319 94.117 40.6158C94.3326 40.3639 94.4404 40.1291 94.6353 40.0309C94.3651 39.765 94.1395 39.4548 93.9677 39.113C93.2594 39.1797 92.5907 39.4791 92.0602 39.9668C91.4879 40.556 91.4548 42.2936 91.4216 43.092C91.376 44.4008 91.4315 45.7114 91.5875 47.0112L91.6248 47.1905V47.1905ZM96.8787 41.6959C97.0073 42.0503 96.7585 42.601 96.9451 42.8785C97.1317 43.156 97.4261 43.1176 97.7537 42.981C98.0813 42.8443 98.3301 42.093 98.8153 41.7856C99.0176 41.6658 99.2423 41.5913 99.4745 41.567C99.7067 41.5427 99.9413 41.5692 100.163 41.6447C100.351 41.6954 100.527 41.7847 100.681 41.9072C100.835 42.0297 100.964 42.1829 101.059 42.3577C101.117 42.4951 101.133 42.6479 101.103 42.7948C101.073 42.9417 101 43.0755 100.893 43.1774C100.698 43.3439 100.478 43.0535 100.151 43.0365C99.7557 42.9638 99.3492 43.0007 98.9728 43.1432C98.4375 43.4048 97.956 43.7701 97.5546 44.2191C97.281 44.5734 97.0073 44.868 97.3183 45.1199C97.6293 45.3718 98.2098 45.3163 98.8028 45.2223C99.508 45.1197 100.192 44.8976 100.826 44.5649C101.32 44.2489 101.336 43.7622 101.656 43.4207C101.975 43.0792 102.618 43.0535 102.634 42.5156C102.651 41.9777 102.066 41.3672 101.722 40.8847C101.448 40.5005 100.76 40.0309 100.478 39.604C99.3459 40.3964 98.1549 41.0959 96.916 41.6959H96.8787ZM101.623 38.7074C101.896 39.1343 101.963 40.1163 102.278 40.5774C102.651 41.1281 103.169 42.0118 103.725 42.1058C104.281 42.1997 104.173 41.3971 104.368 40.9274C104.563 40.4578 105.023 39.7918 104.87 39.2923C104.716 38.7928 104.04 38.7288 103.659 38.6007C103.292 38.5247 102.916 38.5017 102.543 38.5324C102.249 38.5324 101.929 38.6775 101.751 38.5324C101.71 38.6007 101.664 38.6647 101.623 38.7202V38.7074ZM102 37.5077C102.182 37.4181 102.498 37.67 102.581 37.3498C102.685 36.8314 102.614 36.2917 102.377 35.8214C102.112 35.3944 101.328 35.292 101.133 34.9888C100.938 34.6857 101.208 34.5021 101.436 34.3997C101.569 34.3393 101.714 34.3139 101.859 34.3259C102.004 34.3378 102.143 34.3866 102.265 34.468C102.689 34.8159 103.093 35.1879 103.476 35.5823C103.891 35.9196 104.272 36.6411 104.758 36.5173C105.243 36.3934 105.035 35.467 105.263 35.1297L105.404 34.9163C104.948 34.421 104.181 33.4092 103.746 33.3238C103.207 33.2214 101.826 32.9439 101.017 33.1146C100.209 33.2854 99.5326 33.7764 99.7027 34.2246C99.9879 34.7836 100.377 35.2797 100.847 35.6847C101.419 36.2739 101.623 36.9356 101.925 37.3925C101.95 37.4314 101.971 37.4729 101.988 37.5163L102 37.5077ZM94.6478 20.6953C94.144 20.0307 93.557 19.4378 92.902 18.932C92.197 18.4453 91.0816 17.6811 90.2729 17.5616C89.4643 17.4421 88.1996 17.2841 87.9134 17.6299C87.6273 17.9757 87.7807 18.3599 88.2493 18.8125C88.4622 19.0684 88.6205 19.3674 88.7141 19.6903C88.8077 20.0131 88.8344 20.3526 88.7925 20.6867C88.722 21.2076 89.228 21.6558 89.7007 22.0401C89.8947 22.185 90.1049 22.3054 90.3268 22.3987H90.3766C90.6407 22.3424 90.896 22.249 91.1355 22.1212C91.1303 22.1106 91.1277 22.0989 91.1277 22.087C91.1277 22.0752 91.1303 22.0635 91.1355 22.0529C91.6304 21.6196 92.2021 21.2891 92.819 21.0795C93.4123 20.9012 94.0182 20.7713 94.6312 20.691L94.6478 20.6953ZM92.7486 23.6112C92.7071 23.9143 92.5993 24.3455 92.5993 24.3455C93.4316 24.6524 94.2155 25.084 94.9256 25.6263C95.755 26.2539 96.1696 27.2572 96.746 27.3639C96.9368 27.398 97.1607 27.4621 97.4427 27.5389C97.4182 27.5034 97.4008 27.4632 97.3916 27.4207C97.3823 27.3782 97.3814 27.3342 97.3888 27.2913C97.4883 26.9455 97.7578 25.733 97.8242 25.2463C97.8905 24.7596 97.3888 23.9954 97.1192 23.9954C96.8497 23.9954 96.8497 24.1705 96.2899 24.5504C95.7301 24.9304 94.9422 24.7255 94.54 24.5504C94.1377 24.3754 93.8474 23.6197 93.4659 23.513C93.2187 23.4661 92.9634 23.5004 92.7361 23.6112H92.7486ZM98.214 27.7652C98.4416 27.8317 98.6729 27.8845 98.9065 27.9232C98.99 27.9334 99.0721 27.9534 99.1511 27.9829C99.2756 27.6243 99.1843 26.5186 99.2424 25.9764C99.3087 25.3531 99.2756 25.0072 99.8478 24.5888C100.42 24.1705 100.76 24.4522 100.959 24.1021C101.007 24.0149 101.031 23.9161 101.029 23.816C101.027 23.716 100.998 23.6183 100.947 23.5333C100.896 23.4482 100.823 23.3789 100.737 23.3325C100.651 23.2862 100.554 23.2644 100.457 23.2696C99.9846 23.2696 99.7815 23.8246 99.3419 23.8246C98.9023 23.8246 98.9272 23.8246 98.6701 24.5547C98.413 25.2847 98.2969 27.3682 98.2306 27.6798V27.7652H98.214ZM99.8727 28.6191L99.91 28.6831C100.13 28.6831 100.466 28.7343 100.909 28.7343C101.734 28.7427 102.549 28.9197 103.306 29.2552C104.248 29.6352 104.351 29.8102 104.787 29.981C105.222 30.1517 105.201 29.8444 105.201 29.1271C105.226 28.5358 105.149 27.9446 104.973 27.381C104.836 27.1035 104.5 26.826 104.434 27.2742C104.414 27.4964 104.338 27.7094 104.214 27.8921C104.09 28.0748 103.921 28.2209 103.725 28.3159C103.487 28.3446 103.246 28.3189 103.019 28.2407C102.791 28.1625 102.584 28.0337 102.411 27.8634C102.078 27.6137 101.774 27.3274 101.502 27.0095C101.332 26.7662 101.772 26.2112 102.24 26.2838C102.709 26.3563 103.12 26.9071 103.285 26.5271C103.386 26.3252 103.43 26.0984 103.413 25.8721C103.395 25.6459 103.317 25.4292 103.186 25.2463C102.883 24.9347 102.411 24.3925 101.942 24.3925C101.473 24.3925 100.495 25.1182 100.258 25.4299C100.022 25.7416 100.155 26.8217 100.155 27.5645C100.16 27.9269 100.069 28.2839 99.8934 28.5977L99.8727 28.6191ZM94.6561 38.8654C94.88 38.8654 95.1329 38.9209 95.3776 38.9465C95.0856 38.4712 94.7599 38.0189 94.4031 37.5931C93.7448 37.0833 92.9862 36.7277 92.1804 36.5514C91.5267 36.4527 90.8635 36.4398 90.2066 36.513C90.2427 36.5803 90.2706 36.652 90.2895 36.7265C90.3932 37.1064 91.3013 37.0723 92.3629 37.3156C93.2241 37.5413 94.0258 37.9613 94.71 38.5452C94.7805 38.6135 94.7431 38.7288 94.6602 38.844L94.6561 38.8654ZM96.5387 38.9209C97.1946 38.8183 97.844 38.6757 98.4835 38.4939C99.0558 38.3232 100.101 37.7639 100.37 37.3839C100.64 37.004 100.54 36.8631 100.167 36.3764C99.7939 35.8897 98.2306 34.9675 98.0606 34.6388C98.039 34.5938 98.0223 34.5466 98.0108 34.4979C97.8366 34.5875 97.679 34.6003 97.6583 34.848C97.6251 35.2279 98.2969 35.5737 98.8028 36.0263C99.3087 36.4788 99.8146 36.8246 99.3087 36.9271C98.8028 37.0296 98.0274 36.4063 97.6915 36.2013C97.1355 36.0237 96.5357 36.0601 96.0038 36.3038C95.7342 36.513 95.0956 36.8246 95.3652 37.3113C95.6347 37.798 96.2194 38.4214 96.5553 38.9166L96.5387 38.9209ZM97.9859 33.2598C97.9859 33.1659 97.9859 33.0762 97.9859 32.9908C97.9859 32.47 97.9527 30.7665 97.5712 30.109C97.1897 29.4516 96.3687 28.0256 95.7342 27.6798C95.0998 27.334 93.1052 25.9721 92.7361 25.6989C92.3671 25.4256 91.658 24.8194 91.3179 25.0755C90.9779 25.3317 91.5875 27.1248 91.9607 27.6115C92.3339 28.0982 92.3297 29.4473 91.857 29.8315C91.4423 30.1645 90.3849 30.4719 89.879 30.2884C89.8304 30.5069 89.8507 30.7357 89.937 30.9416C90.1402 31.1508 91.658 31.0099 92.2966 30.9757C92.9352 30.9416 93.5779 29.7974 93.9801 29.2424C94.3824 28.6874 93.8806 27.9915 94.3948 27.889C94.909 27.7866 95.2242 28.5806 96.0535 29.5199C96.8829 30.4591 96.829 31.4283 96.9326 32.0516C97.0363 32.6749 97.5754 33.0164 98.0025 33.2598H97.9859ZM90.1485 28.8667C90.397 28.8027 90.6491 28.7543 90.9032 28.7215C91.3179 28.6532 90.7332 28.2007 90.4637 27.6798C90.1941 27.159 88.5562 26.1002 88.4193 25.6732C88.2825 25.2463 87.9798 24.4907 88.1913 23.9655L88.0752 23.8972C87.7351 23.7222 87.3329 23.133 86.8933 22.8897C86.4538 22.6463 86.2216 22.7146 86.0184 23.2013C85.8152 23.688 86.2216 24.6956 86.5243 25.1439C87.1289 25.8315 87.8624 26.3863 88.6806 26.7747C89.2197 26.9498 89.8292 26.9156 89.9246 27.2614C90.0716 27.7831 90.147 28.3235 90.1485 28.8667V28.8667ZM88.5147 23.513C88.6707 23.3589 88.837 23.2162 89.0123 23.0861C88.5396 22.6933 87.8098 21.5747 87.4407 21.9504C87.0716 22.3261 88.0834 23.0647 88.5147 23.513ZM87.2458 27.0608C86.9182 27.0992 86.7109 27.4023 86.6487 27.8506C86.5865 28.2989 87.2458 28.3714 87.7102 28.6618H87.7476C87.6936 28.1189 87.5327 27.593 87.2748 27.1163L87.2458 27.0608ZM87.8595 30.9031C87.5361 30.6982 87.1546 30.4463 86.9887 30.647C86.7523 30.9245 86.885 32.6578 86.8519 33.2854C86.8187 33.913 86.516 34.4296 86.8187 34.9504C86.9404 35.1534 87.1287 35.3049 87.3495 35.3774C87.3709 35.3108 87.4079 35.2507 87.4573 35.2023C87.7559 34.8949 87.7932 32.026 87.872 30.933L87.8595 30.9031ZM88.0047 35.7531C88.1125 35.9665 88.0047 36.0306 87.7973 36.4063C87.5104 36.8349 87.1124 37.1722 86.6487 37.3797C86.4828 37.3797 86.516 36.9997 85.9396 37.068C85.3632 37.1363 85.301 37.068 85.471 37.8322C85.641 38.5964 85.7405 38.4897 86.1759 38.2805C86.6113 38.0713 86.7523 37.4821 87.2914 37.2046C87.7751 37.0208 88.2039 36.7103 88.5354 36.3038C88.6301 36.1373 88.7767 36.0086 88.9514 35.9389C89.1261 35.8691 89.3186 35.8623 89.4975 35.9196C90.2024 35.6933 92.3048 35.8982 92.8149 36.1031C93.325 36.3081 94.3326 35.6549 94.1626 35.2023C93.9926 34.7498 93.1383 34.6388 92.4997 34.6388C91.8611 34.6388 91.3926 34.0325 91.7243 33.358C92.056 32.6834 95.5393 31.5649 95.2988 31.1166C95.0583 30.6683 92.7029 32.0174 92.027 32.2608C91.3511 32.5041 90.1071 33.7166 89.4311 34.2716C88.9584 34.6644 88.3696 35.3774 87.9881 35.736L88.0047 35.7531ZM80.1258 25.7287L80.2958 25.8227C80.7312 26.0319 81.1459 25.6647 81.8882 25.5964C82.3677 25.5636 82.849 25.5721 83.3271 25.622C83.2236 25.0229 83.1681 24.416 83.1612 23.8076C83.1612 23.0092 83.0949 22.5951 82.419 22.7317C81.7431 22.8683 81.5896 23.6368 80.9013 24.3626C80.2129 25.0884 80.3539 25.5366 80.1258 25.7287V25.7287ZM83.8994 27.2102C83.9507 27.2738 84.0076 27.3324 84.0694 27.3852C84.8117 27.9744 85.8898 28.0769 85.9935 28.4611C86.0971 28.8453 84.6085 29.2595 84.6085 30.1688C84.6085 31.0782 84.5089 32.7048 84.5753 33.3964C84.5581 33.7586 84.4102 34.1011 84.1606 34.357C83.5801 34.404 83.153 34.2417 83.1073 33.8489C83.0493 33.3366 83.3769 33.8148 83.3437 31.9747C83.3105 30.1347 82.5143 29.1613 80.8142 29.2338C79.114 29.3064 77.7456 31.2105 76.8333 32.6493C75.921 34.088 74.9465 36.6069 74.4406 37.9603C74.0519 39.2461 73.7662 40.5626 73.5864 41.8966C73.9759 41.4563 74.3256 40.9804 74.6314 40.4749C75.0004 39.9191 75.446 39.4215 75.9542 38.9977C76.1822 39.0276 76.4601 39.1045 76.5513 39.2923C76.7213 39.6424 76.1159 40.1248 75.722 40.4407C75.328 40.7567 75.1497 42.1485 75.5188 42.1485C75.8878 42.1485 76.6342 41.1751 77.1401 40.7609C77.9182 40.2339 78.8009 39.8926 79.7236 39.7619C80.4053 39.6867 81.092 39.8458 81.6767 40.2145C82.249 40.5603 83.5635 41.4611 83.7501 41.2562C83.9367 41.0512 83.4805 40.0394 82.8088 39.2752C82.137 38.511 80.6151 38.3744 79.8729 38.3061C79.1306 38.2378 77.5134 38.511 77.277 38.3061C77.1319 38.1737 77.2563 37.7767 77.3765 37.4949C77.5258 37.5419 77.7373 37.4693 78.3386 37.0381C79.0335 36.4827 79.7978 36.026 80.611 35.6805C81.486 35.3304 82.2282 35.0017 83.0368 35.2792C83.3313 35.3816 83.5801 35.4585 83.7791 35.5182C83.7806 36.7084 83.9625 37.8909 84.3182 39.0233C84.6209 39.9626 85.2968 41.6959 85.33 42.1143C85.3632 42.5327 85.5664 42.4601 85.7032 42.2893C85.84 42.1186 85.6327 40.936 86.2091 40.4493C86.7855 39.9626 87.0841 39.0959 87.7227 39.0959C88.3613 39.0959 88.2286 40.1333 88.7013 40.8292C89.174 41.5251 90.049 42.1826 90.1859 42.5668C90.3102 43.8084 90.2303 45.0627 89.9495 46.2769C89.6468 47.182 89.85 47.9846 89.3772 48.0486L88.9626 48.1297C88.6242 47.8252 88.2591 47.5536 87.872 47.3186C87.3744 47.0197 86.8311 45.4486 86.1967 44.8253C85.5622 44.202 84.2394 43.2286 83.4971 42.6907C82.7549 42.1527 80.499 40.9189 79.454 40.9573C78.4091 40.9957 77.6336 42.204 77.1941 42.5156C76.7545 42.8273 76.1159 43.0365 75.7759 42.8657C75.4358 42.6949 75.4068 42.0673 75.3073 42.3448C75.2603 42.7865 75.3426 43.2325 75.5436 43.6256C75.7095 44.0099 76.2818 44.7741 76.2154 45.1199C76.1491 45.4657 76.0122 45.5724 75.44 45.3974C74.8677 45.2223 74.6645 44.6673 74.0923 43.9074C73.52 43.1475 74.0591 41.8966 73.7896 41.8966C73.52 41.8966 73.6195 42.4857 73.1136 42.4857C72.7985 42.4857 72.6285 41.6788 72.5414 41.0683C72.6202 40.6414 72.6948 40.3084 72.7446 40.0907C72.9105 39.3649 73.9886 36.8631 74.1918 35.7872C74.395 34.7113 74.0923 33.4989 74.4945 32.6664C74.8968 31.8338 75.8795 29.9425 76.8789 29.0887C77.8783 28.2348 79.2716 27.381 80.2834 27.3554C81.2952 27.3297 82.307 27.1462 83.4515 27.2145C83.5906 27.2246 83.7304 27.2131 83.8662 27.1803L83.8994 27.2102ZM87.4075 48.5097C87.1338 47.9931 86.5533 46.8575 86.0267 46.4049C85.4171 45.8841 82.5517 42.5882 82.249 42.9895C81.9462 43.3908 83.5635 44.2404 83.493 45.8713C83.4225 47.5021 82.8544 47.579 83.2566 48.403C83.444 48.7738 83.6753 49.1194 83.945 49.4319C84.0509 49.3951 84.1589 49.3652 84.2684 49.3422C84.9443 49.2013 86.1925 48.578 86.8975 48.578C87.067 48.5755 87.2361 48.5598 87.4034 48.531L87.4075 48.5097ZM83.0244 49.8033C82.9528 49.358 82.7794 48.9365 82.5185 48.5737C82.473 48.5082 82.4367 48.4363 82.4107 48.3603C82.0173 48.5681 81.599 48.7217 81.1667 48.8171C80.3954 48.9708 78.6537 49.1245 77.8492 48.8939C77.7705 49.1373 77.7041 49.3209 77.6751 49.4063C77.5756 49.6624 77.5507 49.9314 77.476 50.1021C77.94 50.3345 78.4247 50.5203 78.9233 50.6572C80.007 50.7239 81.0931 50.5791 82.1246 50.2302C82.4107 50.115 82.7175 49.9527 83.0327 49.8033H83.0244ZM76.3274 49.5429C76.3523 49.0434 76.6799 48.0828 76.5181 47.6729C76.0787 46.9361 75.4323 46.354 74.6645 46.0036C74.5289 45.9532 74.384 45.9347 74.2405 45.9495C74.0969 45.9643 73.9585 46.012 73.8352 46.089C73.8806 46.118 73.9155 46.1615 73.9347 46.2128C74.1379 46.6995 75.1787 48.9196 75.6224 49.1629C75.7468 49.2355 76.0122 49.3721 76.3398 49.5429H76.3274ZM71.8572 46.1274C71.9102 46.0905 71.9717 46.0685 72.0355 46.0634C72.4045 45.9908 72.4045 45.6792 72.4045 45.265C72.4045 44.8509 72.4377 44.1508 72.2055 43.9458C72.1382 43.8821 72.0783 43.8104 72.0272 43.7324C71.9003 44.4365 71.835 45.1509 71.8323 45.867C71.8333 45.9586 71.8416 46.05 71.8572 46.1402V46.1274ZM77.1941 36.6923C77.2973 36.3459 77.5105 36.0452 77.7995 35.8384C78.3386 35.5268 78.915 34.7967 79.6531 34.1307C80.3912 33.4647 81.9131 32.154 81.1376 31.5691C80.3622 30.9843 79.2177 31.9961 78.5418 32.82C77.8658 33.644 78.069 35.3176 77.6668 35.6677C77.4408 35.9573 77.2654 36.2853 77.1484 36.6368L77.1941 36.6923Z" fill="#252F80"/>
</g>
<defs>
<filter id="filter0_d_144_8472" x="0.803955" y="101.76" width="181.534" height="22.48" filterUnits="userSpaceOnUse" color-interpolation-filters="sRGB">
<feFlood flood-opacity="0" result="BackgroundImageFix"/>
<feColorMatrix in="SourceAlpha" type="matrix" values="0 0 0 0 0 0 0 0 0 0 0 0 0 0 0 0 0 0 127 0" result="hardAlpha"/>
<feOffset dy="4"/>
<feGaussianBlur stdDeviation="2"/>
<feColorMatrix type="matrix" values="0 0 0 0 0.00649303 0 0 0 0 0.386793 0 0 0 0 0.779167 0 0 0 0.31 0"/>
<feBlend mode="normal" in2="BackgroundImageFix" result="effect1_dropShadow_144_8472"/>
<feBlend mode="normal" in="SourceGraphic" in2="effect1_dropShadow_144_8472" result="shape"/>
</filter>
<filter id="filter1_d_144_8472" x="17.6973" y="127.917" width="148.887" height="21.0225" filterUnits="userSpaceOnUse" color-interpolation-filters="sRGB">
<feFlood flood-opacity="0" result="BackgroundImageFix"/>
<feColorMatrix in="SourceAlpha" type="matrix" values="0 0 0 0 0 0 0 0 0 0 0 0 0 0 0 0 0 0 127 0" result="hardAlpha"/>
<feOffset dy="4"/>
<feGaussianBlur stdDeviation="2"/>
<feComposite in2="hardAlpha" operator="out"/>
<feColorMatrix type="matrix" values="0 0 0 0 0.00784314 0 0 0 0 0.388235 0 0 0 0 0.780392 0 0 0 0.21 0"/>
<feBlend mode="normal" in2="BackgroundImageFix" result="effect1_dropShadow_144_8472"/>
<feBlend mode="normal" in="SourceGraphic" in2="effect1_dropShadow_144_8472" result="shape"/>
</filter>
<clipPath id="clip0_144_8472">
<rect width="46" height="52" fill="white" transform="translate(69 15)"/>
</clipPath>
</defs>
</svg>
