<svg width="83" height="83" viewBox="0 0 83 83" fill="none" xmlns="http://www.w3.org/2000/svg">
<circle cx="41.3497" cy="41.3497" r="41.3497" fill="white"/>
<g clip-path="url(#clip0_557_1547)">
<path fill-rule="evenodd" clip-rule="evenodd" d="M28.4878 46.8233C29.0938 47.1331 29.7534 47.3159 30.4285 47.3613C30.9386 47.3314 31.5067 46.1616 31.6726 45.1113C31.5836 44.6738 31.4574 44.2452 31.2952 43.8306C30.8556 42.8956 30.3166 41.888 29.7443 42.1997C29.1721 42.5113 29.7443 43.9373 29.3711 44.6289C29.0594 45.2407 28.8 45.8792 28.5957 46.5373L28.5086 46.8361L28.4878 46.8233ZM30.1465 63.4736C30.1465 63.0466 30.9552 62.0135 31.6311 61.1767C32.307 60.3399 34.1191 59.0933 34.8075 58.0473C35.4959 57.0013 35.5498 57.7698 36.6984 57.3514C37.8471 56.933 38.9252 56.7281 38.9957 55.6138C39.0662 54.4995 38.9252 53.8079 38.0503 53.3895C37.1753 52.9711 36.6321 52.4844 35.8857 52.6936C35.1392 52.9028 31.5647 53.9445 30.0802 53.8079C28.5957 53.6713 27.3765 52.6936 26.4974 52.6936C25.6183 52.6936 25.2202 53.5347 24.3908 53.8122C23.5615 54.0897 22.0977 54.7856 21.4218 54.0897C20.7458 53.3938 20.2731 54.2989 19.9331 54.3672C19.593 54.4355 19.2572 52.5698 19.0581 51.447C18.8591 50.3242 19.2572 47.4808 19.3277 46.2299C19.3981 44.979 20.7458 42.4772 21.1522 41.8496C21.3347 41.5636 21.4757 41.713 21.5669 42.0204C21.6291 41.5166 21.6872 41.0299 21.7411 40.6969C21.8738 39.843 21.8074 38.3701 21.9069 36.6667C22.0065 34.9632 23.1219 31.4283 23.9306 30.3182C24.6519 29.3118 25.5044 28.4125 26.4642 27.6457C26.9411 27.3511 27.6834 25.511 28.2473 25.0841L28.1229 24.9731C27.7083 24.623 27.6875 24.4522 27.787 23.7563C27.8866 23.0604 29.2384 22.3347 30.4161 21.7113C31.4626 21.2433 32.5535 20.8885 33.6713 20.6526V20.3196C33.7708 18.6887 34.6831 17.822 36.3335 16.9041C37.0672 16.5105 37.8823 16.305 38.7096 16.305C39.5369 16.305 40.352 16.5105 41.0857 16.9041C42.2426 17.5018 45.0376 19.8926 45.7549 20.5714C46.236 20.5373 46.6548 20.6141 46.717 20.2384C46.7792 19.8627 45.954 19.0345 45.4315 18.3429C44.8529 17.5393 44.0712 16.9146 43.1715 16.537C42.2634 16.2253 41.3511 15.9478 41.3511 15.4953C41.3511 15.0427 42.4666 14.8378 43.3084 15.1494C44.1502 15.4611 44.9588 16.2808 45.954 17.0237C46.9492 17.7665 48.5167 20.3537 49.1926 20.7721C49.8685 21.1905 50.673 20.9087 51.1126 20.9087C51.5521 20.9087 51.5521 20.1829 51.888 20.1829C52.2239 20.1829 52.2239 20.3196 52.9993 21.1179C54.8894 23.1738 56.6198 25.3792 58.1745 27.714C60.5672 31.2191 60.3681 36.4618 60.3681 36.4618C60.3681 36.4618 58.6472 35.6079 58.1745 35.0742C57.7018 34.5406 56.4577 33.1274 56.0514 32.6066C55.4007 31.8421 54.6382 31.1867 53.7914 30.6641C53.0915 30.2871 52.3235 30.0632 51.5355 30.0066C51.03 30.0507 50.5214 30.0406 50.0178 29.9767C49.9515 30.4292 49.8934 30.8604 50.1505 31.0824C50.5652 31.4283 51.6351 31.1508 52.311 31.2874C52.9869 31.424 53.725 31.9491 54.6 32.6066C55.23 33.0612 55.7401 33.6701 56.0845 34.3783C56.1261 34.4535 56.1582 34.5339 56.1799 34.6174C56.6621 34.8859 57.0855 35.2536 57.4239 35.6976C57.7534 36.1013 58.0155 36.5587 58.1994 37.0509C58.3901 37.5077 58.6141 38.067 58.5394 38.4043C58.4648 38.7416 58.0584 38.6562 57.8635 38.4726C57.6686 38.289 57.8096 37.7511 57.6603 37.5718C57.511 37.3925 57.2746 37.179 57.1876 37.6401C57.1005 38.1012 56.9139 39.3478 57.2249 39.9668C57.5359 40.5859 58.2948 40.6158 58.7758 40.6969C59.187 40.7361 59.5997 40.6388 59.9535 40.4194C60.2645 40.2614 60.6335 40.3255 60.5589 39.7918C60.4842 39.2581 59.7295 38.2207 59.5844 37.6572C59.4393 37.0936 59.489 36.8673 59.7834 36.6496C59.9612 36.5371 60.1657 36.4775 60.3744 36.4775C60.583 36.4775 60.7875 36.5371 60.9653 36.6496C61.3999 36.9762 61.72 37.4391 61.8776 37.9688C62.2019 38.891 62.4787 39.8301 62.7069 40.7823C62.964 41.7429 63.1506 42.9169 63.4492 43.7324C63.7373 44.3613 64.0743 44.9652 64.4568 45.5383C64.7056 46.025 64.8715 45.5383 64.9296 46.6483C64.9876 47.7583 65.1037 51.067 64.8632 52.1984C64.6227 53.3297 64.1458 52.5655 63.6192 52.7875C63.0149 53.1208 62.3688 53.3665 61.6992 53.5176C60.9275 53.5489 60.1554 53.4669 59.4061 53.2742C58.8504 53.1462 58.274 53.2742 58.357 52.779H58.3279C57.5525 53.0223 56.607 53.4706 55.2925 53.4023C54.0069 53.3102 52.7317 53.1017 51.4816 52.779C50.5403 52.5356 50.4035 52.3265 49.8229 52.604C49.2424 52.8815 48.7779 53.5432 47.9693 53.5774C47.1607 53.6115 46.858 53.2999 46.688 53.7524C46.4735 54.6488 46.427 55.579 46.5511 56.4933C46.7211 57.0141 47.8657 57.3941 48.8111 57.6033C49.9525 57.9283 51.0341 58.4447 52.0124 59.1317C52.1462 59.222 52.2503 59.3519 52.311 59.5043C52.3717 59.6568 52.3862 59.8245 52.3524 59.9856C51.6221 59.8032 50.911 59.5472 50.2293 59.2214C49.487 58.9097 46.7211 58.0046 46.1489 57.4496C45.5766 56.8946 45.2366 55.2637 45.2698 54.3288C45.303 53.3938 44.71 53.2614 44.2953 52.7406C43.9884 52.3435 43.7023 52.1898 43.5779 51.8867C43.4825 51.9934 43.3913 52.1002 43.3125 52.2026C42.8398 52.8302 42.4334 53.731 41.6911 53.731C40.9489 53.731 40.2066 54.0128 40.1402 55.0545C40.0739 56.0962 39.8666 56.933 39.0579 57.2788C38.2493 57.6246 37.6397 58.3931 36.8975 58.4614C36.1552 58.5297 35.2761 58.8072 34.9361 59.3665C34.596 59.9258 33.7874 60.2204 33.2483 61.0358C32.7092 61.8512 32.3692 63.3284 31.8301 63.5376C31.2911 63.7468 30.1424 63.4693 30.1424 63.4693L30.1465 63.4736ZM21.0486 45.2053C20.8048 46.0835 20.6574 46.9871 20.609 47.8992C20.609 49.291 20.949 51.7928 21.625 52.2795C22.3009 52.7662 23.1095 53.2529 23.7854 52.7662C24.3784 52.3393 25.0751 51.9123 25.3736 51.4384C25.1842 51.1242 24.9692 50.8272 24.7309 50.5504C24.2243 50.0741 23.7721 49.5399 23.3832 48.958C23.0409 48.325 22.8066 47.6361 22.6907 46.9215C22.4926 47.0061 22.2889 47.076 22.0811 47.1307C22.179 47.4803 22.2579 47.8352 22.3175 48.1938C22.4946 49.0276 22.8517 49.8097 23.3624 50.4821C23.8684 51.2463 24.3079 51.7629 23.9679 51.9422C23.6278 52.1215 22.8441 51.7159 22.475 51.2463C21.9963 50.5698 21.5994 49.8358 21.2932 49.0604C21.0527 48.4926 20.9864 46.5245 21.0486 45.2181V45.2053ZM25.7137 51.1823C26.402 51.3701 28.3551 53.0608 30.0678 53.0608C32.0914 53.0608 34.5919 52.3649 35.3341 51.5281C35.3918 51.465 35.4527 51.4051 35.5166 51.3488C35.2678 51.0542 34.8697 50.6017 34.4426 50.6017C34.0155 50.6017 31.0257 51.558 29.7568 51.558C28.4878 51.558 27.2687 50.9005 26.7877 50.8664C26.3066 50.8322 25.9583 50.6572 25.7759 50.9688C25.7427 51.0309 25.7216 51.0991 25.7137 51.1695V51.1823ZM36.292 51.0627C36.8602 51.0627 37.6854 51.2933 39.2528 51.4598C40.7789 51.567 42.3105 51.3639 43.7604 50.8621C44.005 50.549 44.3361 50.3198 44.71 50.2046C45.0037 50.1208 45.2623 49.9392 45.4453 49.6882C45.6283 49.4372 45.7255 49.1309 45.7218 48.8171C45.7302 48.5786 45.8045 48.3474 45.9359 48.1508C46.0674 47.9542 46.2506 47.8003 46.464 47.7071C46.5906 47.6237 46.7401 47.5853 46.8899 47.5976C47.0396 47.61 47.1813 47.6724 47.2934 47.7754C47.4031 47.955 47.4467 48.1692 47.4163 48.3791C47.3858 48.589 47.2834 48.7807 47.1275 48.9196C46.7129 49.3465 46.0121 49.4404 46.518 49.8246C47.0239 50.2089 47.3971 50.4821 47.762 50.2729C48.639 49.5232 49.4206 48.6625 50.0883 47.7113C50.2793 47.3636 50.5213 47.0482 50.8057 46.7764C50.2791 47.0197 49.9764 47.5278 49.4124 47.6302C48.7449 47.7541 48.0574 47.6907 47.4219 47.4466C46.9658 47.2118 47.4219 46.5373 47.0073 46.4391C46.5926 46.3409 46.1779 46.6953 45.6264 47.0283C45.0749 47.3613 44.3202 48.0913 43.7728 48.4158C43.334 48.683 42.8545 48.8721 42.3546 48.9751C41.9068 49.0732 41.4299 49.2696 41.1106 49.0092C41.0059 48.9062 40.9253 48.78 40.875 48.6402C40.8247 48.5004 40.806 48.3507 40.8203 48.2023C40.4111 48.4162 40.0329 48.6878 39.6965 49.0092C39.1575 49.5301 37.6232 49.8417 37.167 49.8631C36.7109 49.8844 36.1925 49.8972 36.0889 50.3498C36.0101 50.7041 36.205 50.8664 36.2879 51.0542L36.292 51.0627ZM41.8072 55.1698C41.8072 55.1698 40.8659 57.5649 40.1485 57.8082C39.4311 58.0516 38.2949 59.089 37.3163 59.4391C36.3377 59.7892 35.1268 61.1468 34.6209 61.7616C34.115 62.3764 33.4391 63.8109 32.9622 64.4342C32.4853 65.0575 32.4895 65.9967 32.9622 66.2742C33.4349 66.5517 34.0735 66.7012 34.3099 66.2059C34.5463 65.7107 34.2104 65.0276 34.5463 64.2976C34.8821 63.5675 35.6286 62.9783 36.4372 62.2141C37.2458 61.4499 38.324 59.4732 38.8962 59.1957C39.4685 58.9182 39.8085 59.6483 39.6385 59.9599C39.4685 60.2716 39.0994 60.3869 38.7262 60.8949C38.353 61.403 37.3122 62.7691 36.7731 63.0296C36.234 63.29 35.3217 64.2463 35.3217 64.8355C35.3217 65.4246 34.9526 66.6755 35.8276 66.5005C36.7026 66.3255 36.8062 66.3639 37.3453 66.6072C37.8844 66.8506 38.0212 66.5347 38.2203 65.843C38.279 65.5487 38.3963 65.2701 38.5647 65.0246C38.7331 64.7792 38.9491 64.5724 39.1989 64.4171C39.7372 64.0783 40.1525 63.5668 40.3808 62.9613C40.4803 62.5087 40.2107 62.0263 40.2439 61.5012C40.2771 60.976 40.5798 60.6687 40.9198 60.912C41.2599 61.1554 40.8867 61.9196 40.9862 62.4404C41.0857 62.9613 40.6835 63.3412 40.6835 64.0371C40.6835 64.733 40.8867 65.9113 41.4589 66.223C42.0312 66.5347 43.2462 66.6072 43.4494 66.1205C43.6525 65.6338 42.7071 65.4588 42.7071 64.7672V62.9613C42.7071 62.2995 42.2924 61.7104 42.0975 60.9846C41.8936 60.3323 41.8706 59.6344 42.0312 58.9695C42.3412 58.1538 42.7128 57.3645 43.1425 56.6086C43.412 56.1816 42.5039 56.3994 42.3339 56.2627C42.1152 55.9142 41.9344 55.542 41.7948 55.1527L41.8072 55.1698ZM44.6063 57.1806C44.3368 57.1806 44.1916 58.1882 43.864 58.2907C43.6153 58.4264 43.4098 58.6331 43.2723 58.886C43.1347 59.1389 43.071 59.4273 43.0886 59.7166C43.1549 60.3741 43.5613 61.3133 43.5945 61.9708C43.6277 62.6283 43.3913 63.8792 43.6982 64.4342C44.005 64.9892 44.4695 65.1642 44.7431 65.8601C45.0168 66.556 45.079 66.9701 45.5725 66.9018C46.066 66.8335 47.3597 67.2476 47.5588 66.7609C47.7578 66.2742 47.5961 65.6168 47.2561 65.5826C46.6973 65.4853 46.1671 65.2591 45.7052 64.9209C45.1993 64.5409 44.9629 64.2634 45.1661 63.845C45.3693 63.4266 45.7052 64.0201 46.1116 64.0542C46.518 64.0884 48.0647 64.1567 48.4711 64.1951C48.8775 64.2335 49.7856 64.2634 49.7856 64.622C49.7856 64.9806 49.4497 65.3179 48.9562 65.5613C48.4628 65.8046 47.9776 66.0821 48.214 66.3938C48.3478 66.5918 48.5319 66.7483 48.7461 66.8462C48.9603 66.944 49.1965 66.9795 49.429 66.9488C50.1008 66.9146 51.1457 66.8079 51.2494 66.2529C51.3531 65.6979 51.0794 64.3445 50.7062 63.9646C50.333 63.5846 47.9444 62.782 47.3349 62.8161C46.7253 62.8503 46.0577 62.3892 45.5849 61.7744C45.0307 61.0955 44.7359 60.2318 44.7556 59.3452C44.7472 58.6304 44.6904 57.9171 44.5856 57.2105L44.6063 57.1806ZM46.265 58.9524C46.1149 59.1235 46.0308 59.3452 46.0286 59.5757C46.06 60.1912 46.3128 60.7725 46.7377 61.2066C47.31 61.8683 47.9818 61.6335 49.0309 62.0049C49.7782 62.2377 50.455 62.664 50.9965 63.243C51.5687 63.798 52.0041 64.5238 52.0041 65.1173C52.0041 65.7107 52.7796 66.3297 53.1528 66.1248C53.2374 66.0621 53.3068 65.9802 53.3558 65.8854C53.4047 65.7906 53.4318 65.6855 53.435 65.5782C53.4382 65.4709 53.4174 65.3643 53.3743 65.2666C53.3311 65.1689 53.2666 65.0828 53.1859 65.0148C52.8501 64.6647 52.9164 64.3189 53.1528 63.8322C53.3891 63.3455 53.8619 63.623 54.4673 63.623C55.0727 63.623 55.5786 63.5205 55.7486 63.1961C55.9187 62.8716 55.4128 62.5343 54.6 61.9452C53.9171 61.3439 53.0691 60.9768 52.1741 60.8949C50.9301 60.7242 49.4787 60.3058 48.7696 60.1691C48.0606 60.0325 46.8829 59.1957 46.2816 58.9524H46.265ZM52.7879 46.3324C52.8057 46.3711 52.8156 46.4133 52.8169 46.4562C52.8169 46.7337 53.0491 47.2887 52.4768 47.8095C51.9046 48.3304 51.1623 49.5471 50.5901 49.9442C49.9737 50.4624 49.3067 50.9131 48.5996 51.289C48.0937 51.4641 47.3888 52.0532 47.6583 52.2283C47.9279 52.4033 48.6701 51.6007 49.2756 51.3744C49.9514 51.1871 50.6583 51.1507 51.3489 51.2677C51.9212 51.3744 53.6421 51.8568 54.3139 51.9636C55.2014 52.0243 56.0915 52.0357 56.9802 51.9977C57.2829 51.9977 56.6402 51.0926 56.1509 50.576C55.6616 50.0595 54.6705 50.2985 53.9946 50.0893C53.3186 49.8801 52.68 48.7018 52.7505 48.3816C52.821 48.0614 52.8542 46.8575 53.526 46.3366L53.5965 46.2854C53.3606 46.2622 53.1232 46.2622 52.8874 46.2854H52.792L52.7879 46.3324ZM54.5419 46.2214C54.8977 46.3438 55.2354 46.5162 55.5454 46.7337C55.9145 46.977 55.3754 47.0112 56.0845 47.5875C56.7936 48.1639 57.1627 47.2417 57.8386 46.3751C58.415 45.6365 58.5726 43.9586 58.7716 43.2457C58.6308 43.0895 58.4768 42.9467 58.3113 42.8187C57.8379 42.3936 57.2671 42.0997 56.6526 41.9649C56.1467 41.9265 56.1592 42.5839 55.8233 42.87C55.4795 43.1362 55.1738 43.451 54.9151 43.8049C54.7037 44.1294 54.1646 44.313 54.4092 44.4667C54.6539 44.6204 55.1266 44.2361 55.3837 44.0824C55.6408 43.9288 56.0016 43.5445 56.3292 43.5616C56.4058 43.5572 56.4825 43.5696 56.5541 43.5979C56.6257 43.6263 56.6907 43.6699 56.7448 43.726C56.7989 43.782 56.8408 43.8493 56.8678 43.9232C56.8948 43.9972 56.9062 44.0762 56.9014 44.155C56.9305 44.582 56.4494 44.7826 56.0721 45.1242C55.6399 45.5666 55.1379 45.9304 54.5876 46.2H54.5627L54.5419 46.2214ZM60.2313 44.915C60.0116 45.5579 59.7339 46.1782 59.4019 46.7678C58.8297 47.9163 57.2456 48.5737 57.1751 49.0946C57.1046 49.6155 57.482 49.893 57.8511 50.2046C58.2201 50.5163 59.0329 49.9271 59.572 49.1629C60.2402 48.3189 60.7227 47.3357 60.986 46.2811C61.0258 46.0686 61.0913 45.8621 61.1809 45.6664H61.156C60.7851 45.5048 60.4598 45.2492 60.2106 44.9235L60.2313 44.915ZM62.7608 44.8765C62.8686 45.376 62.5286 46.3708 62.6945 46.8746C62.7346 47.0129 62.7473 47.158 62.7318 47.3015C62.7955 47.2685 62.865 47.2489 62.9362 47.2437C63.0074 47.2386 63.0789 47.2481 63.1465 47.2716C63.4367 47.3826 63.1216 47.8352 63.2501 48.1255C63.3787 48.4158 63.5487 49.0434 63.8887 49.0306C64.2288 49.0177 64.2039 48.6036 64.2288 48.0913C64.2606 47.3903 64.1921 46.6884 64.0256 46.0079C63.9627 45.7905 63.8565 45.5889 63.7137 45.4162C63.5709 45.2434 63.3946 45.1033 63.1962 45.0046C63.067 44.9363 62.9262 44.8943 62.7815 44.8808L62.7608 44.8765ZM61.9937 48.8384C61.9024 48.9494 61.8112 49.0604 61.7158 49.1629C61.0731 49.8588 60.335 50.8706 59.9286 51.2976C59.8581 51.3744 59.7917 51.4598 59.7212 51.5537H59.7586C60.2562 51.4256 60.3889 52.066 60.874 52.1087C61.442 52.1247 62.0069 52.0186 62.5327 51.7971C62.8811 51.622 62.823 51.6263 62.7359 51.1737C62.6488 50.7212 62.1098 49.7862 62.0268 49.1928C62.0106 49.074 62.0023 48.9542 62.002 48.8342L61.9937 48.8384ZM41.6248 47.1905C41.7293 47.1374 41.8304 47.0775 41.9275 47.0112C42.2841 46.7593 42.8978 46.7508 43.072 46.247C43.2462 45.7432 42.79 45.1797 42.8025 44.4795C42.8071 43.669 42.9201 42.8631 43.1383 42.0844C43.3645 41.5316 43.6974 41.0319 44.117 40.6158C44.3326 40.3639 44.4404 40.1291 44.6353 40.0309C44.3651 39.765 44.1395 39.4548 43.9677 39.113C43.2594 39.1797 42.5907 39.4791 42.0602 39.9668C41.4879 40.556 41.4548 42.2936 41.4216 43.092C41.376 44.4008 41.4315 45.7114 41.5875 47.0112L41.6248 47.1905ZM46.8787 41.6959C47.0073 42.0503 46.7585 42.601 46.9451 42.8785C47.1317 43.156 47.4261 43.1176 47.7537 42.981C48.0813 42.8443 48.3301 42.093 48.8153 41.7856C49.0176 41.6658 49.2423 41.5913 49.4745 41.567C49.7067 41.5427 49.9413 41.5692 50.163 41.6447C50.3511 41.6954 50.5274 41.7847 50.6813 41.9072C50.8352 42.0297 50.9636 42.1829 51.0587 42.3577C51.1172 42.4951 51.1328 42.6479 51.103 42.7948C51.0733 42.9417 50.9998 43.0755 50.8928 43.1774C50.6979 43.3439 50.4781 43.0535 50.1505 43.0365C49.7557 42.9638 49.3492 43.0007 48.9728 43.1432C48.4375 43.4048 47.956 43.7701 47.5546 44.2191C47.281 44.5734 47.0073 44.868 47.3183 45.1199C47.6293 45.3718 48.2098 45.3163 48.8028 45.2223C49.508 45.1197 50.1918 44.8976 50.8264 44.5649C51.3199 44.2489 51.3365 43.7622 51.6558 43.4207C51.9751 43.0792 52.6178 43.0535 52.6344 42.5156C52.651 41.9777 52.0663 41.3672 51.7221 40.8847C51.4485 40.5005 50.7601 40.0309 50.4781 39.604C49.3459 40.3964 48.1549 41.0959 46.916 41.6959H46.8787ZM51.6226 38.7074C51.8963 39.1343 51.9627 40.1163 52.2778 40.5774C52.651 41.1281 53.1694 42.0118 53.725 42.1058C54.2807 42.1997 54.1729 41.3971 54.3678 40.9274C54.5627 40.4578 55.023 39.7918 54.8695 39.2923C54.7161 38.7928 54.0402 38.7288 53.6587 38.6007C53.2917 38.5247 52.9163 38.5017 52.5432 38.5324C52.2488 38.5324 51.9295 38.6775 51.7512 38.5324C51.7097 38.6007 51.6641 38.6647 51.6226 38.7202V38.7074ZM52 37.5077C52.1824 37.4181 52.4976 37.67 52.5805 37.3498C52.6853 36.8314 52.6135 36.2917 52.3773 35.8214C52.1119 35.3944 51.3282 35.292 51.1333 34.9888C50.9384 34.6857 51.2079 34.5021 51.436 34.3997C51.5689 34.3393 51.7143 34.3139 51.8591 34.3259C52.0039 34.3378 52.1435 34.3866 52.2654 34.468C52.6888 34.8159 53.0931 35.1879 53.4762 35.5823C53.8909 35.9196 54.2724 36.6411 54.7576 36.5173C55.2427 36.3934 55.0354 35.467 55.2635 35.1297L55.4045 34.9163C54.9483 34.421 54.1812 33.4092 53.7458 33.3238C53.2067 33.2214 51.8258 32.9439 51.0172 33.1146C50.2086 33.2854 49.5326 33.7764 49.7027 34.2246C49.9879 34.7836 50.3767 35.2797 50.8472 35.6847C51.4194 36.2739 51.6226 36.9356 51.9253 37.3925C51.9501 37.4314 51.971 37.4729 51.9875 37.5163L52 37.5077ZM44.6478 20.6953C44.144 20.0307 43.557 19.4378 42.902 18.932C42.197 18.4453 41.0816 17.6811 40.2729 17.5616C39.4643 17.4421 38.1996 17.2841 37.9134 17.6299C37.6273 17.9757 37.7807 18.3599 38.2493 18.8125C38.4622 19.0684 38.6205 19.3674 38.7141 19.6903C38.8077 20.0131 38.8344 20.3526 38.7925 20.6867C38.722 21.2076 39.228 21.6558 39.7007 22.0401C39.8947 22.185 40.1049 22.3054 40.3268 22.3987H40.3766C40.6407 22.3424 40.896 22.249 41.1355 22.1212C41.1303 22.1106 41.1277 22.0989 41.1277 22.087C41.1277 22.0752 41.1303 22.0635 41.1355 22.0529C41.6304 21.6196 42.2021 21.2891 42.819 21.0795C43.4123 20.9012 44.0182 20.7713 44.6312 20.691L44.6478 20.6953ZM42.7486 23.6112C42.7071 23.9143 42.5993 24.3455 42.5993 24.3455C43.4316 24.6524 44.2155 25.084 44.9256 25.6263C45.755 26.2539 46.1696 27.2572 46.746 27.3639C46.9368 27.398 47.1607 27.4621 47.4427 27.5389C47.4182 27.5034 47.4008 27.4632 47.3916 27.4207C47.3823 27.3782 47.3814 27.3342 47.3888 27.2913C47.4883 26.9455 47.7578 25.733 47.8242 25.2463C47.8905 24.7596 47.3888 23.9954 47.1192 23.9954C46.8497 23.9954 46.8497 24.1705 46.2899 24.5504C45.7301 24.9304 44.9422 24.7255 44.54 24.5504C44.1377 24.3754 43.8474 23.6197 43.4659 23.513C43.2187 23.4661 42.9634 23.5004 42.7361 23.6112H42.7486ZM48.214 27.7652C48.4416 27.8317 48.6729 27.8845 48.9065 27.9232C48.99 27.9334 49.0721 27.9534 49.1511 27.9829C49.2756 27.6243 49.1843 26.5186 49.2424 25.9764C49.3087 25.3531 49.2756 25.0072 49.8478 24.5888C50.4201 24.1705 50.7601 24.4522 50.9591 24.1021C51.0068 24.0149 51.0308 23.9161 51.0287 23.816C51.0266 23.716 50.9984 23.6183 50.9471 23.5333C50.8959 23.4482 50.8234 23.3789 50.7373 23.3325C50.6511 23.2862 50.5545 23.2644 50.4574 23.2696C49.9846 23.2696 49.7815 23.8246 49.3419 23.8246C48.9023 23.8246 48.9272 23.8246 48.6701 24.5547C48.413 25.2847 48.2969 27.3682 48.2306 27.6798V27.7652H48.214ZM49.8727 28.6191L49.91 28.6831C50.1298 28.6831 50.4657 28.7343 50.9094 28.7343C51.734 28.7427 52.5487 28.9197 53.3062 29.2552C54.2475 29.6352 54.3512 29.8102 54.7866 29.981C55.222 30.1517 55.2013 29.8444 55.2013 29.1271C55.2259 28.5358 55.1487 27.9446 54.9732 27.381C54.8364 27.1035 54.5005 26.826 54.4341 27.2742C54.4143 27.4964 54.3384 27.7094 54.2141 27.8921C54.0897 28.0748 53.9211 28.2209 53.725 28.3159C53.4871 28.3446 53.2459 28.3189 53.0187 28.2407C52.7915 28.1625 52.5838 28.0337 52.4105 27.8634C52.0785 27.6137 51.7739 27.3274 51.5024 27.0095C51.3323 26.7662 51.7719 26.2112 52.2405 26.2838C52.7091 26.3563 53.1196 26.9071 53.2855 26.5271C53.3861 26.3252 53.4302 26.0984 53.4126 25.8721C53.395 25.6459 53.3165 25.4292 53.1859 25.2463C52.8832 24.9347 52.4105 24.3925 51.9419 24.3925C51.4733 24.3925 50.4947 25.1182 50.2583 25.4299C50.022 25.7416 50.1547 26.8217 50.1547 27.5645C50.1596 27.9269 50.0693 28.2839 49.8934 28.5977L49.8727 28.6191ZM44.6561 38.8654C44.88 38.8654 45.1329 38.9209 45.3776 38.9465C45.0856 38.4712 44.7599 38.0189 44.4031 37.5931C43.7448 37.0833 42.9862 36.7277 42.1804 36.5514C41.5267 36.4527 40.8635 36.4398 40.2066 36.513C40.2427 36.5803 40.2706 36.652 40.2895 36.7265C40.3932 37.1064 41.3013 37.0723 42.3629 37.3156C43.2241 37.5413 44.0258 37.9613 44.71 38.5452C44.7805 38.6135 44.7431 38.7288 44.6602 38.844L44.6561 38.8654ZM46.5387 38.9209C47.1946 38.8183 47.844 38.6757 48.4835 38.4939C49.0558 38.3232 50.1008 37.7639 50.3703 37.3839C50.6398 37.004 50.5403 36.8631 50.1671 36.3764C49.7939 35.8897 48.2306 34.9675 48.0606 34.6388C48.039 34.5938 48.0223 34.5466 48.0108 34.4979C47.8366 34.5875 47.679 34.6003 47.6583 34.848C47.6251 35.2279 48.2969 35.5737 48.8028 36.0263C49.3087 36.4788 49.8146 36.8246 49.3087 36.9271C48.8028 37.0296 48.0274 36.4063 47.6915 36.2013C47.1355 36.0237 46.5357 36.0601 46.0038 36.3038C45.7342 36.513 45.0956 36.8246 45.3652 37.3113C45.6347 37.798 46.2194 38.4214 46.5553 38.9166L46.5387 38.9209ZM47.9859 33.2598C47.9859 33.1659 47.9859 33.0762 47.9859 32.9908C47.9859 32.47 47.9527 30.7665 47.5712 30.109C47.1897 29.4516 46.3687 28.0256 45.7342 27.6798C45.0998 27.334 43.1052 25.9721 42.7361 25.6989C42.3671 25.4256 41.658 24.8194 41.3179 25.0755C40.9779 25.3317 41.5875 27.1248 41.9607 27.6115C42.3339 28.0982 42.3297 29.4473 41.857 29.8315C41.4423 30.1645 40.3849 30.4719 39.879 30.2884C39.8304 30.5069 39.8507 30.7357 39.937 30.9416C40.1402 31.1508 41.658 31.0099 42.2966 30.9757C42.9352 30.9416 43.5779 29.7974 43.9801 29.2424C44.3824 28.6874 43.8806 27.9915 44.3948 27.889C44.909 27.7865 45.2242 28.5806 46.0535 29.5199C46.8829 30.4591 46.829 31.4283 46.9326 32.0516C47.0363 32.6749 47.5754 33.0164 48.0025 33.2598H47.9859ZM40.1485 28.8667C40.397 28.8027 40.6491 28.7543 40.9032 28.7215C41.3179 28.6532 40.7332 28.2007 40.4637 27.6798C40.1941 27.159 38.5562 26.1002 38.4193 25.6732C38.2825 25.2463 37.9798 24.4907 38.1913 23.9655L38.0752 23.8972C37.7351 23.7222 37.3329 23.133 36.8933 22.8897C36.4538 22.6463 36.2216 22.7146 36.0184 23.2013C35.8152 23.688 36.2216 24.6956 36.5243 25.1439C37.1289 25.8315 37.8624 26.3863 38.6806 26.7747C39.2197 26.9498 39.8292 26.9156 39.9246 27.2614C40.0716 27.7831 40.147 28.3235 40.1485 28.8667ZM38.5147 23.513C38.6707 23.3589 38.837 23.2162 39.0123 23.0861C38.5396 22.6933 37.8098 21.5747 37.4407 21.9504C37.0716 22.3261 38.0834 23.0647 38.5147 23.513ZM37.2458 27.0608C36.9182 27.0992 36.7109 27.4023 36.6487 27.8506C36.5865 28.2989 37.2458 28.3714 37.7102 28.6618H37.7476C37.6936 28.1189 37.5327 27.593 37.2748 27.1163L37.2458 27.0608ZM37.8595 30.9031C37.5361 30.6982 37.1546 30.4463 36.9887 30.647C36.7523 30.9245 36.885 32.6578 36.8519 33.2854C36.8187 33.913 36.516 34.4296 36.8187 34.9504C36.9404 35.1534 37.1287 35.3049 37.3495 35.3774C37.3709 35.3108 37.4079 35.2507 37.4573 35.2023C37.7559 34.8949 37.7932 32.026 37.872 30.933L37.8595 30.9031ZM38.0047 35.7531C38.1125 35.9665 38.0047 36.0306 37.7973 36.4063C37.5104 36.8349 37.1124 37.1722 36.6487 37.3797C36.4828 37.3797 36.516 36.9997 35.9396 37.068C35.3632 37.1363 35.301 37.068 35.471 37.8322C35.641 38.5964 35.7405 38.4897 36.1759 38.2805C36.6113 38.0713 36.7523 37.4821 37.2914 37.2046C37.7751 37.0208 38.2039 36.7103 38.5354 36.3038C38.6301 36.1373 38.7767 36.0086 38.9514 35.9389C39.1261 35.8691 39.3186 35.8623 39.4975 35.9196C40.2024 35.6933 42.3048 35.8982 42.8149 36.1031C43.325 36.3081 44.3326 35.6549 44.1626 35.2023C43.9926 34.7498 43.1383 34.6388 42.4997 34.6388C41.8611 34.6388 41.3926 34.0325 41.7243 33.358C42.056 32.6834 45.5393 31.5649 45.2988 31.1166C45.0583 30.6683 42.7029 32.0174 42.027 32.2608C41.3511 32.5041 40.1071 33.7166 39.4311 34.2716C38.9584 34.6644 38.3696 35.3774 37.9881 35.736L38.0047 35.7531ZM30.1258 25.7287L30.2958 25.8227C30.7312 26.0319 31.1459 25.6647 31.8882 25.5964C32.3677 25.5636 32.849 25.5721 33.3271 25.622C33.2236 25.0229 33.1681 24.416 33.1612 23.8076C33.1612 23.0092 33.0949 22.5951 32.419 22.7317C31.7431 22.8683 31.5896 23.6368 30.9013 24.3626C30.2129 25.0884 30.3539 25.5366 30.1258 25.7287ZM33.8994 27.2102C33.9507 27.2738 34.0076 27.3324 34.0694 27.3852C34.8117 27.9744 35.8898 28.0769 35.9935 28.4611C36.0971 28.8453 34.6085 29.2595 34.6085 30.1688C34.6085 31.0782 34.5089 32.7048 34.5753 33.3964C34.5581 33.7586 34.4102 34.1011 34.1606 34.357C33.5801 34.404 33.153 34.2417 33.1073 33.8489C33.0493 33.3366 33.3769 33.8148 33.3437 31.9747C33.3105 30.1347 32.5143 29.1613 30.8142 29.2338C29.114 29.3064 27.7456 31.2105 26.8333 32.6493C25.921 34.088 24.9465 36.6069 24.4406 37.9603C24.0519 39.2461 23.7662 40.5626 23.5864 41.8966C23.9759 41.4563 24.3256 40.9804 24.6314 40.4749C25.0004 39.9191 25.446 39.4215 25.9542 38.9977C26.1822 39.0276 26.4601 39.1045 26.5513 39.2923C26.7213 39.6424 26.1159 40.1248 25.722 40.4407C25.328 40.7567 25.1497 42.1485 25.5188 42.1485C25.8878 42.1485 26.6342 41.1751 27.1401 40.7609C27.9182 40.2339 28.8009 39.8926 29.7236 39.7619C30.4053 39.6867 31.092 39.8458 31.6767 40.2145C32.249 40.5603 33.5635 41.4611 33.7501 41.2562C33.9367 41.0512 33.4805 40.0394 32.8088 39.2752C32.137 38.511 30.6151 38.3744 29.8729 38.3061C29.1306 38.2378 27.5134 38.511 27.277 38.3061C27.1319 38.1737 27.2563 37.7767 27.3765 37.4949C27.5258 37.5419 27.7373 37.4693 28.3386 37.0381C29.0335 36.4827 29.7978 36.026 30.611 35.6805C31.486 35.3304 32.2282 35.0017 33.0368 35.2792C33.3313 35.3816 33.5801 35.4585 33.7791 35.5182C33.7806 36.7084 33.9625 37.8909 34.3182 39.0233C34.6209 39.9626 35.2968 41.6959 35.33 42.1143C35.3632 42.5327 35.5664 42.4601 35.7032 42.2893C35.84 42.1186 35.6327 40.936 36.2091 40.4493C36.7855 39.9626 37.0841 39.0959 37.7227 39.0959C38.3613 39.0959 38.2286 40.1333 38.7013 40.8292C39.174 41.5251 40.049 42.1826 40.1859 42.5668C40.3102 43.8084 40.2303 45.0627 39.9495 46.2769C39.6468 47.182 39.85 47.9846 39.3772 48.0486L38.9626 48.1297C38.6242 47.8252 38.2591 47.5536 37.872 47.3186C37.3744 47.0197 36.8311 45.4486 36.1967 44.8253C35.5622 44.202 34.2394 43.2286 33.4971 42.6907C32.7549 42.1527 30.499 40.9189 29.454 40.9573C28.4091 40.9957 27.6336 42.204 27.1941 42.5156C26.7545 42.8273 26.1159 43.0365 25.7759 42.8657C25.4358 42.6949 25.4068 42.0673 25.3073 42.3448C25.2603 42.7865 25.3426 43.2325 25.5436 43.6256C25.7095 44.0099 26.2818 44.7741 26.2154 45.1199C26.1491 45.4657 26.0122 45.5724 25.44 45.3974C24.8677 45.2223 24.6645 44.6673 24.0923 43.9074C23.52 43.1475 24.0591 41.8966 23.7896 41.8966C23.52 41.8966 23.6195 42.4857 23.1136 42.4857C22.7985 42.4857 22.6285 41.6788 22.5414 41.0683C22.6202 40.6414 22.6948 40.3084 22.7446 40.0907C22.9105 39.3649 23.9886 36.8631 24.1918 35.7872C24.395 34.7113 24.0923 33.4989 24.4945 32.6664C24.8968 31.8338 25.8795 29.9425 26.8789 29.0887C27.8783 28.2348 29.2716 27.381 30.2834 27.3554C31.2952 27.3297 32.307 27.1462 33.4515 27.2145C33.5906 27.2246 33.7304 27.2131 33.8662 27.1803L33.8994 27.2102ZM37.4075 48.5097C37.1338 47.9931 36.5533 46.8575 36.0267 46.4049C35.4171 45.8841 32.5517 42.5882 32.249 42.9895C31.9462 43.3908 33.5635 44.2404 33.493 45.8713C33.4225 47.5021 32.8544 47.579 33.2566 48.403C33.444 48.7738 33.6753 49.1194 33.945 49.4319C34.0509 49.3951 34.1589 49.3652 34.2684 49.3422C34.9444 49.2013 36.1925 48.578 36.8975 48.578C37.067 48.5755 37.2361 48.5598 37.4034 48.531L37.4075 48.5097ZM33.0244 49.8033C32.9528 49.358 32.7794 48.9365 32.5185 48.5737C32.4729 48.5082 32.4367 48.4363 32.4107 48.3603C32.0173 48.5681 31.599 48.7217 31.1667 48.8171C30.3954 48.9708 28.6537 49.1245 27.8492 48.8939C27.7705 49.1373 27.7041 49.3209 27.6751 49.4063C27.5756 49.6624 27.5507 49.9314 27.476 50.1021C27.94 50.3345 28.4247 50.5203 28.9233 50.6572C30.007 50.7239 31.0931 50.5791 32.1246 50.2302C32.4107 50.115 32.7175 49.9527 33.0327 49.8033H33.0244ZM26.3274 49.5429C26.3523 49.0434 26.6799 48.0828 26.5181 47.6729C26.0787 46.9361 25.4323 46.354 24.6645 46.0036C24.5289 45.9532 24.384 45.9347 24.2405 45.9495C24.0969 45.9643 23.9585 46.012 23.8352 46.089C23.8806 46.118 23.9155 46.1615 23.9347 46.2128C24.1379 46.6995 25.1787 48.9196 25.6224 49.1629C25.7468 49.2355 26.0122 49.3721 26.3398 49.5429H26.3274ZM21.8572 46.1274C21.9102 46.0905 21.9717 46.0685 22.0355 46.0634C22.4045 45.9908 22.4045 45.6792 22.4045 45.265C22.4045 44.8509 22.4377 44.1508 22.2055 43.9458C22.1382 43.8821 22.0783 43.8104 22.0272 43.7324C21.9003 44.4365 21.835 45.1509 21.8323 45.867C21.8333 45.9586 21.8416 46.05 21.8572 46.1402V46.1274ZM27.1941 36.6923C27.2973 36.3459 27.5105 36.0452 27.7995 35.8384C28.3386 35.5268 28.915 34.7967 29.6531 34.1307C30.3912 33.4647 31.9131 32.154 31.1376 31.5691C30.3622 30.9843 29.2177 31.9961 28.5418 32.82C27.8658 33.644 28.069 35.3176 27.6668 35.6677C27.4408 35.9573 27.2654 36.2853 27.1484 36.6368L27.1941 36.6923Z" fill="#252F80"/>
</g>
<defs>
<clipPath id="clip0_557_1547">
<rect width="46" height="52" fill="white" transform="translate(19 15)"/>
</clipPath>
</defs>
</svg>
